<svg width="2000" height="2000" viewBox="0 0 2000 2000" fill="none" xmlns="http://www.w3.org/2000/svg">
<g clip-path="url(#clip0_2058_1353)">
<rect width="2000" height="2000" fill="white"/>
<path d="M980.745 272.666C979.912 269.436 978.228 266.489 975.87 264.13C973.511 261.771 970.563 260.088 967.333 259.254L910.073 244.489C909.096 244.212 908.236 243.623 907.624 242.813C907.012 242.003 906.681 241.015 906.681 240C906.681 238.984 907.012 237.996 907.624 237.186C908.236 236.376 909.096 235.788 910.073 235.51L967.333 220.736C970.562 219.903 973.509 218.221 975.868 215.864C978.226 213.507 979.91 210.561 980.745 207.333L995.51 150.073C995.785 149.092 996.373 148.228 997.184 147.613C997.995 146.997 998.986 146.664 1000 146.664C1001.02 146.664 1002.01 146.997 1002.82 147.613C1003.64 148.228 1004.22 149.092 1004.5 150.073L1019.25 207.333C1020.09 210.563 1021.77 213.511 1024.13 215.869C1026.49 218.228 1029.44 219.912 1032.67 220.745L1089.93 235.501C1090.91 235.773 1091.78 236.36 1092.4 237.172C1093.02 237.985 1093.35 238.978 1093.35 240C1093.35 241.021 1093.02 242.014 1092.4 242.827C1091.78 243.64 1090.91 244.227 1089.93 244.498L1032.67 259.254C1029.44 260.088 1026.49 261.771 1024.13 264.13C1021.77 266.489 1020.09 269.436 1019.25 272.666L1004.49 329.926C1004.21 330.907 1003.63 331.771 1002.82 332.387C1002 333.002 1001.01 333.335 999.995 333.335C998.977 333.335 997.986 333.002 997.175 332.387C996.363 331.771 995.776 330.907 995.501 329.926L980.745 272.666Z" stroke="black" stroke-width="11.6667" stroke-linecap="round" stroke-linejoin="round"/>
<path d="M1074.67 156V193.333" stroke="black" stroke-width="11.6667" stroke-linecap="round" stroke-linejoin="round"/>
<path d="M1093.33 174.667H1056" stroke="black" stroke-width="11.6667" stroke-linecap="round" stroke-linejoin="round"/>
<path d="M925.333 286.667V305.334" stroke="black" stroke-width="11.6667" stroke-linecap="round" stroke-linejoin="round"/>
<path d="M934.667 296H916" stroke="black" stroke-width="11.6667" stroke-linecap="round" stroke-linejoin="round"/>
<path d="M580.043 684.25V567.886H626.634C635.195 567.886 642.335 569.155 648.055 571.693C653.774 574.231 658.074 577.754 660.952 582.261C663.831 586.731 665.271 591.883 665.271 597.716C665.271 602.261 664.362 606.258 662.543 609.705C660.725 613.114 658.225 615.917 655.043 618.114C651.899 620.273 648.301 621.807 644.248 622.716V623.852C648.68 624.042 652.827 625.292 656.691 627.602C660.593 629.913 663.755 633.152 666.18 637.318C668.604 641.447 669.816 646.371 669.816 652.091C669.816 658.265 668.282 663.777 665.214 668.625C662.183 673.436 657.695 677.242 651.748 680.045C645.801 682.848 638.471 684.25 629.759 684.25H580.043ZM604.646 664.136H624.702C631.558 664.136 636.558 662.83 639.702 660.216C642.846 657.564 644.418 654.042 644.418 649.648C644.418 646.428 643.642 643.587 642.089 641.125C640.536 638.663 638.32 636.731 635.441 635.33C632.6 633.928 629.21 633.227 625.271 633.227H604.646V664.136ZM604.646 616.58H622.884C626.255 616.58 629.248 615.992 631.862 614.818C634.513 613.606 636.596 611.902 638.112 609.705C639.665 607.508 640.441 604.875 640.441 601.807C640.441 597.602 638.945 594.212 635.952 591.636C632.998 589.061 628.793 587.773 623.339 587.773H604.646V616.58ZM681.825 684.25V567.886H760.234V588.17H706.427V615.898H756.2V636.182H706.427V663.966H760.461V684.25H681.825ZM795.85 684.25H769.487L809.657 567.886H841.362L881.475 684.25H855.112L825.964 594.477H825.055L795.85 684.25ZM794.202 638.511H856.475V657.716H794.202V638.511ZM963.356 567.886H987.958V643.455C987.958 651.939 985.932 659.364 981.879 665.727C977.863 672.091 972.238 677.053 965.004 680.614C957.769 684.136 949.341 685.898 939.719 685.898C930.06 685.898 921.613 684.136 914.379 680.614C907.144 677.053 901.519 672.091 897.504 665.727C893.488 659.364 891.481 651.939 891.481 643.455V567.886H916.083V641.352C916.083 645.784 917.049 649.723 918.981 653.17C920.951 656.617 923.716 659.326 927.276 661.295C930.837 663.265 934.985 664.25 939.719 664.25C944.492 664.25 948.64 663.265 952.163 661.295C955.723 659.326 958.469 656.617 960.401 653.17C962.371 649.723 963.356 645.784 963.356 641.352V567.886ZM999.768 588.17V567.886H1095.34V588.17H1059.71V684.25H1035.39V588.17H999.768ZM1131.68 567.886V684.25H1107.07V567.886H1131.68ZM1147.92 684.25V567.886H1224.96V588.17H1172.52V615.898H1219.85V636.182H1172.52V684.25H1147.92ZM1309.39 567.886H1333.99V643.455C1333.99 651.939 1331.96 659.364 1327.91 665.727C1323.89 672.091 1318.27 677.053 1311.03 680.614C1303.8 684.136 1295.37 685.898 1285.75 685.898C1276.09 685.898 1267.64 684.136 1260.41 680.614C1253.17 677.053 1247.55 672.091 1243.53 665.727C1239.52 659.364 1237.51 651.939 1237.51 643.455V567.886H1262.11V641.352C1262.11 645.784 1263.08 649.723 1265.01 653.17C1266.98 656.617 1269.75 659.326 1273.31 661.295C1276.87 663.265 1281.02 664.25 1285.75 664.25C1290.52 664.25 1294.67 663.265 1298.19 661.295C1301.75 659.326 1304.5 656.617 1306.43 653.17C1308.4 649.723 1309.39 645.784 1309.39 641.352V567.886ZM1350.23 684.25V567.886H1374.83V663.966H1424.72V684.25H1350.23ZM593.177 845.955C585.147 845.955 578.215 844.515 572.381 841.636C566.548 838.758 562.059 834.856 558.915 829.932C555.809 824.97 554.256 819.439 554.256 813.341C554.256 808.795 555.165 804.761 556.984 801.239C558.802 797.716 561.34 794.477 564.597 791.523C567.855 788.53 571.643 785.557 575.961 782.602L598.518 767.773C601.434 765.917 603.575 763.966 604.938 761.92C606.302 759.837 606.984 757.583 606.984 755.159C606.984 752.848 606.056 750.708 604.2 748.739C602.344 746.769 599.711 745.803 596.302 745.841C594.029 745.841 592.059 746.352 590.393 747.375C588.726 748.36 587.419 749.667 586.472 751.295C585.563 752.886 585.109 754.667 585.109 756.636C585.109 759.061 585.79 761.523 587.154 764.023C588.518 766.523 590.336 769.174 592.609 771.977C594.881 774.742 597.362 777.735 600.052 780.955L655.222 844.25H629.995L583.972 793C580.942 789.553 577.912 785.955 574.881 782.205C571.889 778.417 569.389 774.402 567.381 770.159C565.374 765.879 564.37 761.239 564.37 756.239C564.37 750.595 565.677 745.519 568.29 741.011C570.942 736.504 574.654 732.943 579.427 730.33C584.2 727.678 589.768 726.352 596.131 726.352C602.344 726.352 607.703 727.621 612.211 730.159C616.756 732.659 620.241 735.992 622.665 740.159C625.128 744.288 626.359 748.833 626.359 753.795C626.359 759.288 624.995 764.269 622.268 768.739C619.578 773.17 615.79 777.148 610.904 780.67L587.154 797.773C583.934 800.121 581.548 802.527 579.995 804.989C578.48 807.413 577.722 809.742 577.722 811.977C577.722 814.742 578.404 817.223 579.768 819.42C581.131 821.617 583.063 823.36 585.563 824.648C588.063 825.898 590.999 826.523 594.37 826.523C598.461 826.523 602.495 825.595 606.472 823.739C610.487 821.845 614.124 819.174 617.381 815.727C620.677 812.242 623.309 808.114 625.279 803.341C627.249 798.568 628.234 793.284 628.234 787.489H648.29C648.29 794.61 647.514 801.03 645.961 806.75C644.408 812.432 642.249 817.394 639.484 821.636C636.719 825.841 633.556 829.288 629.995 831.977C628.859 832.697 627.76 833.379 626.7 834.023C625.639 834.667 624.54 835.348 623.404 836.068C619.086 839.553 614.256 842.072 608.915 843.625C603.612 845.178 598.366 845.955 593.177 845.955ZM719.396 727.886V844.25H694.793V727.886H719.396ZM832.967 727.886V844.25H811.717L761.092 771.011H760.239V844.25H735.637V727.886H757.228L807.455 801.068H808.478V727.886H832.967ZM844.862 748.17V727.886H940.43V748.17H904.805V844.25H880.487V748.17H844.862ZM1024.04 727.886H1048.65V803.455C1048.65 811.939 1046.62 819.364 1042.57 825.727C1038.55 832.091 1032.93 837.053 1025.69 840.614C1018.46 844.136 1010.03 845.898 1000.41 845.898C990.748 845.898 982.301 844.136 975.066 840.614C967.831 837.053 962.206 832.091 958.191 825.727C954.176 819.364 952.168 811.939 952.168 803.455V727.886H976.771V801.352C976.771 805.784 977.737 809.723 979.668 813.17C981.638 816.617 984.403 819.326 987.964 821.295C991.524 823.265 995.672 824.25 1000.41 824.25C1005.18 824.25 1009.33 823.265 1012.85 821.295C1016.41 819.326 1019.16 816.617 1021.09 813.17C1023.06 809.723 1024.04 805.784 1024.04 801.352V727.886ZM1089.49 727.886V844.25H1064.89V727.886H1089.49ZM1101.3 748.17V727.886H1196.87V748.17H1161.24V844.25H1136.92V748.17H1101.3ZM1233.21 727.886V844.25H1208.61V727.886H1233.21ZM1270.47 727.886L1298.6 816.295H1299.68L1327.86 727.886H1355.13L1315.02 844.25H1283.31L1243.14 727.886H1270.47ZM1365.14 844.25V727.886H1443.55V748.17H1389.74V775.898H1439.51V796.182H1389.74V823.966H1443.77V844.25H1365.14Z" fill="black"/>
<path d="M632.625 1070.59V1105.5H629.522L608.897 1076.27H608.625V1105.5H605.437V1070.59H608.522L629.216 1099.86H629.488V1070.59H632.625ZM651.803 1106.05C649.542 1106.05 647.542 1105.47 645.803 1104.32C644.076 1103.18 642.723 1101.59 641.746 1099.57C640.769 1097.53 640.28 1095.19 640.28 1092.53C640.28 1089.85 640.769 1087.49 641.746 1085.45C642.723 1083.41 644.076 1081.82 645.803 1080.68C647.542 1079.53 649.542 1078.96 651.803 1078.96C654.064 1078.96 656.059 1079.53 657.786 1080.68C659.513 1081.83 660.865 1083.42 661.843 1085.45C662.831 1087.49 663.326 1089.85 663.326 1092.53C663.326 1095.19 662.837 1097.53 661.86 1099.57C660.882 1101.59 659.525 1103.18 657.786 1104.32C656.059 1105.47 654.064 1106.05 651.803 1106.05ZM651.803 1103.27C653.621 1103.27 655.161 1102.78 656.422 1101.8C657.684 1100.82 658.638 1099.52 659.286 1097.9C659.945 1096.27 660.275 1094.48 660.275 1092.53C660.275 1090.57 659.945 1088.78 659.286 1087.14C658.638 1085.51 657.684 1084.19 656.422 1083.2C655.161 1082.22 653.621 1081.72 651.803 1081.72C649.996 1081.72 648.456 1082.22 647.184 1083.2C645.922 1084.19 644.962 1085.51 644.303 1087.14C643.655 1088.78 643.331 1090.57 643.331 1092.53C643.331 1094.48 643.655 1096.27 644.303 1097.9C644.962 1099.52 645.922 1100.82 647.184 1101.8C648.445 1102.78 649.985 1103.27 651.803 1103.27ZM680.65 1079.32V1081.96H668.156V1079.32H680.65ZM672.059 1073.05H675.11V1098.66C675.11 1099.76 675.298 1100.61 675.673 1101.24C676.048 1101.85 676.537 1102.29 677.139 1102.55C677.741 1102.8 678.383 1102.93 679.065 1102.93C679.463 1102.93 679.804 1102.9 680.088 1102.86C680.372 1102.8 680.622 1102.74 680.838 1102.69L681.485 1105.43C681.19 1105.55 680.826 1105.65 680.395 1105.74C679.963 1105.84 679.429 1105.89 678.792 1105.89C677.679 1105.89 676.605 1105.65 675.571 1105.16C674.548 1104.67 673.707 1103.94 673.048 1102.98C672.389 1102.01 672.059 1100.81 672.059 1099.38V1073.05ZM698.196 1106.05C695.753 1106.05 693.64 1105.48 691.855 1104.34C690.071 1103.19 688.691 1101.61 687.713 1099.59C686.748 1097.55 686.265 1095.21 686.265 1092.56C686.265 1089.93 686.748 1087.59 687.713 1085.54C688.691 1083.48 690.037 1081.87 691.753 1080.72C693.48 1079.55 695.475 1078.96 697.736 1078.96C699.157 1078.96 700.526 1079.22 701.844 1079.74C703.162 1080.26 704.344 1081.05 705.39 1082.11C706.446 1083.17 707.282 1084.51 707.895 1086.12C708.509 1087.72 708.816 1089.62 708.816 1091.81V1093.31H688.361V1090.64H705.713C705.713 1088.95 705.373 1087.44 704.691 1086.1C704.02 1084.75 703.083 1083.68 701.878 1082.9C700.685 1082.11 699.304 1081.72 697.736 1081.72C696.077 1081.72 694.617 1082.16 693.355 1083.05C692.094 1083.94 691.105 1085.11 690.39 1086.56C689.685 1088.02 689.327 1089.61 689.316 1091.34V1092.94C689.316 1095.02 689.674 1096.84 690.39 1098.39C691.117 1099.94 692.145 1101.14 693.475 1101.99C694.804 1102.84 696.378 1103.27 698.196 1103.27C699.435 1103.27 700.52 1103.07 701.452 1102.69C702.395 1102.3 703.185 1101.78 703.821 1101.14C704.469 1100.48 704.958 1099.76 705.287 1098.97L708.168 1099.91C707.77 1101.01 707.117 1102.03 706.208 1102.96C705.31 1103.89 704.185 1104.64 702.833 1105.21C701.492 1105.77 699.946 1106.05 698.196 1106.05ZM729.984 1089.1V1091.97H715.461V1089.1H729.984ZM748.267 1079.32V1081.96H735.773V1079.32H748.267ZM739.676 1073.05H742.728V1098.66C742.728 1099.76 742.915 1100.61 743.29 1101.24C743.665 1101.85 744.154 1102.29 744.756 1102.55C745.358 1102.8 746 1102.93 746.682 1102.93C747.08 1102.93 747.421 1102.9 747.705 1102.86C747.989 1102.8 748.239 1102.74 748.455 1102.69L749.103 1105.43C748.807 1105.55 748.444 1105.65 748.012 1105.74C747.58 1105.84 747.046 1105.89 746.409 1105.89C745.296 1105.89 744.222 1105.65 743.188 1105.16C742.165 1104.67 741.324 1103.94 740.665 1102.98C740.006 1102.01 739.676 1100.81 739.676 1099.38V1073.05ZM762.822 1106.1C761.243 1106.1 759.799 1105.79 758.493 1105.18C757.186 1104.55 756.146 1103.65 755.373 1102.48C754.6 1101.3 754.214 1099.87 754.214 1098.19C754.214 1096.89 754.458 1095.8 754.947 1094.91C755.436 1094.03 756.129 1093.3 757.027 1092.73C757.924 1092.16 758.987 1091.72 760.214 1091.39C761.441 1091.06 762.794 1090.8 764.271 1090.62C765.737 1090.44 766.975 1090.28 767.987 1090.14C769.01 1090.01 769.788 1089.79 770.322 1089.49C770.856 1089.2 771.123 1088.72 771.123 1088.06V1087.45C771.123 1085.66 770.589 1084.26 769.521 1083.24C768.464 1082.2 766.941 1081.69 764.953 1081.69C763.066 1081.69 761.527 1082.1 760.333 1082.93C759.152 1083.76 758.322 1084.74 757.845 1085.86L754.964 1084.82C755.555 1083.39 756.373 1082.25 757.419 1081.4C758.464 1080.53 759.635 1079.91 760.93 1079.54C762.225 1079.15 763.538 1078.96 764.868 1078.96C765.868 1078.96 766.907 1079.09 767.987 1079.35C769.078 1079.61 770.089 1080.07 771.021 1080.72C771.953 1081.35 772.708 1082.24 773.288 1083.39C773.868 1084.53 774.157 1085.97 774.157 1087.72V1105.5H771.123V1101.36H770.936C770.572 1102.13 770.032 1102.88 769.316 1103.61C768.6 1104.34 767.703 1104.93 766.623 1105.4C765.544 1105.86 764.277 1106.1 762.822 1106.1ZM763.231 1103.32C764.845 1103.32 766.243 1102.96 767.424 1102.24C768.606 1101.53 769.515 1100.58 770.152 1099.4C770.799 1098.2 771.123 1096.89 771.123 1095.46V1091.68C770.896 1091.89 770.515 1092.09 769.981 1092.26C769.458 1092.43 768.85 1092.58 768.157 1092.72C767.475 1092.84 766.794 1092.95 766.112 1093.04C765.43 1093.13 764.816 1093.21 764.271 1093.28C762.794 1093.46 761.532 1093.74 760.487 1094.13C759.441 1094.52 758.64 1095.05 758.083 1095.73C757.527 1096.4 757.248 1097.27 757.248 1098.32C757.248 1099.91 757.816 1101.15 758.953 1102.02C760.089 1102.89 761.515 1103.32 763.231 1103.32ZM785.341 1095.61L785.307 1091.64H785.989L798.262 1079.32H802.097L789.978 1091.45L789.705 1091.51L785.341 1095.61ZM782.58 1105.5V1070.59H785.614V1105.5H782.58ZM798.892 1105.5L788.256 1092.05L790.438 1089.95L802.779 1105.5H798.892ZM808.184 1105.5V1079.32H811.235V1105.5H808.184ZM809.735 1074.82C809.11 1074.82 808.576 1074.61 808.133 1074.19C807.69 1073.76 807.468 1073.24 807.468 1072.64C807.468 1072.03 807.69 1071.52 808.133 1071.1C808.576 1070.67 809.11 1070.45 809.735 1070.45C810.36 1070.45 810.895 1070.67 811.338 1071.1C811.781 1071.52 812.002 1072.03 812.002 1072.64C812.002 1073.24 811.781 1073.76 811.338 1074.19C810.895 1074.61 810.36 1074.82 809.735 1074.82ZM822.645 1089.14V1105.5H819.611V1079.32H822.56V1083.43H822.833C823.446 1082.09 824.401 1081.01 825.696 1080.2C827.003 1079.39 828.617 1078.98 830.537 1078.98C832.299 1078.98 833.844 1079.35 835.174 1080.09C836.515 1080.81 837.554 1081.89 838.293 1083.31C839.043 1084.73 839.418 1086.47 839.418 1088.54V1105.5H836.384V1088.73C836.384 1086.58 835.782 1084.88 834.577 1083.63C833.384 1082.38 831.782 1081.76 829.77 1081.76C828.395 1081.76 827.174 1082.05 826.105 1082.64C825.037 1083.23 824.191 1084.09 823.566 1085.2C822.952 1086.3 822.645 1087.61 822.645 1089.14ZM857.748 1115.86C855.964 1115.86 854.402 1115.63 853.061 1115.16C851.72 1114.71 850.589 1114.09 849.669 1113.29C848.748 1112.49 848.032 1111.6 847.521 1110.61L850.01 1108.98C850.385 1109.64 850.885 1110.28 851.51 1110.92C852.146 1111.56 852.97 1112.09 853.981 1112.51C855.004 1112.93 856.26 1113.14 857.748 1113.14C860.066 1113.14 861.936 1112.56 863.356 1111.4C864.788 1110.24 865.504 1108.44 865.504 1105.99V1100.1H865.231C864.879 1100.89 864.373 1101.69 863.714 1102.48C863.055 1103.27 862.191 1103.92 861.123 1104.44C860.066 1104.97 858.754 1105.23 857.186 1105.23C855.095 1105.23 853.237 1104.71 851.612 1103.68C849.998 1102.64 848.725 1101.16 847.794 1099.24C846.873 1097.31 846.413 1095.01 846.413 1092.34C846.413 1089.69 846.862 1087.36 847.76 1085.35C848.669 1083.34 849.936 1081.77 851.561 1080.65C853.186 1079.52 855.078 1078.96 857.237 1078.96C858.839 1078.96 860.169 1079.24 861.225 1079.81C862.282 1080.37 863.129 1081.06 863.765 1081.89C864.413 1082.72 864.919 1083.53 865.282 1084.31H865.589V1079.32H868.555V1106.18C868.555 1108.4 868.083 1110.22 867.14 1111.65C866.197 1113.09 864.913 1114.14 863.288 1114.82C861.663 1115.52 859.816 1115.86 857.748 1115.86ZM857.544 1102.45C859.225 1102.45 860.663 1102.05 861.856 1101.24C863.049 1100.42 863.964 1099.25 864.6 1097.73C865.237 1096.2 865.555 1094.39 865.555 1092.29C865.555 1090.24 865.243 1088.43 864.618 1086.85C863.993 1085.26 863.083 1084.01 861.89 1083.1C860.708 1082.18 859.26 1081.72 857.544 1081.72C855.794 1081.72 854.316 1082.19 853.112 1083.14C851.907 1084.08 850.998 1085.35 850.385 1086.95C849.771 1088.55 849.464 1090.32 849.464 1092.29C849.464 1094.29 849.777 1096.06 850.402 1097.59C851.027 1099.11 851.941 1100.31 853.146 1101.17C854.35 1102.02 855.816 1102.45 857.544 1102.45ZM900.217 1106.05C898.069 1106.05 896.189 1105.48 894.575 1104.34C892.961 1103.2 891.7 1101.62 890.791 1099.59C889.893 1097.55 889.444 1095.18 889.444 1092.48C889.444 1089.78 889.893 1087.43 890.791 1085.4C891.7 1083.37 892.967 1081.79 894.592 1080.66C896.217 1079.53 898.109 1078.96 900.268 1078.96C901.859 1078.96 903.183 1079.24 904.24 1079.81C905.297 1080.37 906.143 1081.06 906.779 1081.89C907.416 1082.72 907.91 1083.53 908.262 1084.31H908.535V1070.59H911.586V1105.5H908.62V1100.64H908.262C907.91 1101.44 907.41 1102.26 906.762 1103.1C906.115 1103.93 905.257 1104.62 904.189 1105.19C903.132 1105.76 901.808 1106.05 900.217 1106.05ZM900.575 1103.27C902.268 1103.27 903.711 1102.81 904.904 1101.89C906.098 1100.95 907.007 1099.68 907.632 1098.05C908.268 1096.41 908.586 1094.54 908.586 1092.43C908.586 1090.34 908.274 1088.49 907.649 1086.89C907.024 1085.27 906.115 1084.01 904.922 1083.1C903.728 1082.18 902.279 1081.72 900.575 1081.72C898.825 1081.72 897.348 1082.2 896.143 1083.15C894.95 1084.1 894.041 1085.37 893.416 1086.99C892.802 1088.6 892.495 1090.41 892.495 1092.43C892.495 1094.46 892.808 1096.3 893.433 1097.93C894.058 1099.57 894.967 1100.87 896.16 1101.84C897.365 1102.79 898.836 1103.27 900.575 1103.27ZM931.165 1106.05C928.722 1106.05 926.608 1105.48 924.824 1104.34C923.04 1103.19 921.659 1101.61 920.682 1099.59C919.716 1097.55 919.233 1095.21 919.233 1092.56C919.233 1089.93 919.716 1087.59 920.682 1085.54C921.659 1083.48 923.006 1081.87 924.722 1080.72C926.449 1079.55 928.444 1078.96 930.705 1078.96C932.125 1078.96 933.495 1079.22 934.813 1079.74C936.131 1080.26 937.313 1081.05 938.358 1082.11C939.415 1083.17 940.25 1084.51 940.864 1086.12C941.478 1087.72 941.784 1089.62 941.784 1091.81V1093.31H921.33V1090.64H938.682C938.682 1088.95 938.341 1087.44 937.659 1086.1C936.989 1084.75 936.051 1083.68 934.847 1082.9C933.654 1082.11 932.273 1081.72 930.705 1081.72C929.046 1081.72 927.586 1082.16 926.324 1083.05C925.063 1083.94 924.074 1085.11 923.358 1086.56C922.654 1088.02 922.296 1089.61 922.284 1091.34V1092.94C922.284 1095.02 922.642 1096.84 923.358 1098.39C924.086 1099.94 925.114 1101.14 926.444 1101.99C927.773 1102.84 929.347 1103.27 931.165 1103.27C932.404 1103.27 933.489 1103.07 934.421 1102.69C935.364 1102.3 936.154 1101.78 936.79 1101.14C937.438 1100.48 937.926 1099.76 938.256 1098.97L941.137 1099.91C940.739 1101.01 940.086 1102.03 939.176 1102.96C938.279 1103.89 937.154 1104.64 935.801 1105.21C934.461 1105.77 932.915 1106.05 931.165 1106.05ZM966.413 1085.06L963.635 1085.85C963.362 1085.06 962.975 1084.35 962.475 1083.72C961.975 1083.08 961.322 1082.57 960.515 1082.2C959.72 1081.82 958.731 1081.64 957.549 1081.64C955.777 1081.64 954.322 1082.06 953.186 1082.9C952.049 1083.74 951.481 1084.82 951.481 1086.15C951.481 1087.28 951.868 1088.19 952.64 1088.9C953.424 1089.59 954.629 1090.14 956.254 1090.55L960.208 1091.52C962.402 1092.06 964.044 1092.9 965.135 1094.06C966.237 1095.22 966.788 1096.68 966.788 1098.43C966.788 1099.9 966.379 1101.22 965.561 1102.36C964.743 1103.51 963.6 1104.41 962.135 1105.07C960.68 1105.72 958.993 1106.05 957.072 1106.05C954.515 1106.05 952.407 1105.47 950.748 1104.32C949.089 1103.16 948.027 1101.49 947.561 1099.31L950.475 1098.6C950.85 1100.15 951.583 1101.33 952.674 1102.12C953.777 1102.92 955.225 1103.32 957.021 1103.32C959.032 1103.32 960.64 1102.87 961.845 1101.97C963.049 1101.06 963.652 1099.93 963.652 1098.56C963.652 1097.51 963.299 1096.62 962.595 1095.9C961.89 1095.18 960.822 1094.64 959.39 1094.3L955.112 1093.28C952.839 1092.73 951.157 1091.87 950.066 1090.69C948.975 1089.51 948.43 1088.04 948.43 1086.29C948.43 1084.85 948.822 1083.58 949.606 1082.49C950.39 1081.39 951.47 1080.52 952.845 1079.9C954.22 1079.27 955.788 1078.96 957.549 1078.96C959.947 1078.96 961.862 1079.51 963.294 1080.6C964.737 1081.68 965.777 1083.16 966.413 1085.06ZM973.817 1105.5V1079.32H976.868V1105.5H973.817ZM975.368 1074.82C974.743 1074.82 974.209 1074.61 973.766 1074.19C973.323 1073.76 973.101 1073.24 973.101 1072.64C973.101 1072.03 973.323 1071.52 973.766 1071.1C974.209 1070.67 974.743 1070.45 975.368 1070.45C975.993 1070.45 976.527 1070.67 976.971 1071.1C977.414 1071.52 977.635 1072.03 977.635 1072.64C977.635 1073.24 977.414 1073.76 976.971 1074.19C976.527 1074.61 975.993 1074.82 975.368 1074.82ZM995.233 1115.86C993.449 1115.86 991.886 1115.63 990.545 1115.16C989.204 1114.71 988.074 1114.09 987.153 1113.29C986.233 1112.49 985.517 1111.6 985.005 1110.61L987.494 1108.98C987.869 1109.64 988.369 1110.28 988.994 1110.92C989.63 1111.56 990.454 1112.09 991.466 1112.51C992.488 1112.93 993.744 1113.14 995.233 1113.14C997.551 1113.14 999.42 1112.56 1000.84 1111.4C1002.27 1110.24 1002.99 1108.44 1002.99 1105.99V1100.1H1002.72C1002.36 1100.89 1001.86 1101.69 1001.2 1102.48C1000.54 1103.27 999.676 1103.92 998.608 1104.44C997.551 1104.97 996.238 1105.23 994.67 1105.23C992.579 1105.23 990.721 1104.71 989.096 1103.68C987.483 1102.64 986.21 1101.16 985.278 1099.24C984.358 1097.31 983.897 1095.01 983.897 1092.34C983.897 1089.69 984.346 1087.36 985.244 1085.35C986.153 1083.34 987.42 1081.77 989.045 1080.65C990.67 1079.52 992.562 1078.96 994.721 1078.96C996.324 1078.96 997.653 1079.24 998.71 1079.81C999.767 1080.37 1000.61 1081.06 1001.25 1081.89C1001.9 1082.72 1002.4 1083.53 1002.77 1084.31H1003.07V1079.32H1006.04V1106.18C1006.04 1108.4 1005.57 1110.22 1004.62 1111.65C1003.68 1113.09 1002.4 1114.14 1000.77 1114.82C999.147 1115.52 997.301 1115.86 995.233 1115.86ZM995.028 1102.45C996.71 1102.45 998.147 1102.05 999.341 1101.24C1000.53 1100.42 1001.45 1099.25 1002.08 1097.73C1002.72 1096.2 1003.04 1094.39 1003.04 1092.29C1003.04 1090.24 1002.73 1088.43 1002.1 1086.85C1001.48 1085.26 1000.57 1084.01 999.375 1083.1C998.193 1082.18 996.744 1081.72 995.028 1081.72C993.278 1081.72 991.801 1082.19 990.596 1083.14C989.392 1084.08 988.483 1085.35 987.869 1086.95C987.255 1088.55 986.949 1090.32 986.949 1092.29C986.949 1094.29 987.261 1096.06 987.886 1097.59C988.511 1099.11 989.426 1100.31 990.63 1101.17C991.835 1102.02 993.301 1102.45 995.028 1102.45ZM1017.46 1089.14V1105.5H1014.42V1079.32H1017.37V1083.43H1017.65C1018.26 1082.09 1019.21 1081.01 1020.51 1080.2C1021.82 1079.39 1023.43 1078.98 1025.35 1078.98C1027.11 1078.98 1028.66 1079.35 1029.99 1080.09C1031.33 1080.81 1032.37 1081.89 1033.11 1083.31C1033.86 1084.73 1034.23 1086.47 1034.23 1088.54V1105.5H1031.2V1088.73C1031.2 1086.58 1030.59 1084.88 1029.39 1083.63C1028.2 1082.38 1026.59 1081.76 1024.58 1081.76C1023.21 1081.76 1021.99 1082.05 1020.92 1082.64C1019.85 1083.23 1019 1084.09 1018.38 1085.2C1017.76 1086.3 1017.46 1087.61 1017.46 1089.14ZM1053.16 1106.05C1050.71 1106.05 1048.6 1105.48 1046.82 1104.34C1045.03 1103.19 1043.65 1101.61 1042.67 1099.59C1041.71 1097.55 1041.23 1095.21 1041.23 1092.56C1041.23 1089.93 1041.71 1087.59 1042.67 1085.54C1043.65 1083.48 1045 1081.87 1046.71 1080.72C1048.44 1079.55 1050.44 1078.96 1052.7 1078.96C1054.12 1078.96 1055.49 1079.22 1056.81 1079.74C1058.12 1080.26 1059.31 1081.05 1060.35 1082.11C1061.41 1083.17 1062.24 1084.51 1062.86 1086.12C1063.47 1087.72 1063.78 1089.62 1063.78 1091.81V1093.31H1043.32V1090.64H1060.67C1060.67 1088.95 1060.33 1087.44 1059.65 1086.1C1058.98 1084.75 1058.04 1083.68 1056.84 1082.9C1055.65 1082.11 1054.27 1081.72 1052.7 1081.72C1051.04 1081.72 1049.58 1082.16 1048.32 1083.05C1047.06 1083.94 1046.07 1085.11 1045.35 1086.56C1044.65 1088.02 1044.29 1089.61 1044.28 1091.34V1092.94C1044.28 1095.02 1044.63 1096.84 1045.35 1098.39C1046.08 1099.94 1047.11 1101.14 1048.44 1101.99C1049.77 1102.84 1051.34 1103.27 1053.16 1103.27C1054.4 1103.27 1055.48 1103.07 1056.41 1102.69C1057.36 1102.3 1058.15 1101.78 1058.78 1101.14C1059.43 1100.48 1059.92 1099.76 1060.25 1098.97L1063.13 1099.91C1062.73 1101.01 1062.08 1102.03 1061.17 1102.96C1060.27 1103.89 1059.15 1104.64 1057.79 1105.21C1056.45 1105.77 1054.91 1106.05 1053.16 1106.05ZM1080.24 1106.05C1078.09 1106.05 1076.21 1105.48 1074.6 1104.34C1072.98 1103.2 1071.72 1101.62 1070.81 1099.59C1069.92 1097.55 1069.47 1095.18 1069.47 1092.48C1069.47 1089.78 1069.92 1087.43 1070.81 1085.4C1071.72 1083.37 1072.99 1081.79 1074.62 1080.66C1076.24 1079.53 1078.13 1078.96 1080.29 1078.96C1081.88 1078.96 1083.21 1079.24 1084.26 1079.81C1085.32 1080.37 1086.17 1081.06 1086.8 1081.89C1087.44 1082.72 1087.93 1083.53 1088.29 1084.31H1088.56V1070.59H1091.61V1105.5H1088.64V1100.64H1088.29C1087.93 1101.44 1087.43 1102.26 1086.79 1103.1C1086.14 1103.93 1085.28 1104.62 1084.21 1105.19C1083.16 1105.76 1081.83 1106.05 1080.24 1106.05ZM1080.6 1103.27C1082.29 1103.27 1083.73 1102.81 1084.93 1101.89C1086.12 1100.95 1087.03 1099.68 1087.66 1098.05C1088.29 1096.41 1088.61 1094.54 1088.61 1092.43C1088.61 1090.34 1088.3 1088.49 1087.67 1086.89C1087.05 1085.27 1086.14 1084.01 1084.94 1083.1C1083.75 1082.18 1082.3 1081.72 1080.6 1081.72C1078.85 1081.72 1077.37 1082.2 1076.17 1083.15C1074.97 1084.1 1074.06 1085.37 1073.44 1086.99C1072.83 1088.6 1072.52 1090.41 1072.52 1092.43C1072.52 1094.46 1072.83 1096.3 1073.46 1097.93C1074.08 1099.57 1074.99 1100.87 1076.18 1101.84C1077.39 1102.79 1078.86 1103.27 1080.6 1103.27ZM1125.23 1079.32V1081.96H1112.36V1079.32H1125.23ZM1116.38 1105.5V1075.48C1116.38 1074.07 1116.7 1072.89 1117.35 1071.92C1118.01 1070.95 1118.87 1070.22 1119.93 1069.72C1120.98 1069.22 1122.1 1068.97 1123.28 1068.97C1124.08 1068.97 1124.74 1069.04 1125.26 1069.18C1125.8 1069.3 1126.22 1069.43 1126.52 1069.55L1125.64 1072.21C1125.41 1072.14 1125.13 1072.06 1124.8 1071.97C1124.47 1071.88 1124.06 1071.84 1123.56 1071.84C1122.24 1071.84 1121.22 1072.2 1120.51 1072.94C1119.79 1073.68 1119.43 1074.74 1119.43 1076.11L1119.42 1105.5H1116.38ZM1140.73 1106.05C1138.47 1106.05 1136.47 1105.47 1134.73 1104.32C1133.01 1103.18 1131.65 1101.59 1130.68 1099.57C1129.7 1097.53 1129.21 1095.19 1129.21 1092.53C1129.21 1089.85 1129.7 1087.49 1130.68 1085.45C1131.65 1083.41 1133.01 1081.82 1134.73 1080.68C1136.47 1079.53 1138.47 1078.96 1140.73 1078.96C1142.99 1078.96 1144.99 1079.53 1146.72 1080.68C1148.44 1081.83 1149.8 1083.42 1150.77 1085.45C1151.76 1087.49 1152.26 1089.85 1152.26 1092.53C1152.26 1095.19 1151.77 1097.53 1150.79 1099.57C1149.81 1101.59 1148.45 1103.18 1146.72 1104.32C1144.99 1105.47 1142.99 1106.05 1140.73 1106.05ZM1140.73 1103.27C1142.55 1103.27 1144.09 1102.78 1145.35 1101.8C1146.61 1100.82 1147.57 1099.52 1148.22 1097.9C1148.87 1096.27 1149.2 1094.48 1149.2 1092.53C1149.2 1090.57 1148.87 1088.78 1148.22 1087.14C1147.57 1085.51 1146.61 1084.19 1145.35 1083.2C1144.09 1082.22 1142.55 1081.72 1140.73 1081.72C1138.93 1081.72 1137.39 1082.22 1136.11 1083.2C1134.85 1084.19 1133.89 1085.51 1133.23 1087.14C1132.58 1088.78 1132.26 1090.57 1132.26 1092.53C1132.26 1094.48 1132.58 1096.27 1133.23 1097.9C1133.89 1099.52 1134.85 1100.82 1136.11 1101.8C1137.37 1102.78 1138.91 1103.27 1140.73 1103.27ZM1159.27 1105.5V1079.32H1162.22V1083.34H1162.44C1162.96 1082.02 1163.87 1080.96 1165.17 1080.15C1166.47 1079.34 1167.95 1078.93 1169.6 1078.93C1169.85 1078.93 1170.13 1078.93 1170.43 1078.94C1170.74 1078.95 1170.99 1078.97 1171.2 1078.98V1082.06C1171.06 1082.04 1170.82 1082.01 1170.48 1081.96C1170.14 1081.91 1169.77 1081.89 1169.38 1081.89C1168.01 1081.89 1166.8 1082.18 1165.73 1082.76C1164.67 1083.33 1163.84 1084.12 1163.22 1085.13C1162.61 1086.14 1162.3 1087.3 1162.3 1088.59V1105.5H1159.27ZM1208.17 1085.06L1205.39 1085.85C1205.12 1085.06 1204.73 1084.35 1204.23 1083.72C1203.73 1083.08 1203.08 1082.57 1202.27 1082.2C1201.48 1081.82 1200.49 1081.64 1199.31 1081.64C1197.53 1081.64 1196.08 1082.06 1194.94 1082.9C1193.81 1083.74 1193.24 1084.82 1193.24 1086.15C1193.24 1087.28 1193.63 1088.19 1194.4 1088.9C1195.18 1089.59 1196.39 1090.14 1198.01 1090.55L1201.97 1091.52C1204.16 1092.06 1205.8 1092.9 1206.89 1094.06C1207.99 1095.22 1208.55 1096.68 1208.55 1098.43C1208.55 1099.9 1208.14 1101.22 1207.32 1102.36C1206.5 1103.51 1205.36 1104.41 1203.89 1105.07C1202.44 1105.72 1200.75 1106.05 1198.83 1106.05C1196.27 1106.05 1194.17 1105.47 1192.51 1104.32C1190.85 1103.16 1189.78 1101.49 1189.32 1099.31L1192.23 1098.6C1192.61 1100.15 1193.34 1101.33 1194.43 1102.12C1195.53 1102.92 1196.98 1103.32 1198.78 1103.32C1200.79 1103.32 1202.4 1102.87 1203.6 1101.97C1204.81 1101.06 1205.41 1099.93 1205.41 1098.56C1205.41 1097.51 1205.06 1096.62 1204.35 1095.9C1203.65 1095.18 1202.58 1094.64 1201.15 1094.3L1196.87 1093.28C1194.6 1092.73 1192.92 1091.87 1191.82 1090.69C1190.73 1089.51 1190.19 1088.04 1190.19 1086.29C1190.19 1084.85 1190.58 1083.58 1191.36 1082.49C1192.15 1081.39 1193.23 1080.52 1194.6 1079.9C1195.98 1079.27 1197.55 1078.96 1199.31 1078.96C1201.7 1078.96 1203.62 1079.51 1205.05 1080.6C1206.49 1081.68 1207.53 1083.16 1208.17 1085.06ZM1215.57 1105.5V1079.32H1218.63V1105.5H1215.57ZM1217.13 1074.82C1216.5 1074.82 1215.97 1074.61 1215.52 1074.19C1215.08 1073.76 1214.86 1073.24 1214.86 1072.64C1214.86 1072.03 1215.08 1071.52 1215.52 1071.1C1215.97 1070.67 1216.5 1070.45 1217.13 1070.45C1217.75 1070.45 1218.29 1070.67 1218.73 1071.1C1219.17 1071.52 1219.39 1072.03 1219.39 1072.64C1219.39 1073.24 1219.17 1073.76 1218.73 1074.19C1218.29 1074.61 1217.75 1074.82 1217.13 1074.82ZM1227 1105.5V1079.32H1229.95V1083.34H1230.22C1230.75 1081.99 1231.62 1080.93 1232.83 1080.15C1234.06 1079.37 1235.53 1078.98 1237.25 1078.98C1239.05 1078.98 1240.54 1079.4 1241.69 1080.26C1242.87 1081.1 1243.74 1082.26 1244.32 1083.73H1244.54C1245.13 1082.28 1246.09 1081.12 1247.42 1080.27C1248.76 1079.41 1250.39 1078.98 1252.3 1078.98C1254.73 1078.98 1256.65 1079.74 1258.06 1081.28C1259.47 1082.8 1260.17 1085.03 1260.17 1087.96V1105.5H1257.14V1087.96C1257.14 1085.89 1256.61 1084.34 1255.55 1083.31C1254.5 1082.27 1253.1 1081.76 1251.38 1081.76C1249.38 1081.76 1247.84 1082.37 1246.76 1083.6C1245.68 1084.82 1245.14 1086.38 1245.14 1088.27V1105.5H1242.04V1087.69C1242.04 1085.91 1241.54 1084.48 1240.55 1083.39C1239.56 1082.3 1238.17 1081.76 1236.38 1081.76C1235.17 1081.76 1234.09 1082.05 1233.12 1082.64C1232.17 1083.23 1231.41 1084.06 1230.85 1085.11C1230.31 1086.16 1230.04 1087.36 1230.04 1088.73V1105.5H1227ZM1268.56 1115.32V1079.32H1271.51V1084.31H1271.86C1272.23 1083.53 1272.73 1082.73 1273.36 1081.91C1274 1081.08 1274.84 1080.38 1275.89 1079.81C1276.94 1079.24 1278.27 1078.96 1279.87 1078.96C1282.03 1078.96 1283.92 1079.53 1285.53 1080.66C1287.16 1081.79 1288.42 1083.37 1289.32 1085.4C1290.23 1087.43 1290.68 1089.78 1290.68 1092.48C1290.68 1095.18 1290.23 1097.55 1289.32 1099.59C1288.42 1101.62 1287.16 1103.2 1285.53 1104.34C1283.92 1105.48 1282.05 1106.05 1279.91 1106.05C1278.33 1106.05 1277.01 1105.76 1275.94 1105.19C1274.88 1104.62 1274.02 1103.93 1273.36 1103.1C1272.72 1102.26 1272.22 1101.44 1271.86 1100.64H1271.59V1115.32H1268.56ZM1271.56 1092.43C1271.56 1094.54 1271.87 1096.41 1272.49 1098.05C1273.13 1099.68 1274.04 1100.95 1275.22 1101.89C1276.41 1102.81 1277.86 1103.27 1279.55 1103.27C1281.29 1103.27 1282.76 1102.79 1283.95 1101.84C1285.15 1100.87 1286.07 1099.57 1286.69 1097.93C1287.33 1096.3 1287.65 1094.46 1287.65 1092.43C1287.65 1090.41 1287.33 1088.6 1286.71 1086.99C1286.1 1085.37 1285.19 1084.1 1283.98 1083.15C1282.78 1082.2 1281.3 1081.72 1279.55 1081.72C1277.85 1081.72 1276.4 1082.18 1275.2 1083.1C1274.01 1084.01 1273.1 1085.27 1272.48 1086.89C1271.86 1088.49 1271.56 1090.34 1271.56 1092.43ZM1300.72 1070.59V1105.5H1297.69V1070.59H1300.72ZM1309.14 1105.5V1079.32H1312.19V1105.5H1309.14ZM1310.69 1074.82C1310.06 1074.82 1309.53 1074.61 1309.09 1074.19C1308.64 1073.76 1308.42 1073.24 1308.42 1072.64C1308.42 1072.03 1308.64 1071.52 1309.09 1071.1C1309.53 1070.67 1310.06 1070.45 1310.69 1070.45C1311.31 1070.45 1311.85 1070.67 1312.29 1071.1C1312.73 1071.52 1312.96 1072.03 1312.96 1072.64C1312.96 1073.24 1312.73 1073.76 1312.29 1074.19C1311.85 1074.61 1311.31 1074.82 1310.69 1074.82ZM1330.79 1106.05C1328.45 1106.05 1326.41 1105.46 1324.67 1104.29C1322.94 1103.12 1321.6 1101.52 1320.65 1099.48C1319.69 1097.45 1319.22 1095.13 1319.22 1092.53C1319.22 1089.9 1319.7 1087.57 1320.67 1085.52C1321.64 1083.48 1323 1081.87 1324.72 1080.72C1326.45 1079.55 1328.46 1078.96 1330.74 1078.96C1332.49 1078.96 1334.08 1079.3 1335.5 1079.98C1336.92 1080.65 1338.09 1081.6 1339.01 1082.83C1339.94 1084.05 1340.52 1085.47 1340.76 1087.09H1337.69C1337.38 1085.61 1336.61 1084.35 1335.39 1083.31C1334.19 1082.25 1332.66 1081.72 1330.79 1081.72C1329.12 1081.72 1327.64 1082.18 1326.36 1083.09C1325.08 1083.98 1324.07 1085.24 1323.34 1086.85C1322.63 1088.45 1322.27 1090.31 1322.27 1092.43C1322.27 1094.55 1322.62 1096.43 1323.33 1098.07C1324.03 1099.69 1325.02 1100.97 1326.29 1101.89C1327.58 1102.81 1329.08 1103.27 1330.79 1103.27C1331.95 1103.27 1333.01 1103.05 1333.96 1102.62C1334.93 1102.18 1335.73 1101.55 1336.38 1100.74C1337.04 1099.94 1337.48 1098.98 1337.71 1097.86H1340.78C1340.55 1099.44 1339.99 1100.85 1339.09 1102.09C1338.21 1103.32 1337.05 1104.28 1335.63 1104.99C1334.22 1105.69 1332.61 1106.05 1330.79 1106.05ZM1347.67 1105.5V1079.32H1350.72V1105.5H1347.67ZM1349.22 1074.82C1348.59 1074.82 1348.06 1074.61 1347.62 1074.19C1347.17 1073.76 1346.95 1073.24 1346.95 1072.64C1346.95 1072.03 1347.17 1071.52 1347.62 1071.1C1348.06 1070.67 1348.59 1070.45 1349.22 1070.45C1349.84 1070.45 1350.38 1070.67 1350.82 1071.1C1351.27 1071.52 1351.49 1072.03 1351.49 1072.64C1351.49 1073.24 1351.27 1073.76 1350.82 1074.19C1350.38 1074.61 1349.84 1074.82 1349.22 1074.82ZM1369.41 1079.32V1081.96H1356.91V1079.32H1369.41ZM1360.82 1073.05H1363.87V1098.66C1363.87 1099.76 1364.06 1100.61 1364.43 1101.24C1364.81 1101.85 1365.29 1102.29 1365.9 1102.55C1366.5 1102.8 1367.14 1102.93 1367.82 1102.93C1368.22 1102.93 1368.56 1102.9 1368.85 1102.86C1369.13 1102.8 1369.38 1102.74 1369.6 1102.69L1370.24 1105.43C1369.95 1105.55 1369.58 1105.65 1369.15 1105.74C1368.72 1105.84 1368.19 1105.89 1367.55 1105.89C1366.44 1105.89 1365.36 1105.65 1364.33 1105.16C1363.31 1104.67 1362.46 1103.94 1361.81 1102.98C1361.15 1102.01 1360.82 1100.81 1360.82 1099.38V1073.05ZM1378.76 1115.32C1378.16 1115.32 1377.6 1115.26 1377.08 1115.15C1376.55 1115.03 1376.14 1114.91 1375.83 1114.77L1376.65 1112.1C1377.68 1112.41 1378.6 1112.53 1379.41 1112.44C1380.22 1112.36 1380.93 1111.99 1381.56 1111.35C1382.18 1110.71 1382.74 1109.73 1383.23 1108.41L1384.18 1105.76L1374.55 1079.32H1377.84L1385.62 1101.49H1385.85L1393.63 1079.32H1396.92L1385.84 1109.64C1385.37 1110.9 1384.8 1111.95 1384.12 1112.8C1383.43 1113.65 1382.64 1114.28 1381.75 1114.69C1380.86 1115.11 1379.87 1115.32 1378.76 1115.32ZM899.615 1172.1C898.036 1172.1 896.592 1171.79 895.286 1171.18C893.979 1170.55 892.939 1169.65 892.166 1168.48C891.393 1167.3 891.007 1165.87 891.007 1164.19C891.007 1162.89 891.251 1161.8 891.74 1160.91C892.229 1160.03 892.922 1159.3 893.82 1158.73C894.717 1158.16 895.78 1157.72 897.007 1157.39C898.234 1157.06 899.587 1156.8 901.064 1156.62C902.53 1156.44 903.768 1156.28 904.78 1156.14C905.803 1156.01 906.581 1155.79 907.115 1155.49C907.649 1155.2 907.916 1154.72 907.916 1154.06V1153.45C907.916 1151.66 907.382 1150.26 906.314 1149.24C905.257 1148.2 903.734 1147.69 901.746 1147.69C899.859 1147.69 898.32 1148.1 897.126 1148.93C895.945 1149.76 895.115 1150.74 894.638 1151.86L891.757 1150.82C892.348 1149.39 893.166 1148.25 894.212 1147.4C895.257 1146.53 896.428 1145.91 897.723 1145.54C899.018 1145.15 900.331 1144.96 901.661 1144.96C902.661 1144.96 903.7 1145.09 904.78 1145.35C905.871 1145.61 906.882 1146.07 907.814 1146.72C908.746 1147.35 909.501 1148.24 910.081 1149.39C910.661 1150.53 910.95 1151.97 910.95 1153.72V1171.5H907.916V1167.36H907.729C907.365 1168.13 906.825 1168.88 906.109 1169.61C905.393 1170.34 904.496 1170.93 903.416 1171.4C902.337 1171.86 901.07 1172.1 899.615 1172.1ZM900.024 1169.32C901.638 1169.32 903.036 1168.96 904.217 1168.24C905.399 1167.53 906.308 1166.58 906.945 1165.4C907.592 1164.2 907.916 1162.89 907.916 1161.46V1157.68C907.689 1157.89 907.308 1158.09 906.774 1158.26C906.251 1158.43 905.643 1158.58 904.95 1158.72C904.268 1158.84 903.587 1158.95 902.905 1159.04C902.223 1159.13 901.609 1159.21 901.064 1159.28C899.587 1159.46 898.325 1159.74 897.28 1160.13C896.234 1160.52 895.433 1161.05 894.876 1161.73C894.32 1162.4 894.041 1163.27 894.041 1164.32C894.041 1165.91 894.609 1167.15 895.746 1168.02C896.882 1168.89 898.308 1169.32 900.024 1169.32ZM922.407 1155.14V1171.5H919.373V1145.32H922.322V1149.43H922.594C923.208 1148.09 924.163 1147.01 925.458 1146.2C926.765 1145.39 928.379 1144.98 930.299 1144.98C932.06 1144.98 933.606 1145.35 934.935 1146.09C936.276 1146.81 937.316 1147.89 938.055 1149.31C938.805 1150.73 939.18 1152.47 939.18 1154.54V1171.5H936.146V1154.73C936.146 1152.58 935.543 1150.88 934.339 1149.63C933.146 1148.38 931.543 1147.76 929.532 1147.76C928.157 1147.76 926.935 1148.05 925.867 1148.64C924.799 1149.23 923.952 1150.09 923.327 1151.2C922.714 1152.3 922.407 1153.61 922.407 1155.14ZM956.947 1172.05C954.8 1172.05 952.919 1171.48 951.305 1170.34C949.692 1169.2 948.43 1167.62 947.521 1165.59C946.624 1163.55 946.175 1161.18 946.175 1158.48C946.175 1155.78 946.624 1153.43 947.521 1151.4C948.43 1149.37 949.697 1147.79 951.322 1146.66C952.947 1145.53 954.839 1144.96 956.999 1144.96C958.589 1144.96 959.913 1145.24 960.97 1145.81C962.027 1146.37 962.874 1147.06 963.51 1147.89C964.146 1148.72 964.641 1149.53 964.993 1150.31H965.266V1136.59H968.317V1171.5H965.351V1166.64H964.993C964.641 1167.44 964.141 1168.26 963.493 1169.1C962.845 1169.93 961.987 1170.62 960.919 1171.19C959.862 1171.76 958.538 1172.05 956.947 1172.05ZM957.305 1169.27C958.999 1169.27 960.442 1168.81 961.635 1167.89C962.828 1166.95 963.737 1165.68 964.362 1164.05C964.999 1162.41 965.317 1160.54 965.317 1158.43C965.317 1156.34 965.004 1154.49 964.379 1152.89C963.754 1151.27 962.845 1150.01 961.652 1149.1C960.459 1148.18 959.01 1147.72 957.305 1147.72C955.555 1147.72 954.078 1148.2 952.874 1149.15C951.68 1150.1 950.771 1151.37 950.146 1152.99C949.533 1154.6 949.226 1156.41 949.226 1158.43C949.226 1160.46 949.538 1162.3 950.163 1163.93C950.788 1165.57 951.697 1166.87 952.891 1167.84C954.095 1168.79 955.567 1169.27 957.305 1169.27ZM1001.93 1145.32V1147.96H989.065V1145.32H1001.93ZM993.088 1171.5V1141.48C993.088 1140.07 993.412 1138.89 994.06 1137.92C994.719 1136.95 995.577 1136.22 996.634 1135.72C997.69 1135.22 998.81 1134.97 999.991 1134.97C1000.79 1134.97 1001.45 1135.04 1001.97 1135.18C1002.5 1135.3 1002.92 1135.43 1003.23 1135.55L1002.34 1138.21C1002.12 1138.14 1001.84 1138.06 1001.51 1137.97C1001.18 1137.88 1000.76 1137.84 1000.26 1137.84C998.946 1137.84 997.929 1138.2 997.213 1138.94C996.497 1139.68 996.139 1140.74 996.139 1142.11L996.122 1171.5H993.088ZM1017.44 1172.05C1015.18 1172.05 1013.18 1171.47 1011.44 1170.32C1009.71 1169.18 1008.36 1167.59 1007.38 1165.57C1006.41 1163.53 1005.92 1161.19 1005.92 1158.53C1005.92 1155.85 1006.41 1153.49 1007.38 1151.45C1008.36 1149.41 1009.71 1147.82 1011.44 1146.68C1013.18 1145.53 1015.18 1144.96 1017.44 1144.96C1019.7 1144.96 1021.7 1145.53 1023.42 1146.68C1025.15 1147.83 1026.5 1149.42 1027.48 1151.45C1028.47 1153.49 1028.96 1155.85 1028.96 1158.53C1028.96 1161.19 1028.47 1163.53 1027.5 1165.57C1026.52 1167.59 1025.16 1169.18 1023.42 1170.32C1021.7 1171.47 1019.7 1172.05 1017.44 1172.05ZM1017.44 1169.27C1019.26 1169.27 1020.8 1168.78 1022.06 1167.8C1023.32 1166.82 1024.27 1165.52 1024.92 1163.9C1025.58 1162.27 1025.91 1160.48 1025.91 1158.53C1025.91 1156.57 1025.58 1154.78 1024.92 1153.14C1024.27 1151.51 1023.32 1150.19 1022.06 1149.2C1020.8 1148.22 1019.26 1147.72 1017.44 1147.72C1015.63 1147.72 1014.09 1148.22 1012.82 1149.2C1011.56 1150.19 1010.6 1151.51 1009.94 1153.14C1009.29 1154.78 1008.97 1156.57 1008.97 1158.53C1008.97 1160.48 1009.29 1162.27 1009.94 1163.9C1010.6 1165.52 1011.56 1166.82 1012.82 1167.8C1014.08 1168.78 1015.62 1169.27 1017.44 1169.27ZM1046.2 1172.05C1043.86 1172.05 1041.82 1171.46 1040.08 1170.29C1038.36 1169.12 1037.01 1167.52 1036.06 1165.48C1035.11 1163.45 1034.63 1161.13 1034.63 1158.53C1034.63 1155.9 1035.11 1153.57 1036.08 1151.52C1037.05 1149.48 1038.41 1147.87 1040.13 1146.72C1041.86 1145.55 1043.87 1144.96 1046.15 1144.96C1047.9 1144.96 1049.49 1145.3 1050.91 1145.98C1052.33 1146.65 1053.5 1147.6 1054.42 1148.83C1055.35 1150.05 1055.93 1151.47 1056.17 1153.09H1053.11C1052.79 1151.61 1052.02 1150.35 1050.8 1149.31C1049.6 1148.25 1048.07 1147.72 1046.2 1147.72C1044.53 1147.72 1043.05 1148.18 1041.77 1149.09C1040.49 1149.98 1039.48 1151.24 1038.75 1152.85C1038.04 1154.45 1037.68 1156.31 1037.68 1158.43C1037.68 1160.55 1038.03 1162.43 1038.74 1164.07C1039.44 1165.69 1040.43 1166.97 1041.7 1167.89C1042.99 1168.81 1044.49 1169.27 1046.2 1169.27C1047.36 1169.27 1048.42 1169.05 1049.37 1168.62C1050.34 1168.18 1051.14 1167.55 1051.79 1166.74C1052.45 1165.94 1052.89 1164.98 1053.12 1163.86H1056.19C1055.96 1165.44 1055.4 1166.85 1054.5 1168.09C1053.62 1169.32 1052.46 1170.28 1051.04 1170.99C1049.63 1171.69 1048.02 1172.05 1046.2 1172.05ZM1079.68 1161.49V1145.32H1082.72V1171.5H1079.68V1167.15H1079.44C1078.83 1168.49 1077.86 1169.61 1076.53 1170.51C1075.2 1171.4 1073.57 1171.84 1071.65 1171.84C1069.98 1171.84 1068.5 1171.48 1067.2 1170.75C1065.91 1170.01 1064.89 1168.93 1064.15 1167.51C1063.41 1166.09 1063.04 1164.35 1063.04 1162.28V1145.32H1066.08V1162.09C1066.08 1164.14 1066.68 1165.78 1067.89 1167.03C1069.09 1168.27 1070.64 1168.89 1072.52 1168.89C1073.7 1168.89 1074.84 1168.61 1075.93 1168.04C1077.02 1167.47 1077.92 1166.64 1078.62 1165.55C1079.33 1164.45 1079.68 1163.1 1079.68 1161.49ZM1108.69 1151.06L1105.91 1151.85C1105.64 1151.06 1105.25 1150.35 1104.75 1149.72C1104.25 1149.08 1103.6 1148.57 1102.79 1148.2C1102 1147.82 1101.01 1147.64 1099.83 1147.64C1098.05 1147.64 1096.6 1148.06 1095.46 1148.9C1094.33 1149.74 1093.76 1150.82 1093.76 1152.15C1093.76 1153.28 1094.14 1154.19 1094.92 1154.9C1095.7 1155.59 1096.91 1156.14 1098.53 1156.55L1102.49 1157.52C1104.68 1158.06 1106.32 1158.9 1107.41 1160.06C1108.51 1161.22 1109.07 1162.68 1109.07 1164.43C1109.07 1165.9 1108.66 1167.22 1107.84 1168.36C1107.02 1169.51 1105.88 1170.41 1104.41 1171.07C1102.96 1171.72 1101.27 1172.05 1099.35 1172.05C1096.79 1172.05 1094.68 1171.47 1093.03 1170.32C1091.37 1169.16 1090.3 1167.49 1089.84 1165.31L1092.75 1164.6C1093.13 1166.15 1093.86 1167.33 1094.95 1168.12C1096.05 1168.92 1097.5 1169.32 1099.3 1169.32C1101.31 1169.32 1102.92 1168.87 1104.12 1167.97C1105.33 1167.06 1105.93 1165.93 1105.93 1164.56C1105.93 1163.51 1105.58 1162.62 1104.87 1161.9C1104.17 1161.18 1103.1 1160.64 1101.67 1160.3L1097.39 1159.28C1095.12 1158.73 1093.43 1157.87 1092.34 1156.69C1091.25 1155.51 1090.71 1154.04 1090.71 1152.29C1090.71 1150.85 1091.1 1149.58 1091.88 1148.49C1092.67 1147.39 1093.75 1146.52 1095.12 1145.9C1096.5 1145.27 1098.07 1144.96 1099.83 1144.96C1102.22 1144.96 1104.14 1145.51 1105.57 1146.6C1107.01 1147.68 1108.05 1149.16 1108.69 1151.06Z" fill="black" fill-opacity="0.8"/>
<mask id="path-8-inside-1_2058_1353" fill="white">
<path d="M128 1379.25H534V1632.25H128V1379.25Z"/>
</mask>
<path d="M128 1379.25V1375.25H124V1379.25H128ZM534 1379.25H538V1375.25H534V1379.25ZM534 1632.25V1636.25H538V1632.25H534ZM128 1632.25H124V1636.25H128V1632.25ZM128 1379.25V1383.25H534V1379.25V1375.25H128V1379.25ZM534 1379.25H530V1632.25H534H538V1379.25H534ZM534 1632.25V1628.25H128V1632.25V1636.25H534V1632.25ZM128 1632.25H132V1379.25H128H124V1632.25H128Z" fill="black" mask="url(#path-8-inside-1_2058_1353)"/>
<path d="M216 1499.25C233.673 1499.25 248 1484.92 248 1467.25C248 1449.58 233.673 1435.25 216 1435.25C198.327 1435.25 184 1449.58 184 1467.25C184 1484.92 198.327 1499.25 216 1499.25Z" stroke="black" stroke-width="7" stroke-linecap="round" stroke-linejoin="round"/>
<path d="M256 1507.25L238.8 1490.05" stroke="black" stroke-width="7" stroke-linecap="round" stroke-linejoin="round"/>
<path d="M179.811 1553.07V1579.25H174.276V1553.07H179.811ZM206.634 1553.07V1579.25H201.852L190.462 1562.77H190.27V1579.25H184.735V1553.07H189.593L200.894 1569.53H201.124V1553.07H206.634ZM225.779 1560.6C225.677 1559.57 225.238 1558.77 224.463 1558.19C223.687 1557.62 222.635 1557.34 221.305 1557.34C220.402 1557.34 219.639 1557.47 219.017 1557.72C218.395 1557.97 217.917 1558.31 217.585 1558.76C217.261 1559.2 217.099 1559.7 217.099 1560.27C217.082 1560.73 217.18 1561.14 217.393 1561.49C217.615 1561.84 217.917 1562.14 218.301 1562.4C218.684 1562.65 219.127 1562.87 219.63 1563.05C220.133 1563.23 220.67 1563.38 221.241 1563.51L223.593 1564.08C224.735 1564.33 225.784 1564.67 226.738 1565.1C227.693 1565.52 228.52 1566.05 229.218 1566.67C229.917 1567.29 230.458 1568.03 230.842 1568.87C231.234 1569.71 231.434 1570.68 231.443 1571.77C231.434 1573.37 231.025 1574.76 230.216 1575.94C229.414 1577.11 228.255 1578.01 226.738 1578.66C225.23 1579.3 223.41 1579.62 221.279 1579.62C219.166 1579.62 217.325 1579.3 215.757 1578.65C214.197 1578 212.978 1577.04 212.1 1575.77C211.231 1574.49 210.775 1572.91 210.733 1571.03H216.089C216.149 1571.91 216.4 1572.64 216.843 1573.23C217.295 1573.81 217.896 1574.25 218.646 1574.55C219.404 1574.84 220.261 1574.98 221.216 1574.98C222.153 1574.98 222.967 1574.84 223.657 1574.57C224.356 1574.3 224.897 1573.92 225.281 1573.43C225.664 1572.95 225.856 1572.39 225.856 1571.76C225.856 1571.17 225.681 1570.68 225.332 1570.28C224.991 1569.87 224.488 1569.53 223.824 1569.25C223.167 1568.97 222.362 1568.72 221.407 1568.49L218.556 1567.77C216.349 1567.23 214.606 1566.39 213.328 1565.25C212.049 1564.11 211.414 1562.57 211.423 1560.64C211.414 1559.05 211.836 1557.67 212.689 1556.48C213.549 1555.3 214.73 1554.37 216.23 1553.71C217.73 1553.04 219.434 1552.71 221.343 1552.71C223.287 1552.71 224.983 1553.04 226.431 1553.71C227.889 1554.37 229.022 1555.3 229.832 1556.48C230.642 1557.67 231.059 1559.04 231.085 1560.6H225.779ZM234.538 1557.63V1553.07H256.041V1557.63H248.025V1579.25H242.554V1557.63H234.538ZM261.265 1579.25H255.333L264.371 1553.07H271.505L280.531 1579.25H274.599L268.04 1559.05H267.836L261.265 1579.25ZM260.894 1568.96H274.906V1573.28H260.894V1568.96ZM305.95 1553.07V1579.25H301.169L289.778 1562.77H289.586V1579.25H284.051V1553.07H288.909L300.21 1569.53H300.44V1553.07H305.95ZM309.896 1557.63V1553.07H331.398V1557.63H323.383V1579.25H317.911V1557.63H309.896ZM358.213 1560.6C358.111 1559.57 357.672 1558.77 356.896 1558.19C356.121 1557.62 355.068 1557.34 353.739 1557.34C352.835 1557.34 352.072 1557.47 351.45 1557.72C350.828 1557.97 350.351 1558.31 350.018 1558.76C349.695 1559.2 349.533 1559.7 349.533 1560.27C349.516 1560.73 349.614 1561.14 349.827 1561.49C350.048 1561.84 350.351 1562.14 350.734 1562.4C351.118 1562.65 351.561 1562.87 352.064 1563.05C352.567 1563.23 353.104 1563.38 353.675 1563.51L356.027 1564.08C357.169 1564.33 358.217 1564.67 359.172 1565.1C360.126 1565.52 360.953 1566.05 361.652 1566.67C362.351 1567.29 362.892 1568.03 363.276 1568.87C363.668 1569.71 363.868 1570.68 363.876 1571.77C363.868 1573.37 363.459 1574.76 362.649 1575.94C361.848 1577.11 360.689 1578.01 359.172 1578.66C357.663 1579.3 355.844 1579.62 353.713 1579.62C351.599 1579.62 349.759 1579.3 348.19 1578.65C346.631 1578 345.412 1577.04 344.534 1575.77C343.665 1574.49 343.209 1572.91 343.166 1571.03H348.523C348.582 1571.91 348.834 1572.64 349.277 1573.23C349.729 1573.81 350.33 1574.25 351.08 1574.55C351.838 1574.84 352.695 1574.98 353.649 1574.98C354.587 1574.98 355.401 1574.84 356.091 1574.57C356.79 1574.3 357.331 1573.92 357.714 1573.43C358.098 1572.95 358.29 1572.39 358.29 1571.76C358.29 1571.17 358.115 1570.68 357.766 1570.28C357.425 1569.87 356.922 1569.53 356.257 1569.25C355.601 1568.97 354.795 1568.72 353.841 1568.49L350.99 1567.77C348.783 1567.23 347.04 1566.39 345.761 1565.25C344.483 1564.11 343.848 1562.57 343.857 1560.64C343.848 1559.05 344.27 1557.67 345.122 1556.48C345.983 1555.3 347.163 1554.37 348.663 1553.71C350.163 1553.04 351.868 1552.71 353.777 1552.71C355.72 1552.71 357.416 1553.04 358.865 1553.71C360.322 1554.37 361.456 1555.3 362.266 1556.48C363.075 1557.67 363.493 1559.04 363.518 1560.6H358.213ZM367.969 1579.25V1553.07H385.611V1557.63H373.504V1563.87H384.703V1568.43H373.504V1574.69H385.662V1579.25H367.969ZM394.894 1579.25H388.962L398 1553.07H405.134L414.159 1579.25H408.228L401.669 1559.05H401.465L394.894 1579.25ZM394.523 1568.96H408.534V1573.28H394.523V1568.96ZM417.68 1579.25V1553.07H428.009C429.987 1553.07 431.674 1553.42 433.072 1554.13C434.478 1554.83 435.548 1555.82 436.281 1557.11C437.022 1558.39 437.393 1559.89 437.393 1561.62C437.393 1563.36 437.018 1564.86 436.268 1566.11C435.518 1567.35 434.431 1568.31 433.008 1568.97C431.593 1569.64 429.88 1569.97 427.869 1569.97H420.953V1565.52H426.974C428.031 1565.52 428.909 1565.37 429.607 1565.09C430.306 1564.8 430.826 1564.36 431.167 1563.78C431.517 1563.2 431.691 1562.48 431.691 1561.62C431.691 1560.75 431.517 1560.02 431.167 1559.42C430.826 1558.83 430.302 1558.37 429.595 1558.07C428.896 1557.75 428.014 1557.59 426.948 1557.59H423.215V1579.25H417.68ZM431.819 1567.34L438.326 1579.25H432.215L425.849 1567.34H431.819ZM464.775 1562.23H459.175C459.073 1561.51 458.864 1560.87 458.549 1560.3C458.234 1559.73 457.829 1559.25 457.335 1558.85C456.84 1558.45 456.269 1558.14 455.621 1557.93C454.982 1557.71 454.288 1557.61 453.538 1557.61C452.183 1557.61 451.002 1557.94 449.996 1558.62C448.991 1559.28 448.211 1560.25 447.657 1561.53C447.103 1562.8 446.826 1564.34 446.826 1566.16C446.826 1568.03 447.103 1569.59 447.657 1570.86C448.219 1572.13 449.004 1573.09 450.009 1573.74C451.015 1574.39 452.178 1574.71 453.499 1574.71C454.241 1574.71 454.927 1574.61 455.558 1574.42C456.197 1574.22 456.763 1573.94 457.258 1573.56C457.752 1573.18 458.161 1572.71 458.485 1572.17C458.817 1571.62 459.048 1571 459.175 1570.3L464.775 1570.33C464.63 1571.53 464.268 1572.69 463.688 1573.8C463.117 1574.91 462.346 1575.9 461.374 1576.78C460.411 1577.65 459.261 1578.34 457.923 1578.85C456.593 1579.36 455.089 1579.61 453.41 1579.61C451.075 1579.61 448.987 1579.08 447.146 1578.02C445.313 1576.97 443.864 1575.44 442.799 1573.43C441.742 1571.43 441.214 1569.01 441.214 1566.16C441.214 1563.3 441.751 1560.88 442.825 1558.87C443.898 1556.87 445.356 1555.34 447.197 1554.3C449.038 1553.24 451.109 1552.71 453.41 1552.71C454.927 1552.71 456.333 1552.92 457.629 1553.35C458.933 1553.78 460.087 1554.4 461.093 1555.22C462.099 1556.03 462.917 1557.02 463.548 1558.19C464.187 1559.37 464.596 1560.72 464.775 1562.23ZM469.113 1579.25V1553.07H474.649V1563.87H485.886V1553.07H491.409V1579.25H485.886V1568.43H474.649V1579.25H469.113Z" fill="black"/>
<rect width="406" height="253" transform="translate(574 1379.25)" fill="black"/>
<path d="M662 1431.25C657.226 1436.02 654.544 1442.5 654.544 1449.25C654.544 1456 657.226 1462.48 662 1467.25C666.774 1472.02 673.249 1474.71 680 1474.71C686.751 1474.71 693.226 1472.02 698 1467.25C698 1474.37 695.889 1481.33 691.933 1487.25C687.977 1493.17 682.355 1497.78 675.777 1500.51C669.198 1503.23 661.96 1503.95 654.977 1502.56C647.993 1501.17 641.579 1497.74 636.544 1492.71C631.509 1487.67 628.081 1481.26 626.692 1474.27C625.303 1467.29 626.016 1460.05 628.74 1453.47C631.465 1446.9 636.079 1441.27 641.999 1437.32C647.92 1433.36 654.88 1431.25 662 1431.25Z" stroke="white" stroke-width="7" stroke-linecap="round" stroke-linejoin="round"/>
<path d="M615.278 1553.63V1549.07H636.781V1553.63H628.766V1575.25H623.294V1553.63H615.278ZM640.692 1575.25V1549.07H646.227V1559.87H657.464V1549.07H662.987V1575.25H657.464V1564.43H646.227V1575.25H640.692ZM667.92 1575.25V1549.07H685.562V1553.63H673.456V1559.87H684.654V1564.43H673.456V1570.69H685.613V1575.25H667.92ZM690.332 1549.07H697.159L704.369 1566.66H704.676L711.886 1549.07H718.713V1575.25H713.344V1558.21H713.126L706.351 1575.12H702.694L695.919 1558.14H695.702V1575.25H690.332V1549.07ZM723.643 1575.25V1549.07H741.285V1553.63H729.178V1559.87H740.377V1564.43H729.178V1570.69H741.336V1575.25H723.643ZM768.959 1556.6C768.857 1555.57 768.418 1554.77 767.642 1554.19C766.867 1553.62 765.814 1553.34 764.485 1553.34C763.581 1553.34 762.819 1553.47 762.196 1553.72C761.574 1553.97 761.097 1554.31 760.765 1554.76C760.441 1555.2 760.279 1555.7 760.279 1556.27C760.262 1556.73 760.36 1557.14 760.573 1557.49C760.794 1557.84 761.097 1558.14 761.48 1558.4C761.864 1558.65 762.307 1558.87 762.81 1559.05C763.313 1559.23 763.85 1559.38 764.421 1559.51L766.773 1560.08C767.915 1560.33 768.963 1560.67 769.918 1561.1C770.873 1561.52 771.699 1562.05 772.398 1562.67C773.097 1563.29 773.638 1564.03 774.022 1564.87C774.414 1565.71 774.614 1566.68 774.623 1567.77C774.614 1569.37 774.205 1570.76 773.395 1571.94C772.594 1573.11 771.435 1574.01 769.918 1574.66C768.409 1575.3 766.59 1575.62 764.459 1575.62C762.346 1575.62 760.505 1575.3 758.936 1574.65C757.377 1574 756.158 1573.04 755.28 1571.77C754.411 1570.49 753.955 1568.91 753.912 1567.03H759.269C759.328 1567.91 759.58 1568.64 760.023 1569.23C760.475 1569.81 761.076 1570.25 761.826 1570.55C762.584 1570.84 763.441 1570.98 764.395 1570.98C765.333 1570.98 766.147 1570.84 766.837 1570.57C767.536 1570.3 768.077 1569.92 768.461 1569.43C768.844 1568.95 769.036 1568.39 769.036 1567.76C769.036 1567.17 768.861 1566.68 768.512 1566.28C768.171 1565.87 767.668 1565.53 767.003 1565.25C766.347 1564.97 765.542 1564.72 764.587 1564.49L761.736 1563.77C759.529 1563.23 757.786 1562.39 756.507 1561.25C755.229 1560.11 754.594 1558.57 754.603 1556.64C754.594 1555.05 755.016 1553.67 755.868 1552.48C756.729 1551.3 757.909 1550.37 759.409 1549.71C760.909 1549.04 762.614 1548.71 764.523 1548.71C766.466 1548.71 768.162 1549.04 769.611 1549.71C771.069 1550.37 772.202 1551.3 773.012 1552.48C773.821 1553.67 774.239 1555.04 774.265 1556.6H768.959ZM794.887 1549.07H800.422V1566.07C800.422 1567.98 799.966 1569.65 799.055 1571.08C798.151 1572.51 796.885 1573.63 795.258 1574.43C793.63 1575.22 791.733 1575.62 789.569 1575.62C787.395 1575.62 785.495 1575.22 783.867 1574.43C782.239 1573.63 780.974 1572.51 780.07 1571.08C779.167 1569.65 778.715 1567.98 778.715 1566.07V1549.07H784.251V1565.6C784.251 1566.6 784.468 1567.48 784.903 1568.26C785.346 1569.03 785.968 1569.64 786.769 1570.09C787.57 1570.53 788.503 1570.75 789.569 1570.75C790.643 1570.75 791.576 1570.53 792.368 1570.09C793.17 1569.64 793.787 1569.03 794.222 1568.26C794.665 1567.48 794.887 1566.6 794.887 1565.6V1549.07ZM805.346 1575.25V1549.07H815.675C817.661 1549.07 819.353 1549.45 820.751 1550.21C822.148 1550.96 823.214 1552 823.947 1553.34C824.688 1554.67 825.059 1556.2 825.059 1557.94C825.059 1559.68 824.684 1561.21 823.934 1562.54C823.184 1563.87 822.097 1564.91 820.674 1565.65C819.259 1566.39 817.546 1566.76 815.535 1566.76H808.951V1562.33H814.64C815.705 1562.33 816.583 1562.14 817.273 1561.78C817.972 1561.4 818.492 1560.88 818.833 1560.23C819.183 1559.56 819.357 1558.8 819.357 1557.94C819.357 1557.07 819.183 1556.31 818.833 1555.66C818.492 1555.01 817.972 1554.5 817.273 1554.14C816.575 1553.78 815.688 1553.59 814.614 1553.59H810.881V1575.25H805.346ZM829.024 1575.25V1549.07H839.353C841.339 1549.07 843.031 1549.45 844.428 1550.21C845.826 1550.96 846.892 1552 847.624 1553.34C848.366 1554.67 848.737 1556.2 848.737 1557.94C848.737 1559.68 848.362 1561.21 847.612 1562.54C846.862 1563.87 845.775 1564.91 844.352 1565.65C842.937 1566.39 841.224 1566.76 839.213 1566.76H832.629V1562.33H838.318C839.383 1562.33 840.261 1562.14 840.951 1561.78C841.65 1561.4 842.17 1560.88 842.511 1560.23C842.86 1559.56 843.035 1558.8 843.035 1557.94C843.035 1557.07 842.86 1556.31 842.511 1555.66C842.17 1555.01 841.65 1554.5 840.951 1554.14C840.252 1553.78 839.366 1553.59 838.292 1553.59H834.559V1575.25H829.024ZM876.761 1562.16C876.761 1565.01 876.22 1567.44 875.137 1569.45C874.064 1571.45 872.598 1572.98 870.74 1574.04C868.89 1575.08 866.811 1575.61 864.501 1575.61C862.174 1575.61 860.086 1575.08 858.237 1574.02C856.387 1572.97 854.926 1571.44 853.852 1569.43C852.778 1567.43 852.241 1565.01 852.241 1562.16C852.241 1559.3 852.778 1556.88 853.852 1554.87C854.926 1552.87 856.387 1551.34 858.237 1550.3C860.086 1549.24 862.174 1548.71 864.501 1548.71C866.811 1548.71 868.89 1549.24 870.74 1550.3C872.598 1551.34 874.064 1552.87 875.137 1554.87C876.22 1556.88 876.761 1559.3 876.761 1562.16ZM871.149 1562.16C871.149 1560.31 870.872 1558.75 870.318 1557.48C869.772 1556.21 869.001 1555.25 868.004 1554.59C867.007 1553.93 865.839 1553.61 864.501 1553.61C863.163 1553.61 861.995 1553.93 860.998 1554.59C860.001 1555.25 859.225 1556.21 858.672 1557.48C858.126 1558.75 857.853 1560.31 857.853 1562.16C857.853 1564.01 858.126 1565.57 858.672 1566.84C859.225 1568.11 860.001 1569.07 860.998 1569.73C861.995 1570.38 863.163 1570.71 864.501 1570.71C865.839 1570.71 867.007 1570.38 868.004 1569.73C869.001 1569.07 869.772 1568.11 870.318 1566.84C870.872 1565.57 871.149 1564.01 871.149 1562.16ZM881.231 1575.25V1549.07H891.56C893.537 1549.07 895.225 1549.42 896.623 1550.13C898.029 1550.83 899.099 1551.82 899.831 1553.11C900.573 1554.39 900.944 1555.89 900.944 1557.62C900.944 1559.36 900.569 1560.86 899.819 1562.11C899.069 1563.35 897.982 1564.31 896.559 1564.97C895.144 1565.64 893.431 1565.97 891.42 1565.97H884.503V1561.52H890.525C891.581 1561.52 892.459 1561.37 893.158 1561.09C893.857 1560.8 894.377 1560.36 894.718 1559.78C895.067 1559.2 895.242 1558.48 895.242 1557.62C895.242 1556.75 895.067 1556.02 894.718 1555.42C894.377 1554.83 893.853 1554.37 893.145 1554.07C892.447 1553.75 891.564 1553.59 890.499 1553.59H886.766V1575.25H881.231ZM895.37 1563.34L901.877 1575.25H895.766L889.4 1563.34H895.37ZM904.228 1553.63V1549.07H925.73V1553.63H917.715V1575.25H912.243V1553.63H904.228Z" fill="white"/>
<rect width="406" height="253" transform="translate(1466 1379.25)" fill="black"/>
<path d="M1518 1443.25H1590" stroke="white" stroke-width="7" stroke-linecap="round" stroke-linejoin="round"/>
<path d="M1582 1443.25V1499.25C1582 1503.25 1578 1507.25 1574 1507.25H1534C1530 1507.25 1526 1503.25 1526 1499.25V1443.25" stroke="white" stroke-width="7" stroke-linecap="round" stroke-linejoin="round"/>
<path d="M1538 1443.25V1435.25C1538 1431.25 1542 1427.25 1546 1427.25H1562C1566 1427.25 1570 1431.25 1570 1435.25V1443.25" stroke="white" stroke-width="7" stroke-linecap="round" stroke-linejoin="round"/>
<path d="M1546 1463.25V1487.25" stroke="white" stroke-width="7" stroke-linecap="round" stroke-linejoin="round"/>
<path d="M1562 1463.25V1487.25" stroke="white" stroke-width="7" stroke-linecap="round" stroke-linejoin="round"/>
<path d="M1507.28 1553.63V1549.07H1528.78V1553.63H1520.77V1575.25H1515.29V1553.63H1507.28ZM1532.69 1575.25V1549.07H1543.02C1545 1549.07 1546.69 1549.42 1548.08 1550.13C1549.49 1550.83 1550.56 1551.82 1551.29 1553.11C1552.03 1554.39 1552.4 1555.89 1552.4 1557.62C1552.4 1559.36 1552.03 1560.86 1551.28 1562.11C1550.53 1563.35 1549.44 1564.31 1548.02 1564.97C1546.6 1565.64 1544.89 1565.97 1542.88 1565.97H1535.96V1561.52H1541.99C1543.04 1561.52 1543.92 1561.37 1544.62 1561.09C1545.32 1560.8 1545.84 1560.36 1546.18 1559.78C1546.53 1559.2 1546.7 1558.48 1546.7 1557.62C1546.7 1556.75 1546.53 1556.02 1546.18 1555.42C1545.84 1554.83 1545.31 1554.37 1544.61 1554.07C1543.91 1553.75 1543.03 1553.59 1541.96 1553.59H1538.23V1575.25H1532.69ZM1546.83 1563.34L1553.34 1575.25H1547.23L1540.86 1563.34H1546.83ZM1561.2 1575.25H1555.27L1564.31 1549.07H1571.44L1580.46 1575.25H1574.53L1567.97 1555.05H1567.77L1561.2 1575.25ZM1560.83 1564.96H1574.84V1569.28H1560.83V1564.96ZM1597.59 1556.6C1597.49 1555.57 1597.05 1554.77 1596.27 1554.19C1595.5 1553.62 1594.45 1553.34 1593.12 1553.34C1592.21 1553.34 1591.45 1553.47 1590.83 1553.72C1590.21 1553.97 1589.73 1554.31 1589.4 1554.76C1589.07 1555.2 1588.91 1555.7 1588.91 1556.27C1588.89 1556.73 1588.99 1557.14 1589.2 1557.49C1589.43 1557.84 1589.73 1558.14 1590.11 1558.4C1590.49 1558.65 1590.94 1558.87 1591.44 1559.05C1591.94 1559.23 1592.48 1559.38 1593.05 1559.51L1595.4 1560.08C1596.55 1560.33 1597.59 1560.67 1598.55 1561.1C1599.5 1561.52 1600.33 1562.05 1601.03 1562.67C1601.73 1563.29 1602.27 1564.03 1602.65 1564.87C1603.04 1565.71 1603.24 1566.68 1603.25 1567.77C1603.24 1569.37 1602.84 1570.76 1602.03 1571.94C1601.22 1573.11 1600.07 1574.01 1598.55 1574.66C1597.04 1575.3 1595.22 1575.62 1593.09 1575.62C1590.98 1575.62 1589.14 1575.3 1587.57 1574.65C1586.01 1574 1584.79 1573.04 1583.91 1571.77C1583.04 1570.49 1582.59 1568.91 1582.54 1567.03H1587.9C1587.96 1567.91 1588.21 1568.64 1588.65 1569.23C1589.11 1569.81 1589.71 1570.25 1590.46 1570.55C1591.22 1570.84 1592.07 1570.98 1593.03 1570.98C1593.96 1570.98 1594.78 1570.84 1595.47 1570.57C1596.17 1570.3 1596.71 1569.92 1597.09 1569.43C1597.47 1568.95 1597.67 1568.39 1597.67 1567.76C1597.67 1567.17 1597.49 1566.68 1597.14 1566.28C1596.8 1565.87 1596.3 1565.53 1595.63 1565.25C1594.98 1564.97 1594.17 1564.72 1593.22 1564.49L1590.37 1563.77C1588.16 1563.23 1586.42 1562.39 1585.14 1561.25C1583.86 1560.11 1583.22 1558.57 1583.23 1556.64C1583.22 1555.05 1583.65 1553.67 1584.5 1552.48C1585.36 1551.3 1586.54 1550.37 1588.04 1549.71C1589.54 1549.04 1591.24 1548.71 1593.15 1548.71C1595.1 1548.71 1596.79 1549.04 1598.24 1549.71C1599.7 1550.37 1600.83 1551.3 1601.64 1552.48C1602.45 1553.67 1602.87 1555.04 1602.9 1556.6H1597.59ZM1607.35 1575.25V1549.07H1612.88V1559.87H1624.12V1549.07H1629.64V1575.25H1624.12V1564.43H1612.88V1575.25H1607.35ZM1651.2 1575.63C1649.39 1575.63 1647.84 1575.31 1646.52 1574.66C1645.21 1574.01 1644.2 1573.14 1643.49 1572.03C1642.79 1570.91 1642.44 1569.67 1642.44 1568.3C1642.44 1567.27 1642.65 1566.37 1643.06 1565.57C1643.47 1564.78 1644.04 1564.05 1644.77 1563.39C1645.5 1562.71 1646.36 1562.04 1647.33 1561.38L1652.4 1558.04C1653.06 1557.62 1653.54 1557.19 1653.85 1556.73C1654.15 1556.26 1654.31 1555.75 1654.31 1555.2C1654.31 1554.68 1654.1 1554.2 1653.68 1553.76C1653.26 1553.32 1652.67 1553.1 1651.9 1553.11C1651.39 1553.11 1650.95 1553.22 1650.58 1553.45C1650.2 1553.67 1649.91 1553.97 1649.69 1554.34C1649.49 1554.69 1649.39 1555.09 1649.39 1555.54C1649.39 1556.08 1649.54 1556.64 1649.85 1557.2C1650.15 1557.76 1650.56 1558.36 1651.07 1558.99C1651.59 1559.61 1652.14 1560.28 1652.75 1561.01L1665.16 1575.25H1659.49L1649.13 1563.72C1648.45 1562.94 1647.77 1562.13 1647.09 1561.29C1646.41 1560.44 1645.85 1559.53 1645.4 1558.58C1644.95 1557.62 1644.72 1556.57 1644.72 1555.45C1644.72 1554.18 1645.01 1553.04 1645.6 1552.02C1646.2 1551.01 1647.03 1550.21 1648.11 1549.62C1649.18 1549.02 1650.43 1548.72 1651.87 1548.72C1653.26 1548.72 1654.47 1549.01 1655.48 1549.58C1656.51 1550.14 1657.29 1550.89 1657.84 1551.83C1658.39 1552.76 1658.67 1553.78 1658.67 1554.9C1658.67 1556.13 1658.36 1557.25 1657.75 1558.26C1657.14 1559.26 1656.29 1560.15 1655.19 1560.94L1649.85 1564.79C1649.12 1565.32 1648.59 1565.86 1648.24 1566.42C1647.89 1566.96 1647.72 1567.49 1647.72 1567.99C1647.72 1568.61 1647.88 1569.17 1648.18 1569.66C1648.49 1570.16 1648.93 1570.55 1649.49 1570.84C1650.05 1571.12 1650.71 1571.26 1651.47 1571.26C1652.39 1571.26 1653.3 1571.05 1654.19 1570.63C1655.1 1570.21 1655.91 1569.61 1656.65 1568.83C1657.39 1568.05 1657.98 1567.12 1658.42 1566.05C1658.87 1564.97 1659.09 1563.78 1659.09 1562.48H1663.6C1663.6 1564.08 1663.43 1565.53 1663.08 1566.81C1662.73 1568.09 1662.24 1569.21 1661.62 1570.16C1661 1571.11 1660.29 1571.88 1659.49 1572.49C1659.23 1572.65 1658.98 1572.8 1658.74 1572.95C1658.51 1573.09 1658.26 1573.25 1658 1573.41C1657.03 1574.19 1655.94 1574.76 1654.74 1575.11C1653.55 1575.46 1652.37 1575.63 1651.2 1575.63ZM1692.78 1549.07H1698.31V1566.07C1698.31 1567.98 1697.86 1569.65 1696.94 1571.08C1696.04 1572.51 1694.77 1573.63 1693.15 1574.43C1691.52 1575.22 1689.62 1575.62 1687.46 1575.62C1685.28 1575.62 1683.38 1575.22 1681.76 1574.43C1680.13 1573.63 1678.86 1572.51 1677.96 1571.08C1677.06 1569.65 1676.6 1567.98 1676.6 1566.07V1549.07H1682.14V1565.6C1682.14 1566.6 1682.36 1567.48 1682.79 1568.26C1683.23 1569.03 1683.86 1569.64 1684.66 1570.09C1685.46 1570.53 1686.39 1570.75 1687.46 1570.75C1688.53 1570.75 1689.46 1570.53 1690.26 1570.09C1691.06 1569.64 1691.68 1569.03 1692.11 1568.26C1692.55 1567.48 1692.78 1566.6 1692.78 1565.6V1549.07ZM1725.13 1549.07V1575.25H1720.35L1708.96 1558.77H1708.77V1575.25H1703.23V1549.07H1708.09L1719.39 1565.53H1719.62V1549.07H1725.13ZM1739.36 1575.25H1730.08V1549.07H1739.43C1742.07 1549.07 1744.33 1549.59 1746.24 1550.64C1748.14 1551.68 1749.6 1553.18 1750.62 1555.13C1751.65 1557.08 1752.17 1559.41 1752.17 1562.13C1752.17 1564.86 1751.65 1567.2 1750.62 1569.16C1749.6 1571.12 1748.13 1572.63 1746.21 1573.68C1744.3 1574.73 1742.02 1575.25 1739.36 1575.25ZM1735.61 1570.51H1739.13C1740.76 1570.51 1742.14 1570.22 1743.26 1569.64C1744.38 1569.05 1745.23 1568.14 1745.79 1566.91C1746.36 1565.68 1746.64 1564.09 1746.64 1562.13C1746.64 1560.2 1746.36 1558.62 1745.79 1557.39C1745.23 1556.16 1744.39 1555.26 1743.27 1554.68C1742.15 1554.1 1740.78 1553.81 1739.14 1553.81H1735.61V1570.51ZM1780.7 1562.16C1780.7 1565.01 1780.16 1567.44 1779.07 1569.45C1778 1571.45 1776.53 1572.98 1774.68 1574.04C1772.83 1575.08 1770.75 1575.61 1768.44 1575.61C1766.11 1575.61 1764.02 1575.08 1762.17 1574.02C1760.32 1572.97 1758.86 1571.44 1757.79 1569.43C1756.71 1567.43 1756.18 1565.01 1756.18 1562.16C1756.18 1559.3 1756.71 1556.88 1757.79 1554.87C1758.86 1552.87 1760.32 1551.34 1762.17 1550.3C1764.02 1549.24 1766.11 1548.71 1768.44 1548.71C1770.75 1548.71 1772.83 1549.24 1774.68 1550.3C1776.53 1551.34 1778 1552.87 1779.07 1554.87C1780.16 1556.88 1780.7 1559.3 1780.7 1562.16ZM1775.08 1562.16C1775.08 1560.31 1774.81 1558.75 1774.25 1557.48C1773.71 1556.21 1772.94 1555.25 1771.94 1554.59C1770.94 1553.93 1769.77 1553.61 1768.44 1553.61C1767.1 1553.61 1765.93 1553.93 1764.93 1554.59C1763.94 1555.25 1763.16 1556.21 1762.61 1557.48C1762.06 1558.75 1761.79 1560.31 1761.79 1562.16C1761.79 1564.01 1762.06 1565.57 1762.61 1566.84C1763.16 1568.11 1763.94 1569.07 1764.93 1569.73C1765.93 1570.38 1767.1 1570.71 1768.44 1570.71C1769.77 1570.71 1770.94 1570.38 1771.94 1569.73C1772.94 1569.07 1773.71 1568.11 1774.25 1566.84C1774.81 1565.57 1775.08 1564.01 1775.08 1562.16Z" fill="white"/>
<mask id="path-21-inside-2_2058_1353" fill="white">
<path d="M1020 1379.25H1426V1632.25H1020V1379.25Z"/>
</mask>
<path d="M1020 1379.25V1375.25H1016V1379.25H1020ZM1426 1379.25H1430V1375.25H1426V1379.25ZM1426 1632.25V1636.25H1430V1632.25H1426ZM1020 1632.25H1016V1636.25H1020V1632.25ZM1020 1379.25V1383.25H1426V1379.25V1375.25H1020V1379.25ZM1426 1379.25H1422V1632.25H1426H1430V1379.25H1426ZM1426 1632.25V1628.25H1020V1632.25V1636.25H1426V1632.25ZM1020 1632.25H1024V1379.25H1020H1016V1632.25H1020Z" fill="black" mask="url(#path-21-inside-2_2058_1353)"/>
<path d="M1080 1479.25C1079.24 1479.25 1078.5 1479.04 1077.86 1478.64C1077.22 1478.24 1076.7 1477.66 1076.38 1476.98C1076.05 1476.29 1075.93 1475.53 1076.01 1474.78C1076.1 1474.03 1076.4 1473.32 1076.88 1472.73L1116.48 1431.93C1116.78 1431.59 1117.18 1431.36 1117.63 1431.27C1118.07 1431.19 1118.53 1431.26 1118.93 1431.48C1119.33 1431.69 1119.65 1432.03 1119.83 1432.45C1120.01 1432.87 1120.04 1433.33 1119.92 1433.77L1112.24 1457.85C1112.01 1458.46 1111.94 1459.11 1112.02 1459.75C1112.1 1460.39 1112.33 1461.01 1112.7 1461.54C1113.07 1462.07 1113.57 1462.5 1114.14 1462.8C1114.72 1463.1 1115.35 1463.25 1116 1463.25H1144C1144.76 1463.25 1145.5 1463.46 1146.14 1463.86C1146.78 1464.27 1147.3 1464.84 1147.62 1465.52C1147.95 1466.21 1148.07 1466.97 1147.99 1467.72C1147.9 1468.47 1147.6 1469.18 1147.12 1469.77L1107.52 1510.57C1107.22 1510.91 1106.82 1511.15 1106.37 1511.23C1105.93 1511.31 1105.47 1511.24 1105.07 1511.02C1104.67 1510.81 1104.35 1510.47 1104.17 1510.05C1103.99 1509.63 1103.96 1509.17 1104.08 1508.73L1111.76 1484.65C1111.99 1484.04 1112.06 1483.39 1111.98 1482.75C1111.9 1482.11 1111.67 1481.5 1111.3 1480.96C1110.93 1480.43 1110.43 1480 1109.86 1479.7C1109.28 1479.4 1108.65 1479.25 1108 1479.25H1080Z" stroke="black" stroke-width="7" stroke-linecap="round" stroke-linejoin="round"/>
<path d="M1070.79 1579.25H1064.86L1073.89 1553.07H1081.03L1090.05 1579.25H1084.12L1077.56 1559.05H1077.36L1070.79 1579.25ZM1070.42 1568.96H1084.43V1573.28H1070.42V1568.96ZM1109.75 1553.07H1115.28V1570.07C1115.28 1571.98 1114.83 1573.65 1113.91 1575.08C1113.01 1576.51 1111.74 1577.63 1110.12 1578.43C1108.49 1579.22 1106.59 1579.62 1104.43 1579.62C1102.25 1579.62 1100.35 1579.22 1098.73 1578.43C1097.1 1577.63 1095.83 1576.51 1094.93 1575.08C1094.03 1573.65 1093.57 1571.98 1093.57 1570.07V1553.07H1099.11V1569.6C1099.11 1570.6 1099.33 1571.48 1099.76 1572.26C1100.21 1573.03 1100.83 1573.64 1101.63 1574.09C1102.43 1574.53 1103.36 1574.75 1104.43 1574.75C1105.5 1574.75 1106.44 1574.53 1107.23 1574.09C1108.03 1573.64 1108.65 1573.03 1109.08 1572.26C1109.52 1571.48 1109.75 1570.6 1109.75 1569.6V1553.07ZM1119.21 1557.63V1553.07H1140.71V1557.63H1132.7V1579.25H1127.22V1557.63H1119.21ZM1167.49 1566.16C1167.49 1569.01 1166.94 1571.44 1165.86 1573.45C1164.79 1575.45 1163.32 1576.98 1161.46 1578.04C1159.61 1579.08 1157.54 1579.61 1155.23 1579.61C1152.9 1579.61 1150.81 1579.08 1148.96 1578.02C1147.11 1576.97 1145.65 1575.44 1144.58 1573.43C1143.5 1571.43 1142.97 1569.01 1142.97 1566.16C1142.97 1563.3 1143.5 1560.88 1144.58 1558.87C1145.65 1556.87 1147.11 1555.34 1148.96 1554.3C1150.81 1553.24 1152.9 1552.71 1155.23 1552.71C1157.54 1552.71 1159.61 1553.24 1161.46 1554.3C1163.32 1555.34 1164.79 1556.87 1165.86 1558.87C1166.94 1560.88 1167.49 1563.3 1167.49 1566.16ZM1161.87 1566.16C1161.87 1564.31 1161.6 1562.75 1161.04 1561.48C1160.5 1560.21 1159.73 1559.25 1158.73 1558.59C1157.73 1557.93 1156.56 1557.61 1155.23 1557.61C1153.89 1557.61 1152.72 1557.93 1151.72 1558.59C1150.73 1559.25 1149.95 1560.21 1149.4 1561.48C1148.85 1562.75 1148.58 1564.31 1148.58 1566.16C1148.58 1568.01 1148.85 1569.57 1149.4 1570.84C1149.95 1572.11 1150.73 1573.07 1151.72 1573.73C1152.72 1574.38 1153.89 1574.71 1155.23 1574.71C1156.56 1574.71 1157.73 1574.38 1158.73 1573.73C1159.73 1573.07 1160.5 1572.11 1161.04 1570.84C1161.6 1569.57 1161.87 1568.01 1161.87 1566.16ZM1180.66 1579.25V1553.07H1186.19V1574.69H1197.42V1579.25H1180.66ZM1224.49 1566.16C1224.49 1569.01 1223.95 1571.44 1222.87 1573.45C1221.79 1575.45 1220.33 1576.98 1218.47 1578.04C1216.62 1579.08 1214.54 1579.61 1212.23 1579.61C1209.9 1579.61 1207.82 1579.08 1205.97 1578.02C1204.12 1576.97 1202.66 1575.44 1201.58 1573.43C1200.51 1571.43 1199.97 1569.01 1199.97 1566.16C1199.97 1563.3 1200.51 1560.88 1201.58 1558.87C1202.66 1556.87 1204.12 1555.34 1205.97 1554.3C1207.82 1553.24 1209.9 1552.71 1212.23 1552.71C1214.54 1552.71 1216.62 1553.24 1218.47 1554.3C1220.33 1555.34 1221.79 1556.87 1222.87 1558.87C1223.95 1560.88 1224.49 1563.3 1224.49 1566.16ZM1218.88 1566.16C1218.88 1564.31 1218.6 1562.75 1218.05 1561.48C1217.5 1560.21 1216.73 1559.25 1215.73 1558.59C1214.74 1557.93 1213.57 1557.61 1212.23 1557.61C1210.89 1557.61 1209.73 1557.93 1208.73 1558.59C1207.73 1559.25 1206.96 1560.21 1206.4 1561.48C1205.86 1562.75 1205.58 1564.31 1205.58 1566.16C1205.58 1568.01 1205.86 1569.57 1206.4 1570.84C1206.96 1572.11 1207.73 1573.07 1208.73 1573.73C1209.73 1574.38 1210.89 1574.71 1212.23 1574.71C1213.57 1574.71 1214.74 1574.38 1215.73 1573.73C1216.73 1573.07 1217.5 1572.11 1218.05 1570.84C1218.6 1569.57 1218.88 1568.01 1218.88 1566.16ZM1252.06 1562.23H1246.46C1246.36 1561.51 1246.15 1560.87 1245.84 1560.3C1245.52 1559.73 1245.12 1559.25 1244.62 1558.85C1244.13 1558.45 1243.56 1558.14 1242.91 1557.93C1242.27 1557.71 1241.57 1557.61 1240.82 1557.61C1239.47 1557.61 1238.29 1557.94 1237.28 1558.62C1236.28 1559.28 1235.5 1560.25 1234.94 1561.53C1234.39 1562.8 1234.11 1564.34 1234.11 1566.16C1234.11 1568.03 1234.39 1569.59 1234.94 1570.86C1235.51 1572.13 1236.29 1573.09 1237.3 1573.74C1238.3 1574.39 1239.47 1574.71 1240.79 1574.71C1241.53 1574.71 1242.21 1574.61 1242.84 1574.42C1243.48 1574.22 1244.05 1573.94 1244.54 1573.56C1245.04 1573.18 1245.45 1572.71 1245.77 1572.17C1246.1 1571.62 1246.33 1571 1246.46 1570.3L1252.06 1570.33C1251.92 1571.53 1251.55 1572.69 1250.98 1573.8C1250.4 1574.91 1249.63 1575.9 1248.66 1576.78C1247.7 1577.65 1246.55 1578.34 1245.21 1578.85C1243.88 1579.36 1242.38 1579.61 1240.7 1579.61C1238.36 1579.61 1236.27 1579.08 1234.43 1578.02C1232.6 1576.97 1231.15 1575.44 1230.09 1573.43C1229.03 1571.43 1228.5 1569.01 1228.5 1566.16C1228.5 1563.3 1229.04 1560.88 1230.11 1558.87C1231.19 1556.87 1232.64 1555.34 1234.48 1554.3C1236.32 1553.24 1238.4 1552.71 1240.7 1552.71C1242.21 1552.71 1243.62 1552.92 1244.92 1553.35C1246.22 1553.78 1247.37 1554.4 1248.38 1555.22C1249.39 1556.03 1250.2 1557.02 1250.83 1558.19C1251.47 1559.37 1251.88 1560.72 1252.06 1562.23ZM1256.4 1579.25V1553.07H1261.94V1564.61H1262.28L1271.7 1553.07H1278.34L1268.62 1564.79L1278.45 1579.25H1271.83L1264.66 1568.49L1261.94 1571.81V1579.25H1256.4Z" fill="black"/>
<path d="M659.374 1865.5V1830.59H673.147C675.794 1830.59 678.05 1831.1 679.914 1832.11C681.777 1833.11 683.198 1834.5 684.175 1836.28C685.164 1838.06 685.658 1840.1 685.658 1842.42C685.658 1844.74 685.158 1846.78 684.158 1848.56C683.158 1850.33 681.709 1851.71 679.811 1852.7C677.925 1853.69 675.641 1854.18 672.959 1854.18H664.181V1848.27H671.766C673.186 1848.27 674.357 1848.02 675.277 1847.53C676.209 1847.03 676.902 1846.35 677.357 1845.47C677.823 1844.59 678.056 1843.57 678.056 1842.42C678.056 1841.26 677.823 1840.25 677.357 1839.39C676.902 1838.51 676.209 1837.84 675.277 1837.36C674.346 1836.87 673.164 1836.62 671.732 1836.62H666.755V1865.5H659.374ZM700.404 1865.5V1830.59H714.176C716.813 1830.59 719.063 1831.06 720.926 1832.01C722.801 1832.94 724.227 1834.26 725.205 1835.98C726.193 1837.68 726.688 1839.69 726.688 1841.99C726.688 1844.31 726.188 1846.31 725.188 1847.98C724.188 1849.64 722.739 1850.91 720.841 1851.8C718.955 1852.68 716.671 1853.12 713.989 1853.12H704.767V1847.19H712.796C714.205 1847.19 715.375 1847 716.307 1846.61C717.239 1846.23 717.932 1845.65 718.387 1844.88C718.852 1844.1 719.085 1843.14 719.085 1841.99C719.085 1840.84 718.852 1839.86 718.387 1839.06C717.932 1838.27 717.233 1837.66 716.29 1837.26C715.358 1836.84 714.182 1836.62 712.762 1836.62H707.784V1865.5H700.404ZM719.256 1849.61L727.932 1865.5H719.784L711.296 1849.61H719.256ZM749.236 1830.59V1865.5H741.855V1830.59H749.236ZM771.567 1830.59L780.004 1857.11H780.328L788.783 1830.59H796.964L784.93 1865.5H775.419L763.368 1830.59H771.567ZM812.494 1865.5H804.585L816.636 1830.59H826.148L838.182 1865.5H830.273L821.528 1838.57H821.255L812.494 1865.5ZM812 1851.78H830.682V1857.54H812V1851.78ZM846.74 1836.68V1830.59H875.41V1836.68H864.723V1865.5H857.427V1836.68H846.74ZM890.083 1865.5V1830.59H913.606V1836.68H897.464V1844.99H912.396V1851.08H897.464V1859.41H913.674V1865.5H890.083ZM979.685 1830.59V1865.5H973.31L958.123 1843.53H957.867V1865.5H950.486V1830.59H956.964L972.032 1852.55H972.339V1830.59H979.685ZM1027.81 1848.05C1027.81 1851.85 1027.09 1855.09 1025.65 1857.76C1024.22 1860.43 1022.26 1862.47 1019.79 1863.88C1017.32 1865.28 1014.55 1865.98 1011.47 1865.98C1008.37 1865.98 1005.58 1865.27 1003.12 1863.86C1000.65 1862.45 998.701 1860.41 997.269 1857.74C995.837 1855.07 995.121 1851.84 995.121 1848.05C995.121 1844.24 995.837 1841 997.269 1838.33C998.701 1835.66 1000.65 1833.62 1003.12 1832.23C1005.58 1830.82 1008.37 1830.11 1011.47 1830.11C1014.55 1830.11 1017.32 1830.82 1019.79 1832.23C1022.26 1833.62 1024.22 1835.66 1025.65 1838.33C1027.09 1841 1027.81 1844.24 1027.81 1848.05ZM1020.33 1848.05C1020.33 1845.58 1019.96 1843.5 1019.22 1841.81C1018.5 1840.11 1017.47 1838.83 1016.14 1837.95C1014.81 1837.08 1013.25 1836.64 1011.47 1836.64C1009.68 1836.64 1008.13 1837.08 1006.8 1837.95C1005.47 1838.83 1004.43 1840.11 1003.7 1841.81C1002.97 1843.5 1002.6 1845.58 1002.6 1848.05C1002.6 1850.51 1002.97 1852.59 1003.7 1854.28C1004.43 1855.98 1005.47 1857.26 1006.8 1858.14C1008.13 1859.01 1009.68 1859.45 1011.47 1859.45C1013.25 1859.45 1014.81 1859.01 1016.14 1858.14C1017.47 1857.26 1018.5 1855.98 1019.22 1854.28C1019.96 1852.59 1020.33 1850.51 1020.33 1848.05ZM1040.31 1836.68V1830.59H1068.98V1836.68H1058.29V1865.5H1051V1836.68H1040.31ZM1083.65 1865.5V1830.59H1107.18V1836.68H1091.03V1844.99H1105.97V1851.08H1091.03V1859.41H1107.24V1865.5H1083.65ZM1141.93 1840.63C1141.8 1839.26 1141.21 1838.19 1140.18 1837.43C1139.14 1836.66 1137.74 1836.28 1135.97 1836.28C1134.76 1836.28 1133.75 1836.45 1132.92 1836.8C1132.09 1837.12 1131.45 1837.59 1131.01 1838.18C1130.58 1838.77 1130.36 1839.44 1130.36 1840.19C1130.34 1840.81 1130.47 1841.36 1130.75 1841.82C1131.05 1842.29 1131.45 1842.69 1131.96 1843.03C1132.47 1843.36 1133.06 1843.65 1133.73 1843.9C1134.4 1844.14 1135.12 1844.35 1135.88 1844.52L1139.02 1845.27C1140.54 1845.61 1141.94 1846.06 1143.21 1846.63C1144.48 1847.2 1145.59 1847.9 1146.52 1848.73C1147.45 1849.56 1148.17 1850.53 1148.68 1851.66C1149.21 1852.78 1149.47 1854.07 1149.48 1855.53C1149.47 1857.66 1148.93 1859.52 1147.85 1861.09C1146.78 1862.64 1145.23 1863.85 1143.21 1864.72C1141.2 1865.57 1138.77 1865.99 1135.93 1865.99C1133.12 1865.99 1130.66 1865.56 1128.57 1864.7C1126.49 1863.84 1124.87 1862.56 1123.69 1860.86C1122.54 1859.16 1121.93 1857.05 1121.87 1854.54H1129.01C1129.09 1855.71 1129.43 1856.69 1130.02 1857.47C1130.62 1858.24 1131.42 1858.83 1132.42 1859.23C1133.43 1859.61 1134.58 1859.81 1135.85 1859.81C1137.1 1859.81 1138.18 1859.62 1139.1 1859.26C1140.04 1858.9 1140.76 1858.39 1141.27 1857.74C1141.78 1857.1 1142.04 1856.35 1142.04 1855.51C1142.04 1854.73 1141.8 1854.07 1141.34 1853.53C1140.88 1853 1140.21 1852.55 1139.33 1852.17C1138.45 1851.8 1137.38 1851.45 1136.1 1851.15L1132.3 1850.19C1129.36 1849.48 1127.04 1848.36 1125.33 1846.84C1123.63 1845.31 1122.78 1843.26 1122.79 1840.68C1122.78 1838.57 1123.34 1836.72 1124.48 1835.14C1125.63 1833.56 1127.2 1832.33 1129.2 1831.44C1131.2 1830.56 1133.47 1830.11 1136.02 1830.11C1138.61 1830.11 1140.87 1830.56 1142.8 1831.44C1144.75 1832.33 1146.26 1833.56 1147.34 1835.14C1148.42 1836.72 1148.97 1838.55 1149.01 1840.63H1141.93ZM1185.46 1865.5V1830.59H1192.84V1859.41H1207.81V1865.5H1185.46ZM1230.03 1830.59V1865.5H1222.65V1830.59H1230.03ZM1269.2 1841.88C1268.96 1841.05 1268.63 1840.31 1268.19 1839.68C1267.76 1839.03 1267.23 1838.48 1266.61 1838.04C1266 1837.59 1265.29 1837.24 1264.5 1837C1263.71 1836.76 1262.84 1836.64 1261.89 1836.64C1260.1 1836.64 1258.53 1837.09 1257.18 1837.97C1255.84 1838.86 1254.8 1840.15 1254.05 1841.84C1253.3 1843.52 1252.92 1845.58 1252.92 1848.01C1252.92 1850.44 1253.29 1852.51 1254.03 1854.22C1254.77 1855.92 1255.81 1857.22 1257.17 1858.12C1258.52 1859.01 1260.11 1859.45 1261.96 1859.45C1263.63 1859.45 1265.05 1859.15 1266.23 1858.56C1267.43 1857.96 1268.34 1857.11 1268.96 1856.02C1269.6 1854.93 1269.92 1853.64 1269.92 1852.15L1271.42 1852.38H1262.42V1846.82H1277.02V1851.22C1277.02 1854.28 1276.38 1856.92 1275.08 1859.12C1273.78 1861.32 1272 1863.01 1269.73 1864.2C1267.46 1865.39 1264.85 1865.98 1261.92 1865.98C1258.65 1865.98 1255.77 1865.26 1253.3 1863.81C1250.82 1862.36 1248.89 1860.3 1247.5 1857.62C1246.13 1854.94 1245.44 1851.76 1245.44 1848.08C1245.44 1845.25 1245.85 1842.73 1246.67 1840.51C1247.5 1838.28 1248.65 1836.4 1250.14 1834.85C1251.63 1833.31 1253.36 1832.13 1255.34 1831.32C1257.32 1830.52 1259.46 1830.11 1261.77 1830.11C1263.75 1830.11 1265.59 1830.4 1267.29 1830.98C1269 1831.55 1270.51 1832.36 1271.82 1833.4C1273.15 1834.45 1274.24 1835.69 1275.08 1837.14C1275.92 1838.57 1276.46 1840.15 1276.7 1841.88H1269.2ZM1292.52 1865.5V1830.59H1299.9V1844.99H1314.88V1830.59H1322.25V1865.5H1314.88V1851.08H1299.9V1865.5H1292.52ZM1336.95 1836.68V1830.59H1365.62V1836.68H1354.94V1865.5H1347.64V1836.68H1336.95Z" fill="black"/>
<path d="M167.021 282.916C165.161 275.707 161.403 269.127 156.138 263.862C150.873 258.597 144.293 254.839 137.083 252.979L9.27064 220.02C7.09004 219.402 5.17083 218.088 3.80423 216.28C2.43764 214.471 1.69824 212.266 1.69824 210C1.69824 207.733 2.43764 205.528 3.80423 203.72C5.17083 201.911 7.09004 200.598 9.27064 199.979L137.083 167C144.29 165.141 150.868 161.387 156.133 156.125C161.398 150.864 165.157 144.289 167.021 137.083L199.979 9.27049C200.592 7.08129 201.904 5.15261 203.715 3.77871C205.526 2.40481 207.737 1.66113 210.01 1.66113C212.284 1.66113 214.494 2.40481 216.306 3.77871C218.117 5.15261 219.429 7.08129 220.041 9.27049L252.979 137.083C254.839 144.293 258.597 150.873 263.862 156.138C269.127 161.403 275.707 165.161 282.916 167.021L410.729 199.958C412.927 200.564 414.865 201.875 416.246 203.689C417.628 205.503 418.376 207.72 418.376 210C418.376 212.28 417.628 214.497 416.246 216.311C414.865 218.124 412.927 219.435 410.729 220.041L282.916 252.979C275.707 254.839 269.127 258.597 263.862 263.862C258.597 269.127 254.839 275.707 252.979 282.916L220.021 410.729C219.408 412.918 218.096 414.847 216.285 416.221C214.474 417.595 212.263 418.338 209.989 418.338C207.716 418.338 205.505 417.595 203.694 416.221C201.883 414.847 200.571 412.918 199.958 410.729L167.021 282.916Z" stroke="black" stroke-opacity="0.05" stroke-width="20.8333" stroke-linecap="round" stroke-linejoin="round"/>
<path d="M376.667 22.5V105.833" stroke="black" stroke-opacity="0.05" stroke-width="20.8333" stroke-linecap="round" stroke-linejoin="round"/>
<path d="M418.333 64.167H335" stroke="black" stroke-opacity="0.05" stroke-width="20.8333" stroke-linecap="round" stroke-linejoin="round"/>
<path d="M43.3335 314.167V355.834" stroke="black" stroke-opacity="0.05" stroke-width="20.8333" stroke-linecap="round" stroke-linejoin="round"/>
<path d="M64.1667 335H22.5" stroke="black" stroke-opacity="0.05" stroke-width="20.8333" stroke-linecap="round" stroke-linejoin="round"/>
</g>
<defs>
<clipPath id="clip0_2058_1353">
<rect width="2000" height="2000" fill="white"/>
</clipPath>
</defs>
</svg>
