<svg width="2000" height="2000" viewBox="0 0 2000 2000" fill="none" xmlns="http://www.w3.org/2000/svg">
<g clip-path="url(#clip0_2058_1293)">
<rect width="2000" height="2000" fill="black"/>
<path d="M1074.67 249.333C1074.67 296 1042 319.333 1003.17 332.866C1001.14 333.555 998.932 333.522 996.92 332.773C958 319.333 925.333 296 925.333 249.333V184C925.333 181.524 926.317 179.15 928.067 177.4C929.817 175.65 932.191 174.666 934.667 174.666C953.333 174.666 976.667 163.466 992.907 149.28C994.884 147.59 997.399 146.662 1000 146.662C1002.6 146.662 1005.12 147.59 1007.09 149.28C1023.43 163.56 1046.67 174.666 1065.33 174.666C1067.81 174.666 1070.18 175.65 1071.93 177.4C1073.68 179.15 1074.67 181.524 1074.67 184V249.333Z" stroke="white" stroke-width="11.6667" stroke-linecap="round" stroke-linejoin="round"/>
<path d="M972 240L990.667 258.666L1028 221.333" stroke="white" stroke-width="11.6667" stroke-linecap="round" stroke-linejoin="round"/>
<path d="M510.457 661.301V544.937H588.866V565.221H535.06V592.949H584.832V613.233H535.06V641.017H589.094V661.301H510.457ZM701.756 544.937V661.301H680.506L629.881 588.062H629.028V661.301H604.426V544.937H626.017L676.244 618.119H677.267V544.937H701.756ZM759.332 661.301H718.082V544.937H759.673C771.378 544.937 781.454 547.267 789.901 551.926C798.348 556.547 804.844 563.195 809.389 571.869C813.973 580.543 816.264 590.922 816.264 603.005C816.264 615.127 813.973 625.543 809.389 634.255C804.844 642.967 798.31 649.653 789.787 654.312C781.302 658.971 771.151 661.301 759.332 661.301ZM742.685 640.221H758.31C765.582 640.221 771.7 638.933 776.662 636.358C781.662 633.744 785.412 629.71 787.912 624.255C790.45 618.763 791.719 611.68 791.719 603.005C791.719 594.407 790.45 587.38 787.912 581.926C785.412 576.471 781.681 572.456 776.719 569.88C771.757 567.305 765.639 566.017 758.366 566.017H742.685V640.221ZM884.409 593.517V612.721H831.341V593.517H884.409ZM892.213 565.221V544.937H987.781V565.221H952.156V661.301H927.838V565.221H892.213ZM1101.14 603.119C1101.14 615.808 1098.73 626.604 1093.92 635.505C1089.15 644.407 1082.64 651.206 1074.38 655.903C1066.16 660.562 1056.92 662.892 1046.65 662.892C1036.31 662.892 1027.03 660.543 1018.81 655.846C1010.59 651.149 1004.09 644.35 999.321 635.449C994.548 626.547 992.162 615.77 992.162 603.119C992.162 590.43 994.548 579.634 999.321 570.733C1004.09 561.831 1010.59 555.051 1018.81 550.392C1027.03 545.695 1036.31 543.346 1046.65 543.346C1056.92 543.346 1066.16 545.695 1074.38 550.392C1082.64 555.051 1089.15 561.831 1093.92 570.733C1098.73 579.634 1101.14 590.43 1101.14 603.119ZM1076.2 603.119C1076.2 594.899 1074.96 587.967 1072.5 582.324C1070.08 576.68 1066.65 572.399 1062.22 569.483C1057.79 566.566 1052.6 565.108 1046.65 565.108C1040.7 565.108 1035.51 566.566 1031.08 569.483C1026.65 572.399 1023.2 576.68 1020.74 582.324C1018.32 587.967 1017.11 594.899 1017.11 603.119C1017.11 611.339 1018.32 618.27 1020.74 623.914C1023.2 629.558 1026.65 633.839 1031.08 636.755C1035.51 639.672 1040.7 641.13 1046.65 641.13C1052.6 641.13 1057.79 639.672 1062.22 636.755C1066.65 633.839 1070.08 629.558 1072.5 623.914C1074.96 618.27 1076.2 611.339 1076.2 603.119ZM1169.28 593.517V612.721H1116.22V593.517H1169.28ZM1186.36 661.301V544.937H1264.77V565.221H1210.97V592.949H1260.74V613.233H1210.97V641.017H1265V661.301H1186.36ZM1377.66 544.937V661.301H1356.41L1305.79 588.062H1304.93V661.301H1280.33V544.937H1301.92L1352.15 618.119H1353.17V544.937H1377.66ZM1435.24 661.301H1393.99V544.937H1435.58C1447.28 544.937 1457.36 547.267 1465.81 551.926C1474.25 556.547 1480.75 563.195 1485.3 571.869C1489.88 580.543 1492.17 590.922 1492.17 603.005C1492.17 615.127 1489.88 625.543 1485.3 634.255C1480.75 642.967 1474.22 649.653 1465.69 654.312C1457.21 658.971 1447.06 661.301 1435.24 661.301ZM1418.59 640.221H1434.22C1441.49 640.221 1447.61 638.933 1452.57 636.358C1457.57 633.744 1461.32 629.71 1463.82 624.255C1466.36 618.763 1467.62 611.68 1467.62 603.005C1467.62 594.407 1466.36 587.38 1463.82 581.926C1461.32 576.471 1457.59 572.456 1452.62 569.88C1447.66 567.305 1441.55 566.017 1434.27 566.017H1418.59V640.221ZM537.989 821.301V704.937H616.398V725.221H562.591V752.949H612.364V773.233H562.591V801.017H616.625V821.301H537.989ZM729.287 704.937V821.301H708.037L657.412 748.062H656.56V821.301H631.957V704.937H653.548L703.776 778.119H704.798V704.937H729.287ZM848.284 745.676H823.398C822.943 742.456 822.015 739.596 820.614 737.096C819.212 734.558 817.413 732.399 815.216 730.619C813.019 728.839 810.481 727.475 807.602 726.528C804.761 725.581 801.674 725.108 798.341 725.108C792.318 725.108 787.072 726.604 782.602 729.596C778.133 732.551 774.667 736.869 772.205 742.551C769.742 748.195 768.511 755.051 768.511 763.119C768.511 771.414 769.742 778.384 772.205 784.028C774.705 789.672 778.189 793.933 782.659 796.812C787.129 799.691 792.299 801.13 798.17 801.13C801.466 801.13 804.515 800.695 807.318 799.824C810.159 798.952 812.678 797.683 814.875 796.017C817.072 794.312 818.89 792.248 820.33 789.824C821.807 787.399 822.83 784.634 823.398 781.528L848.284 781.642C847.64 786.983 846.03 792.134 843.455 797.096C840.917 802.02 837.489 806.433 833.17 810.335C828.89 814.199 823.777 817.267 817.83 819.539C811.92 821.774 805.235 822.892 797.773 822.892C787.394 822.892 778.114 820.543 769.932 815.846C761.788 811.149 755.348 804.35 750.614 795.449C745.917 786.547 743.568 775.77 743.568 763.119C743.568 750.43 745.955 739.634 750.727 730.733C755.5 721.831 761.977 715.051 770.159 710.392C778.341 705.695 787.545 703.346 797.773 703.346C804.515 703.346 810.765 704.293 816.523 706.187C822.318 708.081 827.451 710.846 831.92 714.483C836.39 718.081 840.027 722.494 842.83 727.721C845.67 732.949 847.489 738.933 848.284 745.676ZM861.926 821.301V704.937H907.835C916.623 704.937 924.123 706.509 930.335 709.653C936.585 712.759 941.339 717.172 944.597 722.892C947.892 728.574 949.54 735.259 949.54 742.949C949.54 750.676 947.873 757.324 944.54 762.892C941.206 768.422 936.377 772.664 930.051 775.619C923.763 778.574 916.15 780.051 907.21 780.051H876.472V760.278H903.233C907.93 760.278 911.831 759.634 914.938 758.346C918.044 757.058 920.354 755.127 921.869 752.551C923.422 749.975 924.199 746.774 924.199 742.949C924.199 739.085 923.422 735.827 921.869 733.176C920.354 730.524 918.025 728.517 914.881 727.153C911.775 725.752 907.854 725.051 903.119 725.051H886.528V821.301H861.926ZM924.767 768.346L953.688 821.301H926.528L898.233 768.346H924.767ZM951.264 704.937H978.821L1005.36 755.051H1006.49L1033.03 704.937H1060.58L1018.14 780.164V821.301H993.707V780.164L951.264 704.937ZM1070.02 821.301V704.937H1115.93C1124.75 704.937 1132.27 706.623 1138.49 709.994C1144.7 713.327 1149.43 717.967 1152.69 723.914C1155.99 729.824 1157.63 736.642 1157.63 744.369C1157.63 752.096 1155.97 758.914 1152.63 764.824C1149.3 770.733 1144.47 775.335 1138.14 778.63C1131.86 781.926 1124.24 783.574 1115.3 783.574H1086.04V763.858H1111.33C1116.06 763.858 1119.96 763.043 1123.03 761.414C1126.14 759.748 1128.45 757.456 1129.96 754.539C1131.52 751.585 1132.29 748.195 1132.29 744.369C1132.29 740.505 1131.52 737.134 1129.96 734.255C1128.45 731.339 1126.14 729.085 1123.03 727.494C1119.93 725.865 1115.99 725.051 1111.21 725.051H1094.62V821.301H1070.02ZM1165.18 725.221V704.937H1260.75V725.221H1225.12V821.301H1200.81V725.221H1165.18ZM1272.49 821.301V704.937H1350.9V725.221H1297.09V752.949H1346.86V773.233H1297.09V801.017H1351.12V821.301H1272.49ZM1407.71 821.301H1366.46V704.937H1408.05C1419.75 704.937 1429.83 707.267 1438.28 711.926C1446.72 716.547 1453.22 723.195 1457.76 731.869C1462.35 740.543 1464.64 750.922 1464.64 763.005C1464.64 775.127 1462.35 785.543 1457.76 794.255C1453.22 802.967 1446.68 809.653 1438.16 814.312C1429.68 818.971 1419.53 821.301 1407.71 821.301ZM1391.06 800.221H1406.68C1413.96 800.221 1420.07 798.933 1425.04 796.358C1430.04 793.744 1433.79 789.71 1436.29 784.255C1438.82 778.763 1440.09 771.68 1440.09 763.005C1440.09 754.407 1438.82 747.38 1436.29 741.926C1433.79 736.471 1430.06 732.456 1425.09 729.88C1420.13 727.305 1414.01 726.017 1406.74 726.017H1391.06V800.221Z" fill="white"/>
<path d="M608.8 1059.6V1024.69H629.05V1027.55H611.988V1040.7H627.977V1043.56H611.988V1056.74H629.391V1059.6H608.8ZM657.288 1033.42L647.726 1059.6H644.487L634.925 1033.42H638.214L645.987 1055.59H646.226L653.999 1033.42H657.288ZM673.224 1060.15C670.781 1060.15 668.667 1059.58 666.883 1058.44C665.099 1057.29 663.718 1055.71 662.741 1053.68C661.775 1051.65 661.292 1049.31 661.292 1046.66C661.292 1044.03 661.775 1041.68 662.741 1039.64C663.718 1037.58 665.065 1035.97 666.781 1034.82C668.508 1033.65 670.502 1033.06 672.763 1033.06C674.184 1033.06 675.553 1033.32 676.871 1033.84C678.19 1034.36 679.371 1035.15 680.417 1036.21C681.474 1037.27 682.309 1038.61 682.923 1040.22C683.536 1041.82 683.843 1043.72 683.843 1045.91V1047.41H663.388V1044.74H680.741C680.741 1043.05 680.4 1041.54 679.718 1040.2C679.048 1038.85 678.11 1037.78 676.906 1037C675.712 1036.21 674.332 1035.82 672.763 1035.82C671.104 1035.82 669.644 1036.26 668.383 1037.15C667.121 1038.04 666.133 1039.21 665.417 1040.66C664.712 1042.12 664.354 1043.71 664.343 1045.43V1047.04C664.343 1049.12 664.701 1050.93 665.417 1052.49C666.144 1054.04 667.173 1055.24 668.502 1056.09C669.832 1056.94 671.406 1057.37 673.224 1057.37C674.462 1057.37 675.548 1057.17 676.479 1056.79C677.423 1056.4 678.212 1055.88 678.849 1055.24C679.496 1054.58 679.985 1053.86 680.315 1053.07L683.195 1054.01C682.798 1055.11 682.144 1056.13 681.235 1057.06C680.337 1057.99 679.212 1058.74 677.86 1059.31C676.519 1059.87 674.974 1060.15 673.224 1060.15ZM690.881 1059.6V1033.42H693.83V1037.44H694.051C694.574 1036.12 695.483 1035.06 696.778 1034.25C698.085 1033.43 699.562 1033.03 701.21 1033.03C701.46 1033.03 701.739 1033.03 702.045 1033.04C702.352 1033.05 702.608 1033.07 702.812 1033.08V1036.16C702.676 1036.14 702.438 1036.11 702.097 1036.06C701.756 1036.01 701.386 1035.99 700.989 1035.99C699.625 1035.99 698.409 1036.28 697.341 1036.86C696.284 1037.43 695.449 1038.22 694.835 1039.23C694.222 1040.24 693.915 1041.4 693.915 1042.69V1059.6H690.881ZM711.252 1069.42C710.65 1069.42 710.087 1069.36 709.565 1069.25C709.042 1069.13 708.627 1069.01 708.32 1068.87L709.138 1066.2C710.173 1066.51 711.093 1066.63 711.9 1066.54C712.707 1066.46 713.423 1066.09 714.048 1065.45C714.673 1064.81 715.229 1063.83 715.718 1062.51L716.673 1059.86L707.042 1033.42H710.332L718.104 1055.59H718.343L726.116 1033.42H729.406L718.326 1063.74C717.86 1065 717.286 1066.05 716.604 1066.9C715.923 1067.75 715.133 1068.38 714.235 1068.79C713.349 1069.21 712.354 1069.42 711.252 1069.42ZM752.579 1043.24V1059.6H749.545V1033.42H752.494V1037.53H752.766C753.38 1036.18 754.335 1035.11 755.63 1034.3C756.937 1033.49 758.55 1033.08 760.471 1033.08C762.232 1033.08 763.778 1033.45 765.107 1034.18C766.448 1034.91 767.488 1035.99 768.227 1037.41C768.977 1038.83 769.352 1040.57 769.352 1042.64V1059.6H766.317V1042.83C766.317 1040.68 765.715 1038.98 764.511 1037.73C763.317 1036.48 761.715 1035.86 759.704 1035.86C758.329 1035.86 757.107 1036.15 756.039 1036.74C754.971 1037.33 754.124 1038.18 753.499 1039.3C752.886 1040.4 752.579 1041.71 752.579 1043.24ZM787.869 1060.15C785.608 1060.15 783.608 1059.57 781.869 1058.42C780.142 1057.28 778.79 1055.69 777.812 1053.67C776.835 1051.63 776.347 1049.29 776.347 1046.63C776.347 1043.95 776.835 1041.59 777.812 1039.55C778.79 1037.51 780.142 1035.92 781.869 1034.78C783.608 1033.63 785.608 1033.06 787.869 1033.06C790.131 1033.06 792.125 1033.63 793.852 1034.78C795.58 1035.93 796.932 1037.52 797.909 1039.55C798.898 1041.59 799.392 1043.95 799.392 1046.63C799.392 1049.29 798.903 1051.63 797.926 1053.67C796.949 1055.69 795.591 1057.28 793.852 1058.42C792.125 1059.57 790.131 1060.15 787.869 1060.15ZM787.869 1057.37C789.688 1057.37 791.227 1056.88 792.489 1055.9C793.75 1054.92 794.705 1053.62 795.352 1052C796.011 1050.37 796.341 1048.58 796.341 1046.63C796.341 1044.67 796.011 1042.88 795.352 1041.24C794.705 1039.61 793.75 1038.29 792.489 1037.3C791.227 1036.32 789.688 1035.82 787.869 1035.82C786.063 1035.82 784.523 1036.32 783.25 1037.3C781.989 1038.29 781.028 1039.61 780.369 1041.24C779.722 1042.88 779.398 1044.67 779.398 1046.63C779.398 1048.58 779.722 1050.37 780.369 1052C781.028 1053.62 781.989 1054.92 783.25 1055.9C784.511 1056.88 786.051 1057.37 787.869 1057.37ZM816.717 1033.42V1036.06H804.222V1033.42H816.717ZM808.126 1027.15H811.177V1052.76C811.177 1053.86 811.364 1054.71 811.739 1055.34C812.114 1055.95 812.603 1056.39 813.205 1056.65C813.808 1056.9 814.45 1057.03 815.131 1057.03C815.529 1057.03 815.87 1057 816.154 1056.96C816.438 1056.9 816.688 1056.84 816.904 1056.79L817.552 1059.53C817.256 1059.65 816.893 1059.75 816.461 1059.84C816.029 1059.94 815.495 1059.99 814.859 1059.99C813.745 1059.99 812.671 1059.75 811.637 1059.26C810.614 1058.77 809.773 1058.04 809.114 1057.08C808.455 1056.11 808.126 1054.91 808.126 1053.48V1027.15ZM834.263 1060.15C831.82 1060.15 829.706 1059.58 827.922 1058.44C826.138 1057.29 824.757 1055.71 823.78 1053.68C822.814 1051.65 822.331 1049.31 822.331 1046.66C822.331 1044.03 822.814 1041.68 823.78 1039.64C824.757 1037.58 826.104 1035.97 827.82 1034.82C829.547 1033.65 831.541 1033.06 833.803 1033.06C835.223 1033.06 836.592 1033.32 837.911 1033.84C839.229 1034.36 840.411 1035.15 841.456 1036.21C842.513 1037.27 843.348 1038.61 843.962 1040.22C844.575 1041.82 844.882 1043.72 844.882 1045.91V1047.41H824.428V1044.74H841.78C841.78 1043.05 841.439 1041.54 840.757 1040.2C840.087 1038.85 839.149 1037.78 837.945 1037C836.751 1036.21 835.371 1035.82 833.803 1035.82C832.143 1035.82 830.683 1036.26 829.422 1037.15C828.161 1038.04 827.172 1039.21 826.456 1040.66C825.751 1042.12 825.393 1043.71 825.382 1045.43V1047.04C825.382 1049.12 825.74 1050.93 826.456 1052.49C827.183 1054.04 828.212 1055.24 829.541 1056.09C830.871 1056.94 832.445 1057.37 834.263 1057.37C835.501 1057.37 836.587 1057.17 837.518 1056.79C838.462 1056.4 839.251 1055.88 839.888 1055.24C840.536 1054.58 841.024 1053.86 841.354 1053.07L844.234 1054.01C843.837 1055.11 843.183 1056.13 842.274 1057.06C841.376 1057.99 840.251 1058.74 838.899 1059.31C837.558 1059.87 836.013 1060.15 834.263 1060.15ZM865.771 1069.42V1033.42H868.72V1038.41H869.078C869.442 1037.63 869.942 1036.83 870.578 1036.01C871.214 1035.18 872.055 1034.48 873.101 1033.91C874.158 1033.34 875.487 1033.06 877.089 1033.06C879.249 1033.06 881.135 1033.63 882.749 1034.76C884.374 1035.89 885.635 1037.47 886.533 1039.5C887.442 1041.53 887.896 1043.88 887.896 1046.58C887.896 1049.28 887.442 1051.65 886.533 1053.68C885.635 1055.72 884.374 1057.3 882.749 1058.44C881.135 1059.58 879.26 1060.15 877.124 1060.15C875.544 1060.15 874.22 1059.86 873.152 1059.29C872.095 1058.72 871.237 1058.03 870.578 1057.2C869.93 1056.36 869.43 1055.54 869.078 1054.74H868.805V1069.42H865.771ZM868.771 1046.53C868.771 1048.64 869.084 1050.51 869.709 1052.15C870.345 1053.78 871.254 1055.05 872.436 1055.99C873.629 1056.91 875.072 1057.37 876.766 1057.37C878.504 1057.37 879.97 1056.89 881.163 1055.93C882.368 1054.97 883.283 1053.67 883.908 1052.03C884.544 1050.4 884.862 1048.56 884.862 1046.53C884.862 1044.51 884.55 1042.7 883.925 1041.09C883.311 1039.47 882.402 1038.2 881.197 1037.25C879.993 1036.3 878.516 1035.82 876.766 1035.82C875.061 1035.82 873.612 1036.28 872.419 1037.2C871.226 1038.11 870.317 1039.37 869.692 1040.99C869.078 1042.59 868.771 1044.43 868.771 1046.53ZM894.904 1059.6V1033.42H897.853V1037.44H898.075C898.597 1036.12 899.506 1035.06 900.802 1034.25C902.109 1033.43 903.586 1033.03 905.234 1033.03C905.484 1033.03 905.762 1033.03 906.069 1033.04C906.376 1033.05 906.631 1033.07 906.836 1033.08V1036.16C906.7 1036.14 906.461 1036.11 906.12 1036.06C905.779 1036.01 905.41 1035.99 905.012 1035.99C903.648 1035.99 902.433 1036.28 901.364 1036.86C900.308 1037.43 899.472 1038.22 898.859 1039.23C898.245 1040.24 897.938 1041.4 897.938 1042.69V1059.6H894.904ZM921.744 1060.15C919.483 1060.15 917.483 1059.57 915.744 1058.42C914.017 1057.28 912.665 1055.69 911.688 1053.67C910.71 1051.63 910.222 1049.29 910.222 1046.63C910.222 1043.95 910.71 1041.59 911.688 1039.55C912.665 1037.51 914.017 1035.92 915.744 1034.78C917.483 1033.63 919.483 1033.06 921.744 1033.06C924.006 1033.06 926 1033.63 927.727 1034.78C929.455 1035.93 930.807 1037.52 931.784 1039.55C932.773 1041.59 933.267 1043.95 933.267 1046.63C933.267 1049.29 932.778 1051.63 931.801 1053.67C930.824 1055.69 929.466 1057.28 927.727 1058.42C926 1059.57 924.006 1060.15 921.744 1060.15ZM921.744 1057.37C923.563 1057.37 925.102 1056.88 926.364 1055.9C927.625 1054.92 928.58 1053.62 929.227 1052C929.886 1050.37 930.216 1048.58 930.216 1046.63C930.216 1044.67 929.886 1042.88 929.227 1041.24C928.58 1039.61 927.625 1038.29 926.364 1037.3C925.102 1036.32 923.563 1035.82 921.744 1035.82C919.938 1035.82 918.398 1036.32 917.125 1037.3C915.864 1038.29 914.903 1039.61 914.244 1041.24C913.597 1042.88 913.273 1044.67 913.273 1046.63C913.273 1048.58 913.597 1050.37 914.244 1052C914.903 1053.62 915.864 1054.92 917.125 1055.9C918.386 1056.88 919.926 1057.37 921.744 1057.37ZM950.592 1033.42V1036.06H938.097V1033.42H950.592ZM942.001 1027.15H945.052V1052.76C945.052 1053.86 945.239 1054.71 945.614 1055.34C945.989 1055.95 946.478 1056.39 947.08 1056.65C947.683 1056.9 948.325 1057.03 949.006 1057.03C949.404 1057.03 949.745 1057 950.029 1056.96C950.313 1056.9 950.563 1056.84 950.779 1056.79L951.427 1059.53C951.131 1059.65 950.768 1059.75 950.336 1059.84C949.904 1059.94 949.37 1059.99 948.734 1059.99C947.62 1059.99 946.546 1059.75 945.512 1059.26C944.489 1058.77 943.648 1058.04 942.989 1057.08C942.33 1056.11 942.001 1054.91 942.001 1053.48V1027.15ZM968.138 1060.15C965.695 1060.15 963.581 1059.58 961.797 1058.44C960.013 1057.29 958.632 1055.71 957.655 1053.68C956.689 1051.65 956.206 1049.31 956.206 1046.66C956.206 1044.03 956.689 1041.68 957.655 1039.64C958.632 1037.58 959.979 1035.97 961.695 1034.82C963.422 1033.65 965.416 1033.06 967.678 1033.06C969.098 1033.06 970.467 1033.32 971.786 1033.84C973.104 1034.36 974.286 1035.15 975.331 1036.21C976.388 1037.27 977.223 1038.61 977.837 1040.22C978.45 1041.82 978.757 1043.72 978.757 1045.91V1047.41H958.303V1044.74H975.655C975.655 1043.05 975.314 1041.54 974.632 1040.2C973.962 1038.85 973.024 1037.78 971.82 1037C970.626 1036.21 969.246 1035.82 967.678 1035.82C966.018 1035.82 964.558 1036.26 963.297 1037.15C962.036 1038.04 961.047 1039.21 960.331 1040.66C959.626 1042.12 959.268 1043.71 959.257 1045.43V1047.04C959.257 1049.12 959.615 1050.93 960.331 1052.49C961.058 1054.04 962.087 1055.24 963.416 1056.09C964.746 1056.94 966.32 1057.37 968.138 1057.37C969.376 1057.37 970.462 1057.17 971.393 1056.79C972.337 1056.4 973.126 1055.88 973.763 1055.24C974.411 1054.58 974.899 1053.86 975.229 1053.07L978.109 1054.01C977.712 1055.11 977.058 1056.13 976.149 1057.06C975.251 1057.99 974.126 1058.74 972.774 1059.31C971.433 1059.87 969.888 1060.15 968.138 1060.15ZM996.022 1060.15C993.681 1060.15 991.641 1059.56 989.903 1058.39C988.175 1057.22 986.835 1055.62 985.88 1053.58C984.925 1051.55 984.448 1049.23 984.448 1046.63C984.448 1044 984.931 1041.67 985.897 1039.62C986.874 1037.58 988.227 1035.97 989.954 1034.82C991.681 1033.65 993.687 1033.06 995.971 1033.06C997.721 1033.06 999.306 1033.4 1000.73 1034.08C1002.15 1034.75 1003.32 1035.7 1004.24 1036.93C1005.17 1038.15 1005.75 1039.57 1005.99 1041.19H1002.93C1002.61 1039.71 1001.84 1038.45 1000.62 1037.41C999.42 1036.35 997.886 1035.82 996.022 1035.82C994.352 1035.82 992.874 1036.28 991.59 1037.18C990.306 1038.08 989.3 1039.34 988.573 1040.95C987.857 1042.55 987.499 1044.41 987.499 1046.53C987.499 1048.65 987.852 1050.53 988.556 1052.17C989.261 1053.79 990.249 1055.07 991.522 1055.99C992.806 1056.91 994.306 1057.37 996.022 1057.37C997.181 1057.37 998.238 1057.15 999.192 1056.72C1000.16 1056.28 1000.97 1055.65 1001.61 1054.84C1002.27 1054.04 1002.72 1053.08 1002.94 1051.96H1006.01C1005.78 1053.54 1005.22 1054.95 1004.32 1056.19C1003.44 1057.42 1002.28 1058.38 1000.86 1059.09C999.454 1059.79 997.84 1060.15 996.022 1060.15ZM1023.18 1033.42V1036.06H1010.68V1033.42H1023.18ZM1014.59 1027.15H1017.64V1052.76C1017.64 1053.86 1017.83 1054.71 1018.2 1055.34C1018.58 1055.95 1019.06 1056.39 1019.67 1056.65C1020.27 1056.9 1020.91 1057.03 1021.59 1057.03C1021.99 1057.03 1022.33 1057 1022.62 1056.96C1022.9 1056.9 1023.15 1056.84 1023.37 1056.79L1024.01 1059.53C1023.72 1059.65 1023.35 1059.75 1022.92 1059.84C1022.49 1059.94 1021.96 1059.99 1021.32 1059.99C1020.21 1059.99 1019.13 1059.75 1018.1 1059.26C1017.08 1058.77 1016.23 1058.04 1015.58 1057.08C1014.92 1056.11 1014.59 1054.91 1014.59 1053.48V1027.15ZM1040.72 1060.15C1038.28 1060.15 1036.17 1059.58 1034.38 1058.44C1032.6 1057.29 1031.22 1055.71 1030.24 1053.68C1029.27 1051.65 1028.79 1049.31 1028.79 1046.66C1028.79 1044.03 1029.27 1041.68 1030.24 1039.64C1031.22 1037.58 1032.56 1035.97 1034.28 1034.82C1036.01 1033.65 1038 1033.06 1040.26 1033.06C1041.68 1033.06 1043.05 1033.32 1044.37 1033.84C1045.69 1034.36 1046.87 1035.15 1047.92 1036.21C1048.97 1037.27 1049.81 1038.61 1050.42 1040.22C1051.04 1041.82 1051.34 1043.72 1051.34 1045.91V1047.41H1030.89V1044.74H1048.24C1048.24 1043.05 1047.9 1041.54 1047.22 1040.2C1046.55 1038.85 1045.61 1037.78 1044.41 1037C1043.21 1036.21 1041.83 1035.82 1040.26 1035.82C1038.6 1035.82 1037.14 1036.26 1035.88 1037.15C1034.62 1038.04 1033.63 1039.21 1032.92 1040.66C1032.21 1042.12 1031.85 1043.71 1031.84 1045.43V1047.04C1031.84 1049.12 1032.2 1050.93 1032.92 1052.49C1033.64 1054.04 1034.67 1055.24 1036 1056.09C1037.33 1056.94 1038.91 1057.37 1040.72 1057.37C1041.96 1057.37 1043.05 1057.17 1043.98 1056.79C1044.92 1056.4 1045.71 1055.88 1046.35 1055.24C1047 1054.58 1047.49 1053.86 1047.81 1053.07L1050.7 1054.01C1050.3 1055.11 1049.64 1056.13 1048.74 1057.06C1047.84 1057.99 1046.71 1058.74 1045.36 1059.31C1044.02 1059.87 1042.47 1060.15 1040.72 1060.15ZM1067.81 1060.15C1065.66 1060.15 1063.78 1059.58 1062.16 1058.44C1060.55 1057.3 1059.29 1055.72 1058.38 1053.68C1057.48 1051.65 1057.03 1049.28 1057.03 1046.58C1057.03 1043.88 1057.48 1041.53 1058.38 1039.5C1059.29 1037.47 1060.56 1035.89 1062.18 1034.76C1063.81 1033.63 1065.7 1033.06 1067.86 1033.06C1069.45 1033.06 1070.77 1033.34 1071.83 1033.91C1072.89 1034.47 1073.73 1035.16 1074.37 1035.99C1075.01 1036.82 1075.5 1037.63 1075.85 1038.41H1076.12V1024.69H1079.18V1059.6H1076.21V1054.74H1075.85C1075.5 1055.54 1075 1056.36 1074.35 1057.2C1073.7 1058.03 1072.85 1058.72 1071.78 1059.29C1070.72 1059.86 1069.4 1060.15 1067.81 1060.15ZM1068.16 1057.37C1069.86 1057.37 1071.3 1056.91 1072.49 1055.99C1073.69 1055.05 1074.6 1053.78 1075.22 1052.15C1075.86 1050.51 1076.18 1048.64 1076.18 1046.53C1076.18 1044.43 1075.86 1042.59 1075.24 1040.99C1074.61 1039.37 1073.7 1038.11 1072.51 1037.2C1071.32 1036.28 1069.87 1035.82 1068.16 1035.82C1066.41 1035.82 1064.94 1036.3 1063.73 1037.25C1062.54 1038.2 1061.63 1039.47 1061.01 1041.09C1060.39 1042.7 1060.09 1044.51 1060.09 1046.53C1060.09 1048.56 1060.4 1050.4 1061.02 1052.03C1061.65 1053.67 1062.56 1054.97 1063.75 1055.93C1064.95 1056.89 1066.43 1057.37 1068.16 1057.37ZM1107.83 1059.6L1099.92 1033.42H1103.13L1109.33 1055.01H1109.56L1115.74 1033.42H1118.96L1125.1 1054.96H1125.34L1131.54 1033.42H1134.75L1126.84 1059.6H1123.7L1117.5 1038.14H1117.17L1110.97 1059.6H1107.83ZM1141.03 1059.6V1033.42H1144.08V1059.6H1141.03ZM1142.58 1028.92C1141.96 1028.92 1141.42 1028.71 1140.98 1028.29C1140.54 1027.86 1140.32 1027.34 1140.32 1026.74C1140.32 1026.13 1140.54 1025.62 1140.98 1025.2C1141.42 1024.77 1141.96 1024.55 1142.58 1024.55C1143.21 1024.55 1143.74 1024.77 1144.19 1025.2C1144.63 1025.62 1144.85 1026.13 1144.85 1026.74C1144.85 1027.34 1144.63 1027.86 1144.19 1028.29C1143.74 1028.71 1143.21 1028.92 1142.58 1028.92ZM1162.77 1033.42V1036.06H1150.28V1033.42H1162.77ZM1154.18 1027.15H1157.23V1052.76C1157.23 1053.86 1157.42 1054.71 1157.79 1055.34C1158.17 1055.95 1158.66 1056.39 1159.26 1056.65C1159.86 1056.9 1160.5 1057.03 1161.19 1057.03C1161.58 1057.03 1161.92 1057 1162.21 1056.96C1162.49 1056.9 1162.74 1056.84 1162.96 1056.79L1163.61 1059.53C1163.31 1059.65 1162.95 1059.75 1162.52 1059.84C1162.08 1059.94 1161.55 1059.99 1160.91 1059.99C1159.8 1059.99 1158.73 1059.75 1157.69 1059.26C1156.67 1058.77 1155.83 1058.04 1155.17 1057.08C1154.51 1056.11 1154.18 1054.91 1154.18 1053.48V1027.15ZM1173.61 1043.24V1059.6H1170.58V1024.69H1173.61V1037.53H1173.88C1174.5 1036.17 1175.45 1035.09 1176.73 1034.29C1178.02 1033.48 1179.66 1033.08 1181.64 1033.08C1183.41 1033.08 1184.97 1033.44 1186.31 1034.17C1187.65 1034.9 1188.7 1035.97 1189.45 1037.39C1190.2 1038.81 1190.57 1040.56 1190.57 1042.64V1059.6H1187.52V1042.83C1187.52 1040.67 1186.92 1038.97 1185.71 1037.73C1184.52 1036.48 1182.91 1035.86 1180.87 1035.86C1179.47 1035.86 1178.23 1036.15 1177.14 1036.74C1176.05 1037.33 1175.18 1038.18 1174.55 1039.3C1173.92 1040.4 1173.61 1041.71 1173.61 1043.24ZM1212.76 1059.6V1033.42H1215.71V1037.44H1215.99C1216.51 1036.09 1217.38 1035.03 1218.59 1034.25C1219.82 1033.47 1221.29 1033.08 1223.01 1033.08C1224.81 1033.08 1226.3 1033.5 1227.46 1034.36C1228.63 1035.2 1229.5 1036.36 1230.08 1037.83H1230.3C1230.89 1036.38 1231.85 1035.22 1233.18 1034.37C1234.52 1033.51 1236.15 1033.08 1238.06 1033.08C1240.49 1033.08 1242.41 1033.84 1243.82 1035.38C1245.23 1036.9 1245.93 1039.13 1245.93 1042.06V1059.6H1242.9V1042.06C1242.9 1039.99 1242.37 1038.44 1241.31 1037.41C1240.26 1036.37 1238.87 1035.86 1237.14 1035.86C1235.14 1035.86 1233.6 1036.47 1232.52 1037.7C1231.44 1038.92 1230.9 1040.48 1230.9 1042.37V1059.6H1227.8V1041.79C1227.8 1040.01 1227.3 1038.58 1226.31 1037.49C1225.33 1036.4 1223.93 1035.86 1222.14 1035.86C1220.93 1035.86 1219.85 1036.15 1218.88 1036.74C1217.93 1037.33 1217.17 1038.16 1216.62 1039.21C1216.07 1040.26 1215.8 1041.46 1215.8 1042.83V1059.6H1212.76ZM1254.35 1059.6V1033.42H1257.4V1059.6H1254.35ZM1255.9 1028.92C1255.28 1028.92 1254.74 1028.71 1254.3 1028.29C1253.86 1027.86 1253.64 1027.34 1253.64 1026.74C1253.64 1026.13 1253.86 1025.62 1254.3 1025.2C1254.74 1024.77 1255.28 1024.55 1255.9 1024.55C1256.53 1024.55 1257.06 1024.77 1257.51 1025.2C1257.95 1025.62 1258.17 1026.13 1258.17 1026.74C1258.17 1027.34 1257.95 1027.86 1257.51 1028.29C1257.06 1028.71 1256.53 1028.92 1255.9 1028.92ZM1268.81 1024.69V1059.6H1265.78V1024.69H1268.81ZM1277.23 1059.6V1033.42H1280.28V1059.6H1277.23ZM1278.78 1028.92C1278.15 1028.92 1277.62 1028.71 1277.18 1028.29C1276.73 1027.86 1276.51 1027.34 1276.51 1026.74C1276.51 1026.13 1276.73 1025.62 1277.18 1025.2C1277.62 1024.77 1278.15 1024.55 1278.78 1024.55C1279.4 1024.55 1279.94 1024.77 1280.38 1025.2C1280.82 1025.62 1281.05 1026.13 1281.05 1026.74C1281.05 1027.34 1280.82 1027.86 1280.38 1028.29C1279.94 1028.71 1279.4 1028.92 1278.78 1028.92ZM1298.97 1033.42V1036.06H1286.47V1033.42H1298.97ZM1290.38 1027.15H1293.43V1052.76C1293.43 1053.86 1293.61 1054.71 1293.99 1055.34C1294.36 1055.95 1294.85 1056.39 1295.46 1056.65C1296.06 1056.9 1296.7 1057.03 1297.38 1057.03C1297.78 1057.03 1298.12 1057 1298.4 1056.96C1298.69 1056.9 1298.94 1056.84 1299.15 1056.79L1299.8 1059.53C1299.51 1059.65 1299.14 1059.75 1298.71 1059.84C1298.28 1059.94 1297.75 1059.99 1297.11 1059.99C1296 1059.99 1294.92 1059.75 1293.89 1059.26C1292.86 1058.77 1292.02 1058.04 1291.36 1057.08C1290.71 1056.11 1290.38 1054.91 1290.38 1053.48V1027.15ZM1313.52 1060.2C1311.94 1060.2 1310.5 1059.89 1309.19 1059.28C1307.88 1058.65 1306.85 1057.75 1306.07 1056.58C1305.3 1055.4 1304.91 1053.97 1304.91 1052.29C1304.91 1050.99 1305.16 1049.9 1305.65 1049.01C1306.13 1048.13 1306.83 1047.4 1307.73 1046.83C1308.62 1046.26 1309.69 1045.82 1310.91 1045.49C1312.14 1045.16 1313.49 1044.9 1314.97 1044.72C1316.44 1044.54 1317.67 1044.38 1318.69 1044.24C1319.71 1044.11 1320.49 1043.89 1321.02 1043.59C1321.56 1043.3 1321.82 1042.82 1321.82 1042.16V1041.55C1321.82 1039.76 1321.29 1038.36 1320.22 1037.34C1319.16 1036.3 1317.64 1035.79 1315.65 1035.79C1313.77 1035.79 1312.23 1036.2 1311.03 1037.03C1309.85 1037.86 1309.02 1038.84 1308.54 1039.96L1305.66 1038.92C1306.25 1037.49 1307.07 1036.35 1308.12 1035.5C1309.16 1034.63 1310.33 1034.01 1311.63 1033.64C1312.92 1033.25 1314.24 1033.06 1315.57 1033.06C1316.57 1033.06 1317.61 1033.19 1318.69 1033.45C1319.78 1033.71 1320.79 1034.17 1321.72 1034.82C1322.65 1035.45 1323.41 1036.34 1323.99 1037.49C1324.57 1038.63 1324.86 1040.07 1324.86 1041.82V1059.6H1321.82V1055.46H1321.63C1321.27 1056.23 1320.73 1056.98 1320.02 1057.71C1319.3 1058.43 1318.4 1059.03 1317.32 1059.5C1316.24 1059.96 1314.98 1060.2 1313.52 1060.2ZM1313.93 1057.42C1315.54 1057.42 1316.94 1057.06 1318.12 1056.34C1319.31 1055.63 1320.21 1054.68 1320.85 1053.5C1321.5 1052.3 1321.82 1050.99 1321.82 1049.56V1045.78C1321.6 1045.99 1321.21 1046.18 1320.68 1046.36C1320.16 1046.53 1319.55 1046.68 1318.86 1046.82C1318.17 1046.94 1317.49 1047.05 1316.81 1047.14C1316.13 1047.23 1315.52 1047.31 1314.97 1047.38C1313.49 1047.56 1312.23 1047.84 1311.19 1048.23C1310.14 1048.62 1309.34 1049.15 1308.78 1049.83C1308.23 1050.5 1307.95 1051.37 1307.95 1052.42C1307.95 1054.01 1308.52 1055.25 1309.65 1056.12C1310.79 1056.99 1312.21 1057.42 1313.93 1057.42ZM1333.28 1059.6V1033.42H1336.23V1037.44H1336.45C1336.97 1036.12 1337.88 1035.06 1339.18 1034.25C1340.48 1033.43 1341.96 1033.03 1343.61 1033.03C1343.86 1033.03 1344.14 1033.03 1344.44 1033.04C1344.75 1033.05 1345.01 1033.07 1345.21 1033.08V1036.16C1345.07 1036.14 1344.84 1036.11 1344.5 1036.06C1344.15 1036.01 1343.78 1035.99 1343.39 1035.99C1342.02 1035.99 1340.81 1036.28 1339.74 1036.86C1338.68 1037.43 1337.85 1038.22 1337.23 1039.23C1336.62 1040.24 1336.31 1041.4 1336.31 1042.69V1059.6H1333.28ZM1353.65 1069.42C1353.05 1069.42 1352.49 1069.36 1351.96 1069.25C1351.44 1069.13 1351.03 1069.01 1350.72 1068.87L1351.54 1066.2C1352.57 1066.51 1353.49 1066.63 1354.3 1066.54C1355.11 1066.46 1355.82 1066.09 1356.45 1065.45C1357.07 1064.81 1357.63 1063.83 1358.12 1062.51L1359.07 1059.86L1349.44 1033.42H1352.73L1360.5 1055.59H1360.74L1368.51 1033.42H1371.8L1360.72 1063.74C1360.26 1065 1359.68 1066.05 1359 1066.9C1358.32 1067.75 1357.53 1068.38 1356.63 1068.79C1355.75 1069.21 1354.75 1069.42 1353.65 1069.42ZM1392.22 1043.2V1046.07H1377.7V1043.2H1392.22ZM712.858 1135.96C711.074 1135.96 709.511 1135.73 708.17 1135.26C706.829 1134.81 705.699 1134.18 704.778 1133.39C703.858 1132.59 703.142 1131.7 702.63 1130.71L705.119 1129.08C705.494 1129.74 705.994 1130.38 706.619 1131.02C707.255 1131.66 708.079 1132.18 709.091 1132.61C710.113 1133.03 711.369 1133.24 712.858 1133.24C715.176 1133.24 717.045 1132.66 718.466 1131.5C719.897 1130.34 720.613 1128.54 720.613 1126.09V1120.2H720.341C719.988 1120.99 719.483 1121.79 718.824 1122.58C718.164 1123.37 717.301 1124.02 716.233 1124.54C715.176 1125.07 713.863 1125.33 712.295 1125.33C710.204 1125.33 708.346 1124.81 706.721 1123.78C705.108 1122.74 703.835 1121.26 702.903 1119.34C701.983 1117.41 701.522 1115.11 701.522 1112.44C701.522 1109.79 701.971 1107.46 702.869 1105.45C703.778 1103.44 705.045 1101.87 706.67 1100.75C708.295 1099.62 710.187 1099.06 712.346 1099.06C713.949 1099.06 715.278 1099.34 716.335 1099.91C717.392 1100.47 718.238 1101.16 718.875 1101.99C719.522 1102.82 720.028 1103.63 720.392 1104.41H720.699V1099.42H723.664V1126.28C723.664 1128.5 723.193 1130.32 722.25 1131.75C721.306 1133.18 720.022 1134.24 718.397 1134.92C716.772 1135.62 714.926 1135.96 712.858 1135.96ZM712.653 1122.55C714.335 1122.55 715.772 1122.15 716.966 1121.34C718.159 1120.52 719.074 1119.35 719.71 1117.83C720.346 1116.3 720.664 1114.49 720.664 1112.39C720.664 1110.34 720.352 1108.53 719.727 1106.95C719.102 1105.36 718.193 1104.11 717 1103.2C715.818 1102.28 714.369 1101.82 712.653 1101.82C710.903 1101.82 709.426 1102.29 708.221 1103.24C707.017 1104.18 706.108 1105.45 705.494 1107.05C704.88 1108.65 704.574 1110.42 704.574 1112.39C704.574 1114.39 704.886 1116.16 705.511 1117.69C706.136 1119.21 707.051 1120.41 708.255 1121.27C709.46 1122.12 710.926 1122.55 712.653 1122.55ZM732.049 1125.6V1099.42H734.998V1103.44H735.219C735.742 1102.12 736.651 1101.06 737.946 1100.25C739.253 1099.43 740.73 1099.03 742.378 1099.03C742.628 1099.03 742.907 1099.03 743.213 1099.04C743.52 1099.05 743.776 1099.07 743.98 1099.08V1102.16C743.844 1102.14 743.605 1102.11 743.265 1102.06C742.924 1102.01 742.554 1101.99 742.157 1101.99C740.793 1101.99 739.577 1102.28 738.509 1102.86C737.452 1103.43 736.617 1104.22 736.003 1105.23C735.39 1106.24 735.083 1107.4 735.083 1108.69V1125.6H732.049ZM756.822 1126.2C755.243 1126.2 753.799 1125.89 752.493 1125.28C751.186 1124.65 750.146 1123.75 749.373 1122.58C748.6 1121.4 748.214 1119.97 748.214 1118.29C748.214 1116.99 748.458 1115.9 748.947 1115.01C749.436 1114.13 750.129 1113.4 751.027 1112.83C751.924 1112.26 752.987 1111.82 754.214 1111.49C755.441 1111.16 756.794 1110.9 758.271 1110.72C759.737 1110.54 760.975 1110.38 761.987 1110.24C763.01 1110.11 763.788 1109.89 764.322 1109.59C764.856 1109.3 765.123 1108.82 765.123 1108.16V1107.55C765.123 1105.76 764.589 1104.36 763.521 1103.34C762.464 1102.3 760.941 1101.79 758.953 1101.79C757.066 1101.79 755.527 1102.2 754.333 1103.03C753.152 1103.86 752.322 1104.84 751.845 1105.96L748.964 1104.92C749.555 1103.49 750.373 1102.35 751.419 1101.5C752.464 1100.63 753.635 1100.01 754.93 1099.64C756.225 1099.25 757.538 1099.06 758.868 1099.06C759.868 1099.06 760.907 1099.19 761.987 1099.45C763.078 1099.71 764.089 1100.17 765.021 1100.82C765.953 1101.45 766.708 1102.34 767.288 1103.49C767.868 1104.63 768.157 1106.07 768.157 1107.82V1125.6H765.123V1121.46H764.936C764.572 1122.23 764.032 1122.98 763.316 1123.71C762.6 1124.43 761.703 1125.03 760.623 1125.5C759.544 1125.96 758.277 1126.2 756.822 1126.2ZM757.231 1123.42C758.845 1123.42 760.243 1123.06 761.424 1122.34C762.606 1121.63 763.515 1120.68 764.152 1119.5C764.799 1118.3 765.123 1116.99 765.123 1115.56V1111.78C764.896 1111.99 764.515 1112.18 763.981 1112.36C763.458 1112.53 762.85 1112.68 762.157 1112.82C761.475 1112.94 760.794 1113.05 760.112 1113.14C759.43 1113.23 758.816 1113.31 758.271 1113.38C756.794 1113.56 755.532 1113.84 754.487 1114.23C753.441 1114.62 752.64 1115.15 752.083 1115.83C751.527 1116.5 751.248 1117.37 751.248 1118.42C751.248 1120.01 751.816 1121.25 752.953 1122.12C754.089 1122.99 755.515 1123.42 757.231 1123.42ZM786.006 1126.15C783.858 1126.15 781.978 1125.58 780.364 1124.44C778.75 1123.3 777.489 1121.72 776.58 1119.68C775.682 1117.65 775.233 1115.28 775.233 1112.58C775.233 1109.88 775.682 1107.53 776.58 1105.5C777.489 1103.47 778.756 1101.89 780.381 1100.76C782.006 1099.63 783.898 1099.06 786.057 1099.06C787.648 1099.06 788.972 1099.34 790.029 1099.91C791.086 1100.47 791.932 1101.16 792.569 1101.99C793.205 1102.82 793.699 1103.63 794.051 1104.41H794.324V1090.69H797.375V1125.6H794.409V1120.74H794.051C793.699 1121.54 793.199 1122.36 792.551 1123.2C791.904 1124.03 791.046 1124.72 789.978 1125.29C788.921 1125.86 787.597 1126.15 786.006 1126.15ZM786.364 1123.37C788.057 1123.37 789.5 1122.91 790.694 1121.99C791.887 1121.05 792.796 1119.78 793.421 1118.15C794.057 1116.51 794.375 1114.64 794.375 1112.53C794.375 1110.43 794.063 1108.59 793.438 1106.99C792.813 1105.37 791.904 1104.11 790.711 1103.2C789.517 1102.28 788.069 1101.82 786.364 1101.82C784.614 1101.82 783.137 1102.3 781.932 1103.25C780.739 1104.2 779.83 1105.47 779.205 1107.09C778.591 1108.7 778.284 1110.51 778.284 1112.53C778.284 1114.56 778.597 1116.4 779.222 1118.03C779.847 1119.67 780.756 1120.97 781.949 1121.93C783.154 1122.89 784.625 1123.37 786.364 1123.37ZM816.954 1126.15C814.511 1126.15 812.397 1125.58 810.613 1124.44C808.829 1123.29 807.449 1121.71 806.471 1119.68C805.505 1117.65 805.022 1115.31 805.022 1112.66C805.022 1110.03 805.505 1107.68 806.471 1105.64C807.449 1103.58 808.795 1101.97 810.511 1100.82C812.238 1099.65 814.233 1099.06 816.494 1099.06C817.914 1099.06 819.284 1099.32 820.602 1099.84C821.92 1100.36 823.102 1101.15 824.147 1102.21C825.204 1103.27 826.039 1104.61 826.653 1106.22C827.267 1107.82 827.574 1109.72 827.574 1111.91V1113.41H807.119V1110.74H824.471C824.471 1109.05 824.13 1107.54 823.449 1106.2C822.778 1104.85 821.841 1103.78 820.636 1103C819.443 1102.21 818.062 1101.82 816.494 1101.82C814.835 1101.82 813.375 1102.26 812.113 1103.15C810.852 1104.04 809.863 1105.21 809.147 1106.66C808.443 1108.12 808.085 1109.71 808.074 1111.43V1113.04C808.074 1115.12 808.431 1116.93 809.147 1118.49C809.875 1120.04 810.903 1121.24 812.233 1122.09C813.562 1122.94 815.136 1123.37 816.954 1123.37C818.193 1123.37 819.278 1123.17 820.21 1122.79C821.153 1122.4 821.943 1121.88 822.579 1121.24C823.227 1120.58 823.716 1119.86 824.045 1119.07L826.926 1120.01C826.528 1121.11 825.875 1122.13 824.966 1123.06C824.068 1123.99 822.943 1124.74 821.591 1125.31C820.25 1125.87 818.704 1126.15 816.954 1126.15ZM849.145 1125.6H845.804L858.502 1090.69H861.912L874.61 1125.6H871.27L860.326 1094.83H860.088L849.145 1125.6ZM851.548 1112.22H868.866V1115.08H851.548V1112.22ZM880.945 1125.6V1090.69H901.195V1093.55H884.132V1106.7H900.121V1109.56H884.132V1122.74H901.536V1125.6H880.945ZM928.751 1099.42C928.558 1097.47 927.7 1095.93 926.177 1094.78C924.654 1093.63 922.74 1093.06 920.433 1093.06C918.808 1093.06 917.376 1093.34 916.137 1093.9C914.91 1094.45 913.944 1095.22 913.24 1096.21C912.547 1097.19 912.2 1098.3 912.2 1099.55C912.2 1100.47 912.399 1101.28 912.797 1101.97C913.194 1102.67 913.728 1103.26 914.399 1103.76C915.081 1104.25 915.831 1104.67 916.649 1105.03C917.478 1105.38 918.314 1105.67 919.154 1105.91L922.836 1106.97C923.95 1107.28 925.064 1107.67 926.177 1108.15C927.291 1108.62 928.308 1109.22 929.228 1109.95C930.16 1110.67 930.904 1111.55 931.461 1112.59C932.029 1113.63 932.314 1114.87 932.314 1116.33C932.314 1118.19 931.831 1119.87 930.865 1121.36C929.899 1122.84 928.512 1124.03 926.706 1124.9C924.899 1125.76 922.734 1126.2 920.211 1126.2C917.836 1126.2 915.774 1125.8 914.024 1125.02C912.274 1124.22 910.899 1123.13 909.899 1121.73C908.899 1120.33 908.336 1118.71 908.211 1116.87H911.484C911.598 1118.25 912.052 1119.41 912.848 1120.37C913.643 1121.32 914.677 1122.05 915.95 1122.55C917.223 1123.04 918.643 1123.28 920.211 1123.28C921.95 1123.28 923.495 1122.99 924.848 1122.41C926.211 1121.82 927.279 1121 928.052 1119.96C928.836 1118.9 929.228 1117.67 929.228 1116.28C929.228 1115.09 928.922 1114.11 928.308 1113.31C927.694 1112.5 926.836 1111.83 925.734 1111.28C924.643 1110.74 923.376 1110.25 921.933 1109.83L917.757 1108.61C915.018 1107.79 912.893 1106.66 911.382 1105.21C909.87 1103.77 909.115 1101.93 909.115 1099.69C909.115 1097.82 909.615 1096.17 910.615 1094.75C911.626 1093.32 912.99 1092.2 914.706 1091.41C916.433 1090.6 918.37 1090.2 920.518 1090.2C922.689 1090.2 924.609 1090.59 926.279 1091.39C927.95 1092.18 929.274 1093.28 930.251 1094.68C931.24 1096.07 931.768 1097.65 931.836 1099.42H928.751ZM953.836 1106.71V1109.58H939.313V1106.71H953.836ZM960.047 1125.6V1123.26L971.45 1110.45C972.939 1108.76 974.137 1107.33 975.047 1106.13C975.956 1104.94 976.615 1103.84 977.024 1102.83C977.444 1101.82 977.654 1100.76 977.654 1099.67C977.654 1098.34 977.342 1097.18 976.717 1096.2C976.103 1095.2 975.257 1094.42 974.177 1093.86C973.098 1093.3 971.882 1093.03 970.529 1093.03C969.098 1093.03 967.842 1093.33 966.762 1093.95C965.694 1094.56 964.865 1095.4 964.274 1096.47C963.683 1097.54 963.387 1098.76 963.387 1100.15H960.336C960.336 1098.22 960.779 1096.51 961.666 1095.02C962.564 1093.52 963.785 1092.34 965.331 1091.49C966.887 1090.64 968.649 1090.21 970.615 1090.21C972.558 1090.21 974.285 1090.63 975.797 1091.47C977.308 1092.3 978.495 1093.43 979.359 1094.87C980.223 1096.3 980.654 1097.9 980.654 1099.67C980.654 1100.96 980.427 1102.2 979.973 1103.41C979.529 1104.61 978.762 1105.95 977.672 1107.43C976.581 1108.91 975.069 1110.71 973.137 1112.85L964.478 1122.51V1122.74H981.745V1125.6H960.047ZM999.905 1126.08C997.962 1126.08 996.223 1125.68 994.689 1124.9C993.167 1124.11 991.951 1123.01 991.042 1121.63C990.144 1120.24 989.667 1118.66 989.61 1116.87H992.695C992.797 1118.72 993.525 1120.25 994.877 1121.44C996.229 1122.62 997.905 1123.21 999.905 1123.21C1001.46 1123.21 1002.85 1122.84 1004.06 1122.11C1005.28 1121.36 1006.23 1120.33 1006.91 1119.04C1007.6 1117.73 1007.95 1116.26 1007.95 1114.62C1007.94 1112.92 1007.57 1111.42 1006.84 1110.12C1006.12 1108.82 1005.13 1107.79 1003.88 1107.05C1002.64 1106.32 1001.25 1105.95 999.701 1105.95C998.53 1105.93 997.382 1106.13 996.257 1106.53C995.132 1106.92 994.195 1107.43 993.445 1108.06L990.257 1107.65L992.354 1090.69H1009.6V1093.55H995.03L993.632 1105.23H993.803C994.576 1104.58 995.513 1104.05 996.615 1103.65C997.729 1103.24 998.905 1103.03 1000.14 1103.03C1002.2 1103.03 1004.05 1103.53 1005.68 1104.51C1007.33 1105.5 1008.63 1106.87 1009.59 1108.61C1010.55 1110.33 1011.04 1112.32 1011.04 1114.57C1011.04 1116.78 1010.55 1118.75 1009.59 1120.49C1008.63 1122.21 1007.31 1123.58 1005.63 1124.58C1003.96 1125.58 1002.05 1126.08 999.905 1126.08ZM1029.63 1126.08C1028.19 1126.07 1026.78 1125.78 1025.41 1125.21C1024.03 1124.63 1022.79 1123.7 1021.69 1122.43C1020.59 1121.15 1019.71 1119.45 1019.07 1117.35C1018.42 1115.25 1018.09 1112.66 1018.09 1109.59C1018.09 1106.75 1018.34 1104.15 1018.84 1101.79C1019.34 1099.42 1020.09 1097.38 1021.09 1095.65C1022.09 1093.92 1023.34 1092.59 1024.84 1091.65C1026.34 1090.69 1028.1 1090.21 1030.11 1090.21C1032 1090.21 1033.66 1090.61 1035.11 1091.39C1036.55 1092.16 1037.72 1093.24 1038.62 1094.63C1039.52 1096.01 1040.08 1097.61 1040.31 1099.42H1037.17C1036.85 1097.58 1036.09 1096.06 1034.9 1094.87C1033.71 1093.67 1032.11 1093.08 1030.11 1093.08C1027.25 1093.08 1025.03 1094.41 1023.46 1097.07C1021.9 1099.71 1021.11 1103.47 1021.09 1108.35H1021.32C1021.87 1107.32 1022.59 1106.42 1023.46 1105.67C1024.35 1104.91 1025.36 1104.32 1026.48 1103.9C1027.61 1103.47 1028.79 1103.25 1030.03 1103.25C1031.97 1103.25 1033.75 1103.75 1035.36 1104.74C1036.98 1105.71 1038.27 1107.06 1039.23 1108.78C1040.2 1110.48 1040.68 1112.43 1040.68 1114.62C1040.68 1116.7 1040.22 1118.62 1039.3 1120.37C1038.39 1122.12 1037.11 1123.51 1035.45 1124.54C1033.8 1125.58 1031.86 1126.09 1029.63 1126.08ZM1029.63 1123.21C1031.16 1123.21 1032.52 1122.83 1033.71 1122.05C1034.91 1121.28 1035.86 1120.25 1036.56 1118.95C1037.25 1117.65 1037.59 1116.2 1037.59 1114.62C1037.59 1113.04 1037.25 1111.61 1036.56 1110.33C1035.86 1109.04 1034.91 1108.02 1033.71 1107.26C1032.52 1106.5 1031.16 1106.12 1029.63 1106.12C1028.48 1106.12 1027.4 1106.36 1026.4 1106.83C1025.4 1107.3 1024.53 1107.94 1023.79 1108.76C1023.06 1109.57 1022.5 1110.49 1022.12 1111.54C1021.74 1112.58 1021.6 1113.68 1021.69 1114.83C1021.82 1116.43 1022.23 1117.87 1022.94 1119.14C1023.65 1120.4 1024.58 1121.4 1025.73 1122.12C1026.89 1122.85 1028.19 1123.21 1029.63 1123.21ZM1072.8 1126.15C1070.35 1126.15 1068.24 1125.58 1066.46 1124.44C1064.67 1123.29 1063.29 1121.71 1062.31 1119.68C1061.35 1117.65 1060.87 1115.31 1060.87 1112.66C1060.87 1110.03 1061.35 1107.68 1062.31 1105.64C1063.29 1103.58 1064.64 1101.97 1066.35 1100.82C1068.08 1099.65 1070.08 1099.06 1072.34 1099.06C1073.76 1099.06 1075.13 1099.32 1076.45 1099.84C1077.76 1100.36 1078.95 1101.15 1079.99 1102.21C1081.05 1103.27 1081.88 1104.61 1082.5 1106.22C1083.11 1107.82 1083.42 1109.72 1083.42 1111.91V1113.41H1062.96V1110.74H1080.31C1080.31 1109.05 1079.97 1107.54 1079.29 1106.2C1078.62 1104.85 1077.68 1103.78 1076.48 1103C1075.29 1102.21 1073.91 1101.82 1072.34 1101.82C1070.68 1101.82 1069.22 1102.26 1067.96 1103.15C1066.7 1104.04 1065.71 1105.21 1064.99 1106.66C1064.29 1108.12 1063.93 1109.71 1063.92 1111.43V1113.04C1063.92 1115.12 1064.28 1116.93 1064.99 1118.49C1065.72 1120.04 1066.75 1121.24 1068.08 1122.09C1069.41 1122.94 1070.98 1123.37 1072.8 1123.37C1074.04 1123.37 1075.12 1123.17 1076.05 1122.79C1077 1122.4 1077.79 1121.88 1078.42 1121.24C1079.07 1120.58 1079.56 1119.86 1079.89 1119.07L1082.77 1120.01C1082.37 1121.11 1081.72 1122.13 1080.81 1123.06C1079.91 1123.99 1078.79 1124.74 1077.43 1125.31C1076.09 1125.87 1074.55 1126.15 1072.8 1126.15ZM1093.49 1109.24V1125.6H1090.45V1099.42H1093.4V1103.53H1093.68C1094.29 1102.18 1095.24 1101.11 1096.54 1100.3C1097.85 1099.49 1099.46 1099.08 1101.38 1099.08C1103.14 1099.08 1104.69 1099.45 1106.02 1100.18C1107.36 1100.91 1108.4 1101.99 1109.14 1103.41C1109.89 1104.83 1110.26 1106.57 1110.26 1108.64V1125.6H1107.23V1108.83C1107.23 1106.68 1106.63 1104.98 1105.42 1103.73C1104.23 1102.48 1102.63 1101.86 1100.61 1101.86C1099.24 1101.86 1098.02 1102.15 1096.95 1102.74C1095.88 1103.33 1095.03 1104.18 1094.41 1105.3C1093.8 1106.4 1093.49 1107.71 1093.49 1109.24ZM1128.83 1126.15C1126.49 1126.15 1124.45 1125.56 1122.71 1124.39C1120.98 1123.22 1119.64 1121.62 1118.69 1119.58C1117.73 1117.55 1117.26 1115.23 1117.26 1112.63C1117.26 1110 1117.74 1107.67 1118.71 1105.62C1119.68 1103.58 1121.04 1101.97 1122.76 1100.82C1124.49 1099.65 1126.5 1099.06 1128.78 1099.06C1130.53 1099.06 1132.11 1099.4 1133.54 1100.08C1134.96 1100.75 1136.13 1101.7 1137.05 1102.93C1137.98 1104.15 1138.56 1105.57 1138.8 1107.19H1135.73C1135.42 1105.71 1134.65 1104.45 1133.43 1103.41C1132.23 1102.35 1130.69 1101.82 1128.83 1101.82C1127.16 1101.82 1125.68 1102.28 1124.4 1103.18C1123.11 1104.08 1122.11 1105.34 1121.38 1106.95C1120.67 1108.55 1120.31 1110.41 1120.31 1112.53C1120.31 1114.65 1120.66 1116.53 1121.36 1118.17C1122.07 1119.79 1123.06 1121.07 1124.33 1121.99C1125.61 1122.91 1127.11 1123.37 1128.83 1123.37C1129.99 1123.37 1131.05 1123.15 1132 1122.72C1132.97 1122.28 1133.77 1121.65 1134.42 1120.84C1135.08 1120.04 1135.52 1119.08 1135.75 1117.96H1138.82C1138.59 1119.54 1138.03 1120.95 1137.13 1122.19C1136.25 1123.42 1135.09 1124.38 1133.67 1125.09C1132.26 1125.79 1130.65 1126.15 1128.83 1126.15ZM1145.67 1125.6V1099.42H1148.62V1103.44H1148.84C1149.37 1102.12 1150.28 1101.06 1151.57 1100.25C1152.88 1099.43 1154.36 1099.03 1156 1099.03C1156.25 1099.03 1156.53 1099.03 1156.84 1099.04C1157.15 1099.05 1157.4 1099.07 1157.61 1099.08V1102.16C1157.47 1102.14 1157.23 1102.11 1156.89 1102.06C1156.55 1102.01 1156.18 1101.99 1155.78 1101.99C1154.42 1101.99 1153.2 1102.28 1152.13 1102.86C1151.08 1103.43 1150.24 1104.22 1149.63 1105.23C1149.01 1106.24 1148.71 1107.4 1148.71 1108.69V1125.6H1145.67ZM1166.05 1135.42C1165.44 1135.42 1164.88 1135.36 1164.36 1135.25C1163.83 1135.13 1163.42 1135.01 1163.11 1134.87L1163.93 1132.2C1164.97 1132.51 1165.89 1132.63 1166.69 1132.54C1167.5 1132.46 1168.22 1132.09 1168.84 1131.45C1169.47 1130.81 1170.02 1129.83 1170.51 1128.51L1171.47 1125.86L1161.83 1099.42H1165.12L1172.9 1121.59H1173.14L1180.91 1099.42H1184.2L1173.12 1129.74C1172.65 1131 1172.08 1132.05 1171.4 1132.9C1170.72 1133.75 1169.93 1134.38 1169.03 1134.79C1168.14 1135.21 1167.15 1135.42 1166.05 1135.42ZM1190.49 1135.42V1099.42H1193.44V1104.41H1193.79C1194.16 1103.63 1194.66 1102.83 1195.29 1102.01C1195.93 1101.18 1196.77 1100.48 1197.82 1099.91C1198.87 1099.34 1200.2 1099.06 1201.8 1099.06C1203.96 1099.06 1205.85 1099.63 1207.46 1100.76C1209.09 1101.89 1210.35 1103.47 1211.25 1105.5C1212.16 1107.53 1212.61 1109.88 1212.61 1112.58C1212.61 1115.28 1212.16 1117.65 1211.25 1119.68C1210.35 1121.72 1209.09 1123.3 1207.46 1124.44C1205.85 1125.58 1203.97 1126.15 1201.84 1126.15C1200.26 1126.15 1198.94 1125.86 1197.87 1125.29C1196.81 1124.72 1195.95 1124.03 1195.29 1123.2C1194.65 1122.36 1194.15 1121.54 1193.79 1120.74H1193.52V1135.42H1190.49ZM1193.49 1112.53C1193.49 1114.64 1193.8 1116.51 1194.42 1118.15C1195.06 1119.78 1195.97 1121.05 1197.15 1121.99C1198.34 1122.91 1199.79 1123.37 1201.48 1123.37C1203.22 1123.37 1204.69 1122.89 1205.88 1121.93C1207.08 1120.97 1208 1119.67 1208.62 1118.03C1209.26 1116.4 1209.58 1114.56 1209.58 1112.53C1209.58 1110.51 1209.26 1108.7 1208.64 1107.09C1208.03 1105.47 1207.12 1104.2 1205.91 1103.25C1204.71 1102.3 1203.23 1101.82 1201.48 1101.82C1199.78 1101.82 1198.33 1102.28 1197.13 1103.2C1195.94 1104.11 1195.03 1105.37 1194.41 1106.99C1193.79 1108.59 1193.49 1110.43 1193.49 1112.53ZM1229.93 1099.42V1102.06H1217.44V1099.42H1229.93ZM1221.34 1093.15H1224.39V1118.76C1224.39 1119.86 1224.58 1120.71 1224.95 1121.34C1225.33 1121.95 1225.82 1122.39 1226.42 1122.65C1227.02 1122.9 1227.66 1123.03 1228.35 1123.03C1228.74 1123.03 1229.08 1123 1229.37 1122.96C1229.65 1122.9 1229.9 1122.84 1230.12 1122.79L1230.77 1125.53C1230.47 1125.65 1230.11 1125.75 1229.68 1125.84C1229.24 1125.94 1228.71 1125.99 1228.07 1125.99C1226.96 1125.99 1225.89 1125.75 1224.85 1125.26C1223.83 1124.77 1222.99 1124.04 1222.33 1123.08C1221.67 1122.11 1221.34 1120.91 1221.34 1119.48V1093.15ZM1237.21 1125.6V1099.42H1240.26V1125.6H1237.21ZM1238.76 1094.92C1238.13 1094.92 1237.6 1094.71 1237.16 1094.29C1236.71 1093.86 1236.49 1093.34 1236.49 1092.74C1236.49 1092.13 1236.71 1091.62 1237.16 1091.2C1237.6 1090.77 1238.13 1090.55 1238.76 1090.55C1239.38 1090.55 1239.92 1090.77 1240.36 1091.2C1240.8 1091.62 1241.03 1092.13 1241.03 1092.74C1241.03 1093.34 1240.8 1093.86 1240.36 1094.29C1239.92 1094.71 1239.38 1094.92 1238.76 1094.92ZM1258.81 1126.15C1256.55 1126.15 1254.55 1125.57 1252.81 1124.42C1251.08 1123.28 1249.73 1121.69 1248.75 1119.67C1247.78 1117.63 1247.29 1115.29 1247.29 1112.63C1247.29 1109.95 1247.78 1107.59 1248.75 1105.55C1249.73 1103.51 1251.08 1101.92 1252.81 1100.78C1254.55 1099.63 1256.55 1099.06 1258.81 1099.06C1261.07 1099.06 1263.07 1099.63 1264.79 1100.78C1266.52 1101.93 1267.87 1103.52 1268.85 1105.55C1269.84 1107.59 1270.33 1109.95 1270.33 1112.63C1270.33 1115.29 1269.84 1117.63 1268.87 1119.67C1267.89 1121.69 1266.53 1123.28 1264.79 1124.42C1263.07 1125.57 1261.07 1126.15 1258.81 1126.15ZM1258.81 1123.37C1260.63 1123.37 1262.17 1122.88 1263.43 1121.9C1264.69 1120.92 1265.65 1119.62 1266.29 1118C1266.95 1116.37 1267.28 1114.58 1267.28 1112.63C1267.28 1110.67 1266.95 1108.88 1266.29 1107.24C1265.65 1105.61 1264.69 1104.29 1263.43 1103.3C1262.17 1102.32 1260.63 1101.82 1258.81 1101.82C1257 1101.82 1255.46 1102.32 1254.19 1103.3C1252.93 1104.29 1251.97 1105.61 1251.31 1107.24C1250.66 1108.88 1250.34 1110.67 1250.34 1112.63C1250.34 1114.58 1250.66 1116.37 1251.31 1118C1251.97 1119.62 1252.93 1120.92 1254.19 1121.9C1255.45 1122.88 1256.99 1123.37 1258.81 1123.37ZM1280.38 1109.24V1125.6H1277.35V1099.42H1280.29V1103.53H1280.57C1281.18 1102.18 1282.14 1101.11 1283.43 1100.3C1284.74 1099.49 1286.35 1099.08 1288.27 1099.08C1290.03 1099.08 1291.58 1099.45 1292.91 1100.18C1294.25 1100.91 1295.29 1101.99 1296.03 1103.41C1296.78 1104.83 1297.15 1106.57 1297.15 1108.64V1125.6H1294.12V1108.83C1294.12 1106.68 1293.52 1104.98 1292.31 1103.73C1291.12 1102.48 1289.52 1101.86 1287.5 1101.86C1286.13 1101.86 1284.91 1102.15 1283.84 1102.74C1282.77 1103.33 1281.93 1104.18 1281.3 1105.3C1280.69 1106.4 1280.38 1107.71 1280.38 1109.24Z" fill="white" fill-opacity="0.9"/>
<path d="M414.548 1347.07H367.882C364.2 1347.07 361.215 1350.05 361.215 1353.73V1377.07C361.215 1380.75 364.2 1383.73 367.882 1383.73H414.548C418.23 1383.73 421.215 1380.75 421.215 1377.07V1353.73C421.215 1350.05 418.23 1347.07 414.548 1347.07Z" stroke="white" stroke-width="5.83333" stroke-linecap="round" stroke-linejoin="round"/>
<path d="M374.548 1347.07V1333.73C374.548 1329.31 376.304 1325.07 379.43 1321.95C382.555 1318.82 386.794 1317.07 391.215 1317.07C395.635 1317.07 399.874 1318.82 403 1321.95C406.125 1325.07 407.881 1329.31 407.881 1333.73V1347.07" stroke="white" stroke-width="5.83333" stroke-linecap="round" stroke-linejoin="round"/>
<path d="M516.303 1363.9H512.11L521.532 1337.72H526.096L535.517 1363.9H531.324L523.922 1342.47H523.718L516.303 1363.9ZM517.006 1353.65H530.608V1356.97H517.006V1353.65ZM539.667 1363.9V1337.72H556.082V1341.12H543.618V1349.1H555.226V1352.48H543.618V1360.5H556.236V1363.9H539.667ZM576.008 1344.6C575.871 1343.39 575.309 1342.45 574.32 1341.78C573.332 1341.11 572.087 1340.77 570.587 1340.77C569.513 1340.77 568.585 1340.94 567.8 1341.29C567.016 1341.62 566.407 1342.08 565.972 1342.67C565.546 1343.25 565.333 1343.91 565.333 1344.65C565.333 1345.27 565.478 1345.81 565.768 1346.26C566.066 1346.71 566.454 1347.09 566.931 1347.4C567.417 1347.69 567.937 1347.95 568.491 1348.15C569.045 1348.35 569.577 1348.51 570.089 1348.64L572.646 1349.3C573.481 1349.51 574.337 1349.78 575.215 1350.13C576.093 1350.48 576.907 1350.94 577.657 1351.51C578.407 1352.08 579.012 1352.79 579.472 1353.63C579.941 1354.48 580.175 1355.49 580.175 1356.66C580.175 1358.15 579.792 1359.46 579.025 1360.61C578.266 1361.77 577.163 1362.67 575.714 1363.34C574.273 1364 572.531 1364.34 570.485 1364.34C568.525 1364.34 566.829 1364.02 565.397 1363.4C563.965 1362.78 562.844 1361.9 562.035 1360.76C561.225 1359.6 560.778 1358.24 560.692 1356.66H564.656C564.732 1357.61 565.039 1358.4 565.576 1359.03C566.121 1359.65 566.816 1360.12 567.66 1360.42C568.512 1360.72 569.445 1360.87 570.46 1360.87C571.576 1360.87 572.569 1360.7 573.438 1360.35C574.316 1359.99 575.006 1359.49 575.509 1358.86C576.012 1358.22 576.263 1357.48 576.263 1356.63C576.263 1355.85 576.042 1355.22 575.599 1354.72C575.164 1354.23 574.572 1353.82 573.822 1353.49C573.08 1353.17 572.241 1352.88 571.303 1352.64L568.21 1351.79C566.113 1351.22 564.451 1350.38 563.224 1349.28C562.005 1348.17 561.396 1346.7 561.396 1344.88C561.396 1343.37 561.805 1342.05 562.623 1340.93C563.441 1339.8 564.549 1338.93 565.947 1338.31C567.344 1337.68 568.921 1337.36 570.677 1337.36C572.45 1337.36 574.013 1337.67 575.369 1338.29C576.732 1338.92 577.806 1339.77 578.59 1340.86C579.374 1341.95 579.783 1343.19 579.817 1344.6H576.008ZM596.528 1349.15V1352.47H584.92V1349.15H596.528ZM600.886 1363.9V1361.04L609.745 1351.86C610.691 1350.86 611.471 1349.99 612.085 1349.24C612.707 1348.48 613.171 1347.76 613.478 1347.08C613.785 1346.39 613.938 1345.67 613.938 1344.9C613.938 1344.03 613.734 1343.28 613.325 1342.65C612.915 1342.01 612.357 1341.52 611.65 1341.18C610.942 1340.83 610.146 1340.66 609.259 1340.66C608.322 1340.66 607.504 1340.85 606.805 1341.23C606.106 1341.62 605.569 1342.16 605.194 1342.86C604.819 1343.56 604.631 1344.37 604.631 1345.31H600.86C600.86 1343.72 601.227 1342.33 601.96 1341.13C602.692 1339.94 603.698 1339.01 604.977 1338.36C606.255 1337.69 607.708 1337.36 609.336 1337.36C610.981 1337.36 612.43 1337.69 613.683 1338.34C614.944 1338.99 615.928 1339.88 616.636 1341C617.343 1342.12 617.697 1343.38 617.697 1344.79C617.697 1345.76 617.513 1346.71 617.147 1347.64C616.789 1348.57 616.163 1349.6 615.268 1350.75C614.373 1351.88 613.129 1353.26 611.535 1354.87L606.332 1360.32V1360.51H618.119V1363.9H600.886ZM631.975 1364.26C630.373 1364.26 628.932 1363.95 627.654 1363.34C626.384 1362.72 625.37 1361.86 624.611 1360.78C623.853 1359.7 623.448 1358.46 623.397 1357.07H627.232C627.326 1358.2 627.824 1359.12 628.728 1359.85C629.631 1360.57 630.714 1360.93 631.975 1360.93C632.981 1360.93 633.871 1360.7 634.647 1360.24C635.431 1359.78 636.045 1359.13 636.488 1358.31C636.939 1357.5 637.165 1356.56 637.165 1355.51C637.165 1354.45 636.935 1353.5 636.475 1352.66C636.015 1351.83 635.38 1351.17 634.57 1350.69C633.769 1350.22 632.849 1349.97 631.809 1349.97C631.016 1349.97 630.219 1350.1 629.418 1350.37C628.617 1350.65 627.969 1351.01 627.475 1351.45L623.857 1350.91L625.327 1337.72H639.722V1341.11H628.613L627.782 1348.43H627.935C628.447 1347.94 629.124 1347.52 629.968 1347.19C630.82 1346.86 631.732 1346.69 632.704 1346.69C634.297 1346.69 635.716 1347.07 636.961 1347.83C638.214 1348.59 639.198 1349.62 639.914 1350.94C640.638 1352.24 640.996 1353.74 640.988 1355.44C640.996 1357.13 640.613 1358.65 639.837 1359.98C639.07 1361.31 638.005 1362.35 636.641 1363.12C635.286 1363.88 633.731 1364.26 631.975 1364.26ZM655.167 1364.26C653.999 1364.24 652.849 1364.03 651.715 1363.62C650.59 1363.21 649.567 1362.53 648.647 1361.57C647.727 1360.62 646.989 1359.34 646.435 1357.73C645.89 1356.11 645.617 1354.1 645.617 1351.69C645.617 1349.41 645.843 1347.38 646.295 1345.61C646.755 1343.83 647.415 1342.34 648.276 1341.12C649.137 1339.89 650.177 1338.96 651.396 1338.32C652.614 1337.68 653.982 1337.36 655.499 1337.36C657.059 1337.36 658.444 1337.67 659.654 1338.28C660.864 1338.89 661.844 1339.74 662.594 1340.83C663.353 1341.91 663.835 1343.14 664.039 1344.52H660.14C659.876 1343.43 659.352 1342.54 658.567 1341.85C657.783 1341.16 656.761 1340.81 655.499 1340.81C653.582 1340.81 652.086 1341.65 651.012 1343.32C649.947 1344.99 649.41 1347.31 649.401 1350.29H649.593C650.045 1349.54 650.599 1348.91 651.255 1348.39C651.92 1347.86 652.661 1347.46 653.479 1347.18C654.306 1346.89 655.175 1346.74 656.087 1346.74C657.604 1346.74 658.977 1347.11 660.204 1347.86C661.44 1348.59 662.424 1349.6 663.157 1350.9C663.89 1352.19 664.256 1353.68 664.256 1355.35C664.256 1357.02 663.877 1358.53 663.119 1359.89C662.369 1361.24 661.312 1362.32 659.948 1363.11C658.585 1363.89 656.991 1364.28 655.167 1364.26ZM655.154 1360.93C656.16 1360.93 657.059 1360.69 657.852 1360.19C658.644 1359.7 659.271 1359.03 659.731 1358.2C660.191 1357.36 660.421 1356.43 660.421 1355.4C660.421 1354.39 660.195 1353.48 659.744 1352.65C659.3 1351.82 658.687 1351.17 657.903 1350.68C657.127 1350.2 656.241 1349.95 655.244 1349.95C654.485 1349.95 653.782 1350.1 653.134 1350.39C652.495 1350.68 651.933 1351.08 651.447 1351.59C650.961 1352.1 650.577 1352.69 650.296 1353.35C650.023 1354.01 649.887 1354.7 649.887 1355.44C649.887 1356.42 650.113 1357.33 650.565 1358.16C651.025 1359 651.651 1359.67 652.444 1360.18C653.245 1360.68 654.148 1360.93 655.154 1360.93Z" fill="white"/>
<path d="M748.476 1368.45C747.225 1369.7 746.523 1371.39 746.522 1373.16V1380.4C746.522 1381.28 746.873 1382.13 747.499 1382.76C748.124 1383.38 748.971 1383.73 749.856 1383.73H759.856C760.74 1383.73 761.587 1383.38 762.213 1382.76C762.838 1382.13 763.189 1381.28 763.189 1380.4V1377.07C763.189 1376.18 763.54 1375.34 764.165 1374.71C764.79 1374.08 765.638 1373.73 766.522 1373.73H769.856C770.74 1373.73 771.587 1373.38 772.213 1372.76C772.838 1372.13 773.189 1371.28 773.189 1370.4V1367.07C773.189 1366.18 773.54 1365.34 774.165 1364.71C774.79 1364.08 775.638 1363.73 776.522 1363.73H777.096C778.864 1363.73 780.559 1363.03 781.809 1361.78L784.522 1359.07C789.155 1360.68 794.198 1360.67 798.827 1359.05C803.456 1357.42 807.396 1354.28 810.003 1350.12C812.611 1345.96 813.73 1341.05 813.179 1336.17C812.628 1331.3 810.439 1326.75 806.97 1323.29C803.501 1319.82 798.958 1317.63 794.083 1317.08C789.208 1316.53 784.291 1317.65 780.135 1320.25C775.979 1322.86 772.832 1326.8 771.206 1331.43C769.581 1336.06 769.575 1341.1 771.189 1345.73L748.476 1368.45Z" stroke="white" stroke-width="5.83333" stroke-linecap="round" stroke-linejoin="round"/>
<path d="M794.855 1337.07C795.776 1337.07 796.522 1336.32 796.522 1335.4C796.522 1334.48 795.776 1333.73 794.855 1333.73C793.935 1333.73 793.189 1334.48 793.189 1335.4C793.189 1336.32 793.935 1337.07 794.855 1337.07Z" fill="white" stroke="white" stroke-width="5.83333" stroke-linecap="round" stroke-linejoin="round"/>
<path d="M904.944 1363.9H900.75L910.172 1337.72H914.736L924.158 1363.9H919.965L912.563 1342.47H912.358L904.944 1363.9ZM905.647 1353.65H919.249V1356.97H905.647V1353.65ZM928.308 1363.9V1337.72H937.64C939.669 1337.72 941.352 1338.07 942.69 1338.77C944.037 1339.47 945.042 1340.43 945.707 1341.67C946.372 1342.9 946.704 1344.32 946.704 1345.93C946.704 1347.53 946.368 1348.94 945.694 1350.16C945.03 1351.37 944.024 1352.31 942.677 1352.98C941.339 1353.66 939.656 1353.99 937.628 1353.99H930.558V1350.59H937.27C938.548 1350.59 939.588 1350.41 940.389 1350.04C941.199 1349.68 941.791 1349.14 942.166 1348.44C942.541 1347.75 942.729 1346.91 942.729 1345.93C942.729 1344.94 942.537 1344.08 942.153 1343.36C941.778 1342.63 941.186 1342.08 940.376 1341.69C939.575 1341.3 938.523 1341.11 937.219 1341.11H932.258V1363.9H928.308ZM941.233 1352.09L947.702 1363.9H943.202L936.861 1352.09H941.233ZM969.599 1345.99C969.352 1345.21 969.02 1344.52 968.602 1343.91C968.193 1343.28 967.703 1342.76 967.132 1342.32C966.561 1341.88 965.909 1341.54 965.176 1341.31C964.451 1341.08 963.654 1340.97 962.785 1340.97C961.311 1340.97 959.981 1341.34 958.797 1342.1C957.612 1342.86 956.674 1343.97 955.984 1345.44C955.302 1346.9 954.961 1348.68 954.961 1350.8C954.961 1352.92 955.306 1354.71 955.997 1356.18C956.687 1357.64 957.633 1358.76 958.835 1359.52C960.037 1360.27 961.404 1360.65 962.939 1360.65C964.362 1360.65 965.602 1360.36 966.659 1359.78C967.724 1359.2 968.547 1358.39 969.126 1357.33C969.714 1356.26 970.008 1355.01 970.008 1353.57L971.031 1353.76H963.539V1350.5H973.831V1353.48C973.831 1355.68 973.362 1357.59 972.424 1359.21C971.495 1360.82 970.208 1362.06 968.564 1362.94C966.927 1363.82 965.052 1364.26 962.939 1364.26C960.569 1364.26 958.49 1363.71 956.7 1362.62C954.919 1361.53 953.529 1359.98 952.532 1357.98C951.535 1355.97 951.037 1353.58 951.037 1350.82C951.037 1348.73 951.326 1346.86 951.906 1345.2C952.485 1343.54 953.299 1342.12 954.348 1340.97C955.404 1339.8 956.645 1338.91 958.068 1338.29C959.5 1337.67 961.064 1337.36 962.76 1337.36C964.174 1337.36 965.491 1337.57 966.71 1337.99C967.937 1338.4 969.028 1339 969.983 1339.76C970.946 1340.53 971.743 1341.44 972.373 1342.5C973.004 1343.55 973.43 1344.71 973.652 1345.99H969.599ZM1001.96 1350.81C1001.96 1353.6 1001.45 1356.01 1000.42 1358.02C999.4 1360.02 997.998 1361.57 996.217 1362.65C994.444 1363.72 992.429 1364.26 990.17 1364.26C987.903 1364.26 985.879 1363.72 984.098 1362.65C982.325 1361.57 980.927 1360.02 979.905 1358.01C978.882 1356 978.371 1353.6 978.371 1350.81C978.371 1348.01 978.882 1345.61 979.905 1343.61C980.927 1341.6 982.325 1340.06 984.098 1338.98C985.879 1337.9 987.903 1337.36 990.17 1337.36C992.429 1337.36 994.444 1337.9 996.217 1338.98C997.998 1340.06 999.4 1341.6 1000.42 1343.61C1001.45 1345.61 1001.96 1348.01 1001.96 1350.81ZM998.045 1350.81C998.045 1348.68 997.7 1346.88 997.01 1345.43C996.328 1343.96 995.39 1342.85 994.197 1342.1C993.013 1341.34 991.67 1340.97 990.17 1340.97C988.662 1340.97 987.315 1341.34 986.131 1342.1C984.946 1342.85 984.008 1343.96 983.318 1345.43C982.636 1346.88 982.295 1348.68 982.295 1350.81C982.295 1352.94 982.636 1354.74 983.318 1356.2C984.008 1357.66 984.946 1358.77 986.131 1359.53C987.315 1360.28 988.662 1360.65 990.17 1360.65C991.67 1360.65 993.013 1360.28 994.197 1359.53C995.39 1358.77 996.328 1357.66 997.01 1356.2C997.7 1354.74 998.045 1352.94 998.045 1350.81ZM1028.38 1337.72V1363.9H1024.75L1011.44 1344.7H1011.2V1363.9H1007.25V1337.72H1010.91L1024.23 1356.95H1024.47V1337.72H1028.38ZM1034.16 1363.9V1361.04L1043.02 1351.86C1043.96 1350.86 1044.74 1349.99 1045.36 1349.24C1045.98 1348.48 1046.44 1347.76 1046.75 1347.08C1047.06 1346.39 1047.21 1345.67 1047.21 1344.9C1047.21 1344.03 1047.01 1343.28 1046.6 1342.65C1046.19 1342.01 1045.63 1341.52 1044.92 1341.18C1044.21 1340.83 1043.42 1340.66 1042.53 1340.66C1041.59 1340.66 1040.78 1340.85 1040.08 1341.23C1039.38 1341.62 1038.84 1342.16 1038.47 1342.86C1038.09 1343.56 1037.9 1344.37 1037.9 1345.31H1034.13C1034.13 1343.72 1034.5 1342.33 1035.23 1341.13C1035.96 1339.94 1036.97 1339.01 1038.25 1338.36C1039.53 1337.69 1040.98 1337.36 1042.61 1337.36C1044.25 1337.36 1045.7 1337.69 1046.95 1338.34C1048.22 1338.99 1049.2 1339.88 1049.91 1341C1050.61 1342.12 1050.97 1343.38 1050.97 1344.79C1050.97 1345.76 1050.78 1346.71 1050.42 1347.64C1050.06 1348.57 1049.43 1349.6 1048.54 1350.75C1047.64 1351.88 1046.4 1353.26 1044.81 1354.87L1039.6 1360.32V1360.51H1051.39V1363.9H1034.16ZM1060.91 1337.72V1363.9H1056.96V1337.72H1060.91ZM1075.51 1363.9H1067.03V1337.72H1075.78C1078.34 1337.72 1080.55 1338.24 1082.39 1339.29C1084.23 1340.33 1085.64 1341.83 1086.62 1343.78C1087.61 1345.72 1088.1 1348.05 1088.1 1350.77C1088.1 1353.5 1087.6 1355.84 1086.61 1357.8C1085.62 1359.76 1084.19 1361.27 1082.31 1362.33C1080.44 1363.38 1078.17 1363.9 1075.51 1363.9ZM1070.98 1360.45H1075.29C1077.29 1360.45 1078.95 1360.07 1080.27 1359.32C1081.59 1358.57 1082.58 1357.47 1083.23 1356.04C1083.89 1354.6 1084.22 1352.84 1084.22 1350.77C1084.22 1348.72 1083.89 1346.97 1083.23 1345.54C1082.58 1344.11 1081.62 1343.02 1080.33 1342.28C1079.04 1341.54 1077.45 1341.17 1075.54 1341.17H1070.98V1360.45Z" fill="white"/>
<path d="M1195.88 1327.32C1203.65 1326.39 1211.5 1328.04 1218.24 1331.99C1224.99 1335.95 1230.25 1342.01 1233.23 1349.24C1233.51 1349.99 1233.51 1350.81 1233.23 1351.56C1232.01 1354.53 1230.39 1357.32 1228.42 1359.86" stroke="white" stroke-width="5.83333" stroke-linecap="round" stroke-linejoin="round"/>
<path d="M1207.05 1357.59C1205.17 1359.41 1202.64 1360.42 1200.02 1360.4C1197.4 1360.38 1194.89 1359.33 1193.03 1357.47C1191.18 1355.62 1190.13 1353.11 1190.11 1350.49C1190.08 1347.87 1191.09 1345.34 1192.91 1343.45" stroke="white" stroke-width="5.83333" stroke-linecap="round" stroke-linejoin="round"/>
<path d="M1218.37 1368.73C1213.95 1371.35 1209.01 1372.99 1203.9 1373.53C1198.79 1374.08 1193.63 1373.52 1188.75 1371.89C1183.88 1370.26 1179.41 1367.6 1175.65 1364.09C1171.9 1360.59 1168.94 1356.31 1166.98 1351.56C1166.7 1350.81 1166.7 1349.99 1166.98 1349.24C1169.93 1342.07 1175.13 1336.06 1181.8 1332.1" stroke="white" stroke-width="5.83333" stroke-linecap="round" stroke-linejoin="round"/>
<path d="M1166.77 1317.07L1233.44 1383.73" stroke="white" stroke-width="5.83333" stroke-linecap="round" stroke-linejoin="round"/>
<path d="M1322.3 1363.9V1361.27L1336.07 1341.12H1322.19V1337.72H1340.91V1340.35L1327.14 1360.5H1341.02V1363.9H1322.3ZM1346.34 1363.9V1337.72H1362.76V1341.12H1350.29V1349.1H1361.9V1352.48H1350.29V1360.5H1362.91V1363.9H1346.34ZM1368.4 1363.9V1337.72H1377.74C1379.76 1337.72 1381.45 1338.07 1382.79 1338.77C1384.13 1339.47 1385.14 1340.43 1385.8 1341.67C1386.47 1342.9 1386.8 1344.32 1386.8 1345.93C1386.8 1347.53 1386.46 1348.94 1385.79 1350.16C1385.13 1351.37 1384.12 1352.31 1382.77 1352.98C1381.44 1353.66 1379.75 1353.99 1377.72 1353.99H1370.65V1350.59H1377.37C1378.64 1350.59 1379.68 1350.41 1380.48 1350.04C1381.29 1349.68 1381.89 1349.14 1382.26 1348.44C1382.64 1347.75 1382.82 1346.91 1382.82 1345.93C1382.82 1344.94 1382.63 1344.08 1382.25 1343.36C1381.87 1342.63 1381.28 1342.08 1380.47 1341.69C1379.67 1341.3 1378.62 1341.11 1377.31 1341.11H1372.35V1363.9H1368.4ZM1381.33 1352.09L1387.8 1363.9H1383.3L1376.96 1352.09H1381.33ZM1414.72 1350.81C1414.72 1353.6 1414.21 1356.01 1413.18 1358.02C1412.16 1360.02 1410.76 1361.57 1408.98 1362.65C1407.21 1363.72 1405.19 1364.26 1402.93 1364.26C1400.66 1364.26 1398.64 1363.72 1396.86 1362.65C1395.09 1361.57 1393.69 1360.02 1392.67 1358.01C1391.64 1356 1391.13 1353.6 1391.13 1350.81C1391.13 1348.01 1391.64 1345.61 1392.67 1343.61C1393.69 1341.6 1395.09 1340.06 1396.86 1338.98C1398.64 1337.9 1400.66 1337.36 1402.93 1337.36C1405.19 1337.36 1407.21 1337.9 1408.98 1338.98C1410.76 1340.06 1412.16 1341.6 1413.18 1343.61C1414.21 1345.61 1414.72 1348.01 1414.72 1350.81ZM1410.81 1350.81C1410.81 1348.68 1410.46 1346.88 1409.77 1345.43C1409.09 1343.96 1408.15 1342.85 1406.96 1342.1C1405.77 1341.34 1404.43 1340.97 1402.93 1340.97C1401.42 1340.97 1400.08 1341.34 1398.89 1342.1C1397.71 1342.85 1396.77 1343.96 1396.08 1345.43C1395.4 1346.88 1395.06 1348.68 1395.06 1350.81C1395.06 1352.94 1395.4 1354.74 1396.08 1356.2C1396.77 1357.66 1397.71 1358.77 1398.89 1359.53C1400.08 1360.28 1401.42 1360.65 1402.93 1360.65C1404.43 1360.65 1405.77 1360.28 1406.96 1359.53C1408.15 1358.77 1409.09 1357.66 1409.77 1356.2C1410.46 1354.74 1410.81 1352.94 1410.81 1350.81ZM1431.28 1349.15V1352.47H1419.67V1349.15H1431.28ZM1437.05 1363.9V1337.72H1441V1350.22H1441.32L1452.3 1337.72H1457.27L1446.71 1349.51L1457.31 1363.9H1452.55L1444.09 1352.2L1441 1355.76V1363.9H1437.05ZM1482.45 1337.72V1363.9H1478.82L1465.51 1344.7H1465.27V1363.9H1461.32V1337.72H1464.98L1478.3 1356.95H1478.54V1337.72H1482.45ZM1511.33 1350.81C1511.33 1353.6 1510.82 1356.01 1509.79 1358.02C1508.77 1360.02 1507.37 1361.57 1505.59 1362.65C1503.82 1363.72 1501.8 1364.26 1499.54 1364.26C1497.27 1364.26 1495.25 1363.72 1493.47 1362.65C1491.7 1361.57 1490.3 1360.02 1489.28 1358.01C1488.25 1356 1487.74 1353.6 1487.74 1350.81C1487.74 1348.01 1488.25 1345.61 1489.28 1343.61C1490.3 1341.6 1491.7 1340.06 1493.47 1338.98C1495.25 1337.9 1497.27 1337.36 1499.54 1337.36C1501.8 1337.36 1503.82 1337.9 1505.59 1338.98C1507.37 1340.06 1508.77 1341.6 1509.79 1343.61C1510.82 1345.61 1511.33 1348.01 1511.33 1350.81ZM1507.42 1350.81C1507.42 1348.68 1507.07 1346.88 1506.38 1345.43C1505.7 1343.96 1504.76 1342.85 1503.57 1342.1C1502.38 1341.34 1501.04 1340.97 1499.54 1340.97C1498.03 1340.97 1496.69 1341.34 1495.5 1342.1C1494.32 1342.85 1493.38 1343.96 1492.69 1345.43C1492.01 1346.88 1491.67 1348.68 1491.67 1350.81C1491.67 1352.94 1492.01 1354.74 1492.69 1356.2C1493.38 1357.66 1494.32 1358.77 1495.5 1359.53C1496.69 1360.28 1498.03 1360.65 1499.54 1360.65C1501.04 1360.65 1502.38 1360.28 1503.57 1359.53C1504.76 1358.77 1505.7 1357.66 1506.38 1356.2C1507.07 1354.74 1507.42 1352.94 1507.42 1350.81ZM1521.43 1363.9L1514.17 1337.72H1518.33L1523.43 1357.99H1523.67L1528.98 1337.72H1533.09L1538.4 1358.01H1538.64L1543.73 1337.72H1547.9L1540.62 1363.9H1536.65L1531.14 1344.29H1530.93L1525.42 1363.9H1521.43ZM1551.87 1363.9V1337.72H1555.82V1360.5H1567.68V1363.9H1551.87ZM1572.56 1363.9V1337.72H1588.97V1341.12H1576.51V1349.1H1588.11V1352.48H1576.51V1360.5H1589.12V1363.9H1572.56ZM1603.09 1363.9H1594.62V1337.72H1603.36C1605.93 1337.72 1608.13 1338.24 1609.97 1339.29C1611.81 1340.33 1613.22 1341.83 1614.2 1343.78C1615.19 1345.72 1615.68 1348.05 1615.68 1350.77C1615.68 1353.5 1615.19 1355.84 1614.19 1357.8C1613.2 1359.76 1611.77 1361.27 1609.89 1362.33C1608.02 1363.38 1605.75 1363.9 1603.09 1363.9ZM1598.57 1360.45H1602.88C1604.87 1360.45 1606.53 1360.07 1607.85 1359.32C1609.17 1358.57 1610.16 1357.47 1610.81 1356.04C1611.47 1354.6 1611.8 1352.84 1611.8 1350.77C1611.8 1348.72 1611.47 1346.97 1610.81 1345.54C1610.17 1344.11 1609.2 1343.02 1607.91 1342.28C1606.63 1341.54 1605.03 1341.17 1603.12 1341.17H1598.57V1360.45ZM1638.69 1345.99C1638.44 1345.21 1638.11 1344.52 1637.69 1343.91C1637.28 1343.28 1636.79 1342.76 1636.22 1342.32C1635.65 1341.88 1634.99 1341.54 1634.26 1341.31C1633.54 1341.08 1632.74 1340.97 1631.87 1340.97C1630.4 1340.97 1629.07 1341.34 1627.88 1342.1C1626.7 1342.86 1625.76 1343.97 1625.07 1345.44C1624.39 1346.9 1624.05 1348.68 1624.05 1350.8C1624.05 1352.92 1624.39 1354.71 1625.08 1356.18C1625.77 1357.64 1626.72 1358.76 1627.92 1359.52C1629.12 1360.27 1630.49 1360.65 1632.02 1360.65C1633.45 1360.65 1634.69 1360.36 1635.74 1359.78C1636.81 1359.2 1637.63 1358.39 1638.21 1357.33C1638.8 1356.26 1639.09 1355.01 1639.09 1353.57L1640.12 1353.76H1632.63V1350.5H1642.92V1353.48C1642.92 1355.68 1642.45 1357.59 1641.51 1359.21C1640.58 1360.82 1639.29 1362.06 1637.65 1362.94C1636.01 1363.82 1634.14 1364.26 1632.02 1364.26C1629.66 1364.26 1627.58 1363.71 1625.79 1362.62C1624 1361.53 1622.62 1359.98 1621.62 1357.98C1620.62 1355.97 1620.12 1353.58 1620.12 1350.82C1620.12 1348.73 1620.41 1346.86 1620.99 1345.2C1621.57 1343.54 1622.39 1342.12 1623.43 1340.97C1624.49 1339.8 1625.73 1338.91 1627.15 1338.29C1628.59 1337.67 1630.15 1337.36 1631.85 1337.36C1633.26 1337.36 1634.58 1337.57 1635.8 1337.99C1637.02 1338.4 1638.11 1339 1639.07 1339.76C1640.03 1340.53 1640.83 1341.44 1641.46 1342.5C1642.09 1343.55 1642.52 1344.71 1642.74 1345.99H1638.69ZM1648.3 1363.9V1337.72H1664.72V1341.12H1652.25V1349.1H1663.86V1352.48H1652.25V1360.5H1664.87V1363.9H1648.3Z" fill="white"/>
<path d="M714.344 1628.86C712.844 1630.36 712 1632.39 712 1634.51V1643.2C712 1644.26 712.421 1645.28 713.172 1646.03C713.922 1646.78 714.939 1647.2 716 1647.2H728C729.061 1647.2 730.078 1646.78 730.828 1646.03C731.579 1645.28 732 1644.26 732 1643.2V1639.2C732 1638.14 732.421 1637.12 733.172 1636.37C733.922 1635.62 734.939 1635.2 736 1635.2H740C741.061 1635.2 742.078 1634.78 742.828 1634.03C743.579 1633.28 744 1632.26 744 1631.2V1627.2C744 1626.14 744.421 1625.12 745.172 1624.37C745.922 1623.62 746.939 1623.2 748 1623.2H748.688C750.81 1623.2 752.844 1622.36 754.344 1620.86L757.6 1617.6C763.159 1619.54 769.211 1619.53 774.766 1617.58C780.321 1615.63 785.049 1611.85 788.177 1606.86C791.306 1601.88 792.65 1595.98 791.988 1590.13C791.327 1584.28 788.7 1578.82 784.538 1574.66C780.375 1570.5 774.923 1567.87 769.073 1567.21C763.223 1566.55 757.322 1567.89 752.335 1571.02C747.349 1574.15 743.571 1578.88 741.621 1584.43C739.671 1589.99 739.663 1596.04 741.6 1601.6L714.344 1628.86Z" stroke="white" stroke-width="6" stroke-linecap="round" stroke-linejoin="round"/>
<path d="M770 1591.2C771.105 1591.2 772 1590.3 772 1589.2C772 1588.09 771.105 1587.2 770 1587.2C768.895 1587.2 768 1588.09 768 1589.2C768 1590.3 768.895 1591.2 770 1591.2Z" fill="white" stroke="white" stroke-width="6" stroke-linecap="round" stroke-linejoin="round"/>
<path d="M859.667 1607.2H892.333" stroke="white" stroke-width="3.5" stroke-linecap="round" stroke-linejoin="round"/>
<path d="M876 1590.87L892.333 1607.2L876 1623.53" stroke="white" stroke-width="3.5" stroke-linecap="round" stroke-linejoin="round"/>
<path d="M1000 1599.2C997.878 1599.2 995.843 1600.04 994.343 1601.54C992.843 1603.04 992 1605.08 992 1607.2C992 1611.28 991.6 1617.24 990.96 1623.2" stroke="white" stroke-width="6" stroke-linecap="round" stroke-linejoin="round"/>
<path d="M1008 1611.68C1008 1621.2 1008 1637.2 1004 1647.2" stroke="white" stroke-width="6" stroke-linecap="round" stroke-linejoin="round"/>
<path d="M1021.16 1643.28C1021.64 1640.88 1022.88 1634.08 1023.16 1631.2" stroke="white" stroke-width="6" stroke-linecap="round" stroke-linejoin="round"/>
<path d="M960 1607.2C960 1598.8 962.641 1590.62 967.55 1583.81C972.459 1577 979.386 1571.91 987.351 1569.25C995.315 1566.6 1003.91 1566.52 1011.93 1569.02C1019.94 1571.52 1026.96 1576.48 1032 1583.2" stroke="white" stroke-width="6" stroke-linecap="round" stroke-linejoin="round"/>
<path d="M960 1623.2H960.04" stroke="white" stroke-width="6" stroke-linecap="round" stroke-linejoin="round"/>
<path d="M1039.2 1623.2C1040 1615.2 1039.72 1601.78 1039.2 1599.2" stroke="white" stroke-width="6" stroke-linecap="round" stroke-linejoin="round"/>
<path d="M972 1637.2C974 1631.2 976 1619.2 976 1607.2C975.996 1604.47 976.456 1601.77 977.36 1599.2" stroke="white" stroke-width="6" stroke-linecap="round" stroke-linejoin="round"/>
<path d="M986.6 1647.2C987.44 1644.56 988.4 1641.92 988.88 1639.2" stroke="white" stroke-width="6" stroke-linecap="round" stroke-linejoin="round"/>
<path d="M988 1586.4C991.65 1584.29 995.79 1583.18 1000 1583.18C1004.22 1583.18 1008.36 1584.29 1012.01 1586.4C1015.66 1588.51 1018.69 1591.54 1020.79 1595.19C1022.9 1598.84 1024 1602.98 1024 1607.2V1615.2" stroke="white" stroke-width="6" stroke-linecap="round" stroke-linejoin="round"/>
<path d="M1107.67 1607.2H1140.33" stroke="white" stroke-width="3.5" stroke-linecap="round" stroke-linejoin="round"/>
<path d="M1124 1590.87L1140.33 1607.2L1124 1623.53" stroke="white" stroke-width="3.5" stroke-linecap="round" stroke-linejoin="round"/>
<path d="M1276 1603.2H1220C1215.58 1603.2 1212 1606.78 1212 1611.2V1639.2C1212 1643.62 1215.58 1647.2 1220 1647.2H1276C1280.42 1647.2 1284 1643.62 1284 1639.2V1611.2C1284 1606.78 1280.42 1603.2 1276 1603.2Z" stroke="white" stroke-width="6" stroke-linecap="round" stroke-linejoin="round"/>
<path d="M1228 1603.2V1587.2C1228 1581.89 1230.11 1576.81 1233.86 1573.06C1237.61 1569.31 1242.7 1567.2 1248 1567.2C1253.3 1567.2 1258.39 1569.31 1262.14 1573.06C1265.89 1576.81 1268 1581.89 1268 1587.2V1603.2" stroke="white" stroke-width="6" stroke-linecap="round" stroke-linejoin="round"/>
<path d="M659.374 1865.5V1830.59H673.147C675.794 1830.59 678.05 1831.1 679.914 1832.11C681.777 1833.11 683.198 1834.5 684.175 1836.28C685.164 1838.06 685.658 1840.1 685.658 1842.42C685.658 1844.74 685.158 1846.78 684.158 1848.56C683.158 1850.33 681.709 1851.71 679.811 1852.7C677.925 1853.69 675.641 1854.18 672.959 1854.18H664.181V1848.27H671.766C673.186 1848.27 674.357 1848.02 675.277 1847.53C676.209 1847.03 676.902 1846.35 677.357 1845.47C677.823 1844.59 678.056 1843.57 678.056 1842.42C678.056 1841.26 677.823 1840.25 677.357 1839.39C676.902 1838.51 676.209 1837.84 675.277 1837.36C674.346 1836.87 673.164 1836.62 671.732 1836.62H666.755V1865.5H659.374ZM700.404 1865.5V1830.59H714.176C716.813 1830.59 719.063 1831.06 720.926 1832.01C722.801 1832.94 724.227 1834.26 725.205 1835.98C726.193 1837.68 726.688 1839.69 726.688 1841.99C726.688 1844.31 726.188 1846.31 725.188 1847.98C724.188 1849.64 722.739 1850.91 720.841 1851.8C718.955 1852.68 716.671 1853.12 713.989 1853.12H704.767V1847.19H712.796C714.205 1847.19 715.375 1847 716.307 1846.61C717.239 1846.23 717.932 1845.65 718.387 1844.88C718.852 1844.1 719.085 1843.14 719.085 1841.99C719.085 1840.84 718.852 1839.86 718.387 1839.06C717.932 1838.27 717.233 1837.66 716.29 1837.26C715.358 1836.84 714.182 1836.62 712.762 1836.62H707.784V1865.5H700.404ZM719.256 1849.61L727.932 1865.5H719.784L711.296 1849.61H719.256ZM749.236 1830.59V1865.5H741.855V1830.59H749.236ZM771.567 1830.59L780.004 1857.11H780.328L788.783 1830.59H796.964L784.93 1865.5H775.419L763.368 1830.59H771.567ZM812.494 1865.5H804.585L816.636 1830.59H826.148L838.182 1865.5H830.273L821.528 1838.57H821.255L812.494 1865.5ZM812 1851.78H830.682V1857.54H812V1851.78ZM846.74 1836.68V1830.59H875.41V1836.68H864.723V1865.5H857.427V1836.68H846.74ZM890.083 1865.5V1830.59H913.606V1836.68H897.464V1844.99H912.396V1851.08H897.464V1859.41H913.674V1865.5H890.083ZM979.685 1830.59V1865.5H973.31L958.123 1843.53H957.867V1865.5H950.486V1830.59H956.964L972.032 1852.55H972.339V1830.59H979.685ZM1027.81 1848.05C1027.81 1851.85 1027.09 1855.09 1025.65 1857.76C1024.22 1860.43 1022.26 1862.47 1019.79 1863.88C1017.32 1865.28 1014.55 1865.98 1011.47 1865.98C1008.37 1865.98 1005.58 1865.27 1003.12 1863.86C1000.65 1862.45 998.701 1860.41 997.269 1857.74C995.837 1855.07 995.121 1851.84 995.121 1848.05C995.121 1844.24 995.837 1841 997.269 1838.33C998.701 1835.66 1000.65 1833.62 1003.12 1832.23C1005.58 1830.82 1008.37 1830.11 1011.47 1830.11C1014.55 1830.11 1017.32 1830.82 1019.79 1832.23C1022.26 1833.62 1024.22 1835.66 1025.65 1838.33C1027.09 1841 1027.81 1844.24 1027.81 1848.05ZM1020.33 1848.05C1020.33 1845.58 1019.96 1843.5 1019.22 1841.81C1018.5 1840.11 1017.47 1838.83 1016.14 1837.95C1014.81 1837.08 1013.25 1836.64 1011.47 1836.64C1009.68 1836.64 1008.13 1837.08 1006.8 1837.95C1005.47 1838.83 1004.43 1840.11 1003.7 1841.81C1002.97 1843.5 1002.6 1845.58 1002.6 1848.05C1002.6 1850.51 1002.97 1852.59 1003.7 1854.28C1004.43 1855.98 1005.47 1857.26 1006.8 1858.14C1008.13 1859.01 1009.68 1859.45 1011.47 1859.45C1013.25 1859.45 1014.81 1859.01 1016.14 1858.14C1017.47 1857.26 1018.5 1855.98 1019.22 1854.28C1019.96 1852.59 1020.33 1850.51 1020.33 1848.05ZM1040.31 1836.68V1830.59H1068.98V1836.68H1058.29V1865.5H1051V1836.68H1040.31ZM1083.65 1865.5V1830.59H1107.18V1836.68H1091.03V1844.99H1105.97V1851.08H1091.03V1859.41H1107.24V1865.5H1083.65ZM1141.93 1840.63C1141.8 1839.26 1141.21 1838.19 1140.18 1837.43C1139.14 1836.66 1137.74 1836.28 1135.97 1836.28C1134.76 1836.28 1133.75 1836.45 1132.92 1836.8C1132.09 1837.12 1131.45 1837.59 1131.01 1838.18C1130.58 1838.77 1130.36 1839.44 1130.36 1840.19C1130.34 1840.81 1130.47 1841.36 1130.75 1841.82C1131.05 1842.29 1131.45 1842.69 1131.96 1843.03C1132.47 1843.36 1133.06 1843.65 1133.73 1843.9C1134.4 1844.14 1135.12 1844.35 1135.88 1844.52L1139.02 1845.27C1140.54 1845.61 1141.94 1846.06 1143.21 1846.63C1144.48 1847.2 1145.59 1847.9 1146.52 1848.73C1147.45 1849.56 1148.17 1850.53 1148.68 1851.66C1149.21 1852.78 1149.47 1854.07 1149.48 1855.53C1149.47 1857.66 1148.93 1859.52 1147.85 1861.09C1146.78 1862.64 1145.23 1863.85 1143.21 1864.72C1141.2 1865.57 1138.77 1865.99 1135.93 1865.99C1133.12 1865.99 1130.66 1865.56 1128.57 1864.7C1126.49 1863.84 1124.87 1862.56 1123.69 1860.86C1122.54 1859.16 1121.93 1857.05 1121.87 1854.54H1129.01C1129.09 1855.71 1129.43 1856.69 1130.02 1857.47C1130.62 1858.24 1131.42 1858.83 1132.42 1859.23C1133.43 1859.61 1134.58 1859.81 1135.85 1859.81C1137.1 1859.81 1138.18 1859.62 1139.1 1859.26C1140.04 1858.9 1140.76 1858.39 1141.27 1857.74C1141.78 1857.1 1142.04 1856.35 1142.04 1855.51C1142.04 1854.73 1141.8 1854.07 1141.34 1853.53C1140.88 1853 1140.21 1852.55 1139.33 1852.17C1138.45 1851.8 1137.38 1851.45 1136.1 1851.15L1132.3 1850.19C1129.36 1849.48 1127.04 1848.36 1125.33 1846.84C1123.63 1845.31 1122.78 1843.26 1122.79 1840.68C1122.78 1838.57 1123.34 1836.72 1124.48 1835.14C1125.63 1833.56 1127.2 1832.33 1129.2 1831.44C1131.2 1830.56 1133.47 1830.11 1136.02 1830.11C1138.61 1830.11 1140.87 1830.56 1142.8 1831.44C1144.75 1832.33 1146.26 1833.56 1147.34 1835.14C1148.42 1836.72 1148.97 1838.55 1149.01 1840.63H1141.93ZM1185.46 1865.5V1830.59H1192.84V1859.41H1207.81V1865.5H1185.46ZM1230.03 1830.59V1865.5H1222.65V1830.59H1230.03ZM1269.2 1841.88C1268.96 1841.05 1268.63 1840.31 1268.19 1839.68C1267.76 1839.03 1267.23 1838.48 1266.61 1838.04C1266 1837.59 1265.29 1837.24 1264.5 1837C1263.71 1836.76 1262.84 1836.64 1261.89 1836.64C1260.1 1836.64 1258.53 1837.09 1257.18 1837.97C1255.84 1838.86 1254.8 1840.15 1254.05 1841.84C1253.3 1843.52 1252.92 1845.58 1252.92 1848.01C1252.92 1850.44 1253.29 1852.51 1254.03 1854.22C1254.77 1855.92 1255.81 1857.22 1257.17 1858.12C1258.52 1859.01 1260.11 1859.45 1261.96 1859.45C1263.63 1859.45 1265.05 1859.15 1266.23 1858.56C1267.43 1857.96 1268.34 1857.11 1268.96 1856.02C1269.6 1854.93 1269.92 1853.64 1269.92 1852.15L1271.42 1852.38H1262.42V1846.82H1277.02V1851.22C1277.02 1854.28 1276.38 1856.92 1275.08 1859.12C1273.78 1861.32 1272 1863.01 1269.73 1864.2C1267.46 1865.39 1264.85 1865.98 1261.92 1865.98C1258.65 1865.98 1255.77 1865.26 1253.3 1863.81C1250.82 1862.36 1248.89 1860.3 1247.5 1857.62C1246.13 1854.94 1245.44 1851.76 1245.44 1848.08C1245.44 1845.25 1245.85 1842.73 1246.67 1840.51C1247.5 1838.28 1248.65 1836.4 1250.14 1834.85C1251.63 1833.31 1253.36 1832.13 1255.34 1831.32C1257.32 1830.52 1259.46 1830.11 1261.77 1830.11C1263.75 1830.11 1265.59 1830.4 1267.29 1830.98C1269 1831.55 1270.51 1832.36 1271.82 1833.4C1273.15 1834.45 1274.24 1835.69 1275.08 1837.14C1275.92 1838.57 1276.46 1840.15 1276.7 1841.88H1269.2ZM1292.52 1865.5V1830.59H1299.9V1844.99H1314.88V1830.59H1322.25V1865.5H1314.88V1851.08H1299.9V1865.5H1292.52ZM1336.95 1836.68V1830.59H1365.62V1836.68H1354.94V1865.5H1347.64V1836.68H1336.95Z" fill="white"/>
<path d="M1780 170C1766.74 170 1754.02 175.268 1744.64 184.645C1735.27 194.021 1730 206.739 1730 220C1730 245.5 1727.5 282.75 1723.5 320" stroke="white" stroke-opacity="0.05" stroke-width="25" stroke-linecap="round" stroke-linejoin="round"/>
<path d="M1830 248C1830 307.5 1830 407.5 1805 470" stroke="white" stroke-opacity="0.05" stroke-width="25" stroke-linecap="round" stroke-linejoin="round"/>
<path d="M1912.25 445.5C1915.25 430.5 1923 388 1924.75 370" stroke="white" stroke-opacity="0.05" stroke-width="25" stroke-linecap="round" stroke-linejoin="round"/>
<path d="M1530 220C1530 167.529 1546.51 116.389 1577.19 73.8224C1607.87 31.2561 1651.17 -0.578155 1700.94 -17.1708C1750.72 -33.7635 1804.46 -34.2734 1854.54 -18.6284C1904.63 -2.98334 1948.52 28.0235 1980 70" stroke="white" stroke-opacity="0.05" stroke-width="25" stroke-linecap="round" stroke-linejoin="round"/>
<path d="M1530 320H1530.25" stroke="white" stroke-opacity="0.05" stroke-width="25" stroke-linecap="round" stroke-linejoin="round"/>
<path d="M1605 407.5C1617.5 370 1630 295 1630 220C1629.97 202.972 1632.85 186.063 1638.5 170" stroke="white" stroke-opacity="0.05" stroke-width="25" stroke-linecap="round" stroke-linejoin="round"/>
<path d="M1696.25 470C1701.5 453.5 1707.5 437 1710.5 420" stroke="white" stroke-opacity="0.05" stroke-width="25" stroke-linecap="round" stroke-linejoin="round"/>
<path d="M1705 89.9995C1727.81 76.8302 1753.69 69.8991 1780.02 69.9033C1806.36 69.9075 1832.24 76.8469 1855.04 90.0236C1877.85 103.2 1896.78 122.15 1909.94 144.966C1923.1 167.782 1930.02 193.661 1930 220V270" stroke="white" stroke-opacity="0.05" stroke-width="25" stroke-linecap="round" stroke-linejoin="round"/>
</g>
<defs>
<clipPath id="clip0_2058_1293">
<rect width="2000" height="2000" fill="white"/>
</clipPath>
</defs>
</svg>
