<svg width="512" height="512" viewBox="0 0 512 512" fill="none" xmlns="http://www.w3.org/2000/svg">
<rect width="512" height="512" fill="white"/>
<path d="M300.012 381.7H370.043C375.859 381.7 378.839 378.931 378.839 374.215C378.839 369.381 375.859 366.876 370.043 366.876H343.667V143.747H370.043C375.859 143.747 378.839 141.148 378.839 136.264C378.839 131.583 375.859 129 370.043 129H300.012C294.196 129 291.217 131.583 291.217 136.264C291.217 141.148 294.196 143.747 300.012 143.747H326.641V366.876H300.012C294.196 366.876 291.217 369.381 291.217 374.215C291.217 378.931 294.196 381.7 300.012 381.7Z" fill="black" fill-opacity="0.85"/>
<path d="M144.624 344.531C151.427 344.531 155.022 341.646 157.317 334.404L172.434 292.958H243.335L258.452 334.404C260.729 341.646 264.325 344.531 271.128 344.531C278.353 344.531 282.962 340.174 282.962 333.432C282.962 330.953 282.523 328.83 281.574 325.987L226.061 177.888C222.956 169.346 217.223 165.159 207.998 165.159C199.068 165.159 193.292 169.287 190.324 177.811L134.532 326.449C133.524 329.226 133.161 331.399 133.161 333.625C133.161 340.368 137.484 344.531 144.624 344.531ZM178.447 273.558L207.677 191.861H208.397L237.534 273.558H178.447Z" fill="black" fill-opacity="0.85"/>
</svg>
