<svg width="200" height="200" viewBox="0 0 200 200" fill="none" xmlns="http://www.w3.org/2000/svg">
<path d="M71.587 35.983H93.9124V43.2532L72.1702 37.4284L72.1666 37.4266C71.974 37.3744 71.7796 37.3348 71.587 37.3042V35.983ZM97.9714 164.017H102.03V35.983H97.9714V164.017ZM71.587 164.017H93.9124V153.278L71.587 147.295V164.017ZM106.089 156.538V164.015H128.415V162.48C128.22 162.447 128.026 162.415 127.832 162.365L106.089 156.538ZM128.413 35.983H106.089V46.513L128.415 52.4962L128.413 35.983ZM130.443 154.749C130.287 154.653 130.119 154.572 129.932 154.522L128.415 154.115L106.089 148.134V152.335L128.415 158.318L128.883 158.444C129.434 158.59 129.99 158.493 130.445 158.223C130.883 157.962 131.225 157.539 131.369 157.01C131.606 156.113 131.199 155.202 130.443 154.749ZM128.413 138.128C128.219 138.095 128.024 138.063 127.83 138.012L106.089 132.186V143.931L128.415 149.914L128.413 138.128ZM128.413 65.0656C128.219 65.0332 128.024 65.0008 127.83 64.9504L106.089 59.1256V70.8706L128.415 76.8538L128.413 65.0656ZM130.443 130.395C130.287 130.299 130.119 130.217 129.932 130.168L128.415 129.761L106.089 123.78V127.981L128.415 133.964L128.883 134.09C129.434 134.236 129.99 134.139 130.445 133.869C130.883 133.608 131.225 133.187 131.369 132.656C131.606 131.761 131.199 130.848 130.443 130.395ZM128.881 61.0282C129.432 61.1722 129.988 61.075 130.443 60.805C130.881 60.544 131.223 60.1246 131.367 59.5936C131.606 58.699 131.201 57.7864 130.443 57.3328C130.287 57.2374 130.119 57.1564 129.932 57.106L128.415 56.6992L106.089 50.7178V54.919L128.415 60.9022L128.881 61.0282ZM130.443 106.041C130.287 105.945 130.119 105.864 129.932 105.814L128.415 105.407L106.089 99.4258V103.627L128.415 109.61L128.883 109.736C129.434 109.88 129.99 109.783 130.445 109.513C130.883 109.252 131.225 108.831 131.369 108.3C131.606 107.405 131.199 106.494 130.443 106.041ZM128.413 89.4196C128.219 89.3872 128.024 89.3548 127.83 89.3044L106.089 83.476V95.221L128.415 101.204L128.413 89.4196ZM128.413 113.774C128.219 113.741 128.024 113.709 127.83 113.658L106.089 107.83V119.575L128.413 125.56V113.774ZM130.443 81.6868C130.287 81.5914 130.119 81.5104 129.932 81.46L128.415 81.0532L106.089 75.0718V79.273L128.415 85.2562L128.883 85.3822C129.434 85.5262 129.99 85.429 130.445 85.159C130.883 84.898 131.225 84.4786 131.369 83.9476C131.606 83.0512 131.199 82.1404 130.443 81.6868ZM71.587 61.6582C71.7796 61.6888 71.974 61.7284 72.1666 61.7806L72.1702 61.7824L93.9124 67.6072V55.8622L71.587 49.879V61.6582ZM71.119 65.701C70.9444 65.656 70.7662 65.6326 70.5934 65.6326C70.219 65.6326 69.8644 65.7406 69.5566 65.926C69.1138 66.1906 68.7736 66.6154 68.6332 67.1392C68.5882 67.3102 68.563 67.4866 68.563 67.6648C68.563 68.3902 68.9536 69.0418 69.5566 69.4018C69.7132 69.4954 69.8824 69.5746 70.0678 69.625L71.587 70.0318L93.9124 76.0132V71.8102L71.587 65.827L71.119 65.701ZM71.119 41.347C70.9444 41.302 70.7662 41.2786 70.5934 41.2786C70.219 41.2786 69.8644 41.3884 69.5566 41.572C69.1138 41.8366 68.7736 42.2614 68.6332 42.7852C68.5882 42.9562 68.563 43.1308 68.563 43.309C68.563 44.0344 68.9536 44.686 69.5566 45.046C69.7132 45.1414 69.8824 45.2188 70.0678 45.2692L71.587 45.676L93.9124 51.6574V47.4562L71.587 41.473L71.119 41.347ZM71.119 114.409C70.9444 114.364 70.7662 114.341 70.5934 114.341C70.219 114.341 69.8644 114.449 69.5566 114.634C69.1138 114.899 68.7736 115.323 68.6332 115.847C68.5882 116.018 68.563 116.195 68.563 116.373C68.563 117.098 68.9536 117.75 69.5566 118.11C69.7132 118.203 69.8824 118.283 70.0678 118.333L71.587 118.74L93.9124 124.721V120.518L71.587 114.535L71.119 114.409ZM71.587 134.72C71.7796 134.751 71.974 134.79 72.1666 134.843L72.1702 134.844L93.9124 140.669V128.924L71.587 122.941V134.72ZM71.587 110.366C71.7796 110.397 71.974 110.436 72.1666 110.489L72.1702 110.49L93.9124 116.315V104.57L71.587 98.587V110.366ZM71.587 86.0122C71.7796 86.0428 71.974 86.0824 72.1666 86.1346L72.1702 86.1364L93.9124 91.9612V80.2162L71.587 74.233V86.0122ZM71.119 90.055C70.9444 90.01 70.7662 89.9848 70.5934 89.9848C70.219 89.9848 69.8644 90.0946 69.5566 90.2782C69.1138 90.5428 68.7736 90.9676 68.6332 91.4914C68.5882 91.6624 68.563 91.8388 68.563 92.017C68.563 92.7424 68.9536 93.394 69.5566 93.754C69.7132 93.8494 69.8824 93.9268 70.0678 93.9772L71.587 94.384L93.9124 100.365V96.1624L71.587 90.1792L71.119 90.055ZM71.119 138.765C70.9444 138.718 70.7662 138.695 70.5934 138.695C70.219 138.695 69.8644 138.804 69.5566 138.988C69.1138 139.253 68.7736 139.677 68.6332 140.201C68.5882 140.372 68.563 140.549 68.563 140.725C68.563 141.45 68.9536 142.102 69.5566 142.462C69.7132 142.556 69.8824 142.635 70.0678 142.685L71.587 143.092L93.9124 149.073V144.87L71.587 138.887L71.119 138.765Z" fill="black"/>
</svg>
