<svg width="370" height="370" viewBox="0 0 370 370" fill="none" xmlns="http://www.w3.org/2000/svg">
<path d="M179.859 123.161C180.969 123.161 181.576 122.437 181.769 121.404C183.996 108.225 183.814 107.34 198.367 104.816C199.424 104.664 200.073 104.016 200.073 102.96C200.073 101.903 199.413 101.19 198.356 101.05C183.814 98.6536 183.984 97.7458 181.769 84.4743C181.576 83.429 180.969 82.7578 179.859 82.7578C178.75 82.7578 178.143 83.429 177.95 84.4859C175.758 97.6416 175.916 98.5378 161.351 101.05C160.294 101.214 159.646 101.903 159.646 102.96C159.646 104.016 160.294 104.664 161.386 104.816C175.893 107.271 175.735 108.167 177.95 121.392C178.143 122.437 178.75 123.161 179.859 123.161Z" fill="black" fill-opacity="0.85"/>
<path d="M139.434 180.597C140.893 180.597 142.008 179.558 142.213 178.099C145.241 156.017 145.732 156.106 168.607 151.792C170.013 151.512 171.082 150.526 171.082 149.014C171.082 147.49 169.99 146.428 168.595 146.224C145.778 142.845 145.188 142.36 142.213 119.993C142.008 118.458 140.905 117.431 139.434 117.431C137.952 117.431 136.849 118.458 136.644 120.057C133.821 142.075 133.008 141.91 110.25 146.224C108.855 146.504 107.775 147.49 107.775 149.014C107.775 150.59 108.855 151.512 110.554 151.792C133.09 155.493 133.821 155.907 136.644 177.958C136.849 179.558 137.952 180.597 139.434 180.597Z" fill="black" fill-opacity="0.85"/>
<path d="M196.577 272.843C198.917 272.843 200.696 271.227 201.023 268.8C206.784 222.757 212.839 216.539 258.029 211.717C260.521 211.467 262.225 209.664 262.225 207.302C262.225 204.949 260.532 203.117 258.041 202.843C212.862 197.871 206.947 191.793 201.023 145.75C200.673 143.386 198.906 141.706 196.577 141.706C194.237 141.706 192.51 143.386 192.131 145.75C186.369 191.793 180.315 198.022 135.124 202.843C132.633 203.082 130.929 204.938 130.929 207.302C130.929 209.653 132.621 211.444 135.113 211.717C180.175 217.62 185.879 222.81 192.131 268.8C192.521 271.227 194.248 272.843 196.577 272.843Z" fill="black" fill-opacity="0.85"/>
</svg>
