<svg width="150" height="150" viewBox="0 0 150 150" fill="none" xmlns="http://www.w3.org/2000/svg">
<path d="M35 98C35.5455 91.3627 37.5303 85.2527 40.9545 79.6699C44.3788 74.0871 48.9394 69.6519 54.6364 66.3643L47.9091 54.4543C47.5455 53.8961 47.4545 53.3068 47.6364 52.6865C47.8182 52.0662 48.2121 51.6009 48.8182 51.2908C49.303 50.9806 49.8485 50.9186 50.4545 51.1047C51.0606 51.2908 51.5455 51.663 51.9091 52.2212L58.6364 64.1312C63.8485 61.898 69.303 60.7815 75 60.7815C80.697 60.7815 86.1515 61.898 91.3636 64.1312L98.0909 52.2212C98.4545 51.663 98.9394 51.2908 99.5455 51.1047C100.152 50.9186 100.697 50.9806 101.182 51.2908C101.788 51.6009 102.182 52.0662 102.364 52.6865C102.545 53.3068 102.455 53.8961 102.091 54.4543L95.3636 66.3643C101.061 69.6519 105.621 74.0871 109.045 79.6699C112.47 85.2527 114.455 91.3627 115 98H35ZM56.8182 87.7649C58.0909 87.7649 59.1667 87.3152 60.0455 86.4157C60.9242 85.5163 61.3636 84.4152 61.3636 83.1126C61.3636 81.8099 60.9242 80.7089 60.0455 79.8095C59.1667 78.91 58.0909 78.4603 56.8182 78.4603C55.5455 78.4603 54.4697 78.91 53.5909 79.8095C52.7121 80.7089 52.2727 81.8099 52.2727 83.1126C52.2727 84.4152 52.7121 85.5163 53.5909 86.4157C54.4697 87.3152 55.5455 87.7649 56.8182 87.7649ZM93.1818 87.7649C94.4545 87.7649 95.5303 87.3152 96.4091 86.4157C97.2879 85.5163 97.7273 84.4152 97.7273 83.1126C97.7273 81.8099 97.2879 80.7089 96.4091 79.8095C95.5303 78.91 94.4545 78.4603 93.1818 78.4603C91.9091 78.4603 90.8333 78.91 89.9545 79.8095C89.0758 80.7089 88.6364 81.8099 88.6364 83.1126C88.6364 84.4152 89.0758 85.5163 89.9545 86.4157C90.8333 87.3152 91.9091 87.7649 93.1818 87.7649Z" fill="#262626"/>
</svg>
