<svg width="150" height="150" viewBox="0 0 150 150" fill="none" xmlns="http://www.w3.org/2000/svg">
<path d="M0 98C0.545455 91.3627 2.5303 85.2527 5.95455 79.6699C9.37879 74.0871 13.9394 69.6519 19.6364 66.3643L12.9091 54.4543C12.5455 53.8961 12.4545 53.3068 12.6364 52.6865C12.8182 52.0662 13.2121 51.6009 13.8182 51.2908C14.303 50.9806 14.8485 50.9186 15.4545 51.1047C16.0606 51.2908 16.5455 51.663 16.9091 52.2212L23.6364 64.1312C28.8485 61.898 34.303 60.7815 40 60.7815C45.697 60.7815 51.1515 61.898 56.3636 64.1312L63.0909 52.2212C63.4545 51.663 63.9394 51.2908 64.5455 51.1047C65.1515 50.9186 65.697 50.9806 66.1818 51.2908C66.7879 51.6009 67.1818 52.0662 67.3636 52.6865C67.5455 53.3068 67.4545 53.8961 67.0909 54.4543L60.3636 66.3643C66.0606 69.6519 70.6212 74.0871 74.0455 79.6699C77.4697 85.2527 79.4545 91.3627 80 98H0ZM21.8182 87.7649C23.0909 87.7649 24.1667 87.3152 25.0455 86.4157C25.9242 85.5163 26.3636 84.4152 26.3636 83.1126C26.3636 81.8099 25.9242 80.7089 25.0455 79.8095C24.1667 78.91 23.0909 78.4603 21.8182 78.4603C20.5455 78.4603 19.4697 78.91 18.5909 79.8095C17.7121 80.7089 17.2727 81.8099 17.2727 83.1126C17.2727 84.4152 17.7121 85.5163 18.5909 86.4157C19.4697 87.3152 20.5455 87.7649 21.8182 87.7649ZM58.1818 87.7649C59.4545 87.7649 60.5303 87.3152 61.4091 86.4157C62.2879 85.5163 62.7273 84.4152 62.7273 83.1126C62.7273 81.8099 62.2879 80.7089 61.4091 79.8095C60.5303 78.91 59.4545 78.4603 58.1818 78.4603C56.9091 78.4603 55.8333 78.91 54.9545 79.8095C54.0758 80.7089 53.6364 81.8099 53.6364 83.1126C53.6364 84.4152 54.0758 85.5163 54.9545 86.4157C55.8333 87.3152 56.9091 87.7649 58.1818 87.7649Z" fill="#262626"/>
</svg>
