<svg width="160" height="160" viewBox="0 0 160 160" fill="none" xmlns="http://www.w3.org/2000/svg">
<path d="M123.441 37.4515L123.332 37.3865L123.079 37.3086C123.181 37.3953 123.308 37.4457 123.441 37.4515Z" fill="black"/>
<path d="M123.488 37.4338C123.472 37.4318 123.457 37.4281 123.442 37.4229C123.441 37.433 123.441 37.4434 123.442 37.4536C123.459 37.4513 123.475 37.4445 123.488 37.4338Z" fill="black"/>
<path d="M123.442 37.4532H123.459V37.4424L123.442 37.4532Z" fill="black"/>
<path d="M124.935 48.9329L125.119 48.8268L125.187 48.7878L125.249 48.7207C125.133 48.7716 125.026 48.8436 124.935 48.9329Z" fill="black"/>
<path d="M123.76 37.7023L123.58 37.529L123.458 37.4619C123.523 37.579 123.632 37.6653 123.76 37.7023Z" fill="black"/>
<path d="M78.509 149.315C78.3653 149.378 78.2394 149.477 78.1428 149.601L78.2563 149.528C78.3335 149.456 78.4426 149.372 78.509 149.315Z" fill="black"/>
<path d="M104.786 144.086C104.786 143.922 104.706 143.952 104.726 144.536C104.726 144.49 104.745 144.442 104.754 144.397C104.764 144.292 104.773 144.19 104.786 144.086Z" fill="black"/>
<path d="M102.06 149.315C101.916 149.378 101.791 149.477 101.694 149.601L101.808 149.528C101.885 149.456 101.994 149.372 102.06 149.315Z" fill="black"/>
<path d="M60.0038 150.559C59.8947 150.464 59.7611 150.401 59.6184 150.377C59.734 150.434 59.8496 150.49 59.9266 150.533L60.0038 150.559Z" fill="black"/>
<path d="M55.84 146.525C55.823 146.355 55.7712 146.19 55.688 146.04C55.747 146.195 55.7962 146.355 55.8357 146.516L55.84 146.525Z" fill="black"/>
<path d="M83.8105 74.3739C78.0938 76.8495 71.6063 79.6565 63.1983 79.6565C59.681 79.6495 56.1807 79.1613 52.7927 78.2054L58.6079 138.603C58.8137 141.127 59.9506 143.481 61.7926 145.197C63.6346 146.912 66.0471 147.864 68.551 147.864C68.551 147.864 76.7962 148.297 79.5476 148.297C82.5087 148.297 91.3877 147.864 91.3877 147.864C93.8913 147.864 96.3032 146.911 98.1448 145.195C99.9865 143.48 101.123 141.127 101.329 138.603L107.557 71.8613C104.774 70.8997 101.965 70.2607 98.798 70.2607C93.3211 70.2586 88.9083 72.1668 83.8105 74.3739Z" fill="black"/>
<path d="M34.7915 48.6064L34.89 48.6996L34.9542 48.7386C34.9048 48.6889 34.8502 48.6446 34.7915 48.6064Z" fill="black"/>
<path d="M133.514 42.7644L132.646 38.3239C131.867 34.3396 130.098 30.575 126.065 29.135C124.772 28.6742 123.305 28.4763 122.314 27.5227C121.323 26.5692 121.03 25.0883 120.8 23.715C120.376 21.1944 119.977 18.6717 119.542 16.1555C119.166 13.9922 118.869 11.562 117.89 9.57746C116.616 6.91269 113.974 5.35428 111.346 4.32324C109.999 3.81352 108.625 3.38232 107.229 3.03176C100.664 1.27533 93.7603 0.629587 87.0056 0.261513C78.8981 -0.192121 70.7689 -0.0554474 62.6805 0.670483C56.6603 1.22582 50.3195 1.8974 44.5986 4.00899C42.5077 4.78173 40.353 5.70944 38.7631 7.34749C36.8122 9.36006 36.1754 12.4725 37.5997 14.9823C38.6124 16.7646 40.3276 18.0238 42.1468 18.8568C44.5164 19.9302 46.9912 20.7469 49.5299 21.2935C56.5987 22.8777 63.9202 23.4997 71.1419 23.7645C79.1463 24.092 87.1634 23.8266 95.1295 22.9701C97.0995 22.7506 99.0659 22.4873 101.029 22.1803C103.341 21.8208 104.824 18.7556 104.143 16.6203C103.328 14.0676 101.137 13.0774 98.6598 13.4627C98.2946 13.5208 97.9317 13.5746 97.5665 13.6284L97.3033 13.6672C96.464 13.7749 95.6248 13.8752 94.7857 13.9685C93.0521 14.1579 91.3142 14.3129 89.5721 14.4335C85.6703 14.709 81.7581 14.8359 77.8479 14.8424C74.0057 14.8424 70.1613 14.7326 66.3275 14.4765C64.5783 14.3603 62.8333 14.2125 61.0927 14.0331C60.3009 13.9491 59.5112 13.8609 58.7216 13.7618L57.97 13.665L57.8067 13.6414L57.0276 13.5273C55.4355 13.284 53.8434 13.0043 52.2683 12.6662C52.1094 12.6305 51.9671 12.5409 51.8652 12.4121C51.7633 12.2833 51.7078 12.1232 51.7078 11.9581C51.7078 11.793 51.7633 11.6329 51.8652 11.5041C51.9671 11.3754 52.1094 11.2857 52.2683 11.2499H52.298C53.663 10.955 55.0385 10.7032 56.4183 10.4836C56.8783 10.4105 57.3396 10.3387 57.8024 10.2684H57.8151C58.679 10.2103 59.5473 10.0531 60.407 9.94983C67.887 9.16091 75.4115 8.89194 82.9278 9.1448C86.5768 9.25244 90.2238 9.46983 93.8558 9.84436C94.637 9.92616 95.414 10.0123 96.1909 10.1091C96.4881 10.1457 96.7874 10.1888 97.0868 10.2254L97.6896 10.3136C99.4473 10.5791 101.196 10.9012 102.935 11.2801C105.512 11.8483 108.822 12.0334 109.968 14.8962C110.333 15.8046 110.499 16.8141 110.7 17.7676L110.957 18.9838C110.964 19.0056 110.969 19.028 110.972 19.0505C111.579 21.9205 112.187 24.7904 112.795 27.6604C112.84 27.8725 112.841 28.0915 112.798 28.3039C112.756 28.5165 112.671 28.7176 112.548 28.8953C112.425 29.0728 112.268 29.2228 112.085 29.3359C111.903 29.4489 111.7 29.5226 111.488 29.5525H111.471L111.099 29.6042L110.732 29.6536C109.569 29.8072 108.404 29.9507 107.238 30.0842C104.941 30.3496 102.641 30.5792 100.337 30.773C95.7586 31.1589 91.1712 31.4122 86.5747 31.5328C84.2326 31.5959 81.8911 31.6254 79.5504 31.621C70.2334 31.6136 60.9245 31.0645 51.6697 29.9765C50.6676 29.856 49.6657 29.7268 48.6637 29.5956C49.4407 29.6968 48.099 29.518 47.8274 29.4793C47.1905 29.3889 46.5537 29.295 45.9168 29.1974C43.7792 28.8722 41.6543 28.4719 39.5209 28.121C36.9417 27.6906 34.475 27.9059 32.1421 29.1974C30.2271 30.26 28.6772 31.8893 27.6991 33.8683C26.6929 35.9777 26.3936 38.2743 25.9435 40.541C25.4935 42.8075 24.793 45.2463 25.0583 47.5731C25.6294 52.5949 29.0916 56.6759 34.0717 57.5886C38.7567 58.4495 43.4672 59.147 48.1903 59.7411C66.7442 62.0452 85.4885 62.3208 104.1 60.5633C105.616 60.4198 107.13 60.2635 108.641 60.0941C109.113 60.0415 109.591 60.0966 110.039 60.2555C110.488 60.4143 110.895 60.6729 111.232 61.0122C111.569 61.3514 111.827 61.7629 111.987 62.2162C112.147 62.6697 112.205 63.1537 112.156 63.6327L111.685 68.2778C110.736 77.664 109.786 87.0496 108.836 96.4344C107.846 106.29 106.849 116.145 105.845 125.998C105.562 128.774 105.279 131.549 104.996 134.322C104.725 137.054 104.686 139.872 104.175 142.571C103.368 146.816 100.534 149.423 96.399 150.376C92.6105 151.25 88.7403 151.709 84.8552 151.744C80.5481 151.768 76.2431 151.574 71.936 151.598C67.3379 151.624 61.7062 151.194 58.1569 147.724C55.0385 144.676 54.6075 139.904 54.183 135.777C53.617 130.314 53.0559 124.852 52.4996 119.391L49.3791 89.0212L47.3604 69.3713C47.3264 69.0463 47.2924 68.7256 47.2606 68.3983C47.0185 66.0543 45.3819 63.7598 42.8027 63.8782C40.5951 63.9771 38.0859 65.88 38.3449 68.3983L39.8414 82.9664L42.9364 113.101C43.8182 121.661 44.6977 130.221 45.5751 138.784C45.745 140.424 45.9041 142.069 46.0824 143.709C47.0526 152.673 53.803 157.503 62.1626 158.863C67.045 159.659 72.0463 159.823 77.0009 159.905C83.3523 160.008 89.7674 160.256 96.0147 159.089C105.272 157.366 112.218 151.099 113.209 141.376C113.492 138.569 113.775 135.762 114.058 132.954C115 123.666 115.939 114.378 116.878 105.09L119.947 74.7396L121.355 60.8303C121.425 60.1405 121.712 59.492 122.174 58.9807C122.636 58.4694 123.247 58.1224 123.919 57.9911C126.566 57.468 129.096 56.5747 130.979 54.532C133.977 51.2797 134.573 47.0393 133.514 42.7644ZM33.9358 45.765C33.9762 45.7456 33.9019 46.0964 33.87 46.26C33.8637 46.0125 33.8764 45.7929 33.9358 45.765ZM34.1927 47.7797C34.2139 47.7646 34.2776 47.8508 34.3434 47.9541C34.2436 47.8593 34.18 47.7884 34.1906 47.7797H34.1927ZM34.4453 48.1176C34.5854 48.3738 34.5366 48.2747 34.4453 48.1176ZM34.9527 48.5352H34.9654C34.9654 48.5503 34.9887 48.5653 34.9972 48.5805C34.9832 48.5638 34.9675 48.5487 34.9505 48.5352H34.9527ZM123.796 47.911C122.845 48.8279 121.412 49.2541 119.996 49.4673C104.117 51.8565 88.0076 53.0662 71.955 52.5324C60.4665 52.1343 49.099 50.8405 37.7251 49.2111C36.6106 49.0518 35.4027 48.8452 34.6364 48.0122C33.1929 46.4408 33.9019 43.2767 34.2776 41.3782C34.6215 39.639 35.2796 37.3208 37.3196 37.0733C40.5038 36.6945 44.2016 38.0569 47.3519 38.5413C51.1446 39.1281 54.9515 39.5981 58.7724 39.9511C75.0797 41.4579 91.6609 41.2232 107.896 39.0192C110.855 38.6158 113.804 38.1474 116.742 37.6136C119.359 37.1378 122.261 36.2446 123.842 38.9933C124.927 40.866 125.071 43.3714 124.904 45.4873C124.852 46.4092 124.455 47.2762 123.794 47.911H123.796Z" fill="black"/>
</svg>
