<?xml version="1.0" encoding="UTF-8"?>
<!--Generator: Apple Native CoreSVG 326-->
<!DOCTYPE svg
PUBLIC "-//W3C//DTD SVG 1.1//EN"
       "http://www.w3.org/Graphics/SVG/1.1/DTD/svg11.dtd">
<svg version="1.1" xmlns="http://www.w3.org/2000/svg" xmlns:xlink="http://www.w3.org/1999/xlink" viewBox="0 0 142.69 143.047">
 <g>
  <rect height="143.047" opacity="0" width="142.69" x="0" y="0"/>
  <path d="M0.893253 142.154C2.115 143.335 3.96667 143.335 5.16791 142.154L71.3611 75.9404L137.522 142.154C138.703 143.335 140.595 143.355 141.776 142.154C142.977 140.932 142.977 139.081 141.776 137.9L75.6357 71.6863L141.776 5.52532C142.977 4.34459 142.998 2.47241 141.776 1.27118C140.575 0.0377172 138.703 0.0377172 137.522 1.27118L71.3611 67.4321L5.16791 1.27118C3.96667 0.0377172 2.09449 0.0699395 0.893253 1.27118C-0.287474 2.49292-0.287474 4.34459 0.893253 5.52532L67.1069 71.6863L0.893253 137.9C-0.287474 139.081-0.307984 140.953 0.893253 142.154Z" fill="black"/>
 </g>
</svg>
