<svg width="370" height="370" viewBox="0 0 370 370" fill="none" xmlns="http://www.w3.org/2000/svg">
<path d="M246.487 113.239V152.369H230.702V114.178C230.702 110.182 228.218 107.697 224.222 107.697H42.6671C38.6578 107.697 36.1734 110.182 36.1734 114.178V203.866C36.1734 206.91 37.4654 208.102 40.3629 208.102H154.674V254.289H151.886C140.929 254.289 132.001 263.27 132.001 274.088C132.001 277.543 132.89 280.796 134.454 283.628H102.5C98.3576 283.628 94.9929 280.271 94.9929 276.194C94.9929 272.057 98.3576 268.64 102.5 268.64H103.221V250.217H41.715C28.4377 250.217 20.3283 242.181 20.3283 228.903V113.239C20.3283 99.9482 28.4377 91.9121 41.715 91.9121H225.161C238.451 91.9121 246.487 99.9482 246.487 113.239Z" fill="black" fill-opacity="0.85"/>
<path d="M144.378 274.087C144.378 278.223 147.743 281.654 151.885 281.654L342.104 281.581C346.246 281.581 349.611 278.163 349.611 274.027C349.611 269.95 346.246 266.593 342.104 266.593H327.602V186.299C327.602 172.122 319.973 164.687 305.856 164.687H188.723C175.14 164.687 166.978 172.122 166.978 186.299V266.653H151.885C147.743 266.653 144.378 270.023 144.378 274.087ZM182.763 266.653V190.084C182.763 183.57 185.987 180.471 192.435 180.471H302.205C308.606 180.471 311.83 183.57 311.83 190.084V266.593L182.763 266.653Z" fill="black" fill-opacity="0.85"/>
</svg>
