<svg width="160" height="160" viewBox="0 0 160 160" fill="none" xmlns="http://www.w3.org/2000/svg">
<path fill-rule="evenodd" clip-rule="evenodd" d="M80.0662 0C35.7917 0 0 36.6665 0 82.028C0 118.288 22.9329 148.981 54.747 159.844C58.7246 160.661 60.1816 158.079 60.1816 155.908C60.1816 154.006 60.0505 147.488 60.0505 140.696C37.778 145.586 33.1399 130.918 33.1399 130.918C29.5606 121.411 24.2572 118.968 24.2572 118.968C16.9674 113.943 24.7882 113.943 24.7882 113.943C32.8744 114.486 37.1175 122.363 37.1175 122.363C44.2745 134.856 55.8074 131.326 60.4471 129.153C61.1092 123.856 63.2315 120.19 65.485 118.153C47.7211 116.251 29.0312 109.19 29.0312 77.6814C29.0312 68.7181 32.2107 61.3847 37.2486 55.6814C36.4538 53.6448 33.6693 45.2231 38.0451 33.9515C38.0451 33.9515 44.8055 31.7782 60.0488 42.3715C66.575 40.5759 73.3054 39.6625 80.0662 39.6548C86.8266 39.6548 93.7181 40.6065 100.082 42.3715C115.327 31.7782 122.087 33.9515 122.087 33.9515C126.463 45.2231 123.677 53.6448 122.882 55.6814C128.053 61.3847 131.101 68.7181 131.101 77.6814C131.101 109.19 112.411 116.115 94.5146 118.153C97.4318 120.733 99.9492 125.621 99.9492 133.363C99.9492 144.363 99.8181 153.191 99.8181 155.906C99.8181 158.079 101.277 160.661 105.253 159.846C137.067 148.979 160 118.288 160 82.028C160.131 36.6665 124.208 0 80.0662 0Z" fill="black"/>
</svg>
