<svg width="160" height="160" viewBox="0 0 160 160" fill="none" xmlns="http://www.w3.org/2000/svg">
<path d="M46.8673 0.559501C38.3553 0.961101 32.5425 2.3195 27.4609 4.3163C22.2017 6.3659 17.7441 9.1163 13.3089 13.5675C8.87373 18.0187 6.14253 22.4795 4.10733 27.7467C2.13773 32.8395 0.80333 38.6571 0.42733 47.1739C0.0513298 55.6907 -0.0318703 58.4283 0.00972972 80.1531C0.0513297 101.878 0.14733 104.601 0.56013 113.136C0.96653 121.646 2.32013 127.457 4.31693 132.54C6.36973 137.8 9.11693 142.256 13.5697 146.692C18.0225 151.129 22.4801 153.854 27.7601 155.892C32.8481 157.859 38.6673 159.2 47.1825 159.572C55.6977 159.945 58.4385 160.032 80.1569 159.99C101.875 159.948 104.61 159.852 113.143 159.448C121.675 159.043 127.456 157.68 132.541 155.692C137.8 153.635 142.259 150.892 146.693 146.438C151.127 141.984 153.856 137.52 155.89 132.249C157.861 127.161 159.2 121.342 159.57 112.833C159.943 104.294 160.031 101.568 159.989 79.8459C159.947 58.1243 159.85 55.4011 159.445 46.8699C159.04 38.3387 157.685 32.5451 155.69 27.4587C153.634 22.1995 150.89 17.7467 146.439 13.3067C141.987 8.8667 137.52 6.1387 132.251 4.1099C127.16 2.1403 121.344 0.797901 112.829 0.429901C104.314 0.0619009 101.573 -0.0324991 79.8465 0.00910089C58.1201 0.0507009 55.4001 0.143501 46.8673 0.559501ZM47.8017 145.18C40.0017 144.841 35.7665 143.545 32.9441 142.46C29.2065 141.02 26.5441 139.28 23.7313 136.494C20.9185 133.708 19.1905 131.036 17.7313 127.307C16.6353 124.484 15.3153 120.254 14.9505 112.454C14.5537 104.024 14.4705 101.492 14.4241 80.1339C14.3777 58.7755 14.4593 56.2475 14.8289 47.8139C15.1617 40.0203 16.4657 35.7803 17.5489 32.9595C18.9889 29.2171 20.7233 26.5595 23.5153 23.7483C26.3073 20.9371 28.9713 19.2059 32.7041 17.7467C35.5233 16.6459 39.7537 15.3371 47.5505 14.9659C55.9873 14.5659 58.5153 14.4859 79.8705 14.4395C101.226 14.3931 103.76 14.4731 112.2 14.8443C119.994 15.1835 124.235 16.4747 127.053 17.5643C130.792 19.0043 133.453 20.7339 136.264 23.5307C139.075 26.3275 140.808 28.9819 142.267 32.7227C143.37 35.5339 144.679 39.7627 145.047 47.5643C145.448 56.0011 145.539 58.5307 145.578 79.8843C145.616 101.238 145.541 103.774 145.171 112.204C144.831 120.004 143.538 124.241 142.451 127.067C141.011 130.803 139.275 133.467 136.482 136.276C133.688 139.086 131.027 140.817 127.293 142.276C124.477 143.376 120.242 144.688 112.451 145.059C104.015 145.456 101.487 145.539 80.1233 145.585C58.7601 145.632 56.2401 145.545 47.8033 145.18M113.019 37.2427C113.022 39.1415 113.589 40.9968 114.646 42.5738C115.704 44.1508 117.206 45.3788 118.961 46.1023C120.717 46.8259 122.647 47.0126 124.509 46.6389C126.371 46.2651 128.08 45.3476 129.42 44.0025C130.76 42.6573 131.671 40.9449 132.038 39.0819C132.405 37.2189 132.212 35.2888 131.482 33.5359C130.751 31.783 129.518 30.286 127.937 29.2342C126.356 28.1823 124.499 27.6229 122.6 27.6267C120.055 27.6318 117.615 28.6477 115.819 30.4509C114.022 32.2542 113.015 34.6972 113.019 37.2427ZM38.9233 80.0795C38.9681 102.768 57.3937 121.118 80.0769 121.075C102.76 121.032 121.123 102.608 121.08 79.9195C121.037 57.2315 102.607 38.8763 79.9201 38.9211C57.2337 38.9659 38.8801 57.3947 38.9233 80.0795ZM53.3329 80.0507C53.3225 74.7764 54.8763 69.6175 57.7978 65.2264C60.7194 60.8352 64.8775 57.4089 69.7462 55.3809C74.615 53.3529 79.9758 52.8142 85.1508 53.8329C90.3258 54.8516 95.0824 57.382 98.8193 61.1041C102.556 64.8262 105.105 69.5728 106.145 74.7437C107.184 79.9145 106.666 85.2775 104.658 90.1542C102.649 95.031 99.2391 99.2026 94.8595 102.142C90.4799 105.08 85.3272 106.655 80.0529 106.665C76.5508 106.672 73.0816 105.99 69.8433 104.656C66.6051 103.323 63.6612 101.364 61.18 98.8928C58.6987 96.4213 56.7286 93.4852 55.3822 90.2523C54.0358 87.0193 53.3394 83.5528 53.3329 80.0507Z" fill="black"/>
</svg>
