<svg width="150" height="150" viewBox="0 0 150 150" fill="none" xmlns="http://www.w3.org/2000/svg">
<path d="M90.838 50.7863C84.0921 50.3037 78.3143 54.5827 75.1833 54.5827C71.9231 54.5827 66.92 50.9472 61.5619 51.0437C54.5898 51.1081 48.231 55.0653 44.5512 61.2747C37.3854 73.7899 42.8082 92.3859 49.8126 102.488C53.2018 107.539 57.3657 113.105 62.7884 112.944C67.9529 112.655 69.8896 109.534 76.2161 109.534C82.5427 109.534 84.2534 112.944 89.7407 112.784C95.4218 112.655 98.8756 107.733 102.394 102.746C106.332 96.9222 107.978 91.3562 108.01 91.0347C107.849 91.0347 97.1326 86.9165 97.0035 74.5299C96.9709 64.1703 105.525 59.1513 105.848 58.9261C101.006 51.848 93.4527 51.0437 90.838 50.7863ZM86.6421 44.0944C89.515 40.5875 91.4515 35.8259 90.9671 31C86.8034 31.1609 81.8003 33.7669 78.8307 37.2094C76.2161 40.298 73.8921 45.2204 74.5377 49.8855C79.1535 50.2072 83.8338 47.5369 86.6421 44.0944Z" fill="black" fill-opacity="0.85"/>
</svg>
