<svg width="150" height="150" viewBox="0 0 150 150" fill="none" xmlns="http://www.w3.org/2000/svg">
<path d="M49.838 50.7863C43.0921 50.3037 37.3143 54.5827 34.1833 54.5827C30.9231 54.5827 25.92 50.9472 20.5619 51.0437C13.5898 51.1081 7.23096 55.0653 3.5512 61.2747C-3.61455 73.7899 1.80819 92.3859 8.81256 102.488C12.2018 107.539 16.3657 113.105 21.7884 112.944C26.9529 112.655 28.8896 109.534 35.2161 109.534C41.5427 109.534 43.2534 112.944 48.7407 112.784C54.4218 112.655 57.8756 107.733 61.3937 102.746C65.3319 96.9222 66.9779 91.3562 67.0101 91.0347C66.8488 91.0347 56.1326 86.9165 56.0035 74.5299C55.9709 64.1703 64.525 59.1513 64.8476 58.9261C60.006 51.848 52.4527 51.0437 49.838 50.7863ZM45.6421 44.0944C48.515 40.5875 50.4515 35.8259 49.9671 31C45.8034 31.1609 40.8003 33.7669 37.8307 37.2094C35.2161 40.298 32.8921 45.2204 33.5377 49.8855C38.1535 50.2072 42.8338 47.5369 45.6421 44.0944Z" fill="black" fill-opacity="0.85"/>
</svg>
