<svg width="150" height="150" viewBox="0 0 150 150" fill="none" xmlns="http://www.w3.org/2000/svg">
<path d="M83.0439 108.988V104.661C80.8708 104.661 78.6608 103.341 78.6608 99.9621V78.5206H71.236C69.5271 78.5206 68.7945 77.343 69.2551 75.6709L76.6951 48.8096C77.4455 46.1007 78.7299 44.6466 81.1483 44.6466L81.2163 39.8102C76.3714 39.8102 73.766 42.4972 72.3211 47.6999L64.884 74.1167C63.1986 79.9306 66.31 83.1403 70.7743 83.1403H74.0415V99.6826C74.0415 105.812 77.5629 108.988 83.0439 108.988ZM57.6924 67.8319C58.797 67.8319 59.6744 66.9545 59.6744 65.8263V58.8348C59.6744 57.7251 58.797 56.8424 57.6924 56.8424C56.5642 56.8424 55.6816 57.7251 55.6816 58.8348V65.8263C55.6816 66.9545 56.5642 67.8319 57.6924 67.8319ZM90.1245 67.8319C91.2526 67.8319 92.135 66.9545 92.135 65.8263V58.8348C92.135 57.7251 91.2526 56.8424 90.1245 56.8424C89.0199 56.8424 88.1371 57.7251 88.1371 58.8348V65.8263C88.1371 66.9545 89.0199 67.8319 90.1245 67.8319ZM74.6924 96.9034C82.2573 96.9034 89.8324 94.5195 94.449 89.8091C95.4363 88.8062 95.2431 87.6494 94.5927 86.9314C93.8979 86.1503 92.5872 85.8944 91.5215 86.8871C87.129 90.8976 80.9615 92.916 74.7602 92.916C68.6111 92.916 62.4436 90.9369 57.9494 86.8871C56.8367 85.9234 55.5338 86.1895 54.8835 86.8922C54.2096 87.6105 54.0112 88.7724 55.0036 89.8091C59.61 94.5195 67.1667 96.9034 74.6924 96.9034ZM58.3962 111H90.6838C97.205 111 102.309 109.14 105.652 105.792C109.075 102.397 110.865 97.3164 110.865 90.7952V58.5077C110.865 52.0153 109.075 46.9529 105.652 43.5397C102.262 40.1397 97.205 38.3262 90.6838 38.3262H58.3962C51.8803 38.3262 46.7943 40.1921 43.4519 43.5397C40.0283 46.9294 38.2147 52.0153 38.2147 58.5077V90.7952C38.2147 97.3164 40.0047 102.373 43.4519 105.792C46.8179 109.163 51.8803 111 58.3962 111ZM58.5722 104.661C53.9175 104.661 50.3893 103.458 48.0587 101.156C45.7098 98.8308 44.5351 95.3313 44.5351 90.6244V58.6836C44.5351 54.0002 45.7098 50.4771 48.0587 48.1466C50.3605 45.8736 53.9175 44.6466 58.5722 44.6466H90.5131C95.1862 44.6466 98.7194 45.8449 101.021 48.1466C103.375 50.4771 104.55 54.0002 104.55 58.6836V90.6244C104.55 95.3313 103.375 98.8308 101.021 101.156C98.743 103.434 95.1862 104.661 90.5131 104.661H58.5722Z" fill="black" fill-opacity="0.85"/>
</svg>
