<svg width="150" height="150" viewBox="0 0 150 150" fill="none" xmlns="http://www.w3.org/2000/svg">
<path d="M45.0439 108.988V104.661C42.8708 104.661 40.6608 103.341 40.6608 99.9621V78.5206H33.236C31.5271 78.5206 30.7945 77.343 31.2551 75.6709L38.6951 48.8096C39.4455 46.1007 40.7299 44.6466 43.1483 44.6466L43.2163 39.8102C38.3714 39.8102 35.766 42.4972 34.3211 47.6999L26.884 74.1167C25.1986 79.9306 28.31 83.1403 32.7743 83.1403H36.0415V99.6826C36.0415 105.812 39.5629 108.988 45.0439 108.988ZM19.6924 67.8319C20.797 67.8319 21.6744 66.9545 21.6744 65.8263V58.8348C21.6744 57.7251 20.797 56.8424 19.6924 56.8424C18.5642 56.8424 17.6816 57.7251 17.6816 58.8348V65.8263C17.6816 66.9545 18.5642 67.8319 19.6924 67.8319ZM52.1245 67.8319C53.2526 67.8319 54.135 66.9545 54.135 65.8263V58.8348C54.135 57.7251 53.2526 56.8424 52.1245 56.8424C51.0199 56.8424 50.1371 57.7251 50.1371 58.8348V65.8263C50.1371 66.9545 51.0199 67.8319 52.1245 67.8319ZM36.6924 96.9034C44.2573 96.9034 51.8324 94.5195 56.449 89.8091C57.4363 88.8062 57.2431 87.6494 56.5927 86.9314C55.8979 86.1503 54.5872 85.8944 53.5215 86.8871C49.129 90.8976 42.9615 92.916 36.7602 92.916C30.6111 92.916 24.4436 90.9369 19.9494 86.8871C18.8367 85.9234 17.5338 86.1895 16.8835 86.8922C16.2096 87.6105 16.0112 88.7724 17.0036 89.8091C21.61 94.5195 29.1667 96.9034 36.6924 96.9034ZM20.3962 111H52.6838C59.205 111 64.3092 109.14 67.6516 105.792C71.0753 102.397 72.8653 97.3164 72.8653 90.7952V58.5077C72.8653 52.0153 71.0753 46.9529 67.6516 43.5397C64.2621 40.1397 59.205 38.3262 52.6838 38.3262H20.3962C13.8803 38.3262 8.79434 40.1921 5.45186 43.5397C2.02828 46.9294 0.214722 52.0153 0.214722 58.5077V90.7952C0.214722 97.3164 2.00471 102.373 5.45186 105.792C8.81793 109.163 13.8803 111 20.3962 111ZM20.5722 104.661C15.9175 104.661 12.3893 103.458 10.0587 101.156C7.70984 98.8308 6.5351 95.3313 6.5351 90.6244V58.6836C6.5351 54.0002 7.70984 50.4771 10.0587 48.1466C12.3605 45.8736 15.9175 44.6466 20.5722 44.6466H52.5131C57.1862 44.6466 60.7194 45.8449 63.0213 48.1466C65.3753 50.4771 66.5502 54.0002 66.5502 58.6836V90.6244C66.5502 95.3313 65.3753 98.8308 63.0213 101.156C60.743 103.434 57.1862 104.661 52.5131 104.661H20.5722Z" fill="black" fill-opacity="0.85"/>
</svg>
