<svg width="160" height="160" viewBox="0 0 160 160" fill="none" xmlns="http://www.w3.org/2000/svg">
<g clip-path="url(#clip0_2008_2)">
<path d="M131.93 0H28.0702C12.5674 0 0 12.5674 0 28.0702V131.93C0 147.433 12.5674 160 28.0702 160H131.93C147.433 160 160 147.433 160 131.93V28.0702C160 12.5674 147.433 0 131.93 0Z" fill="black"/>
<path d="M160 110.115V124.646C159.087 124.735 158.15 124.78 157.187 124.78C140.009 124.78 130.338 110.471 129.921 92.5677C129.909 91.8755 129.914 91.1877 129.929 90.5045C129.938 90.0784 129.955 89.6538 129.977 89.2306C129.988 89.0045 129.998 88.7922 130.015 88.5553C130.032 88.3183 130.049 88.0814 130.069 87.8445C130.688 79.9397 133.232 72.9055 137.432 67.7008C140.042 64.4698 143.177 62.0083 146.733 60.362C149.856 58.7897 154.245 57.9219 157.823 57.9219H157.978C158.656 57.9219 159.33 57.9445 160 57.9892V61.9872C159.289 61.7923 158.528 61.6878 157.719 61.6744C150.482 61.8236 146.17 70.4916 145.633 82.5013H160V85.8859H145.308L145.303 85.8891C144.641 97.5906 151.046 107.48 160 110.115Z" fill="white"/>
<path d="M130.643 38.2225L130.769 38.1948V37.2178H105.002L81.0767 93.4504L57.1513 37.2178H29.3842V38.1948L29.5089 38.2225C34.212 39.284 36.5998 40.8671 36.5998 46.5765V113.417C36.5998 119.127 34.2028 120.71 29.4997 121.771L29.375 121.799V122.779H48.2141V121.802L48.0895 121.774C43.3863 120.713 40.9984 119.13 40.9984 113.42V50.4537L71.7333 122.779H73.4764L105.107 48.4367V115.071C104.704 119.581 102.338 120.973 98.0789 121.934L97.9527 121.964V122.933H130.769V121.964L130.643 121.934C126.38 120.973 123.957 119.581 123.554 115.071L123.532 46.5765H123.554C123.554 40.8671 125.941 39.284 130.643 38.2225Z" fill="white"/>
</g>
<defs>
<clipPath id="clip0_2008_2">
<rect width="160" height="160" fill="white"/>
</clipPath>
</defs>
</svg>
