<svg width="50" height="50" viewBox="0 0 50 50" fill="none" xmlns="http://www.w3.org/2000/svg">
<rect width="50" height="50" fill="black"/>
<path d="M13.0569 10.0909H14.6336L18.341 19.1463H18.4688L22.1762 10.0909H23.7529V21H22.5171V12.7116H22.4106L19.0015 21H17.8083L14.3992 12.7116H14.2927V21H13.0569V10.0909ZM30.6203 21V10.0909H37.2041V11.2628H31.9414V14.9489H36.8632V16.1207H31.9414V19.8281H37.2894V21H30.6203ZM21.6562 28.0909V39H20.3778L14.4331 30.4347H14.3266V39H13.0056V28.0909H14.284L20.2499 36.6776H20.3564V28.0909H21.6562ZM35.6774 28.0909H36.9984V35.3139C36.9984 36.0597 36.8226 36.7255 36.4711 37.3114C36.123 37.8938 35.6312 38.3537 34.9956 38.6911C34.3599 39.0249 33.6142 39.1918 32.7583 39.1918C31.9025 39.1918 31.1568 39.0249 30.5211 38.6911C29.8855 38.3537 29.3919 37.8938 29.0403 37.3114C28.6923 36.7255 28.5183 36.0597 28.5183 35.3139V28.0909H29.8393V35.2074C29.8393 35.7401 29.9565 36.2141 30.1909 36.6296C30.4252 37.0415 30.7591 37.3665 31.1923 37.6044C31.6291 37.8388 32.1511 37.956 32.7583 37.956C33.3656 37.956 33.8876 37.8388 34.3244 37.6044C34.7612 37.3665 35.095 37.0415 35.3258 36.6296C35.5602 36.2141 35.6774 35.7401 35.6774 35.2074V28.0909Z" fill="white"/>
</svg>
