<svg width="370" height="370" viewBox="0 0 370 370" fill="none" xmlns="http://www.w3.org/2000/svg">
<path d="M226.228 108.989V112.858H210.14V112.462C210.14 104.42 205.624 100.051 197.295 100.051H131.42C123.124 100.051 118.621 104.381 118.621 112.449V257.352C118.621 265.407 123.124 269.737 131.42 269.737H158.584C159.389 276.241 161.884 281.846 165.697 286.247H128.84C112.808 286.247 102.46 276.292 102.46 260.812V108.976C102.46 93.5088 112.808 83.5537 128.84 83.5537H200.251C216.086 83.5537 226.228 93.5088 226.228 108.989ZM182.578 113.318L182.553 113.843C177.544 114.939 173.139 117.05 169.508 119.99H152.796C148.998 119.99 146.111 117.116 146.111 113.318C146.111 109.64 149.011 106.739 152.796 106.739H175.966C179.691 106.739 182.578 109.64 182.578 113.318Z" fill="black" fill-opacity="0.85"/>
<path d="M191.291 286.378H245.412C258.953 286.378 267.48 277.979 267.48 264.759V145.119C267.48 131.925 258.953 123.539 245.412 123.539H191.291C177.618 123.539 168.912 131.925 168.912 145.106V264.772C168.912 277.979 177.618 286.378 191.291 286.378ZM194.424 271.787C187.407 271.787 183.53 267.983 183.53 261.22V148.651C183.53 141.934 187.407 138.157 194.424 138.157H241.955C248.898 138.157 252.862 141.974 252.862 148.677V261.206C252.862 267.956 248.898 271.787 241.955 271.787H194.424ZM208.049 156.792H229.137C232.445 156.792 235.155 154.157 235.155 150.703C235.155 147.382 232.445 144.687 229.137 144.687H208.049C204.655 144.687 202.019 147.382 202.019 150.703C202.019 154.157 204.655 156.792 208.049 156.792Z" fill="black" fill-opacity="0.85"/>
</svg>
