<svg width="150" height="150" viewBox="0 0 150 150" fill="none" xmlns="http://www.w3.org/2000/svg">
<path fill-rule="evenodd" clip-rule="evenodd" d="M49.7016 107.986C47.8218 107.986 46.3008 106.458 46.3008 104.568C46.3008 102.678 47.8218 101.154 49.7016 101.154C51.5814 101.154 53.1024 102.678 53.1024 104.568C53.1024 106.458 51.5814 107.986 49.7016 107.986ZM39.2808 114C59.085 114 57.8487 105.368 57.8487 105.368L57.8253 96.4252H38.9298V93.7402H65.3289C65.3289 93.7402 78 95.1869 78 75.1028C78 55.0187 66.9435 55.7266 66.9435 55.7266H60.3407V65.05C60.3407 65.05 60.6957 76.1635 49.4598 76.1635H30.7164C30.7164 76.1635 20.1864 75.9964 20.1864 86.3972V103.591C20.1864 103.591 18.5874 114 39.2808 114ZM28.3023 42.0138C30.1821 42.0138 31.6992 43.5424 31.6992 45.432C31.6992 47.3216 30.1821 48.8464 28.3023 48.8464C26.4225 48.8464 24.9015 47.3216 24.9015 45.432C24.9015 43.5424 26.4225 42.0138 28.3023 42.0138ZM38.7192 36C18.9189 36 20.1552 44.6322 20.1552 44.6322L20.1786 53.5748H39.0742V56.2598H12.6711C12.6711 56.2598 0 54.8131 0 74.8972C0 94.9813 11.0604 94.2734 11.0604 94.2734H17.6593V84.95C17.6593 84.95 17.3043 73.8365 28.5441 73.8365H47.2836C47.2836 73.8365 57.8136 74.0036 57.8136 63.6028V46.4089C57.8136 46.4089 59.4126 36 38.7192 36Z" fill="#262626"/>
</svg>
