<svg width="370" height="370" viewBox="0 0 370 370" fill="none" xmlns="http://www.w3.org/2000/svg">
<rect width="370" height="370" fill="white"/>
<path fill-rule="evenodd" clip-rule="evenodd" d="M213.812 273.809C208.751 273.809 204.656 269.694 204.656 264.606C204.656 259.519 208.751 255.414 213.812 255.414C218.873 255.414 222.968 259.519 222.968 264.606C222.968 269.694 218.873 273.809 213.812 273.809ZM185.756 290C239.075 290 235.747 266.76 235.747 266.76L235.683 242.683H184.811V235.454H255.886C255.886 235.454 290 239.349 290 185.277C290 131.204 260.233 133.11 260.233 133.11H242.456V158.212C242.456 158.212 243.412 188.133 213.161 188.133H162.698C162.698 188.133 134.348 187.683 134.348 215.685V261.976C134.348 261.976 130.043 290 185.756 290ZM156.198 96.1909C161.259 96.1909 165.344 100.306 165.344 105.394C165.344 110.481 161.259 114.586 156.198 114.586C151.137 114.586 147.043 110.481 147.043 105.394C147.043 100.306 151.137 96.1909 156.198 96.1909ZM184.244 80C130.936 80 134.264 103.24 134.264 103.24L134.327 127.317H185.2V134.546H114.114C114.114 134.546 80 130.651 80 184.723C80 238.796 109.778 236.89 109.778 236.89H127.544V211.788C127.544 211.788 126.589 181.867 156.85 181.867H207.302C207.302 181.867 235.652 182.317 235.652 154.315V108.024C235.652 108.024 239.957 80 184.244 80Z" fill="#262626"/>
</svg>
