<svg width="150" height="150" viewBox="0 0 150 150" fill="none" xmlns="http://www.w3.org/2000/svg">
<path fill-rule="evenodd" clip-rule="evenodd" d="M85.7016 107.986C83.8218 107.986 82.3008 106.458 82.3008 104.568C82.3008 102.678 83.8218 101.154 85.7016 101.154C87.5814 101.154 89.1024 102.678 89.1024 104.568C89.1024 106.458 87.5814 107.986 85.7016 107.986ZM75.2808 114C95.085 114 93.8487 105.368 93.8487 105.368L93.8253 96.4252H74.9298V93.7402H101.329C101.329 93.7402 114 95.1869 114 75.1028C114 55.0187 102.944 55.7266 102.944 55.7266H96.3407V65.05C96.3407 65.05 96.6957 76.1635 85.4598 76.1635H66.7164C66.7164 76.1635 56.1864 75.9964 56.1864 86.3972V103.591C56.1864 103.591 54.5874 114 75.2808 114ZM64.3023 42.0138C66.1821 42.0138 67.6992 43.5424 67.6992 45.432C67.6992 47.3216 66.1821 48.8464 64.3023 48.8464C62.4225 48.8464 60.9015 47.3216 60.9015 45.432C60.9015 43.5424 62.4225 42.0138 64.3023 42.0138ZM74.7192 36C54.9189 36 56.1552 44.6322 56.1552 44.6322L56.1786 53.5748H75.0741V56.2598H48.6711C48.6711 56.2598 36 54.8131 36 74.8972C36 94.9813 47.0604 94.2734 47.0604 94.2734H53.6593V84.95C53.6593 84.95 53.3043 73.8365 64.5441 73.8365H83.2836C83.2836 73.8365 93.8136 74.0036 93.8136 63.6028V46.4089C93.8136 46.4089 95.4126 36 74.7192 36Z" fill="#262626"/>
</svg>
