<svg width="200" height="200" viewBox="0 0 200 200" fill="none" xmlns="http://www.w3.org/2000/svg">
<path d="M141.733 79.0005C141.893 80.733 142 82.4765 142 84.25C142 116.093 116.093 142.001 84.25 142.001C82.4765 142.001 80.733 141.893 79.0005 141.733V163H163V79.0005H141.733Z" fill="black"/>
<path d="M68.5 68.5H128.752C122.261 50.1607 104.815 37 84.25 37C58.1538 37 37 58.1538 37 84.25C37 104.815 50.1607 122.261 68.5 128.752V68.5Z" fill="black"/>
<path d="M79.0005 131.188C80.7235 131.377 82.4765 131.495 84.25 131.495C110.346 131.495 131.5 110.346 131.5 84.25C131.5 82.4765 131.382 80.7283 131.193 79.0005H79.0005V131.188Z" fill="black"/>
</svg>
