<svg width="370" height="370" viewBox="0 0 370 370" fill="none" xmlns="http://www.w3.org/2000/svg">
<path d="M103.63 144.898C127.465 169.389 160.73 183.501 196.074 183.381C223.477 183.261 249.554 174.349 270.86 158.223L265.654 147.563C246.05 163.15 221.741 171.816 196.074 171.937C162.154 172.177 130.623 157.858 108.797 133.189L103.63 144.898ZM93.9858 197.712C143.237 239.756 213.412 247.559 270.119 218.201L269.974 205.067C214.734 236.826 144.267 228.95 96.7104 184.783L93.9858 197.712ZM140.437 262.623L154.05 265.95C148.09 251.844 144.823 236.893 144.403 221.457C140.559 173.242 160.866 127.095 197.596 96.831L185.439 92.2241C149.042 124.643 129.281 172.251 133.005 221.757C133.305 235.637 135.807 249.343 140.437 262.623ZM203.235 272.351L213.975 267.737C196.453 242.961 186.779 213.358 186.779 182.403C186.779 152.778 195.482 124.599 211.541 100.78L200.462 96.7432C184.197 122.111 175.308 151.681 175.308 182.403C175.308 214.96 185.168 246.019 203.235 272.351ZM258.725 237.213L266.238 228.394C234.633 210.589 214.651 177.578 213.99 140.536C213.69 127.058 216.06 113.747 220.947 101.343L209.981 98.1904C204.775 111.573 202.305 125.895 202.545 140.656C203.206 180.803 224.745 217.127 258.725 237.213ZM144.029 182.442C152.202 182.442 158.843 175.741 158.843 167.495C158.843 159.383 152.202 152.668 144.029 152.668C135.784 152.668 129.069 159.383 129.069 167.495C129.069 175.741 135.784 182.442 144.029 182.442ZM216.538 190.527C224.509 190.527 231.044 184.005 231.044 175.9C231.044 167.869 224.509 161.321 216.538 161.321C208.433 161.321 201.851 167.869 201.851 175.9C201.851 184.005 208.433 190.527 216.538 190.527ZM188.741 244.426C196.939 244.426 203.581 237.831 203.581 229.559C203.581 221.274 196.926 214.666 188.741 214.666C180.429 214.666 173.834 221.274 173.834 229.559C173.834 237.831 180.429 244.426 188.741 244.426ZM184.97 281.537C238.304 281.537 281.604 238.284 281.604 184.963C281.604 131.63 238.304 88.3291 184.97 88.3291C131.637 88.3291 88.396 131.63 88.396 184.963C88.396 238.284 131.637 281.537 184.97 281.537ZM184.97 268.19C139.015 268.19 101.744 230.905 101.744 184.963C101.744 138.948 139.015 101.664 184.97 101.664C230.985 101.664 268.257 138.948 268.257 184.963C268.257 230.905 230.985 268.19 184.97 268.19Z" fill="black" fill-opacity="0.85"/>
</svg>
