<svg width="600" height="600" viewBox="0 0 600 600" fill="none" xmlns="http://www.w3.org/2000/svg">
<g clip-path="url(#clip0_6_11)">
<path d="M299.928 478.996C398.963 478.996 479.28 398.885 479.28 299.929C479.28 200.973 398.963 120.72 299.928 120.72C200.894 120.72 120.72 200.973 120.72 299.929C120.72 398.885 200.894 478.996 299.928 478.996ZM299.928 467.381C207.321 467.381 132.344 392.462 132.344 299.929C132.344 207.293 207.321 132.375 299.928 132.375C392.638 132.375 467.615 207.293 467.615 299.929C467.615 392.462 392.638 467.381 299.928 467.381Z" fill="black"/>
<path d="M214.552 394.205L326.451 336.092C330.879 333.941 334.213 330.775 336.611 326.187L394.484 214.415C398.642 206.166 393.947 200.353 385.018 204.959L273.2 262.786C269.057 264.938 266.072 267.676 263.246 272.977L205.088 384.788C200.906 392.958 205.926 398.525 214.552 394.205ZM299.928 322.213C287.535 322.213 277.422 312.107 277.422 299.724C277.422 287.238 287.535 277.133 299.928 277.133C312.321 277.133 322.435 287.238 322.435 299.724C322.435 312.107 312.321 322.213 299.928 322.213Z" fill="black"/>
</g>
<defs>
<clipPath id="clip0_6_11">
<rect width="358.56" height="358.56" fill="white" transform="translate(120.72 120.72)"/>
</clipPath>
</defs>
</svg>
