<svg width="150" height="150" viewBox="0 0 150 150" fill="none" xmlns="http://www.w3.org/2000/svg">
<path d="M6.46565 57.9921C16.5813 68.3791 30.6995 74.3644 45.7001 74.3135C57.3303 74.2626 68.3977 70.4828 77.4403 63.6432L75.2308 59.1222C66.9106 65.7332 56.5935 69.4086 45.7001 69.4595C31.3039 69.5614 17.9217 63.4885 8.65839 53.0257L6.46565 57.9921ZM2.37239 80.3915C23.2752 98.2231 53.0586 101.533 77.1258 89.0812L77.0643 83.5109C53.6196 96.9805 23.7123 93.6401 3.52874 74.9081L2.37239 80.3915ZM22.0871 107.921L27.8646 109.333C25.3348 103.35 23.9485 97.0089 23.77 90.4622C22.1387 70.0131 30.7573 50.4412 46.346 37.6058L41.1864 35.652C25.739 49.4013 17.3523 69.5931 18.9326 90.5894C19.0601 96.4762 20.1219 102.289 22.0871 107.921ZM48.7393 112.047L53.2975 110.09C45.8609 99.5824 41.7552 87.0272 41.7552 73.8985C41.7552 61.3339 45.4488 49.3826 52.2645 39.2808L47.5624 37.5686C40.6592 48.3277 36.8867 60.8686 36.8867 73.8985C36.8867 87.7067 41.0714 100.879 48.7393 112.047ZM72.29 97.1446L75.4787 93.4043C62.065 85.8528 53.5844 71.852 53.3039 56.142C53.1765 50.4257 54.1824 44.7803 56.2565 39.5194L51.6024 38.1824C49.3929 43.8583 48.3446 49.9324 48.4464 56.1929C48.727 73.2201 57.8684 88.6257 72.29 97.1446ZM23.6115 73.9152C27.08 73.9152 29.8988 71.073 29.8988 67.5758C29.8988 64.1353 27.08 61.2874 23.6115 61.2874C20.112 61.2874 17.2621 64.1353 17.2621 67.5758C17.2621 71.073 20.112 73.9152 23.6115 73.9152ZM54.3853 77.3442C57.7683 77.3442 60.5418 74.5781 60.5418 71.1407C60.5418 67.7342 57.7683 64.9572 54.3853 64.9572C50.9454 64.9572 48.1519 67.7342 48.1519 71.1407C48.1519 74.5781 50.9454 77.3442 54.3853 77.3442ZM42.5878 100.204C46.0672 100.204 48.8861 97.4067 48.8861 93.8984C48.8861 90.3846 46.0617 87.582 42.5878 87.582C39.0602 87.582 36.2613 90.3846 36.2613 93.8984C36.2613 97.4067 39.0602 100.204 42.5878 100.204ZM40.9875 115.943C63.6231 115.943 82.0002 97.5988 82.0002 74.9844C82.0002 52.3647 63.6231 34 40.9875 34C18.352 34 0 52.3647 0 74.9844C0 97.5988 18.352 115.943 40.9875 115.943ZM40.9875 110.283C21.4835 110.283 5.66491 94.4693 5.66491 74.9844C5.66491 55.4685 21.4835 39.6554 40.9875 39.6554C60.5168 39.6554 76.3355 55.4685 76.3355 74.9844C76.3355 94.4693 60.5168 110.283 40.9875 110.283Z" fill="black" fill-opacity="0.85"/>
</svg>
