<svg width="150" height="150" viewBox="0 0 150 150" fill="none" xmlns="http://www.w3.org/2000/svg">
<path d="M40.4657 57.9921C50.5813 68.3791 64.6995 74.3644 79.7001 74.3135C91.3303 74.2625 102.398 70.4828 111.44 63.6432L109.231 59.1222C100.911 65.7332 90.5935 69.4086 79.7001 69.4595C65.3039 69.5614 51.9217 63.4885 42.6584 53.0257L40.4657 57.9921ZM36.3724 80.3915C57.2752 98.2231 87.0586 101.533 111.126 89.0812L111.064 83.5109C87.6196 96.9805 57.7123 93.6401 37.5287 74.9081L36.3724 80.3915ZM56.0871 107.921L61.8646 109.333C59.3348 103.35 57.9485 97.0089 57.77 90.4622C56.1387 70.0131 64.7573 50.4412 80.346 37.6058L75.1864 35.652C59.739 49.4013 51.3523 69.5931 52.9326 90.5894C53.0601 96.4762 54.1219 102.289 56.0871 107.921ZM82.7393 112.047L87.2975 110.09C79.8609 99.5824 75.7552 87.0272 75.7552 73.8985C75.7552 61.3339 79.4488 49.3826 86.2645 39.2808L81.5624 37.5686C74.6592 48.3277 70.8867 60.8686 70.8867 73.8985C70.8867 87.7067 75.0714 100.879 82.7393 112.047ZM106.29 97.1446L109.479 93.4043C96.065 85.8528 87.5844 71.852 87.3039 56.142C87.1765 50.4257 88.1824 44.7803 90.2565 39.5194L85.6024 38.1824C83.3929 43.8583 82.3446 49.9324 82.4464 56.1929C82.727 73.2201 91.8684 88.6257 106.29 97.1446ZM57.6115 73.9152C61.08 73.9152 63.8988 71.073 63.8988 67.5758C63.8988 64.1353 61.08 61.2874 57.6115 61.2874C54.112 61.2874 51.2621 64.1353 51.2621 67.5758C51.2621 71.073 54.112 73.9152 57.6115 73.9152ZM88.3853 77.3442C91.7683 77.3442 94.5418 74.5781 94.5418 71.1407C94.5418 67.7342 91.7683 64.9572 88.3853 64.9572C84.9454 64.9572 82.1519 67.7342 82.1519 71.1407C82.1519 74.5781 84.9454 77.3442 88.3853 77.3442ZM76.5878 100.204C80.0672 100.204 82.8861 97.4067 82.8861 93.8984C82.8861 90.3846 80.0617 87.582 76.5878 87.582C73.0602 87.582 70.2613 90.3846 70.2613 93.8984C70.2613 97.4067 73.0602 100.204 76.5878 100.204ZM74.9875 115.943C97.6231 115.943 116 97.5988 116 74.9844C116 52.3647 97.6231 34 74.9875 34C52.352 34 34 52.3647 34 74.9844C34 97.5988 52.352 115.943 74.9875 115.943ZM74.9875 110.283C55.4835 110.283 39.6649 94.4693 39.6649 74.9844C39.6649 55.4685 55.4835 39.6554 74.9875 39.6554C94.5168 39.6554 110.336 55.4685 110.336 74.9844C110.336 94.4693 94.5168 110.283 74.9875 110.283Z" fill="black" fill-opacity="0.85"/>
</svg>
