<svg width="200" height="200" viewBox="0 0 200 200" fill="none" xmlns="http://www.w3.org/2000/svg">
<g clip-path="url(#clip0_19_7)">
<path d="M63.3269 143.126H32.6493C30.6427 143.126 29 141.438 29 139.446C29 137.465 30.6294 135.803 32.6493 135.803H65.5763C64.4781 138.324 63.714 140.792 63.3269 143.126ZM92.574 143.126H70.7877C71.2086 140.87 72.11 138.384 73.4536 135.803H96.2545C95.1738 138.514 93.9439 140.978 92.574 143.126ZM171 139.446C171 141.445 169.371 143.126 167.351 143.126H100.955C102.152 140.897 103.202 138.442 104.107 135.803H167.351C169.371 135.803 171 137.458 171 139.446ZM35.2884 104.898L41.291 110.866L47.2954 104.891C48.4873 103.73 50.3167 103.7 51.5322 104.898C52.7242 106.125 52.7374 107.94 51.5322 109.138L45.5462 115.097L51.5322 121.049C52.7374 122.216 52.7374 124.075 51.5322 125.295C50.3035 126.487 48.4939 126.487 47.2954 125.295L41.2936 119.331L35.2884 125.309C34.0964 126.463 32.267 126.493 31.0449 125.295C29.853 124.068 29.8463 122.26 31.0449 121.062L37.0367 115.1L31.0449 109.144C29.8463 107.977 29.8463 106.119 31.0449 104.898C32.2736 103.706 34.0898 103.706 35.2884 104.898Z" fill="black" fill-opacity="0.85"/>
<path d="M76.3292 161C96.1832 161 108.908 136.708 108.908 104.919C108.908 77.715 96.5883 56.3895 77.6733 56.3895C65.3017 56.3895 55.961 66.5982 55.961 79.9965C55.961 99.2662 71.5974 115.355 88.9347 123.32C89.5853 123.667 90.1761 123.773 90.7835 123.773C92.696 123.773 94.1608 122.322 94.1608 120.622C94.1608 119.428 93.5996 118.321 92.2076 117.537C80.5397 111.716 63.2766 98.723 63.2766 79.97C63.2766 70.7194 69.4628 63.676 77.68 63.676C92.1599 63.676 101.593 82.1383 101.593 104.919C101.593 131.786 91.2554 153.72 77.1902 153.72C72.5754 153.72 70.3923 150.706 70.3923 146.44C70.3923 133.031 90.7494 107.351 118.351 107.351C120.165 107.351 121.165 108.08 121.165 109.34C121.165 113.203 118.776 116.687 118.776 120.921C118.776 124.556 121.398 126.691 124.854 126.691C134.407 126.691 146.09 110.204 149.913 110.204C153.476 110.204 149.258 124.911 160.835 124.911C162.835 124.911 165.291 124.358 167.292 123.085C168.423 122.325 169.222 121.188 169.222 119.734C169.222 117.913 167.993 116.35 166.085 116.35C164.594 116.35 163.18 117.629 161.598 117.629C156.637 117.629 161.471 102.018 151.925 102.018C143.725 102.018 131.466 117.771 127.95 117.771C127.462 117.771 127.127 117.527 127.127 116.882C127.127 114.946 129.12 111.424 129.12 107.993C129.12 103.061 125.271 100.071 119.024 100.071C86.8566 100.071 62.8539 129.476 62.8539 147.522C62.8539 155.508 67.4297 161 76.3292 161Z" fill="black" fill-opacity="0.85"/>
</g>
<defs>
<clipPath id="clip0_19_7">
<rect width="142" height="123" fill="white" transform="translate(29 38)"/>
</clipPath>
</defs>
</svg>
