<svg width="200" height="200" viewBox="0 0 200 200" fill="none" xmlns="http://www.w3.org/2000/svg">
<path d="M158.294 63.6487V102.673C157.716 102.598 157.124 102.582 156.526 102.582C155.866 102.582 155.209 102.602 154.567 102.683V85.3177C154.567 77.3791 150.183 73.287 142.565 73.287H57.4099C49.5127 73.287 45.3869 77.3791 45.3869 85.3177V137.093C45.3869 145.019 49.5127 149.157 57.4099 149.157H125.746C126.295 150.447 126.925 151.694 127.655 152.876H57.3583C47.0843 152.876 41.6724 147.45 41.6724 137.189V63.6487C41.6724 53.3546 47.0843 47.9618 57.3583 47.9618H142.596C152.882 47.9618 158.294 53.5005 158.294 63.6487Z" fill="black" fill-opacity="0.85"/>
<path d="M113.464 130.204C113.464 131.161 112.678 131.948 111.663 131.948H65.5749C64.5471 131.948 63.761 131.161 63.761 130.204C63.761 129.221 64.5471 128.454 65.5749 128.454H111.663C112.678 128.454 113.464 129.221 113.464 130.204ZM135.74 109.975C134.579 110.881 133.492 111.875 132.491 112.952H65.5749C64.5471 112.952 63.761 112.165 63.761 111.229C63.761 110.259 64.5471 109.459 65.5749 109.459H134.451C134.973 109.459 135.421 109.657 135.74 109.975ZM136.252 92.2402C136.252 93.1899 135.499 93.9899 134.451 93.9899H65.5749C64.5471 93.9899 63.761 93.1899 63.761 92.2402C63.761 91.2832 64.5471 90.4962 65.5749 90.4962H134.451C135.499 90.4962 136.252 91.2832 136.252 92.2402Z" fill="black" fill-opacity="0.85"/>
<g clip-path="url(#clip0_1_27)">
<path d="M185.147 136.207C185.147 151.91 172.307 164.745 156.599 164.745C140.913 164.745 128.074 151.91 128.074 136.207C128.074 120.527 140.913 107.691 156.599 107.691C172.307 107.691 185.147 120.527 185.147 136.207ZM149.082 128.147V132.419C146.929 132.428 145.869 133.471 145.869 135.882V148.152C145.869 150.572 146.938 151.615 149.128 151.615H164.069C166.26 151.615 167.345 150.572 167.345 148.152V135.882C167.345 133.471 166.269 132.428 164.115 132.419V128.147C164.115 123.308 161.095 120.112 156.599 120.112C152.102 120.112 149.082 123.308 149.082 128.147ZM162.453 128.097V132.413H150.751V128.097C150.751 124.288 153.104 121.771 156.599 121.771C160.093 121.771 162.453 124.288 162.453 128.097Z" fill="black" fill-opacity="0.85"/>
</g>
<defs>
<clipPath id="clip0_1_27">
<rect width="57.0732" height="57.0993" fill="white" transform="translate(128.074 107.646)"/>
</clipPath>
</defs>
</svg>
