<svg width="2000" height="2000" viewBox="0 0 2000 2000" fill="none" xmlns="http://www.w3.org/2000/svg">
<g clip-path="url(#clip0_2058_1397)">
<rect width="2000" height="2000" fill="black"/>
<path d="M988.175 175.376C1009.92 172.785 1031.91 177.381 1050.79 188.461C1069.67 199.542 1084.41 216.499 1092.75 236.742C1093.53 238.838 1093.53 241.143 1092.75 243.238C1089.32 251.554 1084.79 259.371 1079.28 266.478" stroke="white" stroke-width="11.6667" stroke-linecap="round" stroke-linejoin="round"/>
<path d="M1019.45 260.142C1014.17 265.242 1007.1 268.064 999.755 268.001C992.414 267.937 985.391 264.992 980.2 259.801C975.008 254.609 972.063 247.587 972 240.245C971.936 232.904 974.758 225.831 979.858 220.55" stroke="white" stroke-width="11.6667" stroke-linecap="round" stroke-linejoin="round"/>
<path d="M1051.14 291.324C1038.76 298.658 1024.94 303.243 1010.63 304.768C996.325 306.293 981.856 304.722 968.207 300.162C954.559 295.602 942.051 288.159 931.533 278.339C921.014 268.519 912.731 256.552 907.245 243.248C906.468 241.153 906.468 238.848 907.245 236.752C915.521 216.684 930.081 199.841 948.741 188.751" stroke="white" stroke-width="11.6667" stroke-linecap="round" stroke-linejoin="round"/>
<path d="M906.667 146.667L1093.33 333.334" stroke="white" stroke-width="11.6667" stroke-linecap="round" stroke-linejoin="round"/>
<path d="M425.038 591.136H452.594L479.129 641.25H480.265L506.799 591.136H534.356L491.913 666.364V707.5H467.481V666.364L425.038 591.136ZM643.694 649.318C643.694 662.008 641.289 672.803 636.478 681.705C631.705 690.606 625.19 697.405 616.933 702.102C608.713 706.761 599.47 709.091 589.205 709.091C578.864 709.091 569.584 706.742 561.364 702.045C553.145 697.348 546.648 690.549 541.876 681.648C537.103 672.746 534.717 661.97 534.717 649.318C534.717 636.629 537.103 625.833 541.876 616.932C546.648 608.03 553.145 601.25 561.364 596.591C569.584 591.894 578.864 589.545 589.205 589.545C599.47 589.545 608.713 591.894 616.933 596.591C625.19 601.25 631.705 608.03 636.478 616.932C641.289 625.833 643.694 636.629 643.694 649.318ZM618.751 649.318C618.751 641.098 617.52 634.167 615.058 628.523C612.633 622.879 609.205 618.598 604.773 615.682C600.342 612.765 595.152 611.307 589.205 611.307C583.258 611.307 578.069 612.765 573.637 615.682C569.205 618.598 565.758 622.879 563.296 628.523C560.872 634.167 559.66 641.098 559.66 649.318C559.66 657.538 560.872 664.47 563.296 670.114C565.758 675.758 569.205 680.038 573.637 682.955C578.069 685.871 583.258 687.33 589.205 687.33C595.152 687.33 600.342 685.871 604.773 682.955C609.205 680.038 612.633 675.758 615.058 670.114C617.52 664.47 618.751 657.538 618.751 649.318ZM729.793 591.136H754.396V666.705C754.396 675.189 752.369 682.614 748.316 688.977C744.301 695.341 738.676 700.303 731.441 703.864C724.206 707.386 715.778 709.148 706.157 709.148C696.498 709.148 688.051 707.386 680.816 703.864C673.581 700.303 667.956 695.341 663.941 688.977C659.926 682.614 657.918 675.189 657.918 666.705V591.136H682.521V664.602C682.521 669.034 683.487 672.973 685.418 676.42C687.388 679.867 690.153 682.576 693.714 684.545C697.274 686.515 701.422 687.5 706.157 687.5C710.93 687.5 715.077 686.515 718.6 684.545C722.161 682.576 724.907 679.867 726.839 676.42C728.808 672.973 729.793 669.034 729.793 664.602V591.136ZM770.637 707.5V591.136H816.546C825.334 591.136 832.834 592.708 839.046 595.852C845.296 598.958 850.05 603.371 853.308 609.091C856.603 614.773 858.251 621.458 858.251 629.148C858.251 636.875 856.584 643.523 853.251 649.091C849.917 654.621 845.088 658.864 838.762 661.818C832.474 664.773 824.861 666.25 815.921 666.25H785.183V646.477H811.944C816.641 646.477 820.542 645.833 823.648 644.545C826.755 643.258 829.065 641.326 830.58 638.75C832.133 636.174 832.91 632.973 832.91 629.148C832.91 625.284 832.133 622.027 830.58 619.375C829.065 616.723 826.736 614.716 823.592 613.352C820.486 611.951 816.565 611.25 811.83 611.25H795.239V707.5H770.637ZM833.478 654.545L862.398 707.5H835.239L806.944 654.545H833.478ZM904.668 707.5V591.136H950.577C959.403 591.136 966.922 592.822 973.134 596.193C979.346 599.527 984.081 604.167 987.339 610.114C990.634 616.023 992.282 622.841 992.282 630.568C992.282 638.295 990.615 645.114 987.282 651.023C983.949 656.932 979.119 661.534 972.793 664.83C966.505 668.125 958.892 669.773 949.952 669.773H920.691V650.057H945.975C950.71 650.057 954.612 649.242 957.68 647.614C960.786 645.947 963.096 643.655 964.612 640.739C966.165 637.784 966.941 634.394 966.941 630.568C966.941 626.705 966.165 623.333 964.612 620.455C963.096 617.538 960.786 615.284 957.68 613.693C954.574 612.064 950.634 611.25 945.862 611.25H929.271V707.5H904.668ZM1004.26 707.5V591.136H1050.17C1058.96 591.136 1066.46 592.708 1072.67 595.852C1078.92 598.958 1083.67 603.371 1086.93 609.091C1090.23 614.773 1091.88 621.458 1091.88 629.148C1091.88 636.875 1090.21 643.523 1086.88 649.091C1083.54 654.621 1078.71 658.864 1072.39 661.818C1066.1 664.773 1058.49 666.25 1049.55 666.25H1018.81V646.477H1045.57C1050.27 646.477 1054.17 645.833 1057.27 644.545C1060.38 643.258 1062.69 641.326 1064.21 638.75C1065.76 636.174 1066.53 632.973 1066.53 629.148C1066.53 625.284 1065.76 622.027 1064.21 619.375C1062.69 616.723 1060.36 614.716 1057.22 613.352C1054.11 611.951 1050.19 611.25 1045.46 611.25H1028.86V707.5H1004.26ZM1067.1 654.545L1096.02 707.5H1068.86L1040.57 654.545H1067.1ZM1129.86 591.136V707.5H1105.26V591.136H1129.86ZM1167.13 591.136L1195.25 679.545H1196.33L1224.51 591.136H1251.79L1211.67 707.5H1179.97L1139.8 591.136H1167.13ZM1266.38 707.5H1240.02L1280.19 591.136H1311.89L1352.01 707.5H1325.64L1296.5 617.727H1295.59L1266.38 707.5ZM1264.73 661.761H1327.01V680.966H1264.73V661.761ZM1459.21 631.875H1434.33C1433.87 628.655 1432.94 625.795 1431.54 623.295C1430.14 620.758 1428.34 618.598 1426.15 616.818C1423.95 615.038 1421.41 613.674 1418.53 612.727C1415.69 611.78 1412.6 611.307 1409.27 611.307C1403.25 611.307 1398 612.803 1393.53 615.795C1389.06 618.75 1385.6 623.068 1383.13 628.75C1380.67 634.394 1379.44 641.25 1379.44 649.318C1379.44 657.614 1380.67 664.583 1383.13 670.227C1385.63 675.871 1389.12 680.133 1393.59 683.011C1398.06 685.89 1403.23 687.33 1409.1 687.33C1412.4 687.33 1415.44 686.894 1418.25 686.023C1421.09 685.152 1423.61 683.883 1425.8 682.216C1428 680.511 1429.82 678.447 1431.26 676.023C1432.74 673.598 1433.76 670.833 1434.33 667.727L1459.21 667.841C1458.57 673.182 1456.96 678.333 1454.38 683.295C1451.85 688.22 1448.42 692.633 1444.1 696.534C1439.82 700.398 1434.71 703.466 1428.76 705.739C1422.85 707.973 1416.16 709.091 1408.7 709.091C1398.32 709.091 1389.04 706.742 1380.86 702.045C1372.72 697.348 1366.28 690.549 1361.54 681.648C1356.85 672.746 1354.5 661.97 1354.5 649.318C1354.5 636.629 1356.88 625.833 1361.66 616.932C1366.43 608.03 1372.91 601.25 1381.09 596.591C1389.27 591.894 1398.48 589.545 1408.7 589.545C1415.44 589.545 1421.69 590.492 1427.45 592.386C1433.25 594.28 1438.38 597.045 1442.85 600.682C1447.32 604.28 1450.96 608.693 1453.76 613.92C1456.6 619.148 1458.42 625.133 1459.21 631.875ZM1466.04 591.136H1493.59L1520.13 641.25H1521.26L1547.8 591.136H1575.36L1532.91 666.364V707.5H1508.48V666.364L1466.04 591.136ZM790.746 867.5V751.136H867.792V771.42H815.349V799.148H862.678V819.432H815.349V867.5H790.746ZM904.942 751.136V867.5H880.34V751.136H904.942ZM921.184 867.5V751.136H967.093C975.881 751.136 983.381 752.708 989.593 755.852C995.843 758.958 1000.6 763.371 1003.85 769.091C1007.15 774.773 1008.8 781.458 1008.8 789.148C1008.8 796.875 1007.13 803.523 1003.8 809.091C1000.46 814.621 995.635 818.864 989.309 821.818C983.021 824.773 975.407 826.25 966.468 826.25H935.729V806.477H962.491C967.188 806.477 971.089 805.833 974.195 804.545C977.301 803.258 979.612 801.326 981.127 798.75C982.68 796.174 983.457 792.973 983.457 789.148C983.457 785.284 982.68 782.027 981.127 779.375C979.612 776.723 977.282 774.716 974.138 773.352C971.032 771.951 967.112 771.25 962.377 771.25H945.786V867.5H921.184ZM984.025 814.545L1012.95 867.5H985.786L957.491 814.545H984.025ZM1085.31 784.602C1084.85 780.019 1082.9 776.458 1079.46 773.92C1076.01 771.383 1071.33 770.114 1065.42 770.114C1061.41 770.114 1058.02 770.682 1055.25 771.818C1052.49 772.917 1050.37 774.451 1048.89 776.42C1047.45 778.39 1046.73 780.625 1046.73 783.125C1046.65 785.208 1047.09 787.027 1048.04 788.58C1049.02 790.133 1050.37 791.477 1052.07 792.614C1053.77 793.712 1055.74 794.678 1057.98 795.511C1060.21 796.307 1062.6 796.989 1065.14 797.557L1075.59 800.057C1080.67 801.193 1085.33 802.708 1089.57 804.602C1093.81 806.496 1097.49 808.826 1100.59 811.591C1103.7 814.356 1106.1 817.614 1107.81 821.364C1109.55 825.114 1110.44 829.413 1110.48 834.261C1110.44 841.383 1108.62 847.557 1105.02 852.784C1101.46 857.973 1096.31 862.008 1089.57 864.886C1082.87 867.727 1074.78 869.148 1065.31 869.148C1055.92 869.148 1047.73 867.708 1040.76 864.83C1033.83 861.951 1028.42 857.689 1024.51 852.045C1020.65 846.364 1018.62 839.337 1018.43 830.966H1042.24C1042.51 834.867 1043.62 838.125 1045.59 840.739C1047.6 843.314 1050.27 845.265 1053.6 846.591C1056.98 847.879 1060.78 848.523 1065.02 848.523C1069.19 848.523 1072.81 847.917 1075.88 846.705C1078.98 845.492 1081.39 843.807 1083.09 841.648C1084.8 839.489 1085.65 837.008 1085.65 834.205C1085.65 831.591 1084.87 829.394 1083.32 827.614C1081.81 825.833 1079.57 824.318 1076.62 823.068C1073.7 821.818 1070.12 820.682 1065.88 819.659L1053.21 816.477C1043.4 814.091 1035.65 810.36 1029.97 805.284C1024.29 800.208 1021.46 793.371 1021.5 784.773C1021.46 777.727 1023.34 771.572 1027.13 766.307C1030.95 761.042 1036.2 756.932 1042.87 753.977C1049.53 751.023 1057.11 749.545 1065.59 749.545C1074.23 749.545 1081.77 751.023 1088.21 753.977C1094.68 756.932 1099.72 761.042 1103.32 766.307C1106.92 771.572 1108.77 777.67 1108.89 784.602H1085.31ZM1118.6 771.42V751.136H1214.16V771.42H1178.54V867.5H1154.22V771.42H1118.6Z" fill="white"/>
<path d="M608.566 1152V1117.09H611.754V1149.14H628.39V1152H608.566ZM645.463 1152.55C643.202 1152.55 641.202 1151.97 639.463 1150.82C637.736 1149.68 636.384 1148.09 635.406 1146.07C634.429 1144.03 633.94 1141.69 633.94 1139.03C633.94 1136.35 634.429 1133.99 635.406 1131.95C636.384 1129.91 637.736 1128.32 639.463 1127.18C641.202 1126.03 643.202 1125.46 645.463 1125.46C647.724 1125.46 649.719 1126.03 651.446 1127.18C653.173 1128.33 654.526 1129.92 655.503 1131.95C656.491 1133.99 656.986 1136.35 656.986 1139.03C656.986 1141.69 656.497 1144.03 655.52 1146.07C654.543 1148.09 653.185 1149.68 651.446 1150.82C649.719 1151.97 647.724 1152.55 645.463 1152.55ZM645.463 1149.77C647.281 1149.77 648.821 1149.28 650.082 1148.3C651.344 1147.32 652.298 1146.02 652.946 1144.4C653.605 1142.77 653.935 1140.98 653.935 1139.03C653.935 1137.07 653.605 1135.28 652.946 1133.64C652.298 1132.01 651.344 1130.69 650.082 1129.7C648.821 1128.72 647.281 1128.22 645.463 1128.22C643.656 1128.22 642.116 1128.72 640.844 1129.7C639.582 1130.69 638.622 1132.01 637.963 1133.64C637.315 1135.28 636.991 1137.07 636.991 1139.03C636.991 1140.98 637.315 1142.77 637.963 1144.4C638.622 1146.02 639.582 1147.32 640.844 1148.3C642.105 1149.28 643.645 1149.77 645.463 1149.77ZM674.225 1152.55C671.884 1152.55 669.844 1151.96 668.106 1150.79C666.379 1149.62 665.038 1148.02 664.083 1145.98C663.129 1143.95 662.651 1141.63 662.651 1139.03C662.651 1136.4 663.134 1134.07 664.1 1132.02C665.077 1129.98 666.43 1128.37 668.157 1127.22C669.884 1126.05 671.89 1125.46 674.174 1125.46C675.924 1125.46 677.509 1125.8 678.93 1126.48C680.35 1127.15 681.521 1128.1 682.441 1129.33C683.373 1130.55 683.958 1131.97 684.197 1133.59H681.129C680.81 1132.11 680.043 1130.85 678.827 1129.81C677.623 1128.75 676.089 1128.22 674.225 1128.22C672.555 1128.22 671.077 1128.68 669.793 1129.59C668.509 1130.48 667.504 1131.74 666.776 1133.35C666.06 1134.95 665.702 1136.81 665.702 1138.93C665.702 1141.05 666.055 1142.93 666.759 1144.57C667.464 1146.19 668.452 1147.47 669.725 1148.39C671.009 1149.31 672.509 1149.77 674.225 1149.77C675.384 1149.77 676.441 1149.55 677.396 1149.12C678.362 1148.68 679.168 1148.05 679.816 1147.24C680.475 1146.44 680.918 1145.48 681.146 1144.36H684.214C683.987 1145.94 683.424 1147.35 682.526 1148.59C681.64 1149.82 680.487 1150.78 679.066 1151.49C677.657 1152.19 676.043 1152.55 674.225 1152.55ZM698.381 1152.6C696.801 1152.6 695.358 1152.29 694.051 1151.68C692.744 1151.05 691.705 1150.15 690.932 1148.98C690.159 1147.8 689.773 1146.37 689.773 1144.69C689.773 1143.39 690.017 1142.3 690.506 1141.41C690.994 1140.53 691.688 1139.8 692.585 1139.23C693.483 1138.66 694.545 1138.22 695.773 1137.89C697 1137.56 698.352 1137.3 699.83 1137.12C701.295 1136.94 702.534 1136.78 703.545 1136.64C704.568 1136.51 705.347 1136.29 705.881 1135.99C706.415 1135.7 706.682 1135.22 706.682 1134.56V1133.95C706.682 1132.16 706.148 1130.76 705.08 1129.74C704.023 1128.7 702.5 1128.19 700.511 1128.19C698.625 1128.19 697.085 1128.6 695.892 1129.43C694.71 1130.26 693.881 1131.24 693.403 1132.36L690.523 1131.32C691.114 1129.89 691.932 1128.75 692.977 1127.9C694.023 1127.03 695.193 1126.41 696.489 1126.04C697.784 1125.65 699.097 1125.46 700.426 1125.46C701.426 1125.46 702.466 1125.59 703.545 1125.85C704.636 1126.11 705.648 1126.57 706.58 1127.22C707.511 1127.85 708.267 1128.74 708.847 1129.89C709.426 1131.03 709.716 1132.47 709.716 1134.22V1152H706.682V1147.86H706.494C706.131 1148.63 705.591 1149.38 704.875 1150.11C704.159 1150.84 703.261 1151.43 702.182 1151.9C701.102 1152.36 699.835 1152.6 698.381 1152.6ZM698.79 1149.82C700.403 1149.82 701.801 1149.46 702.983 1148.74C704.165 1148.03 705.074 1147.08 705.71 1145.9C706.358 1144.7 706.682 1143.39 706.682 1141.96V1138.18C706.455 1138.39 706.074 1138.59 705.54 1138.76C705.017 1138.93 704.409 1139.08 703.716 1139.22C703.034 1139.34 702.352 1139.45 701.67 1139.54C700.989 1139.63 700.375 1139.71 699.83 1139.78C698.352 1139.96 697.091 1140.24 696.045 1140.63C695 1141.02 694.199 1141.55 693.642 1142.23C693.085 1142.9 692.807 1143.77 692.807 1144.82C692.807 1146.41 693.375 1147.65 694.511 1148.52C695.648 1149.39 697.074 1149.82 698.79 1149.82ZM721.173 1117.09V1152H718.138V1117.09H721.173ZM743.683 1135.6V1138.47H729.161V1135.6H743.683ZM761.83 1152.55C759.569 1152.55 757.569 1151.97 755.83 1150.82C754.103 1149.68 752.751 1148.09 751.773 1146.07C750.796 1144.03 750.308 1141.69 750.308 1139.03C750.308 1136.35 750.796 1133.99 751.773 1131.95C752.751 1129.91 754.103 1128.32 755.83 1127.18C757.569 1126.03 759.569 1125.46 761.83 1125.46C764.092 1125.46 766.086 1126.03 767.813 1127.18C769.54 1128.33 770.893 1129.92 771.87 1131.95C772.859 1133.99 773.353 1136.35 773.353 1139.03C773.353 1141.69 772.864 1144.03 771.887 1146.07C770.91 1148.09 769.552 1149.68 767.813 1150.82C766.086 1151.97 764.092 1152.55 761.83 1152.55ZM761.83 1149.77C763.648 1149.77 765.188 1149.28 766.45 1148.3C767.711 1147.32 768.665 1146.02 769.313 1144.4C769.972 1142.77 770.302 1140.98 770.302 1139.03C770.302 1137.07 769.972 1135.28 769.313 1133.64C768.665 1132.01 767.711 1130.69 766.45 1129.7C765.188 1128.72 763.648 1128.22 761.83 1128.22C760.023 1128.22 758.484 1128.72 757.211 1129.7C755.95 1130.69 754.989 1132.01 754.33 1133.64C753.683 1135.28 753.359 1137.07 753.359 1139.03C753.359 1140.98 753.683 1142.77 754.33 1144.4C754.989 1146.02 755.95 1147.32 757.211 1148.3C758.472 1149.28 760.012 1149.77 761.83 1149.77ZM783.399 1135.64V1152H780.365V1125.82H783.314V1129.93H783.587C784.2 1128.59 785.155 1127.51 786.45 1126.7C787.757 1125.89 789.371 1125.48 791.291 1125.48C793.053 1125.48 794.598 1125.85 795.928 1126.59C797.268 1127.31 798.308 1128.39 799.047 1129.81C799.797 1131.23 800.172 1132.97 800.172 1135.04V1152H797.138V1135.23C797.138 1133.08 796.536 1131.38 795.331 1130.13C794.138 1128.88 792.536 1128.26 790.524 1128.26C789.149 1128.26 787.928 1128.55 786.859 1129.14C785.791 1129.73 784.945 1130.59 784.32 1131.7C783.706 1132.8 783.399 1134.11 783.399 1135.64ZM811.548 1117.09V1152H808.513V1117.09H811.548ZM822.041 1161.82C821.439 1161.82 820.876 1161.76 820.354 1161.65C819.831 1161.53 819.416 1161.41 819.109 1161.27L819.928 1158.6C820.962 1158.91 821.882 1159.03 822.689 1158.94C823.496 1158.86 824.212 1158.49 824.837 1157.85C825.462 1157.21 826.018 1156.23 826.507 1154.91L827.462 1152.26L817.831 1125.82H821.121L828.893 1147.99H829.132L836.905 1125.82H840.195L829.115 1156.14C828.649 1157.4 828.075 1158.45 827.393 1159.3C826.712 1160.15 825.922 1160.78 825.024 1161.19C824.138 1161.61 823.143 1161.82 822.041 1161.82ZM877.925 1131.56L875.146 1132.35C874.874 1131.56 874.487 1130.85 873.987 1130.22C873.487 1129.58 872.834 1129.07 872.027 1128.7C871.232 1128.32 870.243 1128.14 869.061 1128.14C867.288 1128.14 865.834 1128.56 864.697 1129.4C863.561 1130.24 862.993 1131.32 862.993 1132.65C862.993 1133.78 863.379 1134.69 864.152 1135.4C864.936 1136.09 866.141 1136.64 867.766 1137.05L871.72 1138.02C873.913 1138.56 875.555 1139.4 876.646 1140.56C877.749 1141.72 878.3 1143.18 878.3 1144.93C878.3 1146.4 877.891 1147.72 877.072 1148.86C876.254 1150.01 875.112 1150.91 873.646 1151.57C872.192 1152.22 870.504 1152.55 868.584 1152.55C866.027 1152.55 863.919 1151.97 862.26 1150.82C860.601 1149.66 859.538 1147.99 859.072 1145.81L861.987 1145.1C862.362 1146.65 863.095 1147.83 864.186 1148.62C865.288 1149.42 866.737 1149.82 868.533 1149.82C870.544 1149.82 872.152 1149.37 873.357 1148.47C874.561 1147.56 875.163 1146.43 875.163 1145.06C875.163 1144.01 874.811 1143.12 874.107 1142.4C873.402 1141.68 872.334 1141.14 870.902 1140.8L866.624 1139.78C864.351 1139.23 862.669 1138.37 861.578 1137.19C860.487 1136.01 859.942 1134.54 859.942 1132.79C859.942 1131.35 860.334 1130.08 861.118 1128.99C861.902 1127.89 862.982 1127.02 864.357 1126.4C865.732 1125.77 867.3 1125.46 869.061 1125.46C871.459 1125.46 873.374 1126.01 874.805 1127.1C876.249 1128.18 877.288 1129.66 877.925 1131.56ZM895.607 1125.82V1128.46H883.113V1125.82H895.607ZM887.016 1119.55H890.067V1145.16C890.067 1146.26 890.255 1147.11 890.63 1147.74C891.005 1148.35 891.494 1148.79 892.096 1149.05C892.698 1149.3 893.34 1149.43 894.022 1149.43C894.42 1149.43 894.761 1149.4 895.045 1149.36C895.329 1149.3 895.579 1149.24 895.795 1149.19L896.442 1151.93C896.147 1152.05 895.783 1152.15 895.352 1152.24C894.92 1152.34 894.386 1152.39 893.749 1152.39C892.636 1152.39 891.562 1152.15 890.528 1151.66C889.505 1151.17 888.664 1150.44 888.005 1149.48C887.346 1148.51 887.016 1147.31 887.016 1145.88V1119.55ZM912.744 1152.55C910.483 1152.55 908.483 1151.97 906.744 1150.82C905.017 1149.68 903.665 1148.09 902.688 1146.07C901.71 1144.03 901.222 1141.69 901.222 1139.03C901.222 1136.35 901.71 1133.99 902.688 1131.95C903.665 1129.91 905.017 1128.32 906.744 1127.18C908.483 1126.03 910.483 1125.46 912.744 1125.46C915.006 1125.46 917 1126.03 918.727 1127.18C920.455 1128.33 921.807 1129.92 922.784 1131.95C923.773 1133.99 924.267 1136.35 924.267 1139.03C924.267 1141.69 923.778 1144.03 922.801 1146.07C921.824 1148.09 920.466 1149.68 918.727 1150.82C917 1151.97 915.006 1152.55 912.744 1152.55ZM912.744 1149.77C914.563 1149.77 916.102 1149.28 917.364 1148.3C918.625 1147.32 919.58 1146.02 920.227 1144.4C920.886 1142.77 921.216 1140.98 921.216 1139.03C921.216 1137.07 920.886 1135.28 920.227 1133.64C919.58 1132.01 918.625 1130.69 917.364 1129.7C916.102 1128.72 914.563 1128.22 912.744 1128.22C910.938 1128.22 909.398 1128.72 908.125 1129.7C906.864 1130.69 905.903 1132.01 905.244 1133.64C904.597 1135.28 904.273 1137.07 904.273 1139.03C904.273 1140.98 904.597 1142.77 905.244 1144.4C905.903 1146.02 906.864 1147.32 908.125 1148.3C909.386 1149.28 910.926 1149.77 912.744 1149.77ZM931.279 1152V1125.82H934.228V1129.84H934.45C934.972 1128.52 935.881 1127.46 937.177 1126.65C938.484 1125.84 939.961 1125.43 941.609 1125.43C941.859 1125.43 942.137 1125.43 942.444 1125.44C942.751 1125.45 943.006 1125.47 943.211 1125.48V1128.56C943.075 1128.54 942.836 1128.51 942.495 1128.46C942.154 1128.41 941.785 1128.39 941.387 1128.39C940.023 1128.39 938.808 1128.68 937.739 1129.26C936.683 1129.83 935.847 1130.62 935.234 1131.63C934.62 1132.64 934.313 1133.8 934.313 1135.09V1152H931.279ZM956.053 1152.6C954.473 1152.6 953.03 1152.29 951.723 1151.68C950.416 1151.05 949.376 1150.15 948.604 1148.98C947.831 1147.8 947.445 1146.37 947.445 1144.69C947.445 1143.39 947.689 1142.3 948.178 1141.41C948.666 1140.53 949.359 1139.8 950.257 1139.23C951.155 1138.66 952.217 1138.22 953.445 1137.89C954.672 1137.56 956.024 1137.3 957.501 1137.12C958.967 1136.94 960.206 1136.78 961.217 1136.64C962.24 1136.51 963.018 1136.29 963.553 1135.99C964.087 1135.7 964.354 1135.22 964.354 1134.56V1133.95C964.354 1132.16 963.82 1130.76 962.751 1129.74C961.695 1128.7 960.172 1128.19 958.183 1128.19C956.297 1128.19 954.757 1128.6 953.564 1129.43C952.382 1130.26 951.553 1131.24 951.075 1132.36L948.195 1131.32C948.786 1129.89 949.604 1128.75 950.649 1127.9C951.695 1127.03 952.865 1126.41 954.161 1126.04C955.456 1125.65 956.768 1125.46 958.098 1125.46C959.098 1125.46 960.138 1125.59 961.217 1125.85C962.308 1126.11 963.32 1126.57 964.251 1127.22C965.183 1127.85 965.939 1128.74 966.518 1129.89C967.098 1131.03 967.388 1132.47 967.388 1134.22V1152H964.354V1147.86H964.166C963.803 1148.63 963.263 1149.38 962.547 1150.11C961.831 1150.84 960.933 1151.43 959.854 1151.9C958.774 1152.36 957.507 1152.6 956.053 1152.6ZM956.462 1149.82C958.075 1149.82 959.473 1149.46 960.655 1148.74C961.837 1148.03 962.746 1147.08 963.382 1145.9C964.03 1144.7 964.354 1143.39 964.354 1141.96V1138.18C964.126 1138.39 963.746 1138.59 963.212 1138.76C962.689 1138.93 962.081 1139.08 961.388 1139.22C960.706 1139.34 960.024 1139.45 959.342 1139.54C958.661 1139.63 958.047 1139.71 957.501 1139.78C956.024 1139.96 954.763 1140.24 953.717 1140.63C952.672 1141.02 951.871 1141.55 951.314 1142.23C950.757 1142.9 950.479 1143.77 950.479 1144.82C950.479 1146.41 951.047 1147.65 952.183 1148.52C953.32 1149.39 954.746 1149.82 956.462 1149.82ZM985.799 1162.36C984.015 1162.36 982.452 1162.13 981.112 1161.66C979.771 1161.21 978.64 1160.59 977.719 1159.79C976.799 1158.99 976.083 1158.1 975.572 1157.11L978.06 1155.48C978.435 1156.14 978.935 1156.78 979.56 1157.42C980.197 1158.06 981.021 1158.59 982.032 1159.01C983.055 1159.43 984.31 1159.64 985.799 1159.64C988.117 1159.64 989.987 1159.06 991.407 1157.9C992.839 1156.74 993.555 1154.94 993.555 1152.49V1146.6H993.282C992.93 1147.39 992.424 1148.19 991.765 1148.98C991.106 1149.77 990.242 1150.42 989.174 1150.94C988.117 1151.47 986.805 1151.73 985.237 1151.73C983.146 1151.73 981.288 1151.21 979.663 1150.18C978.049 1149.14 976.776 1147.66 975.844 1145.74C974.924 1143.81 974.464 1141.51 974.464 1138.84C974.464 1136.19 974.913 1133.86 975.81 1131.85C976.719 1129.84 977.987 1128.27 979.612 1127.15C981.237 1126.02 983.129 1125.46 985.288 1125.46C986.89 1125.46 988.219 1125.74 989.276 1126.31C990.333 1126.87 991.18 1127.56 991.816 1128.39C992.464 1129.22 992.969 1130.03 993.333 1130.81H993.64V1125.82H996.606V1152.68C996.606 1154.9 996.134 1156.72 995.191 1158.15C994.248 1159.59 992.964 1160.64 991.339 1161.32C989.714 1162.02 987.867 1162.36 985.799 1162.36ZM985.594 1148.95C987.276 1148.95 988.714 1148.55 989.907 1147.74C991.1 1146.92 992.015 1145.75 992.651 1144.23C993.288 1142.7 993.606 1140.89 993.606 1138.79C993.606 1136.74 993.293 1134.93 992.668 1133.35C992.043 1131.76 991.134 1130.51 989.941 1129.6C988.759 1128.68 987.31 1128.22 985.594 1128.22C983.844 1128.22 982.367 1128.69 981.163 1129.64C979.958 1130.58 979.049 1131.85 978.435 1133.45C977.822 1135.05 977.515 1136.82 977.515 1138.79C977.515 1140.79 977.827 1142.56 978.452 1144.09C979.077 1145.61 979.992 1146.81 981.197 1147.67C982.401 1148.52 983.867 1148.95 985.594 1148.95ZM1015.58 1152.55C1013.13 1152.55 1011.02 1151.98 1009.23 1150.84C1007.45 1149.69 1006.07 1148.11 1005.09 1146.09C1004.13 1144.05 1003.64 1141.71 1003.64 1139.06C1003.64 1136.43 1004.13 1134.09 1005.09 1132.04C1006.07 1129.98 1007.42 1128.37 1009.13 1127.22C1010.86 1126.05 1012.85 1125.46 1015.12 1125.46C1016.54 1125.46 1017.9 1125.72 1019.22 1126.24C1020.54 1126.76 1021.72 1127.55 1022.77 1128.61C1023.83 1129.67 1024.66 1131.01 1025.27 1132.62C1025.89 1134.22 1026.19 1136.12 1026.19 1138.31V1139.81H1005.74V1137.14H1023.09C1023.09 1135.45 1022.75 1133.94 1022.07 1132.6C1021.4 1131.25 1020.46 1130.18 1019.26 1129.4C1018.06 1128.61 1016.68 1128.22 1015.12 1128.22C1013.46 1128.22 1012 1128.66 1010.73 1129.55C1009.47 1130.44 1008.48 1131.61 1007.77 1133.06C1007.06 1134.52 1006.71 1136.11 1006.69 1137.84V1139.44C1006.69 1141.52 1007.05 1143.34 1007.77 1144.89C1008.5 1146.44 1009.52 1147.64 1010.85 1148.49C1012.18 1149.34 1013.76 1149.77 1015.58 1149.77C1016.81 1149.77 1017.9 1149.57 1018.83 1149.19C1019.77 1148.8 1020.56 1148.28 1021.2 1147.64C1021.85 1146.98 1022.34 1146.26 1022.67 1145.47L1025.55 1146.41C1025.15 1147.51 1024.5 1148.53 1023.59 1149.46C1022.69 1150.39 1021.56 1151.14 1020.21 1151.71C1018.87 1152.27 1017.33 1152.55 1015.58 1152.55ZM1035.65 1152.26C1034.98 1152.26 1034.4 1152.02 1033.91 1151.54C1033.44 1151.05 1033.2 1150.47 1033.2 1149.8C1033.2 1149.12 1033.44 1148.54 1033.91 1148.06C1034.4 1147.59 1034.98 1147.35 1035.65 1147.35C1036.33 1147.35 1036.91 1147.59 1037.39 1148.06C1037.87 1148.54 1038.11 1149.12 1038.11 1149.8C1038.11 1150.24 1037.99 1150.65 1037.77 1151.03C1037.55 1151.4 1037.25 1151.7 1036.88 1151.93C1036.52 1152.15 1036.11 1152.26 1035.65 1152.26ZM1088.14 1117.09V1152H1085.04L1064.42 1122.77H1064.14V1152H1060.96V1117.09H1064.04L1084.74 1146.36H1085.01V1117.09H1088.14ZM1107.32 1152.55C1105.06 1152.55 1103.06 1151.97 1101.32 1150.82C1099.6 1149.68 1098.24 1148.09 1097.27 1146.07C1096.29 1144.03 1095.8 1141.69 1095.8 1139.03C1095.8 1136.35 1096.29 1133.99 1097.27 1131.95C1098.24 1129.91 1099.6 1128.32 1101.32 1127.18C1103.06 1126.03 1105.06 1125.46 1107.32 1125.46C1109.58 1125.46 1111.58 1126.03 1113.31 1127.18C1115.03 1128.33 1116.38 1129.92 1117.36 1131.95C1118.35 1133.99 1118.85 1136.35 1118.85 1139.03C1118.85 1141.69 1118.36 1144.03 1117.38 1146.07C1116.4 1148.09 1115.04 1149.68 1113.31 1150.82C1111.58 1151.97 1109.58 1152.55 1107.32 1152.55ZM1107.32 1149.77C1109.14 1149.77 1110.68 1149.28 1111.94 1148.3C1113.2 1147.32 1114.16 1146.02 1114.81 1144.4C1115.46 1142.77 1115.79 1140.98 1115.79 1139.03C1115.79 1137.07 1115.46 1135.28 1114.81 1133.64C1114.16 1132.01 1113.2 1130.69 1111.94 1129.7C1110.68 1128.72 1109.14 1128.22 1107.32 1128.22C1105.52 1128.22 1103.98 1128.72 1102.7 1129.7C1101.44 1130.69 1100.48 1132.01 1099.82 1133.64C1099.17 1135.28 1098.85 1137.07 1098.85 1139.03C1098.85 1140.98 1099.17 1142.77 1099.82 1144.4C1100.48 1146.02 1101.44 1147.32 1102.7 1148.3C1103.96 1149.28 1105.5 1149.77 1107.32 1149.77ZM1157.3 1131.56L1154.52 1132.35C1154.25 1131.56 1153.86 1130.85 1153.36 1130.22C1152.86 1129.58 1152.21 1129.07 1151.4 1128.7C1150.61 1128.32 1149.62 1128.14 1148.44 1128.14C1146.66 1128.14 1145.21 1128.56 1144.07 1129.4C1142.94 1130.24 1142.37 1131.32 1142.37 1132.65C1142.37 1133.78 1142.75 1134.69 1143.53 1135.4C1144.31 1136.09 1145.52 1136.64 1147.14 1137.05L1151.1 1138.02C1153.29 1138.56 1154.93 1139.4 1156.02 1140.56C1157.12 1141.72 1157.67 1143.18 1157.67 1144.93C1157.67 1146.4 1157.27 1147.72 1156.45 1148.86C1155.63 1150.01 1154.49 1150.91 1153.02 1151.57C1151.57 1152.22 1149.88 1152.55 1147.96 1152.55C1145.4 1152.55 1143.29 1151.97 1141.63 1150.82C1139.98 1149.66 1138.91 1147.99 1138.45 1145.81L1141.36 1145.1C1141.74 1146.65 1142.47 1147.83 1143.56 1148.62C1144.66 1149.42 1146.11 1149.82 1147.91 1149.82C1149.92 1149.82 1151.53 1149.37 1152.73 1148.47C1153.94 1147.56 1154.54 1146.43 1154.54 1145.06C1154.54 1144.01 1154.19 1143.12 1153.48 1142.4C1152.78 1141.68 1151.71 1141.14 1150.28 1140.8L1146 1139.78C1143.73 1139.23 1142.04 1138.37 1140.95 1137.19C1139.86 1136.01 1139.32 1134.54 1139.32 1132.79C1139.32 1131.35 1139.71 1130.08 1140.49 1128.99C1141.28 1127.89 1142.36 1127.02 1143.73 1126.4C1145.11 1125.77 1146.67 1125.46 1148.44 1125.46C1150.83 1125.46 1152.75 1126.01 1154.18 1127.1C1155.62 1128.18 1156.66 1129.66 1157.3 1131.56ZM1175.25 1152.55C1172.81 1152.55 1170.7 1151.98 1168.91 1150.84C1167.13 1149.69 1165.75 1148.11 1164.77 1146.09C1163.81 1144.05 1163.32 1141.71 1163.32 1139.06C1163.32 1136.43 1163.81 1134.09 1164.77 1132.04C1165.75 1129.98 1167.1 1128.37 1168.81 1127.22C1170.54 1126.05 1172.53 1125.46 1174.79 1125.46C1176.22 1125.46 1177.58 1125.72 1178.9 1126.24C1180.22 1126.76 1181.4 1127.55 1182.45 1128.61C1183.5 1129.67 1184.34 1131.01 1184.95 1132.62C1185.57 1134.22 1185.87 1136.12 1185.87 1138.31V1139.81H1165.42V1137.14H1182.77C1182.77 1135.45 1182.43 1133.94 1181.75 1132.6C1181.08 1131.25 1180.14 1130.18 1178.94 1129.4C1177.74 1128.61 1176.36 1128.22 1174.79 1128.22C1173.14 1128.22 1171.68 1128.66 1170.41 1129.55C1169.15 1130.44 1168.16 1131.61 1167.45 1133.06C1166.74 1134.52 1166.39 1136.11 1166.37 1137.84V1139.44C1166.37 1141.52 1166.73 1143.34 1167.45 1144.89C1168.18 1146.44 1169.2 1147.64 1170.53 1148.49C1171.86 1149.34 1173.44 1149.77 1175.25 1149.77C1176.49 1149.77 1177.58 1149.57 1178.51 1149.19C1179.45 1148.8 1180.24 1148.28 1180.88 1147.64C1181.53 1146.98 1182.02 1146.26 1182.35 1145.47L1185.23 1146.41C1184.83 1147.51 1184.18 1148.53 1183.27 1149.46C1182.37 1150.39 1181.24 1151.14 1179.89 1151.71C1178.55 1152.27 1177 1152.55 1175.25 1152.55ZM1192.91 1152V1125.82H1195.86V1129.84H1196.08C1196.61 1128.52 1197.51 1127.46 1198.81 1126.65C1200.12 1125.84 1201.59 1125.43 1203.24 1125.43C1203.49 1125.43 1203.77 1125.43 1204.08 1125.44C1204.38 1125.45 1204.64 1125.47 1204.84 1125.48V1128.56C1204.71 1128.54 1204.47 1128.51 1204.13 1128.46C1203.79 1128.41 1203.42 1128.39 1203.02 1128.39C1201.66 1128.39 1200.44 1128.68 1199.37 1129.26C1198.32 1129.83 1197.48 1130.62 1196.87 1131.63C1196.25 1132.64 1195.95 1133.8 1195.95 1135.09V1152H1192.91ZM1231.44 1125.82L1221.87 1152H1218.64L1209.07 1125.82H1212.36L1220.14 1147.99H1220.37L1228.15 1125.82H1231.44ZM1247.37 1152.55C1244.93 1152.55 1242.82 1151.98 1241.03 1150.84C1239.25 1149.69 1237.87 1148.11 1236.89 1146.09C1235.92 1144.05 1235.44 1141.71 1235.44 1139.06C1235.44 1136.43 1235.92 1134.09 1236.89 1132.04C1237.87 1129.98 1239.21 1128.37 1240.93 1127.22C1242.66 1126.05 1244.65 1125.46 1246.91 1125.46C1248.33 1125.46 1249.7 1125.72 1251.02 1126.24C1252.34 1126.76 1253.52 1127.55 1254.57 1128.61C1255.62 1129.67 1256.46 1131.01 1257.07 1132.62C1257.68 1134.22 1257.99 1136.12 1257.99 1138.31V1139.81H1237.54V1137.14H1254.89C1254.89 1135.45 1254.55 1133.94 1253.87 1132.6C1253.2 1131.25 1252.26 1130.18 1251.05 1129.4C1249.86 1128.61 1248.48 1128.22 1246.91 1128.22C1245.25 1128.22 1243.79 1128.66 1242.53 1129.55C1241.27 1130.44 1240.28 1131.61 1239.57 1133.06C1238.86 1134.52 1238.5 1136.11 1238.49 1137.84V1139.44C1238.49 1141.52 1238.85 1143.34 1239.57 1144.89C1240.29 1146.44 1241.32 1147.64 1242.65 1148.49C1243.98 1149.34 1245.55 1149.77 1247.37 1149.77C1248.61 1149.77 1249.7 1149.57 1250.63 1149.19C1251.57 1148.8 1252.36 1148.28 1253 1147.64C1253.64 1146.98 1254.13 1146.26 1254.46 1145.47L1257.34 1146.41C1256.95 1147.51 1256.29 1148.53 1255.38 1149.46C1254.49 1150.39 1253.36 1151.14 1252.01 1151.71C1250.67 1152.27 1249.12 1152.55 1247.37 1152.55ZM1265.03 1152V1125.82H1267.98V1129.84H1268.2C1268.72 1128.52 1269.63 1127.46 1270.93 1126.65C1272.23 1125.84 1273.71 1125.43 1275.36 1125.43C1275.61 1125.43 1275.89 1125.43 1276.19 1125.44C1276.5 1125.45 1276.76 1125.47 1276.96 1125.48V1128.56C1276.82 1128.54 1276.59 1128.51 1276.25 1128.46C1275.9 1128.41 1275.53 1128.39 1275.14 1128.39C1273.77 1128.39 1272.56 1128.68 1271.49 1129.26C1270.43 1129.83 1269.6 1130.62 1268.98 1131.63C1268.37 1132.64 1268.06 1133.8 1268.06 1135.09V1152H1265.03ZM1300.08 1131.56L1297.3 1132.35C1297.03 1131.56 1296.64 1130.85 1296.14 1130.22C1295.64 1129.58 1294.99 1129.07 1294.18 1128.7C1293.39 1128.32 1292.4 1128.14 1291.22 1128.14C1289.44 1128.14 1287.99 1128.56 1286.85 1129.4C1285.72 1130.24 1285.15 1131.32 1285.15 1132.65C1285.15 1133.78 1285.54 1134.69 1286.31 1135.4C1287.09 1136.09 1288.3 1136.64 1289.92 1137.05L1293.88 1138.02C1296.07 1138.56 1297.71 1139.4 1298.8 1140.56C1299.9 1141.72 1300.46 1143.18 1300.46 1144.93C1300.46 1146.4 1300.05 1147.72 1299.23 1148.86C1298.41 1150.01 1297.27 1150.91 1295.8 1151.57C1294.35 1152.22 1292.66 1152.55 1290.74 1152.55C1288.18 1152.55 1286.08 1151.97 1284.42 1150.82C1282.76 1149.66 1281.69 1147.99 1281.23 1145.81L1284.14 1145.1C1284.52 1146.65 1285.25 1147.83 1286.34 1148.62C1287.44 1149.42 1288.89 1149.82 1290.69 1149.82C1292.7 1149.82 1294.31 1149.37 1295.51 1148.47C1296.72 1147.56 1297.32 1146.43 1297.32 1145.06C1297.32 1144.01 1296.97 1143.12 1296.26 1142.4C1295.56 1141.68 1294.49 1141.14 1293.06 1140.8L1288.78 1139.78C1286.51 1139.23 1284.83 1138.37 1283.73 1137.19C1282.64 1136.01 1282.1 1134.54 1282.1 1132.79C1282.1 1131.35 1282.49 1130.08 1283.27 1128.99C1284.06 1127.89 1285.14 1127.02 1286.51 1126.4C1287.89 1125.77 1289.46 1125.46 1291.22 1125.46C1293.62 1125.46 1295.53 1126.01 1296.96 1127.1C1298.4 1128.18 1299.44 1129.66 1300.08 1131.56ZM1309.87 1152.26C1309.2 1152.26 1308.62 1152.02 1308.13 1151.54C1307.66 1151.05 1307.42 1150.47 1307.42 1149.8C1307.42 1149.12 1307.66 1148.54 1308.13 1148.06C1308.62 1147.59 1309.2 1147.35 1309.87 1147.35C1310.55 1147.35 1311.13 1147.59 1311.61 1148.06C1312.09 1148.54 1312.33 1149.12 1312.33 1149.8C1312.33 1150.24 1312.21 1150.65 1311.99 1151.03C1311.77 1151.4 1311.47 1151.7 1311.1 1151.93C1310.74 1152.15 1310.33 1152.26 1309.87 1152.26ZM1362.36 1117.09V1152H1359.26L1338.64 1122.77H1338.36V1152H1335.18V1117.09H1338.26L1358.95 1146.36H1359.23V1117.09H1362.36ZM1381.54 1152.55C1379.28 1152.55 1377.28 1151.97 1375.54 1150.82C1373.81 1149.68 1372.46 1148.09 1371.48 1146.07C1370.51 1144.03 1370.02 1141.69 1370.02 1139.03C1370.02 1136.35 1370.51 1133.99 1371.48 1131.95C1372.46 1129.91 1373.81 1128.32 1375.54 1127.18C1377.28 1126.03 1379.28 1125.46 1381.54 1125.46C1383.8 1125.46 1385.8 1126.03 1387.52 1127.18C1389.25 1128.33 1390.6 1129.92 1391.58 1131.95C1392.57 1133.99 1393.06 1136.35 1393.06 1139.03C1393.06 1141.69 1392.58 1144.03 1391.6 1146.07C1390.62 1148.09 1389.26 1149.68 1387.52 1150.82C1385.8 1151.97 1383.8 1152.55 1381.54 1152.55ZM1381.54 1149.77C1383.36 1149.77 1384.9 1149.28 1386.16 1148.3C1387.42 1147.32 1388.38 1146.02 1389.02 1144.4C1389.68 1142.77 1390.01 1140.98 1390.01 1139.03C1390.01 1137.07 1389.68 1135.28 1389.02 1133.64C1388.38 1132.01 1387.42 1130.69 1386.16 1129.7C1384.9 1128.72 1383.36 1128.22 1381.54 1128.22C1379.73 1128.22 1378.19 1128.72 1376.92 1129.7C1375.66 1130.69 1374.7 1132.01 1374.04 1133.64C1373.39 1135.28 1373.07 1137.07 1373.07 1139.03C1373.07 1140.98 1373.39 1142.77 1374.04 1144.4C1374.7 1146.02 1375.66 1147.32 1376.92 1148.3C1378.18 1149.28 1379.72 1149.77 1381.54 1149.77ZM755.791 1218.6C754.211 1218.6 752.768 1218.29 751.461 1217.68C750.154 1217.05 749.115 1216.15 748.342 1214.98C747.569 1213.8 747.183 1212.37 747.183 1210.69C747.183 1209.39 747.427 1208.3 747.916 1207.41C748.404 1206.53 749.098 1205.8 749.995 1205.23C750.893 1204.66 751.956 1204.22 753.183 1203.89C754.41 1203.56 755.762 1203.3 757.24 1203.12C758.706 1202.94 759.944 1202.78 760.956 1202.64C761.978 1202.51 762.757 1202.29 763.291 1201.99C763.825 1201.7 764.092 1201.22 764.092 1200.56V1199.95C764.092 1198.16 763.558 1196.76 762.49 1195.74C761.433 1194.7 759.91 1194.19 757.922 1194.19C756.035 1194.19 754.495 1194.6 753.302 1195.43C752.12 1196.26 751.291 1197.24 750.814 1198.36L747.933 1197.32C748.524 1195.89 749.342 1194.75 750.387 1193.9C751.433 1193.03 752.603 1192.41 753.899 1192.04C755.194 1191.65 756.507 1191.46 757.836 1191.46C758.836 1191.46 759.876 1191.59 760.956 1191.85C762.047 1192.11 763.058 1192.57 763.99 1193.22C764.922 1193.85 765.677 1194.74 766.257 1195.89C766.836 1197.03 767.126 1198.47 767.126 1200.22V1218H764.092V1213.86H763.904C763.541 1214.63 763.001 1215.38 762.285 1216.11C761.569 1216.84 760.672 1217.43 759.592 1217.9C758.512 1218.36 757.245 1218.6 755.791 1218.6ZM756.2 1215.82C757.814 1215.82 759.211 1215.46 760.393 1214.74C761.575 1214.03 762.484 1213.08 763.12 1211.9C763.768 1210.7 764.092 1209.39 764.092 1207.96V1204.18C763.865 1204.39 763.484 1204.59 762.95 1204.76C762.427 1204.93 761.819 1205.08 761.126 1205.22C760.444 1205.34 759.762 1205.45 759.081 1205.54C758.399 1205.63 757.785 1205.71 757.24 1205.78C755.762 1205.96 754.501 1206.24 753.456 1206.63C752.41 1207.02 751.609 1207.55 751.052 1208.23C750.495 1208.9 750.217 1209.77 750.217 1210.82C750.217 1212.41 750.785 1213.65 751.922 1214.52C753.058 1215.39 754.484 1215.82 756.2 1215.82ZM785.776 1218.55C783.435 1218.55 781.395 1217.96 779.657 1216.79C777.929 1215.62 776.588 1214.02 775.634 1211.98C774.679 1209.95 774.202 1207.63 774.202 1205.03C774.202 1202.4 774.685 1200.07 775.651 1198.02C776.628 1195.98 777.98 1194.37 779.708 1193.22C781.435 1192.05 783.441 1191.46 785.725 1191.46C787.475 1191.46 789.06 1191.8 790.48 1192.48C791.901 1193.15 793.071 1194.1 793.992 1195.33C794.924 1196.55 795.509 1197.97 795.748 1199.59H792.679C792.361 1198.11 791.594 1196.85 790.378 1195.81C789.174 1194.75 787.64 1194.22 785.776 1194.22C784.105 1194.22 782.628 1194.68 781.344 1195.59C780.06 1196.48 779.054 1197.74 778.327 1199.35C777.611 1200.95 777.253 1202.81 777.253 1204.93C777.253 1207.05 777.605 1208.93 778.31 1210.57C779.015 1212.19 780.003 1213.47 781.276 1214.39C782.56 1215.31 784.06 1215.77 785.776 1215.77C786.935 1215.77 787.992 1215.55 788.946 1215.12C789.912 1214.68 790.719 1214.05 791.367 1213.24C792.026 1212.44 792.469 1211.48 792.696 1210.36H795.765C795.537 1211.94 794.975 1213.35 794.077 1214.59C793.191 1215.82 792.037 1216.78 790.617 1217.49C789.208 1218.19 787.594 1218.55 785.776 1218.55ZM812.846 1218.55C810.505 1218.55 808.466 1217.96 806.727 1216.79C805 1215.62 803.659 1214.02 802.704 1211.98C801.75 1209.95 801.272 1207.63 801.272 1205.03C801.272 1202.4 801.755 1200.07 802.721 1198.02C803.699 1195.98 805.051 1194.37 806.778 1193.22C808.505 1192.05 810.511 1191.46 812.795 1191.46C814.545 1191.46 816.13 1191.8 817.551 1192.48C818.971 1193.15 820.142 1194.1 821.062 1195.33C821.994 1196.55 822.579 1197.97 822.818 1199.59H819.75C819.431 1198.11 818.664 1196.85 817.449 1195.81C816.244 1194.75 814.71 1194.22 812.846 1194.22C811.176 1194.22 809.699 1194.68 808.414 1195.59C807.13 1196.48 806.125 1197.74 805.397 1199.35C804.681 1200.95 804.324 1202.81 804.324 1204.93C804.324 1207.05 804.676 1208.93 805.38 1210.57C806.085 1212.19 807.074 1213.47 808.346 1214.39C809.63 1215.31 811.13 1215.77 812.846 1215.77C814.005 1215.77 815.062 1215.55 816.017 1215.12C816.983 1214.68 817.789 1214.05 818.437 1213.24C819.096 1212.44 819.539 1211.48 819.767 1210.36H822.835C822.608 1211.94 822.045 1213.35 821.147 1214.59C820.261 1215.82 819.108 1216.78 817.687 1217.49C816.278 1218.19 814.664 1218.55 812.846 1218.55ZM839.865 1218.55C837.604 1218.55 835.604 1217.97 833.865 1216.82C832.138 1215.68 830.786 1214.09 829.809 1212.07C828.831 1210.03 828.343 1207.69 828.343 1205.03C828.343 1202.35 828.831 1199.99 829.809 1197.95C830.786 1195.91 832.138 1194.32 833.865 1193.18C835.604 1192.03 837.604 1191.46 839.865 1191.46C842.127 1191.46 844.121 1192.03 845.848 1193.18C847.576 1194.33 848.928 1195.92 849.905 1197.95C850.894 1199.99 851.388 1202.35 851.388 1205.03C851.388 1207.69 850.9 1210.03 849.922 1212.07C848.945 1214.09 847.587 1215.68 845.848 1216.82C844.121 1217.97 842.127 1218.55 839.865 1218.55ZM839.865 1215.77C841.684 1215.77 843.223 1215.28 844.485 1214.3C845.746 1213.32 846.701 1212.02 847.348 1210.4C848.007 1208.77 848.337 1206.98 848.337 1205.03C848.337 1203.07 848.007 1201.28 847.348 1199.64C846.701 1198.01 845.746 1196.69 844.485 1195.7C843.223 1194.72 841.684 1194.22 839.865 1194.22C838.059 1194.22 836.519 1194.72 835.246 1195.7C833.985 1196.69 833.025 1198.01 832.365 1199.64C831.718 1201.28 831.394 1203.07 831.394 1205.03C831.394 1206.98 831.718 1208.77 832.365 1210.4C833.025 1212.02 833.985 1213.32 835.246 1214.3C836.507 1215.28 838.047 1215.77 839.865 1215.77ZM875.037 1207.99V1191.82H878.071V1218H875.037V1213.65H874.798C874.184 1214.99 873.213 1216.11 871.883 1217.01C870.554 1217.9 868.929 1218.34 867.008 1218.34C865.338 1218.34 863.855 1217.98 862.559 1217.25C861.264 1216.51 860.247 1215.43 859.508 1214.01C858.77 1212.59 858.4 1210.85 858.4 1208.78V1191.82H861.434V1208.59C861.434 1210.64 862.037 1212.28 863.241 1213.53C864.446 1214.77 865.991 1215.39 867.877 1215.39C869.059 1215.39 870.196 1215.11 871.287 1214.54C872.377 1213.97 873.275 1213.14 873.98 1212.05C874.684 1210.95 875.037 1209.6 875.037 1207.99ZM889.489 1201.64V1218H886.455V1191.82H889.404V1195.93H889.676C890.29 1194.59 891.245 1193.51 892.54 1192.7C893.847 1191.89 895.461 1191.48 897.381 1191.48C899.142 1191.48 900.688 1191.85 902.017 1192.59C903.358 1193.31 904.398 1194.39 905.137 1195.81C905.887 1197.23 906.262 1198.97 906.262 1201.04V1218H903.228V1201.23C903.228 1199.08 902.625 1197.38 901.421 1196.13C900.228 1194.88 898.625 1194.26 896.614 1194.26C895.239 1194.26 894.017 1194.55 892.949 1195.14C891.881 1195.73 891.034 1196.59 890.409 1197.7C889.796 1198.8 889.489 1200.11 889.489 1201.64ZM924.916 1191.82V1194.46H912.422V1191.82H924.916ZM916.325 1185.55H919.376V1211.16C919.376 1212.26 919.564 1213.11 919.939 1213.74C920.314 1214.35 920.802 1214.79 921.404 1215.05C922.007 1215.3 922.649 1215.43 923.331 1215.43C923.728 1215.43 924.069 1215.4 924.353 1215.36C924.637 1215.3 924.887 1215.24 925.103 1215.19L925.751 1217.93C925.456 1218.05 925.092 1218.15 924.66 1218.24C924.228 1218.34 923.694 1218.39 923.058 1218.39C921.944 1218.39 920.87 1218.15 919.836 1217.66C918.814 1217.17 917.973 1216.44 917.314 1215.48C916.654 1214.51 916.325 1213.31 916.325 1211.88V1185.55ZM949.28 1197.56L946.502 1198.35C946.229 1197.56 945.843 1196.85 945.343 1196.22C944.843 1195.58 944.189 1195.07 943.382 1194.7C942.587 1194.32 941.598 1194.14 940.417 1194.14C938.644 1194.14 937.189 1194.56 936.053 1195.4C934.917 1196.24 934.348 1197.32 934.348 1198.65C934.348 1199.78 934.735 1200.69 935.507 1201.4C936.292 1202.09 937.496 1202.64 939.121 1203.05L943.076 1204.02C945.269 1204.56 946.911 1205.4 948.002 1206.56C949.104 1207.72 949.655 1209.18 949.655 1210.93C949.655 1212.4 949.246 1213.72 948.428 1214.86C947.61 1216.01 946.468 1216.91 945.002 1217.57C943.547 1218.22 941.86 1218.55 939.939 1218.55C937.382 1218.55 935.275 1217.97 933.615 1216.82C931.956 1215.66 930.894 1213.99 930.428 1211.81L933.343 1211.1C933.718 1212.65 934.451 1213.83 935.542 1214.62C936.644 1215.42 938.093 1215.82 939.888 1215.82C941.9 1215.82 943.507 1215.37 944.712 1214.47C945.917 1213.56 946.519 1212.43 946.519 1211.06C946.519 1210.01 946.167 1209.12 945.462 1208.4C944.757 1207.68 943.689 1207.14 942.257 1206.8L937.979 1205.78C935.706 1205.23 934.025 1204.37 932.934 1203.19C931.843 1202.01 931.297 1200.54 931.297 1198.79C931.297 1197.35 931.689 1196.08 932.473 1194.99C933.257 1193.89 934.337 1193.02 935.712 1192.4C937.087 1191.77 938.655 1191.46 940.417 1191.46C942.814 1191.46 944.729 1192.01 946.161 1193.1C947.604 1194.18 948.644 1195.66 949.28 1197.56ZM959.071 1218.26C958.4 1218.26 957.821 1218.02 957.332 1217.54C956.855 1217.05 956.616 1216.47 956.616 1215.8C956.616 1215.12 956.855 1214.54 957.332 1214.06C957.821 1213.59 958.4 1213.35 959.071 1213.35C959.752 1213.35 960.332 1213.59 960.809 1214.06C961.287 1214.54 961.525 1215.12 961.525 1215.8C961.525 1216.24 961.412 1216.65 961.184 1217.03C960.968 1217.4 960.673 1217.7 960.298 1217.93C959.934 1218.15 959.525 1218.26 959.071 1218.26ZM1011.56 1183.09V1218H1008.46L987.835 1188.77H987.562V1218H984.375V1183.09H987.46L1008.15 1212.36H1008.43V1183.09H1011.56ZM1030.74 1218.55C1028.48 1218.55 1026.48 1217.97 1024.74 1216.82C1023.01 1215.68 1021.66 1214.09 1020.68 1212.07C1019.71 1210.03 1019.22 1207.69 1019.22 1205.03C1019.22 1202.35 1019.71 1199.99 1020.68 1197.95C1021.66 1195.91 1023.01 1194.32 1024.74 1193.18C1026.48 1192.03 1028.48 1191.46 1030.74 1191.46C1033 1191.46 1035 1192.03 1036.72 1193.18C1038.45 1194.33 1039.8 1195.92 1040.78 1197.95C1041.77 1199.99 1042.26 1202.35 1042.26 1205.03C1042.26 1207.69 1041.77 1210.03 1040.8 1212.07C1039.82 1214.09 1038.46 1215.68 1036.72 1216.82C1035 1217.97 1033 1218.55 1030.74 1218.55ZM1030.74 1215.77C1032.56 1215.77 1034.1 1215.28 1035.36 1214.3C1036.62 1213.32 1037.58 1212.02 1038.22 1210.4C1038.88 1208.77 1039.21 1206.98 1039.21 1205.03C1039.21 1203.07 1038.88 1201.28 1038.22 1199.64C1037.58 1198.01 1036.62 1196.69 1035.36 1195.7C1034.1 1194.72 1032.56 1194.22 1030.74 1194.22C1028.93 1194.22 1027.39 1194.72 1026.12 1195.7C1024.86 1196.69 1023.9 1198.01 1023.24 1199.64C1022.59 1201.28 1022.27 1203.07 1022.27 1205.03C1022.27 1206.98 1022.59 1208.77 1023.24 1210.4C1023.9 1212.02 1024.86 1213.32 1026.12 1214.3C1027.38 1215.28 1028.92 1215.77 1030.74 1215.77ZM1073.44 1191.82V1194.46H1060.94V1191.82H1073.44ZM1064.85 1185.55H1067.9V1211.16C1067.9 1212.26 1068.09 1213.11 1068.46 1213.74C1068.84 1214.35 1069.33 1214.79 1069.93 1215.05C1070.53 1215.3 1071.17 1215.43 1071.85 1215.43C1072.25 1215.43 1072.59 1215.4 1072.88 1215.36C1073.16 1215.3 1073.41 1215.24 1073.63 1215.19L1074.27 1217.93C1073.98 1218.05 1073.62 1218.15 1073.18 1218.24C1072.75 1218.34 1072.22 1218.39 1071.58 1218.39C1070.47 1218.39 1069.39 1218.15 1068.36 1217.66C1067.34 1217.17 1066.5 1216.44 1065.84 1215.48C1065.18 1214.51 1064.85 1213.31 1064.85 1211.88V1185.55ZM1080.68 1218V1191.82H1083.63V1195.84H1083.85C1084.37 1194.52 1085.28 1193.46 1086.58 1192.65C1087.89 1191.84 1089.36 1191.43 1091.01 1191.43C1091.26 1191.43 1091.54 1191.43 1091.85 1191.44C1092.15 1191.45 1092.41 1191.47 1092.61 1191.48V1194.56C1092.48 1194.54 1092.24 1194.51 1091.9 1194.46C1091.56 1194.41 1091.19 1194.39 1090.79 1194.39C1089.43 1194.39 1088.21 1194.68 1087.14 1195.26C1086.08 1195.83 1085.25 1196.62 1084.64 1197.63C1084.02 1198.64 1083.72 1199.8 1083.72 1201.09V1218H1080.68ZM1105.45 1218.6C1103.88 1218.6 1102.43 1218.29 1101.13 1217.68C1099.82 1217.05 1098.78 1216.15 1098.01 1214.98C1097.23 1213.8 1096.85 1212.37 1096.85 1210.69C1096.85 1209.39 1097.09 1208.3 1097.58 1207.41C1098.07 1206.53 1098.76 1205.8 1099.66 1205.23C1100.56 1204.66 1101.62 1204.22 1102.85 1203.89C1104.07 1203.56 1105.43 1203.3 1106.9 1203.12C1108.37 1202.94 1109.61 1202.78 1110.62 1202.64C1111.64 1202.51 1112.42 1202.29 1112.95 1201.99C1113.49 1201.7 1113.76 1201.22 1113.76 1200.56V1199.95C1113.76 1198.16 1113.22 1196.76 1112.15 1195.74C1111.1 1194.7 1109.57 1194.19 1107.59 1194.19C1105.7 1194.19 1104.16 1194.6 1102.97 1195.43C1101.78 1196.26 1100.95 1197.24 1100.48 1198.36L1097.6 1197.32C1098.19 1195.89 1099.01 1194.75 1100.05 1193.9C1101.1 1193.03 1102.27 1192.41 1103.56 1192.04C1104.86 1191.65 1106.17 1191.46 1107.5 1191.46C1108.5 1191.46 1109.54 1191.59 1110.62 1191.85C1111.71 1192.11 1112.72 1192.57 1113.65 1193.22C1114.59 1193.85 1115.34 1194.74 1115.92 1195.89C1116.5 1197.03 1116.79 1198.47 1116.79 1200.22V1218H1113.76V1213.86H1113.57C1113.2 1214.63 1112.67 1215.38 1111.95 1216.11C1111.23 1216.84 1110.34 1217.43 1109.26 1217.9C1108.18 1218.36 1106.91 1218.6 1105.45 1218.6ZM1105.86 1215.82C1107.48 1215.82 1108.88 1215.46 1110.06 1214.74C1111.24 1214.03 1112.15 1213.08 1112.78 1211.9C1113.43 1210.7 1113.76 1209.39 1113.76 1207.96V1204.18C1113.53 1204.39 1113.15 1204.59 1112.61 1204.76C1112.09 1204.93 1111.48 1205.08 1110.79 1205.22C1110.11 1205.34 1109.43 1205.45 1108.74 1205.54C1108.06 1205.63 1107.45 1205.71 1106.9 1205.78C1105.43 1205.96 1104.17 1206.24 1103.12 1206.63C1102.07 1207.02 1101.27 1207.55 1100.72 1208.23C1100.16 1208.9 1099.88 1209.77 1099.88 1210.82C1099.88 1212.41 1100.45 1213.65 1101.59 1214.52C1102.72 1215.39 1104.15 1215.82 1105.86 1215.82ZM1135.44 1218.55C1133.1 1218.55 1131.06 1217.96 1129.32 1216.79C1127.59 1215.62 1126.25 1214.02 1125.3 1211.98C1124.34 1209.95 1123.87 1207.63 1123.87 1205.03C1123.87 1202.4 1124.35 1200.07 1125.31 1198.02C1126.29 1195.98 1127.64 1194.37 1129.37 1193.22C1131.1 1192.05 1133.1 1191.46 1135.39 1191.46C1137.14 1191.46 1138.72 1191.8 1140.14 1192.48C1141.56 1193.15 1142.74 1194.1 1143.66 1195.33C1144.59 1196.55 1145.17 1197.97 1145.41 1199.59H1142.34C1142.03 1198.11 1141.26 1196.85 1140.04 1195.81C1138.84 1194.75 1137.3 1194.22 1135.44 1194.22C1133.77 1194.22 1132.29 1194.68 1131.01 1195.59C1129.72 1196.48 1128.72 1197.74 1127.99 1199.35C1127.28 1200.95 1126.92 1202.81 1126.92 1204.93C1126.92 1207.05 1127.27 1208.93 1127.97 1210.57C1128.68 1212.19 1129.67 1213.47 1130.94 1214.39C1132.22 1215.31 1133.72 1215.77 1135.44 1215.77C1136.6 1215.77 1137.66 1215.55 1138.61 1215.12C1139.58 1214.68 1140.38 1214.05 1141.03 1213.24C1141.69 1212.44 1142.13 1211.48 1142.36 1210.36H1145.43C1145.2 1211.94 1144.64 1213.35 1143.74 1214.59C1142.85 1215.82 1141.7 1216.78 1140.28 1217.49C1138.87 1218.19 1137.26 1218.55 1135.44 1218.55ZM1155.04 1208.11L1155.01 1204.14H1155.69L1167.96 1191.82H1171.8L1159.68 1203.95L1159.41 1204.01L1155.04 1208.11ZM1152.28 1218V1183.09H1155.32V1218H1152.28ZM1168.6 1218L1157.96 1204.55L1160.14 1202.45L1172.48 1218H1168.6ZM1177.89 1218V1191.82H1180.94V1218H1177.89ZM1179.44 1187.32C1178.81 1187.32 1178.28 1187.11 1177.84 1186.69C1177.39 1186.26 1177.17 1185.74 1177.17 1185.14C1177.17 1184.53 1177.39 1184.02 1177.84 1183.6C1178.28 1183.17 1178.81 1182.95 1179.44 1182.95C1180.06 1182.95 1180.6 1183.17 1181.04 1183.6C1181.48 1184.02 1181.71 1184.53 1181.71 1185.14C1181.71 1185.74 1181.48 1186.26 1181.04 1186.69C1180.6 1187.11 1180.06 1187.32 1179.44 1187.32ZM1192.35 1201.64V1218H1189.31V1191.82H1192.26V1195.93H1192.54C1193.15 1194.59 1194.1 1193.51 1195.4 1192.7C1196.71 1191.89 1198.32 1191.48 1200.24 1191.48C1202 1191.48 1203.55 1191.85 1204.88 1192.59C1206.22 1193.31 1207.26 1194.39 1208 1195.81C1208.75 1197.23 1209.12 1198.97 1209.12 1201.04V1218H1206.09V1201.23C1206.09 1199.08 1205.48 1197.38 1204.28 1196.13C1203.09 1194.88 1201.48 1194.26 1199.47 1194.26C1198.1 1194.26 1196.88 1194.55 1195.81 1195.14C1194.74 1195.73 1193.89 1196.59 1193.27 1197.7C1192.66 1198.8 1192.35 1200.11 1192.35 1201.64ZM1227.45 1228.36C1225.67 1228.36 1224.1 1228.13 1222.76 1227.66C1221.42 1227.21 1220.29 1226.59 1219.37 1225.79C1218.45 1224.99 1217.74 1224.1 1217.22 1223.11L1219.71 1221.48C1220.09 1222.14 1220.59 1222.78 1221.21 1223.42C1221.85 1224.06 1222.67 1224.59 1223.68 1225.01C1224.71 1225.43 1225.96 1225.64 1227.45 1225.64C1229.77 1225.64 1231.64 1225.06 1233.06 1223.9C1234.49 1222.74 1235.21 1220.94 1235.21 1218.49V1212.6H1234.93C1234.58 1213.39 1234.08 1214.19 1233.42 1214.98C1232.76 1215.77 1231.89 1216.42 1230.83 1216.94C1229.77 1217.47 1228.46 1217.73 1226.89 1217.73C1224.8 1217.73 1222.94 1217.21 1221.31 1216.18C1219.7 1215.14 1218.43 1213.66 1217.5 1211.74C1216.58 1209.81 1216.12 1207.51 1216.12 1204.84C1216.12 1202.19 1216.56 1199.86 1217.46 1197.85C1218.37 1195.84 1219.64 1194.27 1221.26 1193.15C1222.89 1192.02 1224.78 1191.46 1226.94 1191.46C1228.54 1191.46 1229.87 1191.74 1230.93 1192.31C1231.99 1192.87 1232.83 1193.56 1233.47 1194.39C1234.12 1195.22 1234.62 1196.03 1234.99 1196.81H1235.29V1191.82H1238.26V1218.68C1238.26 1220.9 1237.79 1222.72 1236.84 1224.15C1235.9 1225.59 1234.62 1226.64 1232.99 1227.32C1231.37 1228.02 1229.52 1228.36 1227.45 1228.36ZM1227.25 1214.95C1228.93 1214.95 1230.37 1214.55 1231.56 1213.74C1232.75 1212.92 1233.67 1211.75 1234.3 1210.23C1234.94 1208.7 1235.26 1206.89 1235.26 1204.79C1235.26 1202.74 1234.95 1200.93 1234.32 1199.35C1233.7 1197.76 1232.79 1196.51 1231.59 1195.6C1230.41 1194.68 1228.96 1194.22 1227.25 1194.22C1225.5 1194.22 1224.02 1194.69 1222.81 1195.64C1221.61 1196.58 1220.7 1197.85 1220.09 1199.45C1219.47 1201.05 1219.17 1202.82 1219.17 1204.79C1219.17 1206.79 1219.48 1208.56 1220.1 1210.09C1220.73 1211.61 1221.64 1212.81 1222.85 1213.67C1224.05 1214.52 1225.52 1214.95 1227.25 1214.95ZM1249.06 1218.26C1248.39 1218.26 1247.81 1218.02 1247.32 1217.54C1246.85 1217.05 1246.61 1216.47 1246.61 1215.8C1246.61 1215.12 1246.85 1214.54 1247.32 1214.06C1247.81 1213.59 1248.39 1213.35 1249.06 1213.35C1249.74 1213.35 1250.32 1213.59 1250.8 1214.06C1251.28 1214.54 1251.52 1215.12 1251.52 1215.8C1251.52 1216.24 1251.4 1216.65 1251.18 1217.03C1250.96 1217.4 1250.67 1217.7 1250.29 1217.93C1249.93 1218.15 1249.52 1218.26 1249.06 1218.26Z" fill="white" fill-opacity="0.9"/>
<path d="M371 1497H291" stroke="white" stroke-width="6" stroke-linecap="round" stroke-linejoin="round"/>
<path d="M304.8 1469.44L291 1497V1521C291 1523.12 291.843 1525.16 293.343 1526.66C294.843 1528.16 296.878 1529 299 1529H363C365.122 1529 367.157 1528.16 368.657 1526.66C370.157 1525.16 371 1523.12 371 1521V1497L357.2 1469.44C356.538 1468.11 355.517 1466.99 354.252 1466.2C352.987 1465.42 351.528 1465 350.04 1465H311.96C310.472 1465 309.013 1465.42 307.748 1466.2C306.483 1466.99 305.462 1468.11 304.8 1469.44Z" stroke="white" stroke-width="6" stroke-linecap="round" stroke-linejoin="round"/>
<path d="M307 1513H307.04" stroke="white" stroke-width="6" stroke-linecap="round" stroke-linejoin="round"/>
<path d="M323 1513H323.04" stroke="white" stroke-width="6" stroke-linecap="round" stroke-linejoin="round"/>
<path d="M228.789 1576.32V1602.5H223.254V1581.57H223.1L217.104 1585.33V1580.42L223.586 1576.32H228.789ZM245.647 1603.08C243.448 1603.07 241.556 1602.53 239.97 1601.45C238.394 1600.38 237.179 1598.82 236.327 1596.79C235.483 1594.75 235.066 1592.3 235.074 1589.43C235.074 1586.58 235.496 1584.15 236.34 1582.13C237.192 1580.12 238.407 1578.59 239.983 1577.55C241.568 1576.49 243.456 1575.96 245.647 1575.96C247.837 1575.96 249.72 1576.49 251.297 1577.55C252.882 1578.6 254.101 1580.14 254.953 1582.15C255.806 1584.15 256.228 1586.58 256.219 1589.43C256.219 1592.31 255.793 1594.76 254.941 1596.8C254.097 1598.84 252.887 1600.39 251.31 1601.46C249.733 1602.54 247.845 1603.08 245.647 1603.08ZM245.647 1598.49C247.147 1598.49 248.344 1597.73 249.239 1596.22C250.134 1594.71 250.577 1592.45 250.568 1589.43C250.568 1587.45 250.364 1585.8 249.955 1584.47C249.554 1583.15 248.983 1582.16 248.242 1581.5C247.509 1580.83 246.644 1580.5 245.647 1580.5C244.155 1580.5 242.962 1581.24 242.067 1582.74C241.172 1584.23 240.72 1586.46 240.712 1589.43C240.712 1591.45 240.912 1593.12 241.313 1594.47C241.722 1595.81 242.297 1596.82 243.039 1597.49C243.78 1598.15 244.649 1598.49 245.647 1598.49ZM270.801 1603.08C268.602 1603.07 266.71 1602.53 265.125 1601.45C263.548 1600.38 262.334 1598.82 261.481 1596.79C260.638 1594.75 260.22 1592.3 260.228 1589.43C260.228 1586.58 260.65 1584.15 261.494 1582.13C262.346 1580.12 263.561 1578.59 265.138 1577.55C266.723 1576.49 268.611 1575.96 270.801 1575.96C272.991 1575.96 274.875 1576.49 276.451 1577.55C278.037 1578.6 279.255 1580.14 280.108 1582.15C280.96 1584.15 281.382 1586.58 281.373 1589.43C281.373 1592.31 280.947 1594.76 280.095 1596.8C279.251 1598.84 278.041 1600.39 276.464 1601.46C274.888 1602.54 273 1603.08 270.801 1603.08ZM270.801 1598.49C272.301 1598.49 273.498 1597.73 274.393 1596.22C275.288 1594.71 275.731 1592.45 275.723 1589.43C275.723 1587.45 275.518 1585.8 275.109 1584.47C274.709 1583.15 274.138 1582.16 273.396 1581.5C272.663 1580.83 271.798 1580.5 270.801 1580.5C269.309 1580.5 268.116 1581.24 267.221 1582.74C266.326 1584.23 265.875 1586.46 265.866 1589.43C265.866 1591.45 266.066 1593.12 266.467 1594.47C266.876 1595.81 267.451 1596.82 268.193 1597.49C268.934 1598.15 269.804 1598.49 270.801 1598.49ZM300.021 1597.59V1596.21C300.021 1595.16 300.242 1594.2 300.685 1593.32C301.137 1592.43 301.789 1591.73 302.641 1591.2C303.502 1590.66 304.55 1590.39 305.786 1590.39C307.039 1590.39 308.092 1590.66 308.944 1591.19C309.805 1591.71 310.452 1592.42 310.887 1593.31C311.33 1594.19 311.552 1595.15 311.552 1596.21V1597.59C311.552 1598.64 311.33 1599.61 310.887 1600.49C310.444 1601.37 309.792 1602.07 308.931 1602.6C308.07 1603.14 307.022 1603.41 305.786 1603.41C304.533 1603.41 303.481 1603.14 302.628 1602.6C301.776 1602.07 301.128 1601.37 300.685 1600.49C300.242 1599.61 300.021 1598.64 300.021 1597.59ZM303.741 1596.21V1597.59C303.741 1598.2 303.886 1598.77 304.175 1599.3C304.474 1599.84 305.011 1600.11 305.786 1600.11C306.562 1600.11 307.09 1599.85 307.371 1599.32C307.661 1598.79 307.806 1598.21 307.806 1597.59V1596.21C307.806 1595.59 307.67 1595.01 307.397 1594.47C307.124 1593.93 306.587 1593.67 305.786 1593.67C305.019 1593.67 304.486 1593.93 304.188 1594.47C303.89 1595.01 303.741 1595.59 303.741 1596.21ZM286.584 1582.61V1581.23C286.584 1580.17 286.81 1579.2 287.262 1578.33C287.714 1577.44 288.366 1576.73 289.218 1576.2C290.079 1575.67 291.119 1575.41 292.337 1575.41C293.599 1575.41 294.655 1575.67 295.508 1576.2C296.36 1576.73 297.008 1577.44 297.451 1578.33C297.894 1579.2 298.116 1580.17 298.116 1581.23V1582.61C298.116 1583.66 297.89 1584.63 297.438 1585.51C296.995 1586.39 296.343 1587.09 295.482 1587.62C294.63 1588.14 293.582 1588.4 292.337 1588.4C291.093 1588.4 290.04 1588.13 289.18 1587.61C288.327 1587.07 287.68 1586.37 287.236 1585.5C286.802 1584.62 286.584 1583.66 286.584 1582.61ZM290.33 1581.23V1582.61C290.33 1583.23 290.475 1583.81 290.765 1584.33C291.063 1584.86 291.587 1585.13 292.337 1585.13C293.121 1585.13 293.654 1584.86 293.935 1584.33C294.225 1583.81 294.37 1583.23 294.37 1582.61V1581.23C294.37 1580.61 294.234 1580.03 293.961 1579.49C293.688 1578.95 293.147 1578.68 292.337 1578.68C291.579 1578.68 291.055 1578.96 290.765 1579.5C290.475 1580.05 290.33 1580.62 290.33 1581.23ZM288.272 1602.5L306.272 1576.32H309.621L291.621 1602.5H288.272ZM325.851 1602.5V1576.32H331.386V1597.94H342.611V1602.5H325.851ZM369.686 1589.41C369.686 1592.26 369.145 1594.69 368.062 1596.7C366.988 1598.7 365.522 1600.23 363.665 1601.29C361.815 1602.33 359.736 1602.86 357.426 1602.86C355.099 1602.86 353.011 1602.33 351.162 1601.27C349.312 1600.22 347.851 1598.69 346.777 1596.68C345.703 1594.68 345.166 1592.26 345.166 1589.41C345.166 1586.55 345.703 1584.12 346.777 1582.12C347.851 1580.12 349.312 1578.59 351.162 1577.55C353.011 1576.49 355.099 1575.96 357.426 1575.96C359.736 1575.96 361.815 1576.49 363.665 1577.55C365.522 1578.59 366.988 1580.12 368.062 1582.12C369.145 1584.12 369.686 1586.55 369.686 1589.41ZM364.074 1589.41C364.074 1587.56 363.797 1586 363.243 1584.73C362.697 1583.46 361.926 1582.5 360.929 1581.84C359.932 1581.18 358.764 1580.86 357.426 1580.86C356.088 1580.86 354.92 1581.18 353.923 1581.84C352.926 1582.5 352.15 1583.46 351.596 1584.73C351.051 1586 350.778 1587.56 350.778 1589.41C350.778 1591.26 351.051 1592.82 351.596 1594.09C352.15 1595.36 352.926 1596.32 353.923 1596.98C354.92 1597.63 356.088 1597.96 357.426 1597.96C358.764 1597.96 359.932 1597.63 360.929 1596.98C361.926 1596.32 362.697 1595.36 363.243 1594.09C363.797 1592.82 364.074 1591.26 364.074 1589.41ZM397.256 1585.48H391.657C391.555 1584.76 391.346 1584.12 391.03 1583.55C390.715 1582.98 390.31 1582.5 389.816 1582.1C389.322 1581.7 388.751 1581.39 388.103 1581.18C387.464 1580.96 386.769 1580.86 386.019 1580.86C384.664 1580.86 383.484 1581.19 382.478 1581.87C381.472 1582.53 380.692 1583.5 380.138 1584.78C379.584 1586.05 379.307 1587.59 379.307 1589.41C379.307 1591.28 379.584 1592.84 380.138 1594.11C380.701 1595.38 381.485 1596.34 382.491 1596.99C383.496 1597.64 384.66 1597.96 385.981 1597.96C386.722 1597.96 387.408 1597.86 388.039 1597.67C388.678 1597.47 389.245 1597.19 389.739 1596.81C390.234 1596.43 390.643 1595.96 390.967 1595.42C391.299 1594.87 391.529 1594.25 391.657 1593.55L397.256 1593.58C397.111 1594.78 396.749 1595.94 396.17 1597.05C395.599 1598.16 394.827 1599.15 393.856 1600.03C392.893 1600.9 391.742 1601.59 390.404 1602.1C389.074 1602.61 387.57 1602.86 385.891 1602.86C383.556 1602.86 381.468 1602.33 379.627 1601.27C377.795 1600.22 376.346 1598.69 375.28 1596.68C374.224 1594.68 373.695 1592.26 373.695 1589.41C373.695 1586.55 374.232 1584.12 375.306 1582.12C376.38 1580.12 377.837 1578.59 379.678 1577.55C381.519 1576.49 383.59 1575.96 385.891 1575.96C387.408 1575.96 388.815 1576.17 390.11 1576.6C391.414 1577.03 392.569 1577.65 393.574 1578.47C394.58 1579.28 395.398 1580.27 396.029 1581.44C396.668 1582.62 397.077 1583.97 397.256 1585.48ZM405.616 1602.5H399.684L408.722 1576.32H415.856L424.881 1602.5H418.949L412.391 1582.3H412.187L405.616 1602.5ZM405.245 1592.21H419.256V1596.53H405.245V1592.21ZM428.402 1602.5V1576.32H433.937V1597.94H445.161V1602.5H428.402Z" fill="white"/>
<path d="M777 1529H777.04" stroke="white" stroke-width="6" stroke-linecap="round" stroke-linejoin="round"/>
<path d="M763 1514.72C766.739 1511.05 771.765 1509 777 1509C782.235 1509 787.261 1511.05 791 1514.72" stroke="white" stroke-width="6" stroke-linecap="round" stroke-linejoin="round"/>
<path d="M749 1500.44C754.672 1494.88 761.871 1491.13 769.68 1489.68" stroke="white" stroke-width="6" stroke-linecap="round" stroke-linejoin="round"/>
<path d="M805 1500.44C802.592 1498.07 799.894 1496.03 796.972 1494.34" stroke="white" stroke-width="6" stroke-linecap="round" stroke-linejoin="round"/>
<path d="M737 1484.28C741.946 1479.86 747.592 1476.28 753.708 1473.71" stroke="white" stroke-width="6" stroke-linecap="round" stroke-linejoin="round"/>
<path d="M817 1484.28C810.899 1478.82 803.746 1474.67 795.981 1472.08C788.216 1469.49 780.003 1468.52 771.848 1469.22" stroke="white" stroke-width="6" stroke-linecap="round" stroke-linejoin="round"/>
<path d="M737 1457L817 1537" stroke="white" stroke-width="6" stroke-linecap="round" stroke-linejoin="round"/>
<path d="M672.757 1576.32V1602.5H667.975L656.585 1586.02H656.393V1602.5H650.858V1576.32H655.716L667.017 1592.78H667.247V1576.32H672.757ZM701.759 1589.41C701.759 1592.26 701.218 1594.69 700.135 1596.7C699.062 1598.7 697.596 1600.23 695.738 1601.29C693.888 1602.33 691.809 1602.86 689.499 1602.86C687.172 1602.86 685.084 1602.33 683.235 1601.27C681.385 1600.22 679.924 1598.69 678.85 1596.68C677.776 1594.68 677.239 1592.26 677.239 1589.41C677.239 1586.55 677.776 1584.12 678.85 1582.12C679.924 1580.12 681.385 1578.59 683.235 1577.55C685.084 1576.49 687.172 1575.96 689.499 1575.96C691.809 1575.96 693.888 1576.49 695.738 1577.55C697.596 1578.59 699.062 1580.12 700.135 1582.12C701.218 1584.12 701.759 1586.55 701.759 1589.41ZM696.147 1589.41C696.147 1587.56 695.87 1586 695.316 1584.73C694.77 1583.46 693.999 1582.5 693.002 1581.84C692.005 1581.18 690.837 1580.86 689.499 1580.86C688.161 1580.86 686.993 1581.18 685.996 1581.84C684.999 1582.5 684.224 1583.46 683.67 1584.73C683.124 1586 682.851 1587.56 682.851 1589.41C682.851 1591.26 683.124 1592.82 683.67 1594.09C684.224 1595.36 684.999 1596.32 685.996 1596.98C686.993 1597.63 688.161 1597.96 689.499 1597.96C690.837 1597.96 692.005 1597.63 693.002 1596.98C693.999 1596.32 694.77 1595.36 695.316 1594.09C695.87 1592.82 696.147 1591.26 696.147 1589.41ZM713.933 1580.88V1576.32H735.436V1580.88H727.42V1602.5H721.948V1580.88H713.933ZM739.346 1602.5V1576.32H749.675C751.653 1576.32 753.34 1576.67 754.738 1577.38C756.144 1578.08 757.214 1579.07 757.947 1580.36C758.688 1581.64 759.059 1583.14 759.059 1584.87C759.059 1586.61 758.684 1588.11 757.934 1589.36C757.184 1590.6 756.097 1591.56 754.674 1592.22C753.259 1592.89 751.546 1593.22 749.535 1593.22H742.619V1588.77H748.64C749.697 1588.77 750.575 1588.62 751.273 1588.34C751.972 1588.05 752.492 1587.61 752.833 1587.03C753.183 1586.45 753.357 1585.73 753.357 1584.87C753.357 1584 753.183 1583.27 752.833 1582.67C752.492 1582.08 751.968 1581.62 751.261 1581.32C750.562 1581 749.68 1580.84 748.614 1580.84H744.881V1602.5H739.346ZM753.485 1590.59L759.992 1602.5H753.881L747.515 1590.59H753.485ZM767.853 1602.5H761.921L770.959 1576.32H778.093L787.118 1602.5H781.187L774.628 1582.3H774.424L767.853 1602.5ZM767.482 1592.21H781.493V1596.53H767.482V1592.21ZM812.509 1585.48H806.91C806.808 1584.76 806.599 1584.12 806.283 1583.55C805.968 1582.98 805.563 1582.5 805.069 1582.1C804.575 1581.7 804.004 1581.39 803.356 1581.18C802.717 1580.96 802.022 1580.86 801.272 1580.86C799.917 1580.86 798.737 1581.19 797.731 1581.87C796.725 1582.53 795.945 1583.5 795.391 1584.78C794.837 1586.05 794.56 1587.59 794.56 1589.41C794.56 1591.28 794.837 1592.84 795.391 1594.11C795.954 1595.38 796.738 1596.34 797.744 1596.99C798.749 1597.64 799.913 1597.96 801.234 1597.96C801.975 1597.96 802.661 1597.86 803.292 1597.67C803.931 1597.47 804.498 1597.19 804.992 1596.81C805.487 1596.43 805.896 1595.96 806.219 1595.42C806.552 1594.87 806.782 1594.25 806.91 1593.55L812.509 1593.58C812.364 1594.78 812.002 1595.94 811.423 1597.05C810.852 1598.16 810.08 1599.15 809.109 1600.03C808.146 1600.9 806.995 1601.59 805.657 1602.1C804.327 1602.61 802.823 1602.86 801.144 1602.86C798.809 1602.86 796.721 1602.33 794.88 1601.27C793.048 1600.22 791.599 1598.69 790.533 1596.68C789.477 1594.68 788.948 1592.26 788.948 1589.41C788.948 1586.55 789.485 1584.12 790.559 1582.12C791.633 1580.12 793.09 1578.59 794.931 1577.55C796.772 1576.49 798.843 1575.96 801.144 1575.96C802.661 1575.96 804.067 1576.17 805.363 1576.6C806.667 1577.03 807.822 1577.65 808.827 1578.47C809.833 1579.28 810.651 1580.27 811.282 1581.44C811.921 1582.62 812.33 1583.97 812.509 1585.48ZM816.848 1602.5V1576.32H822.383V1587.86H822.729L832.15 1576.32H838.785L829.069 1588.04L838.9 1602.5H832.278L825.106 1591.74L822.383 1595.06V1602.5H816.848ZM847.573 1576.32V1602.5H842.037V1576.32H847.573ZM874.395 1576.32V1602.5H869.614L858.224 1586.02H858.032V1602.5H852.496V1576.32H857.354L868.655 1592.78H868.885V1576.32H874.395ZM896.699 1584.78C896.52 1584.16 896.268 1583.61 895.945 1583.13C895.621 1582.65 895.224 1582.24 894.756 1581.9C894.295 1581.56 893.767 1581.3 893.17 1581.12C892.582 1580.95 891.93 1580.86 891.214 1580.86C889.876 1580.86 888.7 1581.19 887.686 1581.85C886.68 1582.52 885.896 1583.49 885.334 1584.76C884.771 1586.02 884.49 1587.56 884.49 1589.38C884.49 1591.21 884.767 1592.76 885.321 1594.04C885.875 1595.32 886.659 1596.29 887.673 1596.96C888.688 1597.63 889.885 1597.96 891.266 1597.96C892.518 1597.96 893.588 1597.74 894.474 1597.3C895.369 1596.85 896.051 1596.21 896.52 1595.39C896.997 1594.57 897.236 1593.61 897.236 1592.49L898.361 1592.66H891.611V1588.49H902.567V1591.79C902.567 1594.09 902.081 1596.07 901.109 1597.72C900.138 1599.36 898.8 1600.63 897.095 1601.53C895.391 1602.41 893.439 1602.86 891.24 1602.86C888.786 1602.86 886.629 1602.32 884.771 1601.23C882.913 1600.14 881.464 1598.6 880.425 1596.59C879.393 1594.58 878.878 1592.2 878.878 1589.43C878.878 1587.31 879.185 1585.42 879.798 1583.76C880.42 1582.09 881.29 1580.67 882.406 1579.51C883.523 1578.36 884.822 1577.47 886.305 1576.87C887.788 1576.26 889.395 1575.96 891.125 1575.96C892.608 1575.96 893.989 1576.18 895.267 1576.61C896.545 1577.04 897.679 1577.64 898.668 1578.43C899.665 1579.21 900.479 1580.14 901.109 1581.23C901.74 1582.3 902.145 1583.49 902.324 1584.78H896.699Z" fill="white"/>
<path d="M1259 1509V1525C1259 1527.12 1258.16 1529.16 1256.66 1530.66C1255.16 1532.16 1253.12 1533 1251 1533H1195C1192.88 1533 1190.84 1532.16 1189.34 1530.66C1187.84 1529.16 1187 1527.12 1187 1525V1509" stroke="white" stroke-width="6" stroke-linecap="round" stroke-linejoin="round"/>
<path d="M1203 1489L1223 1509L1243 1489" stroke="white" stroke-width="6" stroke-linecap="round" stroke-linejoin="round"/>
<path d="M1223 1509V1461" stroke="white" stroke-width="6" stroke-linecap="round" stroke-linejoin="round"/>
<path d="M1151.61 1602.5V1576.32H1169.25V1580.88H1157.15V1587.12H1168.35V1591.68H1157.15V1597.94H1169.31V1602.5H1151.61ZM1179.21 1576.32L1184.49 1585.24H1184.7L1190 1576.32H1196.26L1188.27 1589.41L1196.44 1602.5H1190.07L1184.7 1593.56H1184.49L1179.13 1602.5H1172.78L1180.98 1589.41L1172.94 1576.32H1179.21ZM1200.13 1602.5V1576.32H1210.46C1212.44 1576.32 1214.14 1576.7 1215.53 1577.46C1216.93 1578.21 1218 1579.25 1218.73 1580.59C1219.47 1581.92 1219.84 1583.45 1219.84 1585.19C1219.84 1586.93 1219.47 1588.46 1218.72 1589.79C1217.97 1591.12 1216.88 1592.16 1215.46 1592.9C1214.04 1593.64 1212.33 1594.01 1210.32 1594.01H1203.73V1589.58H1209.42C1210.49 1589.58 1211.37 1589.39 1212.06 1589.03C1212.75 1588.65 1213.27 1588.13 1213.62 1587.48C1213.96 1586.81 1214.14 1586.05 1214.14 1585.19C1214.14 1584.32 1213.96 1583.56 1213.62 1582.91C1213.27 1582.26 1212.75 1581.75 1212.06 1581.39C1211.36 1581.03 1210.47 1580.84 1209.4 1580.84H1205.66V1602.5H1200.13ZM1247.87 1589.41C1247.87 1592.26 1247.32 1594.69 1246.24 1596.7C1245.17 1598.7 1243.7 1600.23 1241.84 1601.29C1239.99 1602.33 1237.92 1602.86 1235.61 1602.86C1233.28 1602.86 1231.19 1602.33 1229.34 1601.27C1227.49 1600.22 1226.03 1598.69 1224.96 1596.68C1223.88 1594.68 1223.35 1592.26 1223.35 1589.41C1223.35 1586.55 1223.88 1584.12 1224.96 1582.12C1226.03 1580.12 1227.49 1578.59 1229.34 1577.55C1231.19 1576.49 1233.28 1575.96 1235.61 1575.96C1237.92 1575.96 1239.99 1576.49 1241.84 1577.55C1243.7 1578.59 1245.17 1580.12 1246.24 1582.12C1247.32 1584.12 1247.87 1586.55 1247.87 1589.41ZM1242.25 1589.41C1242.25 1587.56 1241.98 1586 1241.42 1584.73C1240.88 1583.46 1240.11 1582.5 1239.11 1581.84C1238.11 1581.18 1236.94 1580.86 1235.61 1580.86C1234.27 1580.86 1233.1 1581.18 1232.1 1581.84C1231.11 1582.5 1230.33 1583.46 1229.78 1584.73C1229.23 1586 1228.96 1587.56 1228.96 1589.41C1228.96 1591.26 1229.23 1592.82 1229.78 1594.09C1230.33 1595.36 1231.11 1596.32 1232.1 1596.98C1233.1 1597.63 1234.27 1597.96 1235.61 1597.96C1236.94 1597.96 1238.11 1597.63 1239.11 1596.98C1240.11 1596.32 1240.88 1595.36 1241.42 1594.09C1241.98 1592.82 1242.25 1591.26 1242.25 1589.41ZM1252.34 1602.5V1576.32H1262.66C1264.64 1576.32 1266.33 1576.67 1267.73 1577.38C1269.13 1578.08 1270.2 1579.07 1270.94 1580.36C1271.68 1581.64 1272.05 1583.14 1272.05 1584.87C1272.05 1586.61 1271.67 1588.11 1270.92 1589.36C1270.17 1590.6 1269.09 1591.56 1267.66 1592.22C1266.25 1592.89 1264.54 1593.22 1262.52 1593.22H1255.61V1588.77H1261.63C1262.69 1588.77 1263.56 1588.62 1264.26 1588.34C1264.96 1588.05 1265.48 1587.61 1265.82 1587.03C1266.17 1586.45 1266.35 1585.73 1266.35 1584.87C1266.35 1584 1266.17 1583.27 1265.82 1582.67C1265.48 1582.08 1264.96 1581.62 1264.25 1581.32C1263.55 1581 1262.67 1580.84 1261.6 1580.84H1257.87V1602.5H1252.34ZM1266.47 1590.59L1272.98 1602.5H1266.87L1260.5 1590.59H1266.47ZM1275.33 1580.88V1576.32H1296.83V1580.88H1288.82V1602.5H1283.35V1580.88H1275.33Z" fill="white"/>
<path d="M1697 1493H1641C1636.58 1493 1633 1496.58 1633 1501V1529C1633 1533.42 1636.58 1537 1641 1537H1697C1701.42 1537 1705 1533.42 1705 1529V1501C1705 1496.58 1701.42 1493 1697 1493Z" stroke="white" stroke-width="6" stroke-linecap="round" stroke-linejoin="round"/>
<path d="M1649 1493V1477C1649 1471.7 1651.11 1466.61 1654.86 1462.86C1658.61 1459.11 1663.7 1457 1669 1457C1674.3 1457 1679.39 1459.11 1683.14 1462.86C1686.89 1466.61 1689 1471.7 1689 1477V1493" stroke="white" stroke-width="6" stroke-linecap="round" stroke-linejoin="round"/>
<path d="M1563.56 1602.5H1557.62L1566.66 1576.32H1573.8L1582.82 1602.5H1576.89L1570.33 1582.3H1570.13L1563.56 1602.5ZM1563.19 1592.21H1577.2V1596.53H1563.19V1592.21ZM1602.51 1576.32H1608.05V1593.32C1608.05 1595.23 1607.59 1596.9 1606.68 1598.33C1605.78 1599.76 1604.51 1600.88 1602.88 1601.68C1601.26 1602.47 1599.36 1602.87 1597.2 1602.87C1595.02 1602.87 1593.12 1602.47 1591.49 1601.68C1589.87 1600.88 1588.6 1599.76 1587.7 1598.33C1586.79 1596.9 1586.34 1595.23 1586.34 1593.32V1576.32H1591.88V1592.85C1591.88 1593.85 1592.09 1594.73 1592.53 1595.51C1592.97 1596.28 1593.59 1596.89 1594.4 1597.34C1595.2 1597.78 1596.13 1598 1597.2 1598C1598.27 1598 1599.2 1597.78 1600 1597.34C1600.8 1596.89 1601.41 1596.28 1601.85 1595.51C1602.29 1594.73 1602.51 1593.85 1602.51 1592.85V1576.32ZM1611.98 1580.88V1576.32H1633.48V1580.88H1625.46V1602.5H1619.99V1580.88H1611.98ZM1660.25 1589.41C1660.25 1592.26 1659.71 1594.69 1658.63 1596.7C1657.56 1598.7 1656.09 1600.23 1654.23 1601.29C1652.38 1602.33 1650.3 1602.86 1647.99 1602.86C1645.67 1602.86 1643.58 1602.33 1641.73 1601.27C1639.88 1600.22 1638.42 1598.69 1637.34 1596.68C1636.27 1594.68 1635.73 1592.26 1635.73 1589.41C1635.73 1586.55 1636.27 1584.12 1637.34 1582.12C1638.42 1580.12 1639.88 1578.59 1641.73 1577.55C1643.58 1576.49 1645.67 1575.96 1647.99 1575.96C1650.3 1575.96 1652.38 1576.49 1654.23 1577.55C1656.09 1578.59 1657.56 1580.12 1658.63 1582.12C1659.71 1584.12 1660.25 1586.55 1660.25 1589.41ZM1654.64 1589.41C1654.64 1587.56 1654.36 1586 1653.81 1584.73C1653.26 1583.46 1652.49 1582.5 1651.5 1581.84C1650.5 1581.18 1649.33 1580.86 1647.99 1580.86C1646.66 1580.86 1645.49 1581.18 1644.49 1581.84C1643.49 1582.5 1642.72 1583.46 1642.16 1584.73C1641.62 1586 1641.35 1587.56 1641.35 1589.41C1641.35 1591.26 1641.62 1592.82 1642.16 1594.09C1642.72 1595.36 1643.49 1596.32 1644.49 1596.98C1645.49 1597.63 1646.66 1597.96 1647.99 1597.96C1649.33 1597.96 1650.5 1597.63 1651.5 1596.98C1652.49 1596.32 1653.26 1595.36 1653.81 1594.09C1654.36 1592.82 1654.64 1591.26 1654.64 1589.41ZM1676.85 1587.25V1591.57H1664.91V1587.25H1676.85ZM1681.97 1602.5V1576.32H1687.5V1597.94H1698.73V1602.5H1681.97ZM1725.8 1589.41C1725.8 1592.26 1725.26 1594.69 1724.18 1596.7C1723.1 1598.7 1721.64 1600.23 1719.78 1601.29C1717.93 1602.33 1715.85 1602.86 1713.54 1602.86C1711.22 1602.86 1709.13 1602.33 1707.28 1601.27C1705.43 1600.22 1703.97 1598.69 1702.89 1596.68C1701.82 1594.68 1701.28 1592.26 1701.28 1589.41C1701.28 1586.55 1701.82 1584.12 1702.89 1582.12C1703.97 1580.12 1705.43 1578.59 1707.28 1577.55C1709.13 1576.49 1711.22 1575.96 1713.54 1575.96C1715.85 1575.96 1717.93 1576.49 1719.78 1577.55C1721.64 1578.59 1723.1 1580.12 1724.18 1582.12C1725.26 1584.12 1725.8 1586.55 1725.8 1589.41ZM1720.19 1589.41C1720.19 1587.56 1719.91 1586 1719.36 1584.73C1718.81 1583.46 1718.04 1582.5 1717.04 1581.84C1716.05 1581.18 1714.88 1580.86 1713.54 1580.86C1712.2 1580.86 1711.04 1581.18 1710.04 1581.84C1709.04 1582.5 1708.27 1583.46 1707.71 1584.73C1707.17 1586 1706.89 1587.56 1706.89 1589.41C1706.89 1591.26 1707.17 1592.82 1707.71 1594.09C1708.27 1595.36 1709.04 1596.32 1710.04 1596.98C1711.04 1597.63 1712.2 1597.96 1713.54 1597.96C1714.88 1597.96 1716.05 1597.63 1717.04 1596.98C1718.04 1596.32 1718.81 1595.36 1719.36 1594.09C1719.91 1592.82 1720.19 1591.26 1720.19 1589.41ZM1753.37 1585.48H1747.77C1747.67 1584.76 1747.46 1584.12 1747.15 1583.55C1746.83 1582.98 1746.43 1582.5 1745.93 1582.1C1745.44 1581.7 1744.87 1581.39 1744.22 1581.18C1743.58 1580.96 1742.89 1580.86 1742.14 1580.86C1740.78 1580.86 1739.6 1581.19 1738.59 1581.87C1737.59 1582.53 1736.81 1583.5 1736.25 1584.78C1735.7 1586.05 1735.42 1587.59 1735.42 1589.41C1735.42 1591.28 1735.7 1592.84 1736.25 1594.11C1736.82 1595.38 1737.6 1596.34 1738.61 1596.99C1739.61 1597.64 1740.78 1597.96 1742.1 1597.96C1742.84 1597.96 1743.52 1597.86 1744.16 1597.67C1744.79 1597.47 1745.36 1597.19 1745.86 1596.81C1746.35 1596.43 1746.76 1595.96 1747.08 1595.42C1747.42 1594.87 1747.65 1594.25 1747.77 1593.55L1753.37 1593.58C1753.23 1594.78 1752.87 1595.94 1752.29 1597.05C1751.71 1598.16 1750.94 1599.15 1749.97 1600.03C1749.01 1600.9 1747.86 1601.59 1746.52 1602.1C1745.19 1602.61 1743.69 1602.86 1742.01 1602.86C1739.67 1602.86 1737.58 1602.33 1735.74 1601.27C1733.91 1600.22 1732.46 1598.69 1731.4 1596.68C1730.34 1594.68 1729.81 1592.26 1729.81 1589.41C1729.81 1586.55 1730.35 1584.12 1731.42 1582.12C1732.5 1580.12 1733.95 1578.59 1735.79 1577.55C1737.64 1576.49 1739.71 1575.96 1742.01 1575.96C1743.52 1575.96 1744.93 1576.17 1746.23 1576.6C1747.53 1577.03 1748.69 1577.65 1749.69 1578.47C1750.7 1579.28 1751.51 1580.27 1752.15 1581.44C1752.78 1582.62 1753.19 1583.97 1753.37 1585.48ZM1757.71 1602.5V1576.32H1763.25V1587.86H1763.59L1773.01 1576.32H1779.65L1769.93 1588.04L1779.76 1602.5H1773.14L1765.97 1591.74L1763.25 1595.06V1602.5H1757.71Z" fill="white"/>
<path d="M659.374 1865.5V1830.59H673.147C675.794 1830.59 678.05 1831.1 679.914 1832.11C681.777 1833.11 683.198 1834.5 684.175 1836.28C685.164 1838.06 685.658 1840.1 685.658 1842.42C685.658 1844.74 685.158 1846.78 684.158 1848.56C683.158 1850.33 681.709 1851.71 679.811 1852.7C677.925 1853.69 675.641 1854.18 672.959 1854.18H664.181V1848.27H671.766C673.186 1848.27 674.357 1848.02 675.277 1847.53C676.209 1847.03 676.902 1846.35 677.357 1845.47C677.823 1844.59 678.056 1843.57 678.056 1842.42C678.056 1841.26 677.823 1840.25 677.357 1839.39C676.902 1838.51 676.209 1837.84 675.277 1837.36C674.346 1836.87 673.164 1836.62 671.732 1836.62H666.755V1865.5H659.374ZM700.404 1865.5V1830.59H714.176C716.813 1830.59 719.063 1831.06 720.926 1832.01C722.801 1832.94 724.227 1834.26 725.205 1835.98C726.193 1837.68 726.688 1839.69 726.688 1841.99C726.688 1844.31 726.188 1846.31 725.188 1847.98C724.188 1849.64 722.739 1850.91 720.841 1851.8C718.955 1852.68 716.671 1853.12 713.989 1853.12H704.767V1847.19H712.796C714.205 1847.19 715.375 1847 716.307 1846.61C717.239 1846.23 717.932 1845.65 718.387 1844.88C718.852 1844.1 719.085 1843.14 719.085 1841.99C719.085 1840.84 718.852 1839.86 718.387 1839.06C717.932 1838.27 717.233 1837.66 716.29 1837.26C715.358 1836.84 714.182 1836.62 712.762 1836.62H707.784V1865.5H700.404ZM719.256 1849.61L727.932 1865.5H719.784L711.296 1849.61H719.256ZM749.236 1830.59V1865.5H741.855V1830.59H749.236ZM771.567 1830.59L780.004 1857.11H780.328L788.783 1830.59H796.964L784.93 1865.5H775.419L763.368 1830.59H771.567ZM812.494 1865.5H804.585L816.636 1830.59H826.148L838.182 1865.5H830.273L821.528 1838.57H821.255L812.494 1865.5ZM812 1851.78H830.682V1857.54H812V1851.78ZM846.74 1836.68V1830.59H875.41V1836.68H864.723V1865.5H857.427V1836.68H846.74ZM890.083 1865.5V1830.59H913.606V1836.68H897.464V1844.99H912.396V1851.08H897.464V1859.41H913.674V1865.5H890.083ZM979.685 1830.59V1865.5H973.31L958.123 1843.53H957.867V1865.5H950.486V1830.59H956.964L972.032 1852.55H972.339V1830.59H979.685ZM1027.81 1848.05C1027.81 1851.85 1027.09 1855.09 1025.65 1857.76C1024.22 1860.43 1022.26 1862.47 1019.79 1863.88C1017.32 1865.28 1014.55 1865.98 1011.47 1865.98C1008.37 1865.98 1005.58 1865.27 1003.12 1863.86C1000.65 1862.45 998.701 1860.41 997.269 1857.74C995.837 1855.07 995.121 1851.84 995.121 1848.05C995.121 1844.24 995.837 1841 997.269 1838.33C998.701 1835.66 1000.65 1833.62 1003.12 1832.23C1005.58 1830.82 1008.37 1830.11 1011.47 1830.11C1014.55 1830.11 1017.32 1830.82 1019.79 1832.23C1022.26 1833.62 1024.22 1835.66 1025.65 1838.33C1027.09 1841 1027.81 1844.24 1027.81 1848.05ZM1020.33 1848.05C1020.33 1845.58 1019.96 1843.5 1019.22 1841.81C1018.5 1840.11 1017.47 1838.83 1016.14 1837.95C1014.81 1837.08 1013.25 1836.64 1011.47 1836.64C1009.68 1836.64 1008.13 1837.08 1006.8 1837.95C1005.47 1838.83 1004.43 1840.11 1003.7 1841.81C1002.97 1843.5 1002.6 1845.58 1002.6 1848.05C1002.6 1850.51 1002.97 1852.59 1003.7 1854.28C1004.43 1855.98 1005.47 1857.26 1006.8 1858.14C1008.13 1859.01 1009.68 1859.45 1011.47 1859.45C1013.25 1859.45 1014.81 1859.01 1016.14 1858.14C1017.47 1857.26 1018.5 1855.98 1019.22 1854.28C1019.96 1852.59 1020.33 1850.51 1020.33 1848.05ZM1040.31 1836.68V1830.59H1068.98V1836.68H1058.29V1865.5H1051V1836.68H1040.31ZM1083.65 1865.5V1830.59H1107.18V1836.68H1091.03V1844.99H1105.97V1851.08H1091.03V1859.41H1107.24V1865.5H1083.65ZM1141.93 1840.63C1141.8 1839.26 1141.21 1838.19 1140.18 1837.43C1139.14 1836.66 1137.74 1836.28 1135.97 1836.28C1134.76 1836.28 1133.75 1836.45 1132.92 1836.8C1132.09 1837.12 1131.45 1837.59 1131.01 1838.18C1130.58 1838.77 1130.36 1839.44 1130.36 1840.19C1130.34 1840.81 1130.47 1841.36 1130.75 1841.82C1131.05 1842.29 1131.45 1842.69 1131.96 1843.03C1132.47 1843.36 1133.06 1843.65 1133.73 1843.9C1134.4 1844.14 1135.12 1844.35 1135.88 1844.52L1139.02 1845.27C1140.54 1845.61 1141.94 1846.06 1143.21 1846.63C1144.48 1847.2 1145.59 1847.9 1146.52 1848.73C1147.45 1849.56 1148.17 1850.53 1148.68 1851.66C1149.21 1852.78 1149.47 1854.07 1149.48 1855.53C1149.47 1857.66 1148.93 1859.52 1147.85 1861.09C1146.78 1862.64 1145.23 1863.85 1143.21 1864.72C1141.2 1865.57 1138.77 1865.99 1135.93 1865.99C1133.12 1865.99 1130.66 1865.56 1128.57 1864.7C1126.49 1863.84 1124.87 1862.56 1123.69 1860.86C1122.54 1859.16 1121.93 1857.05 1121.87 1854.54H1129.01C1129.09 1855.71 1129.43 1856.69 1130.02 1857.47C1130.62 1858.24 1131.42 1858.83 1132.42 1859.23C1133.43 1859.61 1134.58 1859.81 1135.85 1859.81C1137.1 1859.81 1138.18 1859.62 1139.1 1859.26C1140.04 1858.9 1140.76 1858.39 1141.27 1857.74C1141.78 1857.1 1142.04 1856.35 1142.04 1855.51C1142.04 1854.73 1141.8 1854.07 1141.34 1853.53C1140.88 1853 1140.21 1852.55 1139.33 1852.17C1138.45 1851.8 1137.38 1851.45 1136.1 1851.15L1132.3 1850.19C1129.36 1849.48 1127.04 1848.36 1125.33 1846.84C1123.63 1845.31 1122.78 1843.26 1122.79 1840.68C1122.78 1838.57 1123.34 1836.72 1124.48 1835.14C1125.63 1833.56 1127.2 1832.33 1129.2 1831.44C1131.2 1830.56 1133.47 1830.11 1136.02 1830.11C1138.61 1830.11 1140.87 1830.56 1142.8 1831.44C1144.75 1832.33 1146.26 1833.56 1147.34 1835.14C1148.42 1836.72 1148.97 1838.55 1149.01 1840.63H1141.93ZM1185.46 1865.5V1830.59H1192.84V1859.41H1207.81V1865.5H1185.46ZM1230.03 1830.59V1865.5H1222.65V1830.59H1230.03ZM1269.2 1841.88C1268.96 1841.05 1268.63 1840.31 1268.19 1839.68C1267.76 1839.03 1267.23 1838.48 1266.61 1838.04C1266 1837.59 1265.29 1837.24 1264.5 1837C1263.71 1836.76 1262.84 1836.64 1261.89 1836.64C1260.1 1836.64 1258.53 1837.09 1257.18 1837.97C1255.84 1838.86 1254.8 1840.15 1254.05 1841.84C1253.3 1843.52 1252.92 1845.58 1252.92 1848.01C1252.92 1850.44 1253.29 1852.51 1254.03 1854.22C1254.77 1855.92 1255.81 1857.22 1257.17 1858.12C1258.52 1859.01 1260.11 1859.45 1261.96 1859.45C1263.63 1859.45 1265.05 1859.15 1266.23 1858.56C1267.43 1857.96 1268.34 1857.11 1268.96 1856.02C1269.6 1854.93 1269.92 1853.64 1269.92 1852.15L1271.42 1852.38H1262.42V1846.82H1277.02V1851.22C1277.02 1854.28 1276.38 1856.92 1275.08 1859.12C1273.78 1861.32 1272 1863.01 1269.73 1864.2C1267.46 1865.39 1264.85 1865.98 1261.92 1865.98C1258.65 1865.98 1255.77 1865.26 1253.3 1863.81C1250.82 1862.36 1248.89 1860.3 1247.5 1857.62C1246.13 1854.94 1245.44 1851.76 1245.44 1848.08C1245.44 1845.25 1245.85 1842.73 1246.67 1840.51C1247.5 1838.28 1248.65 1836.4 1250.14 1834.85C1251.63 1833.31 1253.36 1832.13 1255.34 1831.32C1257.32 1830.52 1259.46 1830.11 1261.77 1830.11C1263.75 1830.11 1265.59 1830.4 1267.29 1830.98C1269 1831.55 1270.51 1832.36 1271.82 1833.4C1273.15 1834.45 1274.24 1835.69 1275.08 1837.14C1275.92 1838.57 1276.46 1840.15 1276.7 1841.88H1269.2ZM1292.52 1865.5V1830.59H1299.9V1844.99H1314.88V1830.59H1322.25V1865.5H1314.88V1851.08H1299.9V1865.5H1292.52ZM1336.95 1836.68V1830.59H1365.62V1836.68H1354.94V1865.5H1347.64V1836.68H1336.95Z" fill="white"/>
<path d="M1763.6 1645.75C1812.13 1639.97 1861.22 1650.23 1903.37 1674.96C1945.52 1699.69 1978.42 1737.54 1997.04 1782.73C1998.78 1787.41 1998.78 1792.55 1997.04 1797.23C1989.39 1815.79 1979.27 1833.24 1966.96 1849.1" stroke="white" stroke-opacity="0.05" stroke-width="20.8333" stroke-linecap="round" stroke-linejoin="round"/>
<path d="M1833.42 1834.96C1821.63 1846.34 1805.84 1852.64 1789.45 1852.5C1773.07 1852.36 1757.39 1845.79 1745.8 1834.2C1734.21 1822.61 1727.64 1806.93 1727.5 1790.55C1727.36 1774.16 1733.66 1758.37 1745.04 1746.58" stroke="white" stroke-opacity="0.05" stroke-width="20.8333" stroke-linecap="round" stroke-linejoin="round"/>
<path d="M1904.15 1904.56C1876.51 1920.93 1845.68 1931.17 1813.74 1934.57C1781.8 1937.97 1749.5 1934.47 1719.03 1924.29C1688.57 1914.11 1660.65 1897.5 1637.17 1875.58C1613.69 1853.66 1595.2 1826.94 1582.96 1797.25C1581.22 1792.57 1581.22 1787.43 1582.96 1782.75C1601.43 1737.95 1633.93 1700.36 1675.58 1675.6" stroke="white" stroke-opacity="0.05" stroke-width="20.8333" stroke-linecap="round" stroke-linejoin="round"/>
<path d="M1581.67 1581.67L1998.33 1998.33" stroke="white" stroke-opacity="0.05" stroke-width="20.8333" stroke-linecap="round" stroke-linejoin="round"/>
</g>
<defs>
<clipPath id="clip0_2058_1397">
<rect width="2000" height="2000" fill="white"/>
</clipPath>
</defs>
</svg>
